<?xml version="1.0" encoding="utf-8"?>
<!-- Generator: Adobe Illustrator 21.1.0, SVG Export Plug-In . SVG Version: 6.00 Build 0)  -->
<svg version="1.0" xmlns="http://www.w3.org/2000/svg" xmlns:xlink="http://www.w3.org/1999/xlink" x="0px" y="0px"
	 viewBox="0 0 1200 680" style="enable-background:new 0 0 1200 680;" xml:space="preserve">
<style type="text/css">
	.st0{fill:#D44368;}
	.st1{fill:none;}
	.st2{fill:#F2DDA4;}
	.st3{font-family:'SourceSansPro-Bold';}
	.st4{font-size:87px;}
	.st5{font-family:'SourceSansPro-Semibold';}
	.st6{font-size:50px;}
	.st7{font-family:'SourceSansPro-It';}
	.st8{font-size:38px;}
	.st9{fill:none;stroke:#F2DDA4;stroke-width:2;stroke-miterlimit:10;}
	.st10{fill:none;stroke:#DDB68C;stroke-width:2;stroke-miterlimit:10;}
	.st11{fill:#3C2745;}
	.st12{fill:none;stroke:#0C1C15;stroke-width:2;stroke-linejoin:bevel;stroke-miterlimit:10;}
	.st13{fill:#A2C4BC;}
	.st14{fill:none;stroke:#87AF9D;stroke-width:2;stroke-linejoin:bevel;stroke-miterlimit:10;}
	.st15{fill:#F0EFF4;}
	.st16{fill:none;stroke:#D9D9E2;stroke-width:2;stroke-linejoin:bevel;stroke-miterlimit:10;}
	.st17{fill:#413C57;}
	.st18{fill:#E7EFC5;}
	.st19{fill:none;stroke:#D3D19C;stroke-width:2;stroke-linejoin:bevel;stroke-miterlimit:10;}
	.st20{fill:none;stroke:#413C57;stroke-width:2;stroke-linejoin:bevel;stroke-miterlimit:10;}
	.st21{fill:#808CC3;}
	.st22{fill:none;stroke:#6D6DB2;stroke-width:2;stroke-linejoin:bevel;stroke-miterlimit:10;}
	.st23{fill:none;stroke:#AF286F;stroke-width:2;stroke-linejoin:bevel;stroke-miterlimit:10;}
</style>
<g id="Layer_4">
	<rect class="st0" width="1200" height="680"/>
</g>
<g id="Layer_2">
	<g>
		<rect x="469.7" y="64.1" class="st1" width="760.3" height="372"/>
		<text transform="matrix(1 0 0 1 659.4326 125.0918)"><tspan x="0" y="0" class="st2 st3 st4">Society of</tspan><tspan x="32.5" y="81" class="st2 st3 st4">Monster</tspan><tspan x="-0.8" y="162" class="st2 st3 st4">Magicians</tspan></text>
	</g>
	<rect x="602" y="424" class="st1" width="496" height="113"/>
	<text transform="matrix(1 0 0 1 654.5791 459.2998)"><tspan x="0" y="0" class="st2 st5 st6">1937 Monster Ave.</tspan><tspan x="-14.6" y="60" class="st2 st5 st6">Los Monstruous, CA</tspan></text>
	<rect x="602" y="567" class="st1" width="496" height="113"/>
	<text transform="matrix(1 0 0 1 660.7637 594.048)" class="st2 st7 st8">Meets every Wednesday!</text>
	<rect x="602" y="338.7" class="st1" width="496" height="113"/>
	<text transform="matrix(1 0 0 1 689.4551 373.9997)" class="st2 st5 st6">(212)-123-4567</text>
	<rect x="24.6" y="20.5" class="st9" width="1151.9" height="633.6"/>
</g>
<g id="Layer_3">
	<polygon class="st2" points="330.5,43.5 374.7,180.3 496.4,103.8 442.3,237 584.7,256.7 457.6,324 554.1,430.6 413.5,400.4 
		418.8,544.1 330.5,430.6 242.3,544.1 247.6,400.4 107,430.6 203.5,324 76.4,256.7 218.8,237 164.6,103.8 286.4,180.3 	"/>
	<polygon class="st10" points="327.5,40.5 371.7,177.3 493.4,100.8 439.3,234 581.7,253.7 454.6,321 551.1,427.6 410.5,397.4 
		415.8,541.1 327.5,427.6 239.3,541.1 244.6,397.4 104,427.6 200.5,321 73.4,253.7 215.8,234 161.6,100.8 283.4,177.3 	"/>
	<path class="st11" d="M251.7,466c0,0,25.5,107.3-18.3,155.3h190.3c0,0-62.4-65.8-32.5-151.9L251.7,466z"/>
	<path class="st12" d="M248.7,464c0,0,25.5,107.3-18.3,155.3h190.3c0,0-62.4-65.8-32.5-151.9L248.7,464z"/>
	<path class="st13" d="M377.7,466c0,0,113.3-122.7,51.3-208s-148.7-84-184.7-6.7S273,372.7,271,456L377.7,466z"/>
	<path class="st14" d="M374.7,464c0,0,113.3-122.7,51.3-208s-148.7-84-184.7-6.7S270,370.7,268,454L374.7,464z"/>
	<path class="st15" d="M259,526.7c0,0,93.5-45.9,124.5-19.9c0,0,1.9-35.2,7.7-37.3c0,0-96.8-27.4-139.5-3.4
		C251.7,466,264.9,504.7,259,526.7z"/>
	<path class="st16" d="M256,524.7c0,0,93.5-45.9,124.5-19.9c0,0,1.9-35.2,7.7-37.3c0,0-96.8-27.4-139.5-3.4
		C248.7,464,261.9,502.7,256,524.7z"/>
	<path class="st17" d="M465,479.3c0,0-134-82-285.3,14.7l12,16c0,0,130.7-99.3,263.3-14.7L465,479.3z"/>
	<path class="st12" d="M462,479.3c0,0-134-82-285.3,14.7l12,16c0,0,130.7-99.3,263.3-14.7L462,479.3z"/>
	<path class="st17" d="M443.3,297.9c0,0-13.3-15.2-52-5.2s-61.3-29.3-92.7-17.3s-36.4,84,38.8,102.7s100.9-22.8,102.2-27.9
		S448.1,316.5,443.3,297.9z"/>
	<path class="st18" d="M391.1,281.3c25.7,2.6,15.2-63.3-27.1-72.7C321.7,199.3,291.9,271.3,391.1,281.3z"/>
	<path class="st19" d="M388.1,279.3c25.7,2.6,15.2-63.3-27.1-72.7C318.7,197.3,288.9,269.3,388.1,279.3z"/>
	<path class="st11" d="M368.9,219.7c20.5-4.5,32.7,18.4,20.6,40.2c-12.1,21.7-36.2,11.2-38.3-8.5
		C350.3,242.6,350.7,223.7,368.9,219.7z"/>
	<path class="st12" d="M366.6,218.9c19.3-4.1,31.4,19.7,20.5,41.6s-34.1,10.6-36.5-9.6C349.5,241.9,349.4,222.5,366.6,218.9z"/>
	<path class="st20" d="M375.7,212.8c0,0,58.3-186.1,119.6-76.1"/>
	<path class="st21" d="M486.7,146c8.4-12,34-8,26.7,8.7C506,171.3,477.4,159.2,486.7,146z"/>
	<path class="st20" d="M145.3,212.8c21.3-133.9,144-7,144-7"/>
	<path class="st21" d="M148.3,228.7c12,0,20.3-10.7,4-17.9C138.3,204.7,126.3,228.7,148.3,228.7z"/>
	<path class="st22" d="M483.7,144c8.4-12,34-8,26.7,8.7S474.4,157.2,483.7,144z"/>
	<path class="st22" d="M145.3,226.7c12,0,20.3-10.7,4-17.9C135.3,202.7,123.3,226.7,145.3,226.7z"/>
	<path class="st0" d="M405,382.9c0,0-48.7-66.2-112.7-32.2C292.3,350.7,338.4,405.8,405,382.9z"/>
	<path class="st23" d="M402,376.9c0,0-48.7-66.2-112.7-32.2C289.3,344.7,335.4,399.8,402,376.9z"/>
	<path class="st15" d="M289.3,345.7l44-38.7l73.3,3.3l33,38.8c0,0,7.9-21.7,4.7-42.1l-1.1-10.1c0,0-13.3-13.9-52-5.2
		c0,0-14.4,8.5-53.9-11.7s-54.6,9.7-60.4,27.1S289.3,345.7,289.3,345.7z"/>
	<path class="st16" d="M286.3,343.7l44-38.7l73.3,3.3l33,38.8c0,0,7.9-21.7,4.7-42.1l-1.1-10.1c0,0-13.3-13.9-52-5.2
		c0,0-14.4,8.5-53.9-11.7s-54.6,9.7-60.4,27.1S286.3,343.7,286.3,343.7z"/>
</g>
</svg>
