<?xml version="1.0" encoding="utf-8"?>
<!-- Generator: Adobe Illustrator 21.1.0, SVG Export Plug-In . SVG Version: 6.00 Build 0)  -->
<svg version="1.0" xmlns="http://www.w3.org/2000/svg" xmlns:xlink="http://www.w3.org/1999/xlink" x="0px" y="0px"
	 viewBox="0 0 1200 680" style="enable-background:new 0 0 1200 680;" xml:space="preserve">
<style type="text/css">
	.st0{fill:#413C57;}
	.st1{fill:#A5D2DB;}
	.st2{fill:#C290D1;}
	.st3{fill:#413C57;stroke:#C290D1;stroke-width:9.266;stroke-miterlimit:10;}
	.st4{fill:none;}
	.st5{fill:#F2F2F2;}
	.st6{font-family:'SourceSansPro-Black';}
	.st7{font-size:76px;}
	.st8{font-size:70px;}
</style>
<g id="Layer_8">
	<rect class="st0" width="1200" height="680"/>
</g>
<g id="Layer_9">
	<path class="st1" d="M472.9,655.1V328.4c0-79-64.6-143.6-143.6-143.6h0c-79,0-143.6,64.6-143.6,143.6v326.8
		c0,9.2,0.9,18.2,2.5,26.9h282.2C472.1,673.3,472.9,664.3,472.9,655.1z"/>
	<ellipse class="st0" cx="334.9" cy="277.1" rx="22.6" ry="50.9"/>
	<ellipse class="st0" cx="413.7" cy="351.8" rx="22.6" ry="50.9"/>
	<ellipse class="st0" cx="332.5" cy="455.1" rx="34.4" ry="77.5"/>
	<ellipse class="st0" cx="246.9" cy="351.8" rx="22.6" ry="50.9"/>
	<polygon class="st1" points="340,377.6 342.5,429.2 363.2,397 	"/>
	<polyline class="st1" points="297.2,397 320.4,377.6 317.9,429.2 	"/>
	<path class="st1" d="M568.6,412.1c0-19-15.5-34.5-34.5-34.5h0c-19,0-34.5,15.5-34.5,34.5V682h69V412.1z"/>
	<path class="st1" d="M161.8,420c0-19-15.5-34.5-34.5-34.5h0c-19,0-34.5,15.5-34.5,34.5v262h69V420z"/>
</g>
<g id="Layer_10">
	<g>
		<polygon class="st2" points="473.1,268.7 581.5,207.1 478.4,277.2 		"/>
	</g>
	<g>
		<polygon class="st2" points="413.5,193.7 486.4,90.8 421.8,199.2 		"/>
	</g>
	<g>
		<polygon class="st2" points="319.6,168.8 324.6,47.8 329.6,168.8 		"/>
	</g>
	<g>
		<polygon class="st2" points="176.8,275.2 69,207.1 181.8,266.5 		"/>
	</g>
	<g>
		<polygon class="st2" points="231.9,199.2 167.4,90.8 240.3,193.7 		"/>
	</g>
	<g>
		<polygon class="st2" points="486.4,335 612.6,340 486.4,345 		"/>
	</g>
	<g>
		<polygon class="st2" points="44.6,340 170.8,335 170.8,345 		"/>
	</g>
</g>
<g id="Layer_7">
	<rect x="660.6" y="115.7" class="st3" width="543.4" height="266.1"/>
	<rect x="660.6" y="445.2" class="st3" width="543.4" height="112.6"/>
	<rect x="660.6" y="137.8" class="st4" width="539.4" height="276.2"/>
	<text transform="matrix(1 0 0 1 715.3592 190.6812)"><tspan x="0" y="0" class="st5 st6 st7">Professional</tspan><tspan x="85.3" y="80" class="st5 st6 st7">Scaring</tspan><tspan x="70.9" y="160" class="st5 st6 st7">Services</tspan></text>
	<rect x="660.6" y="470" class="st4" width="539.4" height="84"/>
	<text transform="matrix(1 0 0 1 692.2871 518.7197)" class="st5 st6 st8">(000)-555-8876</text>
</g>
</svg>
