<?xml version="1.0" encoding="utf-8"?>
<!-- Generator: Adobe Illustrator 21.1.0, SVG Export Plug-In . SVG Version: 6.00 Build 0)  -->
<svg version="1.0" id="Layer_2" xmlns="http://www.w3.org/2000/svg" xmlns:xlink="http://www.w3.org/1999/xlink" x="0px" y="0px"
	 viewBox="0 0 1200 680" style="enable-background:new 0 0 1200 680;" xml:space="preserve">
<style type="text/css">
	.st0{fill:#808CC3;stroke:#6D6DB2;stroke-miterlimit:10;}
	.st1{fill:#F2DDA4;stroke:#6D6DB2;stroke-width:3;stroke-linejoin:bevel;stroke-miterlimit:10;}
	.st2{fill:#E7EFC5;stroke:#6D6DB2;stroke-width:3;stroke-miterlimit:10;}
	.st3{fill:#D44368;stroke:#6D6DB2;stroke-width:3;stroke-miterlimit:10;}
	.st4{fill:#F0EFF4;stroke:#6D6DB2;stroke-width:3;stroke-miterlimit:10;}
	.st5{fill:#A2C4BC;stroke:#6D6DB2;stroke-width:3;stroke-miterlimit:10;}
	.st6{fill:#F2DDA4;stroke:#6D6DB2;stroke-width:3;stroke-miterlimit:10;}
	.st7{fill:#B3356A;stroke:#6D6DB2;stroke-width:3;stroke-miterlimit:10;}
	.st8{fill:#C290D1;stroke:#6D6DB2;stroke-width:3;stroke-miterlimit:10;}
	.st9{fill:#A5D2DB;stroke:#6D6DB2;stroke-width:3;stroke-miterlimit:10;}
	.st10{fill:#808CC3;stroke:#6D6DB2;stroke-width:3;stroke-linejoin:bevel;stroke-miterlimit:10;}
	.st11{fill:#D9D9E2;stroke:#6D6DB2;stroke-width:3;stroke-miterlimit:10;}
	.st12{fill:none;stroke:#6D6DB2;stroke-width:3;stroke-miterlimit:10;}
	.st13{fill:none;}
	.st14{fill:#F0EFF4;}
	.st15{font-family:'SourceSansPro-Semibold';}
	.st16{font-size:78px;}
	.st17{font-family:'SourceSansPro-Regular';}
	.st18{font-size:44px;}
	.st19{fill:#F0EFF4;stroke:#6D6DB2;stroke-width:3;stroke-linejoin:round;stroke-miterlimit:10;}
</style>
<rect class="st0" width="1200" height="680"/>
<polygon class="st1" points="780.6,596.3 853.1,600.8 912.4,575.1 976.6,538.1 1049.7,483.5 1064.1,361.7 1019.9,290 968.5,240 
	879.8,212.8 738.5,259.1 695.5,361.8 703.6,513.6 738.5,559.6 "/>
<polygon class="st2" points="976.6,538.1 1027.6,272.2 1002.1,266.9 976.6,342.1 933.6,373.4 891.6,355.5 913.9,280.3 927.4,237.3 
	899.6,241.8 866.5,347.4 794.9,419.9 738.5,496 738.5,559.6 780.6,596.3 853.1,600.8 952.4,557.8 "/>
<polygon class="st3" points="968.5,410.1 919.3,419 883.1,419 854.9,387.7 847.7,430.7 856.6,475.4 904.1,462 "/>
<polygon class="st4" points="922.1,254.3 877.2,242.7 862.9,192.6 905.5,158.4 954.2,167.5 968.5,210.5 942.6,246.3 "/>
<polygon class="st4" points="1002.1,266.9 975.7,254.3 975.7,225.7 988.9,197 1027.6,192.6 1064.1,218 1064.1,258.8 1027.6,272.2 
	"/>
<polyline class="st2" points="857.1,559.6 738.5,526.5 668.7,483.5 754.6,483.5 750.1,452.2 782.3,491.6 862.9,531.8 890.8,535.2 
	"/>
<polygon class="st5" points="540.6,479.9 754.6,483.5 751.5,462.2 540.6,457.5 "/>
<polygon class="st6" points="550.5,457.5 540.6,419 592.6,413.7 582.7,457.5 "/>
<polygon class="st6" points="620.3,459.3 607.8,419 655.2,419 647.6,459.9 "/>
<polygon class="st6" points="686.1,461.2 673.6,432.4 731.8,430.7 722,461 "/>
<polygon class="st7" points="731.8,430.7 738.5,409.2 723.3,387.7 702.7,379.7 678.5,394 668.7,419 673.6,432.4 "/>
<polygon class="st8" points="655.2,419 662.4,398.5 658.8,379.7 624.8,369.8 597.9,394.4 607.8,419 "/>
<polygon class="st9" points="592.6,413.7 597.9,394.4 577.3,369.8 548.7,369.8 529,398.5 540.6,419 "/>
<polygon class="st4" points="849.6,419 892.4,442.1 895,464.6 904.1,462 962.2,413.4 900.5,420.7 883.1,419 854.9,387.7 "/>
<polygon class="st10" points="1012.8,203.9 988.8,221.5 995.4,247.8 1017.8,259.1 1041.4,252.5 1049.7,228.7 1043.1,210.8 "/>
<polygon class="st10" points="944.9,188.4 949.4,203.9 933.3,223.3 908.1,223.3 900.5,200.6 900.5,182.1 916.4,175.6 "/>
<polygon class="st11" points="1059.9,225.7 998.1,197 1035.7,111.1 1022.3,93.2 1041.1,69 1068.8,69 1075.1,83.3 1091.2,69 
	1124.3,79.8 1124.3,109.3 1144,119.2 1135.9,147.4 1102.8,147.4 "/>
<polygon class="st11" points="964.1,197 900.5,168.4 932.3,104.8 912.1,104.8 905,69 942.6,56.5 951.5,63.7 964.1,50.2 990.9,50.2 
	1007.9,69 1007.9,86.9 1017.8,107.5 1009.7,134.4 983.8,133.5 "/>
<polygon class="st12" points="968.5,410.1 919.3,419 883.1,419 854.9,387.7 847.7,430.7 856.6,475.4 904.1,462 "/>
<line class="st12" x1="673.6" y1="432.4" x2="738.5" y2="409.2"/>
<line class="st12" x1="729.4" y1="396.4" x2="668.7" y2="419"/>
<line class="st12" x1="723.3" y1="387.7" x2="678.5" y2="394"/>
<line class="st12" x1="607.8" y1="419" x2="659.2" y2="407.7"/>
<line class="st12" x1="662.4" y1="398.5" x2="603.3" y2="407.7"/>
<line class="st12" x1="597.9" y1="394.4" x2="659.2" y2="385.2"/>
<line class="st12" x1="658.8" y1="379.7" x2="611.9" y2="381.7"/>
<line class="st12" x1="540.6" y1="419" x2="596" y2="401.5"/>
<line class="st12" x1="534.2" y1="407.7" x2="596" y2="392.1"/>
<line class="st12" x1="529" y1="398.5" x2="594.1" y2="389.8"/>
<line class="st12" x1="538.7" y1="384.3" x2="587.2" y2="381.7"/>
<line class="st12" x1="543.7" y1="377.1" x2="577.3" y2="369.8"/>
<rect x="52" y="60" class="st13" width="610" height="172"/>
<text transform="matrix(1 0 0 1 52 115.0674)"><tspan x="0" y="0" class="st14 st15 st16">Topsy Turvy</tspan><tspan x="0" y="93.6" class="st14 st15 st16">Cake Design</tspan></text>
<rect x="52" y="542.6" class="st13" width="610" height="172"/>
<text transform="matrix(1 0 0 1 52 573.9128)" class="st14 st17 st18">info@topsyturvycakedesign.com</text>
<rect x="52" y="379.7" class="st13" width="610" height="172"/>
<text transform="matrix(1 0 0 1 52 410.987)" class="st14 st17 st18">1-123-456-7890</text>
<rect x="56" y="486.5" class="st14" width="76.6" height="39.5"/>
<polygon class="st19" points="132.6,526 92.6,510.1 56,526 "/>
<polygon class="st19" points="56,486.5 92.7,516.6 131.4,486.5 "/>
<polygon class="st19" points="84.3,290 76,308 94,315.3 79.3,343.3 64.7,336 56,353.4 75,361.7 86.7,359.7 109.3,314 109.3,300.7 
	"/>
</svg>
