<?xml version="1.0" encoding="utf-8"?>
<!-- Generator: Adobe Illustrator 21.1.0, SVG Export Plug-In . SVG Version: 6.00 Build 0)  -->
<svg version="1.0" id="Layer_4" xmlns="http://www.w3.org/2000/svg" xmlns:xlink="http://www.w3.org/1999/xlink" x="0px" y="0px"
	 viewBox="0 0 2400 1200" style="enable-background:new 0 0 2400 1200;" xml:space="preserve">
<style type="text/css">
	.st0{fill:#F3E8C2;}
	.st1{fill:#F0F7F6;}
	.st2{fill:#86DFF1;}
	.st3{fill:none;stroke:#75AAE0;stroke-width:3;stroke-linecap:round;stroke-linejoin:round;stroke-miterlimit:10;}
	.st4{fill:#B8F7EF;}
	.st5{fill:#EFB6D4;}
	.st6{fill:none;stroke:#CE91BE;stroke-width:3;stroke-linecap:round;stroke-linejoin:round;stroke-miterlimit:10;}
	.st7{fill:#736DA7;}
	.st8{fill:#F0EFF4;}
	.st9{fill:#E7EFC5;stroke:#E7EFC5;stroke-width:3;stroke-linecap:round;stroke-linejoin:round;stroke-miterlimit:10;}
	.st10{fill:none;stroke:#D9D9E2;stroke-width:3;stroke-linecap:round;stroke-linejoin:round;stroke-miterlimit:10;}
	.st11{fill:none;stroke:#57548C;stroke-width:3;stroke-linecap:round;stroke-linejoin:round;stroke-miterlimit:10;}
	.st12{fill:#57548C;}
	.st13{fill:#E7EFC5;stroke:#D3D19C;stroke-width:3;stroke-linecap:round;stroke-linejoin:round;stroke-miterlimit:10;}
	.st14{fill:none;stroke:#D3DDDB;stroke-width:3;stroke-linecap:round;stroke-linejoin:round;stroke-miterlimit:10;}
	.st15{fill:none;stroke:#E0C9A9;stroke-width:3;stroke-linecap:round;stroke-linejoin:round;stroke-miterlimit:10;}
	.st16{fill:#D3DDDB;}
	.st17{fill:#CE91BE;}
	.st18{fill:none;stroke:#95DBBD;stroke-width:3;stroke-linecap:round;stroke-linejoin:round;stroke-miterlimit:10;}
	.st19{fill:#E0C9A9;}
</style>
<path class="st0" d="M912.9,630.9c0,0-104.2-139.6-161.6,38.8c-57.5,178.4,52,296.1-13.7,317.3l80.1,21.2"/>
<polygon class="st1" points="1615.1,282.2 1661.6,253 1641.1,313.9 "/>
<path class="st1" d="M1641.1,313.9c0,0,3.4,186.8,15.1,213.5c11.6,26.7-12.3,36.9-17.8,43.8c-5.5,6.8-33.5,25.3-43.8,20.9
	s-59.5-38.7-51.3-53c8.2-14.4,19.2-17.8,10.9-40.4c-5.5-10.9-11.9-22.6-11.9-22.6s-13.5-2.7-16.9-7.5l-14.4,256.6
	c0,0,39.7,34.2,19.2,110.8c-20.5,76.6-61.6,115.6-61.6,115.6l-220.3,6.2c0,0-135.1,30.1-243-36.1c-3.6-2.2-7.3-4.6-10.8-7
	c0,0-1.3,2.4-3.8,6.5c-12,19.9-50.7,80.2-96.1,105.7c-23.3,10.3-37.6,41.1-37.6,41.1l-57.5-45.2c0,0,29.4-31.5,24.6-74.6
	c-4.8-43.1-45.8-124.5-8.9-214.9c36.9-90.3,146.4-138.9,221-98.5c43.5,23.6,117.3,33.9,171.1,14.4c38.4-13.9,66.4-57.1,66.4-57.1
	l115.6-189.2l112.9-107.4l46.5-7.2l79.9,7.2L1641.1,313.9z"/>
<path class="st0" d="M1273.6,592.1c0,0,83.1-331.5,295.6-328.4c50.3,4.1,71.8,50.3,71.8,50.3l-92.4-25.7c0,0,13.3,55.4-34.9,66.7
	c-12.3,3.1-16.4,22.6-42.1,24.6c0,0-2.4,16.5-23.1,29.9c-12.3,7.9-28.3-3.9-23.8-17.9c0.2-0.7,0.5-1.3,0.8-1.7
	c0,0-53.4,66.7-35.9,126.2c0,0-25.7-23.6-20.5-56.5C1369.1,459.6,1368,565.4,1273.6,592.1z"/>
<polygon class="st0" points="1241.9,959 1241.9,1134.3 1294.3,1134.3 1294.3,1023.3 1274.4,1014.6 1258.1,994.9 "/>
<path class="st2" d="M1383.1,714.9c0,0-89.6,45.2-65.7,143.7c0,0-31.4-52-71.5-31.5s-36,77.8-36,77.8s-25.6-80.3-81.5-68.1
	l-66.6-1.5c0,0-38.8-3-58.5,53.4c0,0,15.1-80.7-15.1-84.8c-30.1-4.1-69.8,61.6-69.8,61.6s8.2-70.5-51.3-71.8
	c-32.8-1.4-44.5,49.3-44.5,49.3s13.4-48.8-17.3-78.1c0,0,6.9-25.8,14.3-41.6c7.4-15.8,89.8-156.7,217.1-90.3l95.1,39.7l106.7-36.9
	l35.6-45.5L1383.1,714.9z"/>
<path class="st3" d="M1225.3,830.8c-27.7,23.2-25.6,63-25.6,63s-24.2-73.3-80.2-61.1"/>
<path class="st4" d="M1511.1,725.1l-30.1,45.2c0,0-13-75.3-77.3-103.3c-64.3-28.1-112.2-69.4-117.3-79.2l-12.7,4.2l-5.5,18.2
	c0,0,50,93,114.3,112.8c64.3,19.8,80.1,130.7,11.6,197.7l37.6,15.7c0,0,45.2-41.1,66.4-105.4s33.8-69,33.8-69S1522,734,1511.1,725.1
	z"/>
<path class="st5" d="M1195.5,964.1c0,0-17,18.4-36.2,18.4s-51.3-15.6-58.8-9.2c0,0-74.6-108.5-18.5-200.2l26.7-50h56.1
	c0,0-47,94.4-36.5,149.9C1138.8,928.4,1157.8,979.9,1195.5,964.1z"/>
<path class="st1" d="M1307.8,907.8c2.1-1.4,82.8-5.5,123.8,28.7s117,10.3,132.7,16.4c15.7,6.2,69.1,48.6,40.4,82.1
	c-28.7,33.5-81.4,99.2-81.4,99.2h-62.9c0,0,69-96,51.9-113.7c-17.1-17.7-188.9,16.3-227.9,0s-45.2-91.6-34.9-102.5
	C1259.9,907.1,1307.8,907.8,1307.8,907.8z"/>
<path class="st2" d="M1564.4,363.9c0,0,16.4,7.5,17.8,0c1.4-7.5-2.7-27.4-17.8-20.5C1549.4,350.2,1564.4,363.9,1564.4,363.9z"/>
<path class="st0" d="M974.6,617.9c0,0-55.4,60.7-62.9,37.4c0,0-23.9,20.5,0,25.3l4.1,36.9l39-18.5c0,0,17.8,17.8,23.9-12.3
	c0,0-17.1,10.3-15.7-13c1.4-23.3,51.3-48.5,51.3-48.5S994.5,616.8,974.6,617.9z"/>
<polygon class="st5" points="947.3,702.7 940.4,673.8 912.5,688.3 915.8,717.6 "/>
<polygon class="st4" points="1316.7,860.6 1337.3,882.5 1327,907 1303,890 "/>
<polygon class="st4" points="1209.3,906.9 1224.4,925.6 1216.8,952.3 1195.5,929.6 "/>
<polygon class="st4" points="1002.7,890.7 1008.8,917.4 993.1,936.6 988.3,903 "/>
<polygon class="st4" points="917.8,867.5 923.3,898.9 905.5,929.6 897.3,890.7 "/>
<polygon class="st4" points="822,844.9 825.4,875.7 809.7,898.5 804.7,867.5 "/>
<polygon class="st0" points="1483,795.6 1462.5,814.1 1469.3,844.9 1487.8,827.1 "/>
<polygon class="st0" points="1448.1,754.6 1448.1,727.9 1422.8,717.6 1426.2,741.6 "/>
<polygon class="st0" points="1394.7,695.7 1389.3,673.8 1357.8,673.8 1368,691.6 "/>
<polygon class="st0" points="1320.1,645.5 1316.7,626.6 1294.3,621.1 1303,640.3 "/>
<polygon class="st0" points="1506.9,784 1517.9,771.7 1517.9,749.5 1503.5,762.2 "/>
<polygon class="st0" points="1093.6,824 1086.3,809.6 1102.7,795.6 1110.9,809.8 "/>
<polygon class="st0" points="1086.3,858.4 1093.6,840.4 1106.3,858.4 1093.6,871.7 "/>
<polygon class="st0" points="1086.3,900.5 1096.3,881.5 1110.9,898.5 1101.7,913.7 "/>
<polygon class="st0" points="1102.7,929.6 1117.1,939.5 1110.9,954.4 1098.6,942.6 "/>
<polygon class="st0" points="1241.9,959 1248.3,957.8 1250.4,975.4 1263.3,1002.4 1240.8,1013.9 "/>
<polygon class="st4" points="1240.8,1013.9 1263.3,1002.4 1269.9,1011.8 1284.6,1020.6 1240.8,1043.3 "/>
<polygon class="st2" points="1240.8,1043.3 1283,1021 1291.2,1022.8 1294.4,1023.3 1295.5,1050.2 1240.8,1075.5 "/>
<path class="st5" d="M1281.7,564.4c0,0-3.1,17.4-8.1,27.6c-25.2,51.2-93.3,187.9-156.7,191.9c0,0-138.2-38.3-79.4-168.3
	c34.9-76.6,97.8-6.8,113.6,28.1c7.5,12.3,56.1,5.5,56.1,5.5S1220.4,570.6,1281.7,564.4z"/>
<path class="st6" d="M1257.9,607.9c-19.5,36-47,82.6-76.3,117.8"/>
<polygon class="st5" points="1240.8,1075.5 1295.5,1050.2 1295.5,1091.2 1240.8,1122 "/>
<polygon class="st1" points="1548.7,294.4 1615.1,225.6 1609.6,301.6 "/>
<path class="st6" d="M1126.4,773.2c-6,2.7-11.9,4.3-17.7,4.7c0,0-31.4-8.7-57.9-31.9"/>
<path class="st3" d="M1052.9,831.2c0,0-44.1-0.4-58.5,53.4c0,0,13.1-70-9.5-83"/>
<path class="st3" d="M1366.8,714.7c0,0-83.3,36.7-59.4,135.2c0,0-14.3-22.4-36.3-29.8"/>
<polygon class="st5" points="1577.8,302.4 1611,225.6 1605.5,305.7 "/>
<path class="st7" d="M1369.2,383.7c0,0,3.6-187.3-147.3-194.8c-150.9-7.4-140.6,237.9-164.2,257.4c0,0,12.3,0,34.9-7.2
	c0,0,38,162.2-28.7,211.4S955,761.4,972.5,851.7c0,0,20.5-97.5,101.6-101.6c19.5-1,46.2-13.3,46.2-13.3s12.3,105.7,111.9,98.5
	c49.3-2.1,65.7-21.6,65.7-21.6s-119.1-3.6-104.7-108.8c16.1-117.2,92-146.8,92-146.8l32.1-82.1L1369.2,383.7z"/>
<polygon class="st2" points="1255.8,64.8 1255.8,582.3 1285.2,568.1 1317.2,476.1 1316.7,64.8 "/>
<polygon class="st8" points="1166,400.7 1133.6,388.8 1140.8,417.2 "/>
<polygon class="st0" points="1316.7,64.8 1255.8,114.1 1255.8,64.8 "/>
<polygon class="st4" points="1316.7,118.2 1255.8,170 1255.8,114.1 1316.7,64.8 "/>
<path class="st9" d="M1321.4,357c2.8-11-13.5-14.4-13.6,0C1307.8,371.4,1318,370.7,1321.4,357z"/>
<polygon class="st2" points="1255.8,170 1257.2,230 1316.7,186.3 1316.7,118.2 "/>
<polygon class="st5" points="1257.2,230 1316.7,186.3 1316.7,236.6 1255.8,272.9 "/>
<polygon class="st0" points="1255.8,272.9 1255.8,313.9 1317.1,293.4 1316.7,236.6 "/>
<polygon class="st4" points="1255.8,313.9 1317.1,293.4 1316.7,326.2 1255.8,358.7 "/>
<polygon class="st2" points="1255.8,358.7 1255.8,407.2 1316.7,371.3 1316.7,326.2 "/>
<polygon class="st5" points="1255.8,407.2 1255.2,453.5 1316.7,417.2 1316.7,371.3 "/>
<polygon class="st0" points="1255.2,453.5 1316.7,417.2 1317.2,457.1 1255.7,495.8 "/>
<polygon class="st4" points="1317.2,457.1 1317.2,476.1 1311,487.9 1305.8,499.7 1257.8,529.1 1255.7,495.8 "/>
<polygon class="st10" points="1166.9,399.6 1131.6,386.8 1139.8,417.2 "/>
<path class="st11" d="M1195.2,366.2c0,0-27.7,57.5-110.8,66.7"/>
<g>
	<path class="st12" d="M1161.4,366.2c4.6-1.3,9.3-2,14-2.4c4.7-0.4,9.5-0.5,14.2-0.1c4.7,0.4,9.6,1.2,14.1,3.2
		c2.2,1,4.4,2.3,6.1,4.1c1.7,1.8,2.8,4.2,2.9,6.6c-0.7-2.3-2.1-4.2-3.9-5.5c-1.8-1.4-3.8-2.3-5.9-3c-2.2-0.7-4.4-1.2-6.6-1.5
		c-2.2-0.4-4.5-0.6-6.8-0.8c-2.3-0.2-4.6-0.3-6.9-0.4c-2.3-0.1-4.6-0.1-7-0.1C1170.8,366.2,1166.1,366.2,1161.4,366.2z"/>
</g>
<path class="st9" d="M1326.9,248.4c0,0-16,2.6-18.3-21"/>
<path class="st13" d="M1131.6,320.1c0,0,17.9-11.3,17.7-40C1149,251.3,1121.3,299.5,1131.6,320.1z"/>
<g>
	<path class="st12" d="M1129.3,245.1c4.3-3,10.2-3.6,15.4-2.3c5.3,1.3,10,4.3,14,7.8c4,3.6,7.2,7.8,10.1,12.2c2.8,4.4,5.1,9.2,7,14
		c-2.9-4.3-5.8-8.6-8.9-12.7c-1.6-2-3.1-4-4.8-5.9c-0.8-1-1.7-1.9-2.6-2.8c-0.9-0.9-1.8-1.8-2.7-2.6c-1.8-1.7-3.8-3.2-5.9-4.6
		c-2.1-1.4-4.3-2.4-6.7-3.3c-2.3-0.8-4.8-1.3-7.3-1.3C1134.3,243.8,1131.7,244.2,1129.3,245.1z"/>
</g>
<g>
	<path class="st12" d="M1152.5,225.7c2.2-0.2,4.5,0.3,6.6,1.1c0.5,0.2,1,0.4,1.6,0.7c0.5,0.2,1,0.5,1.5,0.7c0.5,0.3,1,0.6,1.4,0.9
		c0.5,0.3,1,0.6,1.4,0.9c0.9,0.7,1.8,1.3,2.6,2.1c0.8,0.8,1.6,1.6,2.4,2.4c0.7,0.9,1.4,1.7,2.1,2.6c0.7,0.9,1.3,1.8,1.9,2.7l0.9,1.4
		c0.3,0.5,0.5,1,0.8,1.5l1.6,3c0.5,1,0.9,2,1.3,3.1c0.4,1,0.9,2,1.2,3.1c0.7,2.1,1.3,4.2,1.8,6.3c0.4,2.2,0.9,4.3,1.2,6.5
		c-0.9-2-1.7-4-2.6-6c-0.4-1-0.9-2-1.3-3c-0.5-1-0.9-2-1.3-3c-1-1.9-1.9-3.9-2.9-5.7l-1.6-2.8c-0.3-0.5-0.5-0.9-0.8-1.4l-0.9-1.3
		c-2.2-3.6-4.9-6.9-8.1-9.7c-0.8-0.7-1.6-1.3-2.4-2c-0.4-0.3-0.9-0.6-1.3-0.9c-0.4-0.3-0.9-0.6-1.3-0.8
		C1156.6,227,1154.6,226.1,1152.5,225.7z"/>
</g>
<path class="st9" d="M1246.8,188l-33.1-5.2c0,0-48.2,34.3-1,38.6c21.8,2,31.2-4.8,35-12.7"/>
<path class="st9" d="M1246.8,291.7c-3.2-3.1-4.4-2.4-4.4-2.4c-13.3-3.1-28.7,26.7,0,23.6c1.7-0.2,3.2-0.4,4.6-0.7"/>
<path class="st9" d="M1344.9,282.7c0,0-35,17.9-17.5,41.5c17.4,23.6,30.5,0,30.5,0L1344.9,282.7z"/>
<path class="st9" d="M1360.8,377.5c0,0-49.1-1.1-28.1,46.1l1.5,2.1l15.3-31.5L1360.8,377.5z"/>
<path class="st9" d="M1248,454c-12.8,1.1-32.8,16-12.8,38.5c3.7,3.3,7.9,3.6,11.8,1.9"/>
<polyline class="st14" points="1606.8,276 1653.4,246.8 1632.8,307.7 "/>
<path class="st15" d="M1603.3,273.2c20.4,14.8,29.6,34.5,29.6,34.5l-31.3-8.7"/>
<path class="st15" d="M1548.3,284.3l-7.8-2.2c0,0,13.3,55.4-34.9,66.7c-12.3,3.1-16.4,22.6-42.1,24.6c0,0-2.4,16.5-23.1,29.9
	c-12.3,7.9-28.3-3.9-23.8-17.9c0.2-0.7,0.5-1.3,0.8-1.7c0,0-53.4,66.7-35.9,126.2c0,0-16.9-20.3-20.5-56.5c0,0-1,105.7-95.5,132.4
	c0,0,83.1-331.5,295.6-328.4c4,0.3,7.8,0.9,11.5,1.7"/>
<path class="st14" d="M1632.8,307.7c0,0,3.4,186.8,15.1,213.5c11.6,26.7-12.3,36.9-17.8,43.8c-5.5,6.8-33.5,25.3-43.8,20.9
	c-10.3-4.4-59.5-38.7-51.3-53s19.2-17.8,10.9-40.4c-5.5-10.9-11.9-22.6-11.9-22.6s-13.5-2.7-16.9-7.5L1502.8,719
	c0,0,39.7,34.2,19.2,110.8c-20.5,76.6-61.6,115.6-61.6,115.6"/>
<path class="st14" d="M796.5,856.8c-5.6-31-7.9-66.4,1.9-104"/>
<path class="st14" d="M791.2,1016.6c0,0,29.4-31.5,24.6-74.6c-1.5-13.8-6.8-31.6-12-52.4"/>
<path class="st14" d="M981.8,916.1c-12.7,21-50.9,79.5-95.4,104.6c-23.3,10.3-37.6,41.1-37.6,41.1"/>
<path class="st14" d="M1068.9,946.2c-24.1-6.6-48.6-16.4-71.8-30.6"/>
<path class="st14" d="M1238.1,951.6c0,0-26,6.2-66.6,6.8"/>
<g>
	<path class="st16" d="M1452.3,1128.2c11.1-16.4,21.8-33,31.6-50.3c4.9-8.6,9.5-17.3,13.6-26.3c2-4.5,3.9-9.1,5.4-13.7
		c1.5-4.6,2.8-9.4,2.9-14.2c0.1-1.2,0-2.3-0.2-3.5c-0.2-1.1-0.5-2.2-1-3.2c-0.5-0.9-1.2-1.8-2-2.4c-0.9-0.6-1.9-1.1-3-1.5
		c-2.2-0.8-4.6-1.3-7-1.6c-2.4-0.4-4.8-0.6-7.3-0.7c-9.8-0.6-19.7-0.2-29.5,0.2c-19.7,1-39.5,2.8-59.2,4.5
		c-19.7,1.6-39.5,3.3-59.3,4.2c-9.9,0.4-19.8,0.7-29.8,0.5c-5-0.1-10-0.4-14.9-1c-5-0.6-9.9-1.4-14.8-3.1c-4.8-1.8-9.2-4.5-13-7.7
		c-3.9-3.3-7.2-7.1-10.1-11.2c-5.7-8.3-9.7-17.6-12.5-27.1c-2.8-9.6-4.5-19.4-5.1-29.3c-0.3-5-0.3-9.9,0.2-14.9
		c0.2-2.5,0.7-4.9,1.2-7.3c0.6-2.4,1.5-4.8,3.1-6.7c-1.6,1.9-2.3,4.4-2.9,6.7c-0.5,2.4-0.9,4.9-1,7.3c-0.4,4.9-0.2,9.9,0.2,14.8
		c0.8,9.8,2.8,19.6,5.7,29c3,9.4,7,18.4,12.7,26.4c2.8,4,6.1,7.6,9.9,10.7c3.7,3.1,8,5.5,12.5,7.2c4.6,1.5,9.4,2.2,14.3,2.8
		c4.9,0.5,9.8,0.8,14.7,0.9c9.9,0.2,19.7-0.1,29.6-0.6c19.7-1,39.5-2.7,59.2-4.4c19.7-1.6,39.5-3.3,59.3-4.3
		c9.9-0.4,19.9-0.7,29.8-0.1c2.5,0.2,5,0.4,7.5,0.8c2.5,0.4,5,0.9,7.5,1.8l0.9,0.4l0.9,0.4c0.6,0.3,1.2,0.7,1.8,1.1
		c1.2,0.9,2.1,2,2.7,3.3c0.6,1.3,1,2.6,1.2,3.9c0.2,1.3,0.3,2.6,0.2,3.9c-0.2,5.2-1.6,10-3.2,14.8c-1.6,4.7-3.6,9.3-5.7,13.8
		c-4.2,9-9,17.7-14,26.3c-5.1,8.5-10.4,16.9-15.8,25.2C1463.8,1112,1458.1,1120.2,1452.3,1128.2z"/>
</g>
<g>
	<path class="st16" d="M1357.7,904.2c4.5,0.7,9.1,1.5,13.6,2.5c4.5,1,9,2.1,13.4,3.4c8.8,2.7,17.5,6,25.6,10.5
		c4.1,2.2,8,4.8,11.6,7.6c1.8,1.4,3.6,2.8,5.5,4.2c0.9,0.7,1.9,1.3,2.8,1.9c1,0.6,1.9,1.2,2.9,1.8l3,1.6l3.1,1.4l1.5,0.7l1.6,0.6
		c1.1,0.4,2.1,0.8,3.2,1.2c4.3,1.5,8.7,2.7,13.2,3.6c17.9,3.5,36.4,3.2,54.6,1.7c9.2-0.7,18.3-1.8,27.5-2.4c2.3-0.2,4.6-0.2,7-0.3
		c2.4,0,4.7,0.1,7.2,0.6c0.6,0.2,1.3,0.4,1.8,0.6c0.6,0.2,1.1,0.5,1.7,0.7l1.6,0.8l1.6,0.8c2.1,1.2,4,2.4,6,3.7
		c7.7,5.3,14.7,11.5,20.9,18.4c6.2,6.9,11.7,14.7,15,23.6c1.6,4.4,2.6,9.2,2.6,14c0,4.8-1.1,9.6-3.2,13.9l-0.8,1.6
		c-0.3,0.5-0.6,1-0.9,1.5c-0.6,1-1.2,2-2,2.9c-0.7,0.9-1.4,1.9-2.2,2.8l-2.2,2.6l-9,10.5c-11.9,14-23.7,28.2-35.4,42.3l-35.3,42.4
		c11.3-14.6,22.7-29,34.2-43.4c11.5-14.4,23.1-28.7,34.8-42.9l8.8-10.6l2.2-2.6c0.8-0.9,1.4-1.8,2.1-2.6c0.7-0.9,1.3-1.8,1.9-2.8
		c0.3-0.5,0.6-0.9,0.9-1.4l0.7-1.5c1.9-4,2.9-8.4,2.9-12.8c0-4.4-0.9-8.8-2.5-13c-3.2-8.4-8.5-15.9-14.6-22.6
		c-6.1-6.7-13-12.7-20.5-17.9c-1.9-1.3-3.8-2.5-5.7-3.6l-1.5-0.8l-1.5-0.7c-0.5-0.2-1-0.4-1.5-0.7c-0.5-0.2-1-0.3-1.4-0.5
		c-4.1-0.9-8.8-0.6-13.3-0.4c-9.1,0.6-18.3,1.6-27.5,2.2c-9.2,0.7-18.4,1.1-27.7,0.9c-9.3-0.2-18.5-1.1-27.6-3.1
		c-4.5-1-9-2.3-13.4-3.9c-1.1-0.4-2.2-0.9-3.2-1.3l-1.6-0.7l-1.6-0.8l-3.1-1.5l-3-1.7c-1-0.5-2-1.2-3-1.9c-1-0.7-2-1.3-2.9-2
		c-1.8-1.4-3.7-2.9-5.4-4.3c-3.6-2.8-7.4-5.4-11.3-7.6c-7.9-4.6-16.4-8.1-25.1-11C1375.8,908.1,1366.8,905.9,1357.7,904.2z"/>
</g>
<path class="st6" d="M1130.7,782.6c-8.7,28.1-15.2,59.9-10.6,84.2c7.9,41.6,25.1,74.4,42.3,91.4c6.5,6.4,9.7,9,19.2,5.1
	c0,0-11.2,13.1-30.4,13.1c-19.2,0-51.3-15.6-58.8-9.2c0,0-5.3-7.7-12-20.7c-18.5-35.9-47.7-112.2-6.5-179.5"/>
<g>
	<path class="st17" d="M1201,643c2.2-9.6,5.6-18.9,9.7-27.9c4.1-9,9.1-17.6,14.9-25.7c3-4,6.1-7.9,9.5-11.5c3.5-3.6,7.1-7,11-10.1
		c4-3,8.2-5.7,12.6-8c4.5-2.2,9.1-3.9,13.9-5.1c-4.6,1.8-9,3.9-13.2,6.4c-4.2,2.5-8.1,5.4-11.8,8.5c-3.7,3.2-7.2,6.6-10.4,10.2
		c-3.3,3.6-6.3,7.4-9.2,11.3c-2.9,3.9-5.5,8-8.1,12.2c-2.5,4.2-4.9,8.4-7.1,12.8C1208.4,624.8,1204.4,633.8,1201,643z"/>
</g>
<line class="st14" x1="1286.1" y1="1128.2" x2="1286.1" y2="1017.1"/>
<line class="st14" x1="1233.7" y1="952.9" x2="1233.7" y2="1128.2"/>
<path class="st3" d="M959.6,804.8c-25.2,14.4-49.8,53.4-49.8,53.4s8-67.4-51.6-68.8c-32.8-1.4-44.5,49.3-44.5,49.3
	s13.4-48.8-17.3-78.1c0,0,3-17.6,10.4-33.4c7.4-15.8,93.7-164.9,221-98.5"/>
<path class="st18" d="M1425.5,929.4c0,0,43.2-40.1,64.4-104.4s33.8-69,33.8-69s-9.9-28.2-20.8-37l-30.1,45.2c0,0-13-75.3-77.3-103.3
	s-112.2-69.4-117.3-79.2l-12.7,4.2l-5.5,18.2c0,0,50,93,114.3,112.8c64.3,19.8,83.5,127.2,15.1,194.3"/>
<path class="st3" d="M1555,354.9c2.3,4.5,6.4,7.7,11.2,9.1c4.9,1.4,11,2.3,11.9-2.2c1.4-7.5-2.7-27.4-17.8-20.5
	C1552.3,344.9,1552.8,350.5,1555,354.9z"/>
<g>
	<path class="st16" d="M1602.7,546.5c0.9-2.3,2-4.6,3.3-6.7c1.3-2.1,2.8-4.2,4.6-6.1c0.9-0.9,1.9-1.8,3.1-2.5
		c1.2-0.7,2.6-1.3,4.2-1.3c0.8,0,1.6,0.1,2.4,0.5c0.8,0.4,1.5,1,2,1.7c1,1.4,1.2,3,1.2,4.4c0,2.8-0.9,5.4-2.1,7.8
		c-0.6,1.2-1.3,2.3-2.1,3.3c-0.8,1.1-1.7,2-2.6,2.9c-0.9,0.9-2,1.7-3.1,2.4c-1.1,0.7-2.3,1.3-3.5,1.7c-2.4,0.9-5,1.2-7.5,0.9
		c2.5-0.4,4.8-1,6.9-2.2c2.1-1.1,3.9-2.7,5.5-4.4c1.5-1.8,2.9-3.7,3.8-5.9c1-2.1,1.6-4.4,1.6-6.5c0-1-0.2-2.1-0.6-2.7
		c-0.2-0.4-0.5-0.5-0.8-0.7c-0.3-0.1-0.8-0.3-1.2-0.3c-0.9-0.1-1.9,0.3-2.9,0.7c-1,0.5-1.9,1.2-2.8,1.9c-1.8,1.5-3.4,3.3-5,5.2
		C1605.7,542.5,1604.2,544.5,1602.7,546.5z"/>
</g>
<g>
	<path class="st17" d="M1086.1,598.5c-1.4,0.5-2.7,1-3.8,1.8c-0.6,0.4-1.1,0.8-1.5,1.2c-0.5,0.4-0.9,0.9-1.3,1.4
		c-0.4,0.5-0.9,1.1-1.3,1.6l-1.4,1.6l-2.8,3.2c-3.7,4.3-7.3,8.6-10.6,13.2c-1.7,2.2-3.3,4.5-4.9,6.9c-1.6,2.3-3.1,4.7-4.5,7.1
		c-2.9,4.8-5.4,9.9-7.7,15.1c1.3-5.6,3.4-10.9,5.9-16.1c1.3-2.6,2.7-5.1,4.1-7.5c1.5-2.4,3.1-4.8,4.7-7.2c3.3-4.7,6.9-9.1,10.7-13.4
		l2.8-3.2l1.4-1.6c0.5-0.5,0.9-1,1.5-1.6C1079.9,598.8,1083.2,597.8,1086.1,598.5z"/>
</g>
<g>
	<path class="st16" d="M1569.8,577c-1.1-5.6-1.8-11.2-2.2-16.9c-0.4-5.6-0.4-11.3,0-17c0.2-2.8,0.5-5.6,1-8.4c0.5-2.8,1.1-5.5,2-8.2
		c1.7-5.4,4.2-10.6,7.8-14.9c-3.4,4.5-5.7,9.7-7,15.1c-0.7,2.7-1.2,5.4-1.6,8.2c-0.4,2.8-0.6,5.5-0.7,8.3
		c-0.2,5.6,0.1,11.1,0.7,16.7c0.6,5.5,1.6,11.1,2.9,16.4l0,0c0.2,0.8-0.3,1.6-1.1,1.8S1570,577.9,1569.8,577
		C1569.8,577.1,1569.8,577,1569.8,577z"/>
</g>
<path class="st15" d="M966.4,611.8c0,0-55.4,60.7-62.9,37.4c0,0-23.9,20.5,0,25.3l4.1,36.9l39-18.5c0,0,17.8,17.8,23.9-12.3
	c0,0-17.1,10.3-15.7-13c1.4-23.3,51.3-48.5,51.3-48.5S986.3,610.6,966.4,611.8z"/>
<path class="st6" d="M1015.2,679.6c-1.9-19.7,1.8-42.9,14.1-70.1c16.7-36.6,39.8-39.8,61.1-29.3"/>
<path class="st11" d="M1247,187.4c-10.7-3-20.4-4-33.3-4.6c-150.9-7.4-140.6,237.9-164.2,257.4c0,0,12.3,0,34.9-7.2
	c0,0,38,162.2-28.7,211.4c-66.7,49.3-108.8,110.8-91.3,201.2c0,0,20.5-97.5,101.6-101.6c19.5-1,46.2-13.3,46.2-13.3
	s12.3,105.7,111.9,98.5c49.3-2.1,65.7-21.6,65.7-21.6s-122.1-4.1-104.7-108.8c3.4-20.6,9.1-38.9,16-54.9"/>
<path class="st11" d="M1364.8,363.5c0,0,1.3-67.9-46.1-126"/>
<polygon class="st6" points="939,696.5 932.2,667.7 904.3,682.1 907.5,711.5 "/>
<polygon class="st18" points="1201.1,900.8 1216.1,919.5 1208.6,946.2 1187.3,923.5 "/>
<polygon class="st18" points="994.4,884.6 1000.6,911.3 984.9,930.4 980.1,896.9 "/>
<polygon class="st18" points="1308.5,854.5 1329,876.4 1318.8,900.8 1294.8,883.9 "/>
<polygon class="st18" points="909.6,861.3 915.1,892.8 897.3,923.5 889.1,884.6 "/>
<polygon class="st18" points="813.8,838.7 817.2,869.5 801.5,892.4 796.5,861.3 "/>
<polyline class="st14" points="1308.5,465.8 1308.5,223.4 1308.5,58.7 1247.6,59.7 1247.6,562.2 "/>
<polygon class="st15" points="1474.8,789.5 1454.3,807.9 1461.1,838.7 1479.6,820.9 "/>
<polygon class="st15" points="1439.9,748.4 1439.9,721.7 1414.6,711.5 1418,735.4 "/>
<polygon class="st15" points="1386.5,689.6 1381,667.7 1349.6,667.7 1359.8,685.5 "/>
<polygon class="st15" points="1311.9,639.3 1308.5,620.4 1286.1,615 1294.8,634.1 "/>
<polygon class="st15" points="1498.7,777.8 1509.7,765.5 1509.7,743.3 1495.3,756 "/>
<polygon class="st15" points="1085.4,817.9 1078.1,803.5 1094.5,789.5 1102.7,803.7 "/>
<polygon class="st15" points="1078.1,852.2 1085.4,834.3 1098.1,852.2 1085.4,865.6 "/>
<polygon class="st15" points="1078.1,894.3 1088.1,875.3 1102.7,892.4 1093.5,907.5 "/>
<polygon class="st15" points="1094.5,923.5 1108.9,933.3 1102.7,948.2 1090.4,936.4 "/>
<g>
	<path class="st16" d="M1516.5,463.7c-3.8-2.1-7.4-4.4-11-6.9c-3.6-2.4-7-5-10.3-7.8c-3.3-2.8-6.4-5.8-9.2-9.1
		c-2.7-3.3-5.2-7-6.4-11.1c1.5,4,4.1,7.5,7,10.6c2.9,3.1,6.2,5.9,9.6,8.4c3.4,2.5,6.9,4.9,10.6,7.1c3.6,2.2,7.4,4.3,11.2,6.1l0,0
		c0.7,0.4,1.1,1.3,0.7,2C1518.3,463.8,1517.4,464.1,1516.5,463.7C1516.6,463.8,1516.6,463.7,1516.5,463.7z"/>
</g>
<polyline class="st14" points="1540.5,292.4 1606.8,223.6 1601.4,299.5 "/>
<polygon class="st6" points="1573.7,296.3 1606.8,223.6 1601.4,299.5 "/>
<g>
	<path class="st12" d="M1110.6,730.8l-1.7-33l4.7,32.7c0.1,0.8-0.5,1.6-1.3,1.7s-1.6-0.5-1.7-1.3
		C1110.6,730.8,1110.6,730.8,1110.6,730.8z"/>
</g>
<g>
	<path class="st19" d="M900.6,622.7c-3.6-4.6-7.5-8.9-11.6-13.1c-4.1-4.2-8.3-8.2-12.7-12c-8.8-7.6-18.5-14.2-29-19.1
		c-5.3-2.4-10.7-4.4-16.4-5.6c-5.6-1.2-11.4-1.6-17.1-1c-2.9,0.2-5.7,0.8-8.4,1.5c-2.7,0.8-5.5,1.7-8,3c-5.2,2.4-10,5.6-14.3,9.4
		c-4.3,3.8-8.2,8-11.8,12.6c-3.5,4.6-6.8,9.3-9.7,14.3c-0.8,1.2-1.5,2.5-2.2,3.8c-0.7,1.3-1.4,2.5-2.1,3.8c-1.3,2.6-2.7,5.2-3.8,7.8
		l-1.8,3.9l-1.7,4c-1.2,2.7-2.2,5.4-3.3,8.1c-4.2,10.8-7.7,21.9-10.8,33.2c-3.1,11.2-5.6,22.6-7.5,34c-4,22.9-5.7,46.2-5.1,69.5
		c0.2,11.6,1.1,23.2,2.3,34.8c1.3,11.6,3,23.1,5,34.6c2,11.5,4.4,22.9,6.9,34.3c2.5,11.4,5.1,22.8,7.2,34.3c1,5.8,2,11.5,2.5,17.4
		c0.5,5.8,0.7,11.7-0.1,17.6c-0.4,2.9-1.1,5.8-2.2,8.5c-1.1,2.7-2.7,5.3-4.6,7.5c-2,2.2-4.3,4-6.8,5.5c-2.5,1.5-5.3,2.5-8,3.4
		c2.7-1,5.4-2.1,7.9-3.6c2.5-1.5,4.7-3.4,6.6-5.6c1.9-2.2,3.4-4.7,4.4-7.4c1-2.7,1.6-5.5,2-8.4c0.7-5.8,0.4-11.6-0.2-17.4
		c-0.6-5.8-1.7-11.5-2.8-17.2c-2.3-11.4-5-22.8-7.6-34.2c-2.6-11.4-5.1-22.8-7.3-34.3c-4.4-23-7.2-46.3-7.8-69.7
		c-0.7-23.4,1-46.9,4.9-70c2-11.6,4.6-23,7.7-34.3c3.1-11.3,6.8-22.4,11-33.4c1.1-2.7,2.1-5.5,3.3-8.1l1.7-4l1.9-4
		c1.2-2.7,2.6-5.3,3.9-7.9c0.7-1.3,1.4-2.6,2.1-3.9c0.7-1.3,1.4-2.6,2.2-3.8c3-5.1,6.3-10,10-14.6c3.7-4.6,7.7-9,12.3-12.8
		c4.5-3.8,9.5-7.1,15-9.6c2.7-1.3,5.5-2.2,8.4-3c2.9-0.7,5.8-1.3,8.8-1.5c5.9-0.6,11.9,0,17.7,1.3c5.8,1.3,11.3,3.4,16.6,5.9
		c10.6,5.2,20.2,12.1,28.9,19.9C885.5,604.8,893.5,613.4,900.6,622.7z"/>
</g>
</svg>
