<?xml version="1.0" encoding="utf-8"?>
<!-- Generator: Adobe Illustrator 21.1.0, SVG Export Plug-In . SVG Version: 6.00 Build 0)  -->
<svg version="1.0" id="Layer_5" xmlns="http://www.w3.org/2000/svg" xmlns:xlink="http://www.w3.org/1999/xlink" x="0px" y="0px"
	 viewBox="0 0 2400 1200" style="enable-background:new 0 0 2400 1200;" xml:space="preserve">
<style type="text/css">
	.st0{fill:#F3E8C2;}
	.st1{fill:#F0F7F6;}
	.st2{fill:#86DFF1;}
	.st3{fill:#EFB6D4;}
	.st4{fill:#B8F7EF;}
	.st5{fill:none;stroke:#CE91BE;stroke-width:3;stroke-linecap:round;stroke-linejoin:round;stroke-miterlimit:10;}
	.st6{fill:#F0EFF4;}
	.st7{fill:#413C57;}
	.st8{fill:#D44368;}
	.st9{fill:#C290D1;stroke:#8F76B7;stroke-width:3;stroke-linecap:round;stroke-linejoin:round;stroke-miterlimit:10;}
	.st10{fill:none;stroke:#D3DDDB;stroke-width:3;stroke-linecap:round;stroke-linejoin:round;stroke-miterlimit:10;}
	.st11{fill:none;stroke:#E0C9A9;stroke-width:3;stroke-linecap:round;stroke-linejoin:round;stroke-miterlimit:10;}
	.st12{fill:none;stroke:#2C2942;stroke-width:3;stroke-linecap:round;stroke-linejoin:round;stroke-miterlimit:10;}
	.st13{fill:#D3DDDB;}
	.st14{fill:#E0C9A9;}
	.st15{fill:none;stroke:#75AAE0;stroke-width:3;stroke-linecap:round;stroke-linejoin:round;stroke-miterlimit:10;}
	.st16{fill:none;stroke:#95DBBD;stroke-width:3;stroke-linecap:round;stroke-linejoin:round;stroke-miterlimit:10;}
	.st17{fill:none;stroke:#D9D9E2;stroke-width:3;stroke-linecap:round;stroke-linejoin:round;stroke-miterlimit:10;}
	.st18{fill:#F0EFF4;stroke:#D9D9E2;stroke-width:2;stroke-linecap:round;stroke-linejoin:round;stroke-miterlimit:10;}
	.st19{fill:#2C2942;}
</style>
<path class="st0" d="M898.6,647.5c0,0-104.2-139.6-161.6,38.8c-57.5,178.4,52,296.1-13.7,317.3l80.1,21.2"/>
<polygon class="st1" points="1614.8,282.2 1661.3,253 1640.8,313.9 "/>
<path class="st1" d="M1640.8,313.9c0,0,3.4,186.8,15.1,213.5c11.6,26.7-12.3,36.9-17.8,43.8c-5.5,6.8-33.5,25.3-43.8,20.9
	c-10.3-4.4-59.5-38.7-51.3-53c8.2-14.4,19.2-17.8,10.9-40.4c-5.5-10.9-11.9-22.6-11.9-22.6s-13.5-2.7-16.9-7.5l-14.4,256.6
	c0,0,39.7,34.2,19.2,110.8c-20.5,76.6-61.6,115.6-61.6,115.6l-220.3,6.2c0,0-135.1,30.1-243-36.1c-3.6-2.2-7.3-4.6-10.8-7
	c0,0-1.3,2.4-3.8,6.5c-12,19.9-50.7,80.2-96.1,105.7c-23.3,10.3-37.6,41.1-37.6,41.1l-57.5-45.2c0,0,29.4-31.5,24.6-74.6
	c-4.8-43.1-45.8-124.5-8.9-214.9c36.9-90.3,146.4-138.9,221-98.5s237.4-42.8,237.4-42.8L1389,402.9l112.9-107.4l46.5-7.2l79.9,7.2
	L1640.8,313.9z"/>
<path class="st1" d="M1307.6,907.8c2.1-1.4,82.8-5.5,123.8,28.7s117,10.3,132.7,16.4c15.7,6.2,69.1,48.6,40.4,82.1
	c-28.7,33.5-81.4,99.2-81.4,99.2h-62.9c0,0,69-96,51.9-113.7c-17.1-17.7-188.9,16.3-227.9,0s-45.2-91.6-34.9-102.5
	C1259.7,907.1,1307.6,907.8,1307.6,907.8z"/>
<polygon class="st2" points="1255.6,64.8 1255.6,577.3 1294.1,558.1 1316.5,499.3 1316.5,64.8 "/>
<polygon class="st0" points="1241.6,959 1241.6,1134.3 1294.1,1134.3 1294.1,1023.5 1281.2,1020.6 1263.8,1006 1251.8,980.7 
	1248.1,958.2 "/>
<path class="st0" d="M1273.4,592.1c0,0,83.1-331.5,295.6-328.4c50.3,4.1,71.8,50.3,71.8,50.3l-92.4-25.7c0,0,13.3,55.4-34.9,66.7
	c-12.3,3.1-16.4,22.6-42.1,24.6c0,0-2.4,16.5-23.1,29.9c-12.3,7.9-28.3-3.9-23.8-17.9c0.2-0.7,0.5-1.3,0.8-1.7
	c0,0-53.4,66.7-35.9,126.2c0,0-25.7-23.6-20.5-56.5C1368.8,459.6,1367.8,565.4,1273.4,592.1z"/>
<polygon class="st1" points="1548.4,294.4 1614.8,225.6 1609.3,301.6 "/>
<polygon class="st3" points="1577.5,302.4 1610.7,225.6 1605.2,305.7 "/>
<path class="st2" d="M1382.2,716.9c0,0-89.6,45.2-65.7,143.7c0,0-31.4-52-71.5-31.5s-36,77.8-36,77.8s-25.6-80.3-81.5-68.1
	l-66.6-1.5c0,0-46,4.9-58.5,53.4c0,0,15.1-80.7-15.1-84.8c-30.1-4.1-69.8,61.6-69.8,61.6s8.2-70.5-51.3-71.8
	c-32.8-1.4-44.5,49.3-44.5,49.3s13.4-48.8-17.3-78.1c0,0,3-17.6,10.4-33.4c7.4-15.8,93.7-164.9,221-98.5l95.1,39.7l106.7-36.9
	l35.6-45.5L1382.2,716.9z"/>
<path class="st4" d="M1510.8,725.1l-30.1,45.2c0,0-13-75.3-77.3-103.3c-64.3-28.1-112.2-69.4-117.3-79.2l-12.7,4.2l-5.5,18.2
	c0,0,50,93,114.3,112.8c64.3,19.8,82.4,128.4,13.9,195.4l35.3,18.1c0,0,45.2-41.1,66.4-105.4c21.2-64.3,33.8-69,33.8-69
	S1521.8,734,1510.8,725.1z"/>
<path class="st3" d="M1195.3,964.1c0,0-17,18.4-36.2,18.4s-51.3-15.6-58.8-9.2c0,0-74.6-108.5-18.5-200.2l26.7-50h56.1
	c0,0-47,94.4-36.5,149.9S1157.5,979.9,1195.3,964.1z"/>
<path class="st3" d="M1280.3,571.5l-12.4,38.7c-35.2,65.7-99.2,170.4-151.2,173.7c0,0-138.2-38.3-79.4-168.3
	c34.9-76.6,97.8-6.8,113.6,28.1c7.5,12.3,56.1,5.5,56.1,5.5s22.2-73.3,74.6-88.6C1285.6,559.4,1280.3,571.5,1280.3,571.5z"/>
<path class="st2" d="M1564.2,363.9c0,0,16.4,7.5,17.8,0c1.4-7.5-2.7-27.4-17.8-20.5C1549.1,350.2,1564.2,363.9,1564.2,363.9z"/>
<path class="st0" d="M974.3,617.9c0,0-55.4,60.7-62.9,37.4c0,0-23.9,20.5,0,25.3l4.1,36.9l39-18.5c0,0,17.8,17.8,23.9-12.3
	c0,0-17.1,10.3-15.7-13c1.4-23.3,51.3-48.5,51.3-48.5S994.3,616.8,974.3,617.9z"/>
<polygon class="st3" points="947,702.7 940.1,673.8 912.2,688.3 915.5,717.6 "/>
<polygon class="st4" points="1316.5,860.6 1337,882.5 1326.7,907 1302.8,890 "/>
<polygon class="st4" points="1209.1,906.9 1224.1,925.6 1216.6,952.3 1195.3,929.6 "/>
<polygon class="st4" points="1002.4,890.7 1008.6,917.4 992.8,936.6 988,903 "/>
<path class="st5" d="M1259.7,604.1c-30.3,56.7-82.2,142.5-129.2,167"/>
<polygon class="st4" points="917.6,867.5 923,898.9 905.2,929.6 897,890.7 "/>
<polygon class="st4" points="821.8,844.9 825.2,875.7 809.5,898.5 804.5,867.5 "/>
<polygon class="st0" points="1482.8,795.6 1462.2,814.1 1469.1,844.9 1487.5,827.1 "/>
<polygon class="st0" points="1447.9,754.6 1447.9,727.9 1422.5,717.6 1426,741.6 "/>
<polygon class="st0" points="1394.5,695.7 1389,673.8 1357.5,673.8 1367.8,691.6 "/>
<polygon class="st0" points="1319.9,645.5 1316.5,626.6 1294.1,621.1 1302.8,640.3 "/>
<polygon class="st0" points="1506.7,784 1517.7,771.7 1517.7,749.5 1503.3,762.2 "/>
<path class="st6" d="M1101.3,278.5c27.8-13.6,53.2-6.2,54.1,22.9c0.8,29.1-18.3,46.6-54.1,37.4
	C1065.6,329.6,1063.1,297.2,1101.3,278.5z"/>
<path class="st7" d="M1219.3,494.5c0,0,46-61.9,91.7-77.3v54.1l-76,33.5L1219.3,494.5z"/>
<polygon class="st0" points="1093.3,824 1086.1,809.6 1102.5,795.6 1110.7,809.8 "/>
<polygon class="st0" points="1086.1,858.4 1093.3,840.4 1106.1,858.4 1093.3,871.7 "/>
<polygon class="st0" points="1086.1,900.5 1096.1,881.5 1110.7,898.5 1101.5,913.7 "/>
<polygon class="st0" points="1102.5,929.6 1116.9,939.5 1110.7,954.4 1098.4,942.6 "/>
<path class="st7" d="M1142.7,326.2c0,0,56.7,74.1,97.9,143.3c29,48.7,19,91.4,3.3,115.4c0,0-32.7,33.9-48.6,99.9
	c-6.1,15.1-30,32.8-30,32.8s22.6,10.7,15.1,24.9c-7.5,14.1-48.6,24.3-48.6,24.3l19.2,28.9l-63.3-33.4l29.8-33.6
	c0,0-89.8-23.5-99.2-97.5c-3.4-26.9,5.1-53.9,22.5-74.6c32.6-38.6,93.1-88,103.2-109.9c12.6-27.4,11.2-87.6-9.3-115L1142.7,326.2z"
	/>
<polygon class="st8" points="1145.3,477.5 1254.9,507.9 1210.6,540.2 "/>
<path class="st7" d="M1123,508.7l-83-57.8l-6.8-19.9l-2.8,13.5l-27.4-16.8l13,17.5l-19.1-7.2l11.4,12.8L997,449l11.4,8.5l20.1,14.5
	c0,0,5.1,55.3,43.3,60.1"/>
<circle class="st9" cx="1112.5" cy="304.5" r="14.9"/>
<polygon class="st0" points="1316.5,64.8 1255.6,114.1 1255.6,64.8 "/>
<polygon class="st4" points="1316.5,118.2 1255.6,170 1255.6,114.1 1316.5,64.8 "/>
<polygon class="st2" points="1255.6,170 1256.9,230 1316.5,186.3 1316.5,118.2 "/>
<polygon class="st3" points="1256.9,230 1316.5,186.3 1316.5,236.6 1255.6,272.9 "/>
<polygon class="st0" points="1255.6,272.9 1255.6,313.9 1316.9,293.4 1316.5,236.6 "/>
<polygon class="st4" points="1255.6,313.9 1316.9,293.4 1316.5,326.2 1255.6,358.7 "/>
<polygon class="st2" points="1255.6,358.7 1255.6,407.2 1316.5,371.3 1316.5,326.2 "/>
<polygon class="st3" points="1255.6,407.2 1254.9,453.5 1316.5,417.2 1316.5,371.3 "/>
<polygon class="st0" points="1254.9,453.5 1316.5,417.2 1317,457.1 1255.5,495.8 "/>
<polygon class="st4" points="1317,457.1 1317,475.8 1307,498.8 1257.5,529.1 1255.5,495.8 "/>
<polygon class="st0" points="1241.6,959 1248.1,957.8 1251.2,977.4 1262.3,1002.8 1240.5,1013.9 "/>
<polygon class="st4" points="1240.5,1013.9 1262.3,1002.8 1268.9,1011.2 1284.5,1021.3 1240.5,1043.3 "/>
<polygon class="st2" points="1240.5,1043.3 1284.5,1021.3 1294.2,1023.5 1295.3,1050.2 1240.5,1075.5 "/>
<polygon class="st3" points="1240.5,1075.5 1295.3,1050.2 1295.3,1091.2 1240.5,1122 "/>
<path class="st7" d="M1306.9,452.1c0,0-18.1,15.6-12.6,20.6c2.6,2.3,3.2,1.8,12.6-5.6c3-2.3,6.6-4.6,10.1-6.8c0,0,4.5-9.9,7.3-15
	l6.7-11.6c-9.8-17.3-28.3-33.7-37.9-30.3c-9.6,3.4,13.7,9.6,13.7,9.6s-28.7,13-25,17.8c3.8,4.8,25.6-4.1,25.6-4.1
	s-18.1,11.6-17.6,22.6C1290.5,460.3,1306.9,452.1,1306.9,452.1z"/>
<polyline class="st10" points="1606.6,276 1653.1,246.8 1632.6,307.7 "/>
<path class="st10" d="M1632.6,307.7c0,0,3.4,186.8,15.1,213.5c11.6,26.7-12.3,36.9-17.8,43.8c-5.5,6.8-33.5,25.3-43.8,20.9
	s-59.5-38.7-51.3-53c8.2-14.4,19.2-17.8,10.9-40.4c-5.5-10.9-11.9-22.6-11.9-22.6s-13.5-2.7-16.9-7.5L1502.6,719
	c0,0,39.7,34.2,19.2,110.8c-20.5,76.6-61.6,115.6-61.6,115.6"/>
<path class="st11" d="M1603,273.2c20.4,14.8,29.6,34.5,29.6,34.5l-31.3-8.7"/>
<path class="st10" d="M796.3,856.8c-5.6-31-7.9-66.4,1.9-104"/>
<path class="st10" d="M791,1016.6c0,0,29.4-31.5,24.6-74.6c-1.5-13.8-6.8-31.6-12-52.4"/>
<path class="st10" d="M981.5,916.1c-12.7,21-50.9,79.5-95.4,104.6c-23.3,10.3-37.6,41.1-37.6,41.1"/>
<path class="st10" d="M1068.7,946.2c-24.1-6.6-48.6-16.4-71.8-30.6"/>
<path class="st10" d="M1237.8,951.6c0,0-26,6.2-66.6,6.8"/>
<path class="st12" d="M1232.4,463.3c4.3-4.6,9.1-9.6,14.4-14.6"/>
<polyline class="st10" points="1308.3,408.1 1308.3,58.7 1247.4,58.7 1247.4,496.3 "/>
<g>
	<path class="st13" d="M1452,1128.2c11.1-16.4,21.8-33,31.6-50.3c4.9-8.6,9.5-17.3,13.6-26.3c2-4.5,3.9-9.1,5.4-13.7
		c1.5-4.6,2.8-9.4,2.9-14.2c0.1-1.2,0-2.3-0.2-3.5c-0.2-1.1-0.5-2.2-1-3.2c-0.5-0.9-1.2-1.8-2-2.4c-0.9-0.6-1.9-1.1-3-1.5
		c-2.2-0.8-4.6-1.3-7-1.6c-2.4-0.4-4.8-0.6-7.3-0.7c-9.8-0.6-19.7-0.2-29.5,0.2c-19.7,1-39.5,2.8-59.2,4.5
		c-19.7,1.6-39.5,3.3-59.3,4.2c-9.9,0.4-19.8,0.7-29.8,0.5c-5-0.1-10-0.4-14.9-1c-5-0.6-9.9-1.4-14.8-3.1c-4.8-1.8-9.2-4.5-13-7.7
		c-3.9-3.3-7.2-7.1-10.1-11.2c-5.7-8.3-9.7-17.6-12.5-27.1c-2.8-9.6-4.5-19.4-5.1-29.3c-0.3-5-0.3-9.9,0.2-14.9
		c0.2-2.5,0.7-4.9,1.2-7.3c0.6-2.4,1.5-4.8,3.1-6.7c-1.6,1.9-2.3,4.4-2.9,6.7c-0.5,2.4-0.9,4.9-1,7.3c-0.4,4.9-0.2,9.9,0.2,14.8
		c0.8,9.8,2.8,19.6,5.7,29c3,9.4,7,18.4,12.7,26.4c2.8,4,6.1,7.6,9.9,10.7c3.7,3.1,8,5.5,12.5,7.2c4.6,1.5,9.4,2.2,14.3,2.8
		c4.9,0.5,9.8,0.8,14.7,0.9c9.9,0.2,19.7-0.1,29.6-0.6c19.7-1,39.5-2.7,59.2-4.4c19.7-1.6,39.5-3.3,59.3-4.3
		c9.9-0.4,19.9-0.7,29.8-0.1c2.5,0.2,5,0.4,7.5,0.8c2.5,0.4,5,0.9,7.5,1.8l0.9,0.4l0.9,0.4c0.6,0.3,1.2,0.7,1.8,1.1
		c1.2,0.9,2.1,2,2.7,3.3c0.6,1.3,1,2.6,1.2,3.9c0.2,1.3,0.3,2.6,0.2,3.9c-0.2,5.2-1.6,10-3.2,14.8c-1.6,4.7-3.6,9.3-5.7,13.8
		c-4.2,9-9,17.7-14,26.3c-5.1,8.5-10.4,16.9-15.8,25.2C1463.5,1112,1457.9,1120.2,1452,1128.2z"/>
</g>
<g>
	<path class="st13" d="M1357.5,904.2c4.5,0.7,9.1,1.5,13.6,2.5c4.5,1,9,2.1,13.4,3.4c8.8,2.7,17.5,6,25.6,10.5
		c4.1,2.2,8,4.8,11.6,7.6c1.8,1.4,3.6,2.8,5.5,4.2c0.9,0.7,1.9,1.3,2.8,1.9c1,0.6,1.9,1.2,2.9,1.8l3,1.6l3.1,1.4l1.5,0.7l1.6,0.6
		c1.1,0.4,2.1,0.8,3.2,1.2c4.3,1.5,8.7,2.7,13.2,3.6c17.9,3.5,36.4,3.2,54.6,1.7c9.2-0.7,18.3-1.8,27.5-2.4c2.3-0.2,4.6-0.2,7-0.3
		c2.4,0,4.7,0.1,7.2,0.6c0.6,0.2,1.3,0.4,1.8,0.6c0.6,0.2,1.1,0.5,1.7,0.7l1.6,0.8l1.6,0.8c2.1,1.2,4,2.4,6,3.7
		c7.7,5.3,14.7,11.5,20.9,18.4c6.2,6.9,11.7,14.7,15,23.6c1.6,4.4,2.6,9.2,2.6,14c0,4.8-1.1,9.6-3.2,13.9l-0.8,1.6
		c-0.3,0.5-0.6,1-0.9,1.5c-0.6,1-1.2,2-2,2.9c-0.7,0.9-1.4,1.9-2.2,2.8l-2.2,2.6l-9,10.5c-11.9,14-23.7,28.2-35.4,42.3l-35.3,42.4
		c11.3-14.6,22.7-29,34.2-43.4c11.5-14.4,23.1-28.7,34.8-42.9l8.8-10.6l2.2-2.6c0.8-0.9,1.4-1.8,2.1-2.6c0.7-0.9,1.3-1.8,1.9-2.8
		c0.3-0.5,0.6-0.9,0.9-1.4l0.7-1.5c1.9-4,2.9-8.4,2.9-12.8c0-4.4-0.9-8.8-2.5-13c-3.2-8.4-8.5-15.9-14.6-22.6
		c-6.1-6.7-13-12.7-20.5-17.9c-1.9-1.3-3.8-2.5-5.7-3.6l-1.5-0.8l-1.5-0.7c-0.5-0.2-1-0.4-1.5-0.7c-0.5-0.2-1-0.3-1.4-0.5
		c-4.1-0.9-8.8-0.6-13.3-0.4c-9.1,0.6-18.3,1.6-27.5,2.2c-9.2,0.7-18.4,1.1-27.7,0.9c-9.3-0.2-18.5-1.1-27.6-3.1
		c-4.5-1-9-2.3-13.4-3.9c-1.1-0.4-2.2-0.9-3.2-1.3l-1.6-0.7l-1.6-0.8l-3.1-1.5l-3-1.7c-1-0.5-2-1.2-3-1.9c-1-0.7-2-1.3-2.9-2
		c-1.8-1.4-3.7-2.9-5.4-4.3c-3.6-2.8-7.4-5.4-11.3-7.6c-7.9-4.6-16.4-8.1-25.1-11C1375.5,908.1,1366.6,905.9,1357.5,904.2z"/>
</g>
<path class="st12" d="M1327,431.8c-9.8-17.3-28.3-33.7-37.9-30.3s13.7,9.6,13.7,9.6s-28.7,13-25,17.8c3.8,4.8,25.6-4.1,25.6-4.1
	s-18.1,11.6-17.6,22.6c0.5,10.9,16.9,2.7,16.9,2.7s-17.3,14.9-12.6,20.6c3.2,3.8,4.9,0.8,12.6-5.6c2.3-1.9,5.1-3.6,7.9-5.4"/>
<path class="st5" d="M1130,784c-8.5,27.7-14.6,58.9-10.1,82.8c7.9,41.6,20.5,81,42.3,91.4c7.2,3.5,10.8,8.1,20.2,4.2
	c0,0-12.3,13.9-31.4,13.9c-19.2,0-51.3-15.6-58.8-9.2c0,0-5.3-7.7-12-20.7c-18.5-35.9-47.7-112.2-6.5-179.5l1.9-3.5"/>
<path class="st11" d="M1548,284.3l-7.8-2.2c0,0,13.3,55.4-34.9,66.7c-12.3,3.1-16.4,22.6-42.1,24.6c0,0-2.4,16.5-23.1,29.9
	c-12.3,7.9-28.3-3.9-23.8-17.9c0.2-0.7,0.5-1.3,0.8-1.7c0,0-53.4,66.7-35.9,126.2c0,0-16.9-20.3-20.5-56.5c0,0-1,105.7-95.5,132.4
	c0,0,83.1-331.5,295.6-328.4c4,0.3,7.8,0.9,11.5,1.7"/>
<path class="st5" d="M1117.1,776.4c-2.9,0.8-5.8,1.3-8.7,1.4c0,0-15.2-4.2-33.3-14.6c-30.2-17.2-68.8-51.6-59.2-111.9"/>
<polyline class="st10" points="1545,287.4 1606.6,223.6 1601.1,299.5 "/>
<g>
	<path class="st14" d="M886.2,639.3c-3.6-4.6-7.5-8.9-11.6-13.1c-4.1-4.2-8.3-8.2-12.7-12c-8.8-7.6-18.5-14.2-29-19.1
		c-5.3-2.4-10.7-4.4-16.4-5.6c-5.6-1.2-11.4-1.6-17.1-1c-2.9,0.2-5.7,0.8-8.4,1.5c-2.7,0.8-5.5,1.7-8,3c-5.2,2.4-10,5.6-14.3,9.4
		c-4.3,3.8-8.2,8-11.8,12.6c-3.5,4.6-6.8,9.3-9.7,14.3c-0.8,1.2-1.5,2.5-2.2,3.8c-0.7,1.3-1.4,2.5-2.1,3.8c-1.3,2.6-2.7,5.2-3.8,7.8
		l-1.8,3.9l-1.7,4c-1.2,2.7-2.2,5.4-3.3,8.1c-4.2,10.8-7.7,21.9-10.8,33.2c-3.1,11.2-5.6,22.6-7.5,34c-4,22.9-5.7,46.2-5.1,69.5
		c0.2,11.6,1.1,23.2,2.3,34.8c1.3,11.6,3,23.1,5,34.6c2,11.5,4.4,22.9,6.9,34.3c2.5,11.4,5.1,22.8,7.2,34.3c1,5.8,2,11.5,2.5,17.4
		c0.5,5.8,0.7,11.7-0.1,17.6c-0.4,2.9-1.1,5.8-2.2,8.5c-1.1,2.7-2.7,5.3-4.6,7.5c-2,2.2-4.3,4-6.8,5.5c-2.5,1.5-5.3,2.5-8,3.4
		c2.7-1,5.4-2.1,7.9-3.6c2.5-1.5,4.7-3.4,6.6-5.6c1.9-2.2,3.4-4.7,4.4-7.4c1-2.7,1.6-5.5,2-8.4c0.7-5.8,0.4-11.6-0.2-17.4
		c-0.6-5.8-1.7-11.5-2.8-17.2c-2.3-11.4-5-22.8-7.6-34.2c-2.6-11.4-5.1-22.8-7.3-34.3c-4.4-23-7.2-46.3-7.8-69.7
		c-0.7-23.4,1-46.9,4.9-70c2-11.6,4.6-23,7.7-34.3c3.1-11.3,6.8-22.4,11-33.4c1.1-2.7,2.1-5.5,3.3-8.1l1.7-4l1.9-4
		c1.2-2.7,2.6-5.3,3.9-7.9c0.7-1.3,1.4-2.6,2.1-3.9c0.7-1.3,1.4-2.6,2.2-3.8c3-5.1,6.3-10,10-14.6c3.7-4.6,7.7-9,12.3-12.8
		c4.5-3.8,9.5-7.1,15-9.6c2.7-1.3,5.5-2.2,8.4-3c2.9-0.7,5.8-1.3,8.8-1.5c5.9-0.6,11.9,0,17.7,1.3c5.8,1.3,11.3,3.4,16.6,5.9
		c10.6,5.2,20.2,12.1,28.9,19.9C871.2,621.4,879.2,630,886.2,639.3z"/>
</g>
<polygon class="st5" points="1573.4,296.3 1606.6,223.6 1601.1,299.5 "/>
<line class="st10" x1="1285.9" y1="1128.2" x2="1285.9" y2="1017.1"/>
<line class="st10" x1="1233.4" y1="952.9" x2="1233.4" y2="1128.2"/>
<path class="st15" d="M1052.7,831.2c0,0-46.2-2.9-58.5,53.4c0,0,15.1-80.7-15.1-84.8c-30.1-4.1-69.6,58.5-69.6,58.5
	s8-67.4-51.6-68.8c-32.8-1.4-44.5,49.3-44.5,49.3s13.4-48.8-17.3-78.1c0,0,3-17.6,10.4-33.4c7-14.8,83.3-146.8,197.6-108.5"/>
<path class="st15" d="M1366.6,714.7c0,0-83.3,36.7-59.4,135.2c0,0-30.3-47.5-70.4-26.9c-40.1,20.5-37.3,70.8-37.3,70.8
	s-24.2-73.3-80.2-61.1"/>
<path class="st16" d="M1425.2,928.4c0,0,43.2-39.1,64.4-103.4s33.8-69,33.8-69s-9.9-28.2-20.8-37l-30.1,45.2c0,0-13-75.3-77.3-103.3
	s-112.2-69.4-117.3-79.2l-12.7,4.2l-5.5,18.2c0,0,50,93,114.3,112.8c64.3,19.8,83.5,127.2,15.1,194.3"/>
<path class="st15" d="M1554.8,354.9c2.3,4.5,6.4,7.7,11.2,9.1c4.9,1.4,11,2.3,11.9-2.2c1.4-7.5-2.7-27.4-17.8-20.5
	C1552.1,344.9,1552.6,350.5,1554.8,354.9z"/>
<g>
	<path class="st13" d="M1602.5,546.5c0.9-2.3,2-4.6,3.3-6.7c1.3-2.1,2.8-4.2,4.6-6.1c0.9-0.9,1.9-1.8,3.1-2.5
		c1.2-0.7,2.6-1.3,4.2-1.3c0.8,0,1.6,0.1,2.4,0.5c0.8,0.4,1.5,1,2,1.7c1,1.4,1.2,3,1.2,4.4c0,2.8-0.9,5.4-2.1,7.8
		c-0.6,1.2-1.3,2.3-2.1,3.3c-0.8,1.1-1.7,2-2.6,2.9c-0.9,0.9-2,1.7-3.1,2.4c-1.1,0.7-2.3,1.3-3.5,1.7c-2.4,0.9-5,1.2-7.5,0.9
		c2.5-0.4,4.8-1,6.9-2.2c2.1-1.1,3.9-2.7,5.5-4.4c1.5-1.8,2.9-3.7,3.8-5.9c1-2.1,1.6-4.4,1.6-6.5c0-1-0.2-2.1-0.6-2.7
		c-0.2-0.4-0.5-0.5-0.8-0.7c-0.3-0.1-0.8-0.3-1.2-0.3c-0.9-0.1-1.9,0.3-2.9,0.7c-1,0.5-1.9,1.2-2.8,1.9c-1.8,1.5-3.4,3.3-5,5.2
		C1605.4,542.5,1604,544.5,1602.5,546.5z"/>
</g>
<g>
	<path class="st13" d="M1569.6,577c-1.1-5.6-1.8-11.2-2.2-16.9c-0.4-5.6-0.4-11.3,0-17c0.2-2.8,0.5-5.6,1-8.4c0.5-2.8,1.1-5.5,2-8.2
		c1.7-5.4,4.2-10.6,7.8-14.9c-3.4,4.5-5.7,9.7-7,15.1c-0.7,2.7-1.2,5.4-1.6,8.2c-0.4,2.8-0.6,5.5-0.7,8.3
		c-0.2,5.6,0.1,11.1,0.7,16.7c0.6,5.5,1.6,11.1,2.9,16.4l0,0c0.2,0.8-0.3,1.6-1.1,1.8S1569.8,577.9,1569.6,577
		C1569.6,577.1,1569.6,577,1569.6,577z"/>
</g>
<path class="st11" d="M966.1,611.8c0,0-55.4,60.7-62.9,37.4c0,0-23.9,20.5,0,25.3l4.1,36.9l39-18.5c0,0,17.8,17.8,23.9-12.3
	c0,0-17.1,10.3-15.7-13c1.4-23.3,51.3-48.5,51.3-48.5S986.1,610.6,966.1,611.8z"/>
<polygon class="st5" points="938.8,696.5 931.9,667.7 904,682.1 907.3,711.5 "/>
<polygon class="st16" points="1200.8,900.8 1215.9,919.5 1208.4,946.2 1187.1,923.5 "/>
<polygon class="st16" points="994.2,884.6 1000.4,911.3 984.6,930.4 979.8,896.9 "/>
<polygon class="st16" points="1308.3,854.5 1328.8,876.4 1318.5,900.8 1294.6,883.9 "/>
<polygon class="st16" points="909.4,861.3 914.8,892.8 897,923.5 888.8,884.6 "/>
<polygon class="st16" points="813.6,838.7 817,869.5 801.2,892.4 796.3,861.3 "/>
<polygon class="st11" points="1474.5,789.5 1454,807.9 1460.9,838.7 1479.3,820.9 "/>
<polygon class="st11" points="1439.6,748.4 1439.6,721.7 1414.3,711.5 1417.8,735.4 "/>
<polygon class="st11" points="1386.3,689.6 1380.8,667.7 1349.3,667.7 1359.6,685.5 "/>
<polygon class="st11" points="1311.7,639.3 1308.3,620.4 1285.9,615 1294.6,634.1 "/>
<polygon class="st11" points="1498.5,777.8 1509.4,765.5 1509.4,743.3 1495.1,756 "/>
<path class="st12" d="M1197.8,642.7c-3.7,10.4-7.4,22.3-10.8,35.9c-6.1,15.1-30,32.8-30,32.8s22.6,10.7,15.1,24.9
	s-48.6,24.3-48.6,24.3l19.2,28.9l-63.3-33.4l29.8-33.6c0,0-89.8-23.5-99.2-97.5c-3.4-27,5.2-54.1,22.8-74.9
	c6.8-8.1,14.9-16.6,23.4-25.3"/>
<path class="st12" d="M1138.8,325.2c13.7,17.4,65.6,84.4,93.6,138.1c23.1,44.4,21,60.4,3.3,115.4"/>
<path class="st12" d="M1093.8,487.9c19.9-19.4,36.9-36.7,41.8-47.4c11.7-25.4,11.3-79-5.2-108.5"/>
<path class="st5" d="M1198.8,643c0,0,22.3-73.6,74.9-88.7"/>
<path class="st17" d="M1093.1,272.3c27.8-13.6,53.2-6.2,54.1,22.9c0.8,29.1-18.3,46.6-54.1,37.4
	C1057.4,323.5,1054.9,291,1093.1,272.3z"/>
<polygon class="st11" points="1085.1,817.9 1077.8,803.5 1094.3,789.5 1102.5,803.7 "/>
<polygon class="st11" points="1077.8,852.2 1085.1,834.3 1097.9,852.2 1085.1,865.6 "/>
<polygon class="st11" points="1077.8,894.3 1087.9,875.3 1102.5,892.4 1093.2,907.5 "/>
<polygon class="st11" points="1094.3,923.5 1108.6,933.3 1102.5,948.2 1090.2,936.4 "/>
<polygon class="st18" points="1163.4,480.2 1171.2,499.1 1179.1,484.5 "/>
<polygon class="st18" points="1186.3,486.5 1193.9,512.2 1205.5,491.8 "/>
<polygon class="st18" points="1215.7,494.7 1221.6,516.4 1232.7,499.4 "/>
<polygon class="st18" points="1193.9,526.1 1205.5,509.9 1212.1,530.5 1204.4,536.1 "/>
<polygon class="st18" points="1186.3,518.7 1182.1,492.5 1172.6,505.6 "/>
<g>
	<path class="st19" d="M1142.3,454.3c0.5,3.8,0.3,7.6-0.2,11.3c-0.5,3.8-1.4,7.5-2.9,11.1c-1.4,3.6-3.4,7-6.1,9.8
		c-1.3,1.4-2.8,2.7-4.4,3.7c-1.7,1-3.4,1.8-5.3,2.2c1.6-1.1,3-2.2,4.4-3.4c1.3-1.2,2.5-2.6,3.5-4.1c2.1-2.9,3.7-6.1,5.1-9.5
		c1.4-3.3,2.4-6.8,3.4-10.4C1140.8,461.6,1141.6,458,1142.3,454.3z"/>
</g>
<polygon class="st12" points="1139.1,473.4 1248.7,503.8 1204.4,536.1 "/>
<path class="st12" d="M1114.8,502.6l-21.1-14.7l-61.9-43.1l-6.8-19.9l-2.8,13.5l-27.4-16.8l13,17.5l-19.1-7.2l11.4,12.8l-11.4-1.8
	l11.4,8.5l20.1,14.5c0,0,5.1,55.3,43.3,60.1"/>
<g>
	<path class="st19" d="M1005.8,447.3c2.3-0.3,4.6-0.2,6.9,0.2c2.3,0.4,4.5,1.2,6.6,2.3c2.1,1.1,4.1,2.6,5.5,4.7
		c0.7,1,1.2,2.1,1.5,3.3c0.3,1.2,0.3,2.4,0.1,3.5c-0.8-2.2-1.9-4-3.4-5.4c-1.5-1.4-3.2-2.5-5.1-3.5c-1.9-1-3.8-1.8-5.9-2.6
		C1010,449,1007.9,448.2,1005.8,447.3z"/>
</g>
<g>
	<path class="st13" d="M1516.3,463.7c-3.8-2.1-7.4-4.4-11-6.9c-3.6-2.4-7-5-10.3-7.8c-3.3-2.8-6.4-5.8-9.2-9.1
		c-2.7-3.3-5.2-7-6.4-11.1c1.5,4,4.1,7.5,7,10.6c2.9,3.1,6.2,5.9,9.6,8.4c3.4,2.5,6.9,4.9,10.6,7.1c3.6,2.2,7.4,4.3,11.2,6.1l0,0
		c0.7,0.4,1.1,1.3,0.7,2C1518,463.8,1517.1,464.1,1516.3,463.7C1516.3,463.8,1516.3,463.7,1516.3,463.7z"/>
</g>
<g>
	<path class="st19" d="M1156.7,712.9l-23.8-6.9l24.5,4c0.8,0.1,1.4,0.9,1.2,1.7s-0.9,1.4-1.7,1.2
		C1156.8,712.9,1156.8,712.9,1156.7,712.9z"/>
</g>
</svg>
