<?xml version="1.0" encoding="utf-8"?>
<!-- Generator: Adobe Illustrator 21.1.0, SVG Export Plug-In . SVG Version: 6.00 Build 0)  -->
<svg version="1.0" id="Layer_6" xmlns="http://www.w3.org/2000/svg" xmlns:xlink="http://www.w3.org/1999/xlink" x="0px" y="0px"
	 viewBox="0 0 2400 1200" style="enable-background:new 0 0 2400 1200;" xml:space="preserve">
<style type="text/css">
	.st0{fill:#F3E8C2;}
	.st1{fill:#F0F7F6;}
	.st2{fill:#86DFF1;}
	.st3{fill:#B8F7EF;}
	.st4{fill:#EFB6D4;}
	.st5{fill:#8B9ECC;}
	.st6{fill:#413C57;}
	.st7{fill:none;stroke:#D3DDDB;stroke-width:3;stroke-linecap:round;stroke-linejoin:round;stroke-miterlimit:10;}
	.st8{fill:none;stroke:#E0C9A9;stroke-width:3;stroke-linecap:round;stroke-linejoin:round;stroke-miterlimit:10;}
	.st9{fill:#D3DDDB;}
	.st10{fill:none;stroke:#CE91BE;stroke-width:3;stroke-linecap:round;stroke-linejoin:round;stroke-miterlimit:10;}
	.st11{fill:none;stroke:#75AAE0;stroke-width:3;stroke-linecap:round;stroke-linejoin:round;stroke-miterlimit:10;}
	.st12{fill:none;stroke:#95DBBD;stroke-width:3;stroke-linecap:round;stroke-linejoin:round;stroke-miterlimit:10;}
	.st13{fill:none;stroke:#2C2942;stroke-width:3;stroke-linecap:round;stroke-linejoin:round;stroke-miterlimit:10;}
	.st14{fill:none;stroke:#6D6DB2;stroke-width:3;stroke-linecap:round;stroke-linejoin:round;stroke-miterlimit:10;}
	.st15{fill:#6D6DB2;}
	.st16{fill:none;stroke:#0C1C15;stroke-width:3;stroke-linecap:round;stroke-linejoin:round;stroke-miterlimit:10;}
	.st17{fill:none;stroke:#413C57;stroke-width:3;stroke-linecap:round;stroke-linejoin:round;stroke-miterlimit:10;}
	.st18{fill:#CE91BE;}
	.st19{fill:#E0C9A9;}
</style>
<path class="st0" d="M914.5,630.9c0,0-104.2-139.6-161.6,38.8c-57.5,178.4,52,296.1-13.7,317.3l80.1,21.2"/>
<polygon class="st1" points="1615.1,282.2 1661.6,253 1641.1,313.9 "/>
<path class="st1" d="M1641.1,313.9c0,0,3.4,186.8,15.1,213.5c11.6,26.7-12.3,36.9-17.8,43.8c-5.5,6.8-33.5,25.3-43.8,20.9
	c-10.3-4.4-59.5-38.7-51.3-53c8.2-14.4,19.2-17.8,10.9-40.4c-5.5-10.9-11.9-22.6-11.9-22.6s-13.5-2.7-16.9-7.5l-14.4,256.6
	c0,0,39.7,34.2,19.2,110.8c-20.5,76.6-61.6,115.6-61.6,115.6l-220.3,6.2c0,0-135.1,30.1-243-36.1c-3.6-2.2-7.3-4.6-10.8-7
	c0,0-1.3,2.4-3.8,6.5c-12,19.9-50.7,80.2-96.1,105.7c-23.3,10.3-37.6,41.1-37.6,41.1l-57.5-45.2c0,0,29.4-31.5,24.6-74.6
	c-4.8-43.1-45.8-124.5-8.9-214.9c36.9-90.3,146.4-138.9,221-98.5c25.7,13.9,61.9,13.2,98.3,6.2c0,0,52.9,19.7,79.6,8.5
	c22.7-9.4,59.6-57.5,59.6-57.5l115.6-189.2l112.9-107.4l46.5-7.2l79.9,7.2L1641.1,313.9z"/>
<polygon class="st2" points="1255.9,64.8 1255.9,577.3 1294.4,558.1 1316.8,499.3 1316.8,64.8 "/>
<path class="st0" d="M1273.7,592.1c0,0,83.1-331.5,295.6-328.4c50.3,4.1,71.8,50.3,71.8,50.3l-92.4-25.7c0,0,13.3,55.4-34.9,66.7
	c-12.3,3.1-16.4,22.6-42.1,24.6c0,0-2.4,16.5-23.1,29.9c-12.3,7.9-28.3-3.9-23.8-17.9c0.2-0.7,0.5-1.3,0.8-1.7
	c0,0-53.4,66.7-35.9,126.2c0,0-25.7-23.6-20.5-56.5C1369.1,459.6,1368.1,565.4,1273.7,592.1z"/>
<polygon class="st0" points="1241.9,959 1241.9,1134.3 1294.4,1134.3 1294.4,1023.3 1274.5,1014.6 1258.2,994.9 "/>
<path class="st2" d="M1383.1,714.9c0,0-89.6,45.2-65.7,143.7c0,0-31.4-52-71.5-31.5c-40.1,20.5-36,77.8-36,77.8
	s-25.6-80.3-81.5-68.1l-66.6-1.5c0,0-43.8-1-58.5,53.4c0,0,15.1-80.7-15.1-84.8c-30.1-4.1-69.8,61.6-69.8,61.6s8.2-70.5-51.3-71.8
	c-32.8-1.4-44.5,49.3-44.5,49.3s13.4-48.8-17.3-78.1c0,0,3-17.6,10.4-33.4c7.4-15.8,93.7-164.9,221-98.5l95.1,39.7l73-16.6
	l33.7-20.3l34.9-43.4L1383.1,714.9z"/>
<path class="st3" d="M1511.1,725.1l-30.1,45.2c0,0-13-75.3-77.3-103.3c-64.3-28.1-112.2-69.4-117.3-79.2l-12.7,4.2l-5.5,18.2
	c0,0,50,93,114.3,112.8c64.3,19.8,80.1,130.7,11.6,197.7l37.6,15.7c0,0,45.2-41.1,66.4-105.4c21.2-64.3,33.8-69,33.8-69
	S1522,734,1511.1,725.1z"/>
<path class="st4" d="M1195.6,964.1c0,0-17,18.4-36.2,18.4c-19.2,0-51.3-15.6-58.8-9.2c0,0-74.6-108.5-18.5-200.2l26.7-50h56.1
	c0,0-47,94.4-36.5,149.9S1157.8,979.9,1195.6,964.1z"/>
<path class="st1" d="M1307.9,907.8c2.1-1.4,82.8-5.5,123.8,28.7c41.1,34.2,117,10.3,132.7,16.4c15.7,6.2,69.1,48.6,40.4,82.1
	c-28.7,33.5-81.4,99.2-81.4,99.2h-62.9c0,0,69-96,51.9-113.7c-17.1-17.7-188.9,16.3-227.9,0s-45.2-91.6-34.9-102.5
	C1260,907.1,1307.9,907.8,1307.9,907.8z"/>
<path class="st4" d="M1277.7,577.6l-9.5,32.6C1233,675.9,1169,780.7,1117,784c0,0-138.2-38.3-79.4-168.3
	c34.9-76.6,97.8-6.8,113.6,28.1c7.5,12.3,56.1,5.5,56.1,5.5s22.3-73.5,74.8-88.7C1282.1,560.5,1277.7,577.5,1277.7,577.6z"/>
<path class="st2" d="M1564.5,365.9c0,0,16.4,7.5,17.8,0c1.4-7.5-2.7-27.4-17.8-20.5C1549.4,352.2,1564.5,365.9,1564.5,365.9z"/>
<path class="st0" d="M974.6,617.9c0,0-55.4,60.7-62.9,37.4c0,0-23.9,20.5,0,25.3l4.1,36.9l39-18.5c0,0,17.8,17.8,23.9-12.3
	c0,0-17.1,10.3-15.7-13s51.3-48.5,51.3-48.5S994.6,616.8,974.6,617.9z"/>
<polygon class="st4" points="947.3,702.7 940.4,673.8 912.5,688.3 915.8,717.6 "/>
<polygon class="st3" points="1316.8,860.6 1337.3,882.5 1327,907 1303.1,890 "/>
<polygon class="st3" points="1209.3,906.9 1224.4,925.6 1216.9,952.3 1195.6,929.6 "/>
<polygon class="st3" points="1002.7,890.7 1008.8,917.4 993.1,936.6 988.3,903 "/>
<polygon class="st3" points="917.8,867.5 923.3,898.9 905.5,929.6 897.3,890.7 "/>
<polygon class="st3" points="822,844.9 825.5,875.7 809.7,898.5 804.8,867.5 "/>
<polygon class="st0" points="1483,795.6 1462.5,814.1 1469.3,844.9 1487.8,827.1 "/>
<polygon class="st0" points="1448.1,754.6 1448.1,727.9 1422.8,717.6 1426.2,741.6 "/>
<polygon class="st0" points="1394.8,695.7 1389.3,673.8 1357.8,673.8 1368.1,691.6 "/>
<polygon class="st0" points="1320.2,645.5 1316.8,626.6 1294.4,621.1 1303.1,640.3 "/>
<polygon class="st0" points="1507,784 1517.9,771.7 1517.9,749.5 1503.6,762.2 "/>
<polygon class="st0" points="1093.6,824 1086.3,809.6 1102.8,795.6 1111,809.8 "/>
<polygon class="st0" points="1086.3,858.4 1093.6,840.4 1106.4,858.4 1093.6,871.7 "/>
<polygon class="st0" points="1086.3,900.5 1096.3,881.5 1111,898.5 1101.7,913.7 "/>
<polygon class="st0" points="1102.8,929.6 1117.1,939.5 1111,954.4 1098.7,942.6 "/>
<polygon class="st0" points="1316.8,64.8 1255.9,114.1 1255.9,64.8 "/>
<polygon class="st3" points="1316.8,118.2 1255.9,170 1255.9,114.1 1316.8,64.8 "/>
<polygon class="st2" points="1255.9,170 1257.2,230 1316.8,186.3 1316.8,118.2 "/>
<polygon class="st4" points="1256.2,230 1316.8,186.3 1316.8,236.6 1255.9,272.9 "/>
<polygon class="st0" points="1255.9,272.9 1255.9,313.9 1317.2,293.4 1316.8,236.6 "/>
<polygon class="st3" points="1255.9,313.9 1317.2,293.4 1316.8,326.2 1255.9,358.7 "/>
<polygon class="st2" points="1255.9,358.7 1255.9,407.2 1316.8,371.3 1316.8,326.2 "/>
<polygon class="st4" points="1255.9,407.2 1255.2,453.5 1316.8,417.2 1316.8,371.3 "/>
<polygon class="st0" points="1255.2,453.5 1316.8,417.2 1317.3,457.1 1255.8,495.8 "/>
<polygon class="st3" points="1317.3,457.1 1317.3,476.1 1311,487.9 1305.8,499.7 1255.8,529.1 1255.8,495.8 "/>
<polygon class="st0" points="1241.9,959 1248.3,957.8 1250.5,975.4 1263.3,1002.4 1240.8,1013.9 "/>
<polygon class="st3" points="1240.8,1013.9 1263.3,1002.4 1270,1011.8 1284.6,1020.6 1240.8,1043.3 "/>
<polygon class="st2" points="1240.8,1043.3 1283,1021 1291.2,1022.8 1294.5,1023.3 1295.5,1050.2 1240.8,1075.5 "/>
<polygon class="st4" points="1240.8,1075.5 1295.5,1050.2 1295.5,1091.2 1240.8,1122 "/>
<path class="st5" d="M1573.3,274.9c0,0-66.7,43.1-92.4,39s-58.5-19.5-43.1-94.4s61.6-76,95.5-78c33.9-2.1,98.5-3.1,127.3,72.9
	s-23.6,83.1-38,78C1608.2,287.2,1592,263.6,1573.3,274.9z"/>
<path d="M1509.6,171.2c0,0-17.4,23.6-5.1,23.1C1516.8,193.8,1520.4,178.4,1509.6,171.2z"/>
<path d="M1572.7,163.8c4.6-8.6,22.6,12.3,14.4,16.4S1568.1,172.5,1572.7,163.8z"/>
<path class="st6" d="M1604,150.8c0,0,13.3-22.1,0-44.7c0,0,51.9-13.9,54.9,17.4c0,0-41.6-25.1-27.5,15.4c0,0-24-5.1-17.5,16.9
	L1604,150.8z"/>
<path class="st6" d="M1462.9,171.2c0,0-26.7-15.9-18.4-41.8c0,0-51.8-7.5-49.3,37.2c0,0,23-29.2,33.8,1.6c0,0,8.8-17.6,21.6,8.1
	C1450.6,176.3,1458.6,181.3,1462.9,171.2z"/>
<path class="st6" d="M1663.6,253.6c-3-20.2-9.7,3.4-32.3,3.4c-22.6,0-14.7,18.5-25.8,15.1c-11.1-3.4-7.9-24.6-30.4-13.7
	c-22.5,10.9-34.8,24.6-47.1,21.2c-12.3-3.4-26.7-11.6-33.5,4.1c-6.8,15.7-21.9,21.2-32.2,11.6c-10.3-9.6-16.8-21.9-29.6-18.5
	c0,0,11.1,32.8,43,33.5c31.8,0.7,92.3-41.8,99.5-41.7c7.2,0.1,15.8,1.4,42.2,20.2C1626.2,295.3,1668.6,286.5,1663.6,253.6z"/>
<polygon class="st1" points="1548.7,294.4 1612.1,223.6 1606.6,301.6 "/>
<line class="st7" x1="1640.8" y1="284.3" x2="1632.9" y2="307.7"/>
<path class="st8" d="M1620.2,288.9c8.7,10.2,12.7,18.8,12.7,18.8l-31.3-8.7"/>
<path class="st8" d="M1548.3,284.3l-7.8-2.2c0,0,13.3,55.4-34.9,66.7c-12.3,3.1-16.4,22.6-42.1,24.6c0,0-2.4,16.5-23.1,29.9
	c-12.3,7.9-28.3-3.9-23.8-17.9c0.2-0.7,0.5-1.3,0.8-1.7c0,0-53.4,66.7-35.9,126.2c0,0-16.9-20.3-20.5-56.5c0,0-1,105.7-95.5,132.4
	c0,0,51.5-205.3,176.9-291.3"/>
<path class="st7" d="M1632.9,312.7c0,0,3.4,181.8,15.1,208.5c11.6,26.7-12.3,36.9-17.8,43.8c-5.5,6.8-33.5,25.3-43.8,20.9
	s-59.5-38.7-51.3-53c8.2-14.4,19.2-17.8,10.9-40.4c-5.5-10.9-11.9-22.6-11.9-22.6s-13.5-2.7-16.9-7.5L1502.9,719
	c0,0,39.7,34.2,19.2,110.8c-20.5,76.6-61.6,115.6-61.6,115.6"/>
<path class="st7" d="M796.6,856.8c-5.6-31-7.9-66.4,1.9-104"/>
<path class="st7" d="M791.3,1016.6c0,0,29.4-31.5,24.6-74.6c-1.5-13.8-6.8-31.6-12-52.4"/>
<path class="st7" d="M981.8,916.1c-12.7,21-50.9,79.5-95.4,104.6c-23.3,10.3-37.6,41.1-37.6,41.1"/>
<path class="st7" d="M1069,946.2c-24.1-6.6-48.6-16.4-71.8-30.6"/>
<path class="st7" d="M1238.1,951.6c0,0-26,6.2-66.6,6.8"/>
<g>
	<path class="st9" d="M1452.3,1128.2c11.1-16.4,21.8-33,31.6-50.3c4.9-8.6,9.5-17.3,13.6-26.3c2-4.5,3.9-9.1,5.4-13.7
		c1.5-4.6,2.8-9.4,2.9-14.2c0.1-1.2,0-2.3-0.2-3.5c-0.2-1.1-0.5-2.2-1-3.2c-0.5-0.9-1.2-1.8-2-2.4c-0.9-0.6-1.9-1.1-3-1.5
		c-2.2-0.8-4.6-1.3-7-1.6c-2.4-0.4-4.8-0.6-7.3-0.7c-9.8-0.6-19.7-0.2-29.5,0.2c-19.7,1-39.5,2.8-59.2,4.5
		c-19.7,1.6-39.5,3.3-59.3,4.2c-9.9,0.4-19.8,0.7-29.8,0.5c-5-0.1-10-0.4-14.9-1c-5-0.6-9.9-1.4-14.8-3.1c-4.8-1.8-9.2-4.5-13-7.7
		c-3.9-3.3-7.2-7.1-10.1-11.2c-5.7-8.3-9.7-17.6-12.5-27.1c-2.8-9.6-4.5-19.4-5.1-29.3c-0.3-5-0.3-9.9,0.2-14.9
		c0.2-2.5,0.7-4.9,1.2-7.3c0.6-2.4,1.5-4.8,3.1-6.7c-1.6,1.9-2.3,4.4-2.9,6.7c-0.5,2.4-0.9,4.9-1,7.3c-0.4,4.9-0.2,9.9,0.2,14.8
		c0.8,9.8,2.8,19.6,5.7,29c3,9.4,7,18.4,12.7,26.4c2.8,4,6.1,7.6,9.9,10.7c3.7,3.1,8,5.5,12.5,7.2c4.6,1.5,9.4,2.2,14.3,2.8
		c4.9,0.5,9.8,0.8,14.7,0.9c9.9,0.2,19.7-0.1,29.6-0.6c19.7-1,39.5-2.7,59.2-4.4c19.7-1.6,39.5-3.3,59.3-4.3
		c9.9-0.4,19.9-0.7,29.8-0.1c2.5,0.2,5,0.4,7.5,0.8c2.5,0.4,5,0.9,7.5,1.8l0.9,0.4l0.9,0.4c0.6,0.3,1.2,0.7,1.8,1.1
		c1.2,0.9,2.1,2,2.7,3.3c0.6,1.3,1,2.6,1.2,3.9c0.2,1.3,0.3,2.6,0.2,3.9c-0.2,5.2-1.6,10-3.2,14.8c-1.6,4.7-3.6,9.3-5.7,13.8
		c-4.2,9-9,17.7-14,26.3c-5.1,8.5-10.4,16.9-15.8,25.2C1463.8,1112,1458.2,1120.2,1452.3,1128.2z"/>
</g>
<g>
	<path class="st9" d="M1357.8,904.2c4.5,0.7,9.1,1.5,13.6,2.5c4.5,1,9,2.1,13.4,3.4c8.8,2.7,17.5,6,25.6,10.5
		c4.1,2.2,8,4.8,11.6,7.6c1.8,1.4,3.6,2.8,5.5,4.2c0.9,0.7,1.9,1.3,2.8,1.9c1,0.6,1.9,1.2,2.9,1.8l3,1.6l3.1,1.4l1.5,0.7l1.6,0.6
		c1.1,0.4,2.1,0.8,3.2,1.2c4.3,1.5,8.7,2.7,13.2,3.6c17.9,3.5,36.4,3.2,54.6,1.7c9.2-0.7,18.3-1.8,27.5-2.4c2.3-0.2,4.6-0.2,7-0.3
		c2.4,0,4.7,0.1,7.2,0.6c0.6,0.2,1.3,0.4,1.8,0.6c0.6,0.2,1.1,0.5,1.7,0.7l1.6,0.8l1.6,0.8c2.1,1.2,4,2.4,6,3.7
		c7.7,5.3,14.7,11.5,20.9,18.4c6.2,6.9,11.7,14.7,15,23.6c1.6,4.4,2.6,9.2,2.6,14c0,4.8-1.1,9.6-3.2,13.9l-0.8,1.6
		c-0.3,0.5-0.6,1-0.9,1.5c-0.6,1-1.2,2-2,2.9c-0.7,0.9-1.4,1.9-2.2,2.8l-2.2,2.6l-9,10.5c-11.9,14-23.7,28.2-35.4,42.3l-35.3,42.4
		c11.3-14.6,22.7-29,34.2-43.4c11.5-14.4,23.1-28.7,34.8-42.9l8.8-10.6l2.2-2.6c0.8-0.9,1.4-1.8,2.1-2.6c0.7-0.9,1.3-1.8,1.9-2.8
		c0.3-0.5,0.6-0.9,0.9-1.4l0.7-1.5c1.9-4,2.9-8.4,2.9-12.8c0-4.4-0.9-8.8-2.5-13c-3.2-8.4-8.5-15.9-14.6-22.6
		c-6.1-6.7-13-12.7-20.5-17.9c-1.9-1.3-3.8-2.5-5.7-3.6l-1.5-0.8l-1.5-0.7c-0.5-0.2-1-0.4-1.5-0.7c-0.5-0.2-1-0.3-1.4-0.5
		c-4.1-0.9-8.8-0.6-13.3-0.4c-9.1,0.6-18.3,1.6-27.5,2.2c-9.2,0.7-18.4,1.1-27.7,0.9c-9.3-0.2-18.5-1.1-27.6-3.1
		c-4.5-1-9-2.3-13.4-3.9c-1.1-0.4-2.2-0.9-3.2-1.3l-1.6-0.7l-1.6-0.8l-3.1-1.5l-3-1.7c-1-0.5-2-1.2-3-1.9c-1-0.7-2-1.3-2.9-2
		c-1.8-1.4-3.7-2.9-5.4-4.3c-3.6-2.8-7.4-5.4-11.3-7.6c-7.9-4.6-16.4-8.1-25.1-11C1375.8,908.1,1366.8,905.9,1357.8,904.2z"/>
</g>
<path class="st10" d="M1135.3,768.5c-10.8,31-20.6,69.8-15.2,98.3c7.9,41.6,20.5,81,42.3,91.4c7.2,3.5,13,5.6,22.4,1.6
	c0,0-14.5,16.5-33.6,16.5c-19.2,0-51.3-15.6-58.8-9.2c0,0-5.3-7.7-12-20.7c-18.5-35.9-47.7-112.2-6.5-179.5"/>
<path class="st10" d="M1259.9,604.1c-35.2,65.7-99.2,170.4-151.2,173.7c0,0-138.2-38.3-79.4-168.3c34.9-76.6,97.8-6.8,113.6,28.1
	c7.5,12.3,56.1,5.5,56.1,5.5s19.2-73.5,71.8-88.7"/>
<polyline class="st7" points="1308.5,459.8 1308.5,58.7 1247.7,58.7 1247.7,560.2 "/>
<line class="st7" x1="1286.2" y1="1128.2" x2="1286.2" y2="1017.1"/>
<line class="st7" x1="1233.7" y1="952.9" x2="1233.7" y2="1128.2"/>
<path class="st11" d="M1052.9,831.2c0,0-47.2-2.7-58.5,53.4c0,0,15.1-80.7-15.1-84.8c-30.1-4.1-69.6,58.5-69.6,58.5
	s8-67.4-51.6-68.8c-32.8-1.4-44.5,49.3-44.5,49.3s13.4-48.8-17.3-78.1c0,0,3-17.6,10.4-33.4c7.4-15.8,93.7-164.9,221-98.5"/>
<path class="st11" d="M1366.9,714.7c0,0-83.3,36.7-59.4,135.2c0,0-30.3-47.5-70.4-26.9c-40.1,20.5-37.3,70.8-37.3,70.8
	s-24.2-73.3-80.2-61.1"/>
<path class="st12" d="M1423.5,930.4c0,0,45.2-41.1,66.4-105.4s33.8-69,33.8-69s-9.9-28.2-20.8-37l-30.1,45.2c0,0-13-75.3-77.3-103.3
	s-112.2-69.4-117.3-79.2l-12.7,4.2l-5.5,18.2c0,0,50,93,114.3,112.8c64.3,19.8,83.5,127.2,15.1,194.3"/>
<path class="st11" d="M1560.4,361.8c0,0,16.4,7.5,17.8,0c1.4-7.5-2.7-27.4-17.8-20.5C1545.3,348.1,1560.4,361.8,1560.4,361.8z"/>
<g>
	<path class="st9" d="M1602.8,546.5c0.9-2.3,2-4.6,3.3-6.7c1.3-2.1,2.8-4.2,4.6-6.1c0.9-0.9,1.9-1.8,3.1-2.5
		c1.2-0.7,2.6-1.3,4.2-1.3c0.8,0,1.6,0.1,2.4,0.5c0.8,0.4,1.5,1,2,1.7c1,1.4,1.2,3,1.2,4.4c0,2.8-0.9,5.4-2.1,7.8
		c-0.6,1.2-1.3,2.3-2.1,3.3c-0.8,1.1-1.7,2-2.6,2.9c-0.9,0.9-2,1.7-3.1,2.4c-1.1,0.7-2.3,1.3-3.5,1.7c-2.4,0.9-5,1.2-7.5,0.9
		c2.5-0.4,4.8-1,6.9-2.2c2.1-1.1,3.9-2.7,5.5-4.4c1.5-1.8,2.9-3.7,3.8-5.9c1-2.1,1.6-4.4,1.6-6.5c0-1-0.2-2.1-0.6-2.7
		c-0.2-0.4-0.5-0.5-0.8-0.7c-0.3-0.1-0.8-0.3-1.2-0.3c-0.9-0.1-1.9,0.3-2.9,0.7c-1,0.5-1.9,1.2-2.8,1.9c-1.8,1.5-3.4,3.3-5,5.2
		C1605.7,542.5,1604.2,544.5,1602.8,546.5z"/>
</g>
<g>
	<path class="st9" d="M1569.8,577c-1.1-5.6-1.8-11.2-2.2-16.9c-0.4-5.6-0.4-11.3,0-17c0.2-2.8,0.5-5.6,1-8.4c0.5-2.8,1.1-5.5,2-8.2
		c1.7-5.4,4.2-10.6,7.8-14.9c-3.4,4.5-5.7,9.7-7,15.1c-0.7,2.7-1.2,5.4-1.6,8.2c-0.4,2.8-0.6,5.5-0.7,8.3
		c-0.2,5.6,0.1,11.1,0.7,16.7c0.6,5.5,1.6,11.1,2.9,16.4l0,0c0.2,0.8-0.3,1.6-1.1,1.8C1570.9,578.4,1570,577.9,1569.8,577
		C1569.8,577.1,1569.8,577,1569.8,577z"/>
</g>
<path class="st8" d="M966.4,611.8c0,0-55.4,60.7-62.9,37.4c0,0-23.9,20.5,0,25.3l4.1,36.9l39-18.5c0,0,17.8,17.8,23.9-12.3
	c0,0-17.1,10.3-15.7-13c1.4-23.3,51.3-48.5,51.3-48.5S986.4,610.6,966.4,611.8z"/>
<polygon class="st10" points="939.1,696.5 932.2,667.7 904.3,682.1 907.6,711.5 "/>
<polygon class="st12" points="1201.1,900.8 1216.2,919.5 1208.6,946.2 1187.3,923.5 "/>
<polygon class="st12" points="994.5,884.6 1000.6,911.3 984.9,930.4 980.1,896.9 "/>
<polygon class="st12" points="1308.5,854.5 1329.1,876.4 1318.8,900.8 1294.9,883.9 "/>
<polygon class="st12" points="909.6,861.3 915.1,892.8 897.3,923.5 889.1,884.6 "/>
<polygon class="st12" points="813.8,838.7 817.3,869.5 801.5,892.4 796.6,861.3 "/>
<polygon class="st8" points="1474.8,789.5 1454.3,807.9 1461.1,838.7 1479.6,820.9 "/>
<polygon class="st8" points="1439.9,748.4 1439.9,721.7 1414.6,711.5 1418,735.4 "/>
<polygon class="st8" points="1386.6,689.6 1381.1,667.7 1349.6,667.7 1359.9,685.5 "/>
<polygon class="st8" points="1312,639.3 1308.5,620.4 1286.2,615 1294.9,634.1 "/>
<polygon class="st8" points="1498.8,777.8 1509.7,765.5 1509.7,743.3 1495.3,756 "/>
<polygon class="st8" points="1085.4,817.9 1078.1,803.5 1094.5,789.5 1102.8,803.7 "/>
<polygon class="st8" points="1078.1,852.2 1085.4,834.3 1098.1,852.2 1085.4,865.6 "/>
<polygon class="st8" points="1078.1,894.3 1088.1,875.3 1102.8,892.4 1093.5,907.5 "/>
<polygon class="st8" points="1094.5,923.5 1108.9,933.3 1102.8,948.2 1090.4,936.4 "/>
<g>
	<path class="st9" d="M1516.6,463.7c-3.8-2.1-7.4-4.4-11-6.9c-3.6-2.4-7-5-10.3-7.8c-3.3-2.8-6.4-5.8-9.2-9.1
		c-2.7-3.3-5.2-7-6.4-11.1c1.5,4,4.1,7.5,7,10.6c2.9,3.1,6.2,5.9,9.6,8.4c3.4,2.5,6.9,4.9,10.6,7.1c3.6,2.2,7.4,4.3,11.2,6.1l0,0
		c0.7,0.4,1.1,1.3,0.7,2C1518.3,463.8,1517.4,464.1,1516.6,463.7C1516.6,463.8,1516.6,463.7,1516.6,463.7z"/>
</g>
<path class="st13" d="M1595.8,144.6c0,0,13.3-22.1,0-44.7c0,0,51.9-13.9,54.9,17.4c0,0-41.6-25.1-27.5,15.4c0,0-24-5.1-17.5,16.9
	L1595.8,144.6z"/>
<path class="st14" d="M1451.4,162.8c20.9-25.1,50.2-26.1,73.6-27.5c33.9-2.1,98.5-3.1,127.3,72.9s-23.6,83.1-38,78
	c-3.6-1.3-7.3-3.7-11.1-6.5"/>
<path class="st14" d="M1565.1,268.7c0,0-66.7,43.1-92.4,39c-25.7-4.1-58.5-19.5-43.1-94.4c3.7-17.8,9.1-31.5,15.6-41.9"/>
<g>
	<path class="st15" d="M1613.8,187.7c-2.1,2.9-4.4,5.7-6.8,8.3c-2.5,2.6-5.1,5.1-7.9,7.4c-2.8,2.3-5.9,4.3-9.1,5.9
		c-3.3,1.6-6.9,2.7-10.6,3c-0.9,0.1-1.9,0.1-2.8,0.1c-0.9,0-1.9-0.1-2.8-0.2c-1.9-0.3-3.7-0.7-5.4-1.3c-3.5-1.2-6.7-3.1-9.8-3.4
		c-0.4-0.1-0.8-0.1-1.2-0.1c-0.4,0-0.8,0-1.2,0.1l-1.2,0.2l-1.2,0.4c-1.5,0.5-3,1.2-4.4,2.2c-2.7,1.9-5.1,4.6-7.5,7.2
		c-2.4,2.6-5,5.3-8.3,7.3c-1.6,1-3.5,1.7-5.4,2.1c-1.9,0.4-3.9,0.4-5.8,0.2c-1.9-0.3-3.7-0.8-5.5-1.5c-1.7-0.7-3.4-1.5-5-2.4
		c-3.1-1.8-6.1-3.5-9.4-4.9c-6.4-2.9-13.3-4.5-20.3-6.4c-3.4-1-7-2.2-10-4.3c-1.5-1.1-2.8-2.3-3.9-3.8c-1.1-1.5-1.9-3.1-2.5-4.8
		c1.5,3.2,3.8,6.1,6.8,7.9c3,1.8,6.4,2.7,9.9,3.5c3.5,0.8,7,1.5,10.5,2.3c3.5,0.9,7,2,10.3,3.3c1.7,0.7,3.3,1.4,5,2.2
		c1.6,0.8,3.3,1.7,4.8,2.5c1.5,0.9,3.1,1.5,4.7,2.2c1.6,0.6,3.2,1,4.9,1.2c1.6,0.2,3.3,0.2,4.8-0.2c1.6-0.3,3.1-1,4.5-1.8
		c2.8-1.7,5.2-4.2,7.6-6.8c2.4-2.6,4.9-5.4,8-7.5c1.6-1.1,3.3-1.9,5.2-2.6l1.4-0.4c0.5-0.1,1-0.1,1.5-0.2c0.5-0.1,1-0.1,1.5-0.1
		c0.5,0,1,0,1.5,0.1c2,0.2,3.8,1,5.5,1.7c1.7,0.7,3.3,1.5,4.9,2.1c1.6,0.6,3.3,1,4.9,1.3c0.8,0.1,1.7,0.2,2.5,0.3c0.9,0,1.7,0,2.6,0
		c3.5-0.1,6.8-1.1,10-2.4c3.2-1.4,6.2-3.2,9.1-5.3C1604,198.1,1609.1,193.1,1613.8,187.7z"/>
</g>
<g>
	<path class="st15" d="M1600.5,181.5c2.4,0,4.7,0.6,7,1.5c2.2,1,4.3,2.3,6,4.1c1.8,1.7,3.1,3.9,3.9,6.2c0.9,2.3,0.9,4.8,0.6,7.1
		c-0.9-2.2-1.6-4.3-2.7-6.2c-1.1-1.9-2.3-3.6-3.9-5.1c-1.5-1.5-3.2-2.9-5-4.1C1604.5,183.8,1602.5,182.7,1600.5,181.5z"/>
</g>
<g>
	<path class="st15" d="M1479.4,191.8c-2.2,1.5-4.4,2.8-6.6,4.2c-2.2,1.3-4.3,2.7-6.4,4.1c-2.1,1.4-4.1,2.8-5.9,4.5
		c-1.8,1.7-3.3,3.6-3.7,6.2c-0.5-1.3-0.4-2.7,0-4.1c0.4-1.3,1.1-2.6,1.9-3.7c1.7-2.2,3.8-4,6-5.5c2.2-1.5,4.6-2.7,7-3.7
		C1474.2,192.9,1476.7,192.1,1479.4,191.8z"/>
</g>
<path class="st16" d="M1509.6,171.2c0,0-17.4,23.6-5.1,23.1C1516.8,193.8,1520.4,178.4,1509.6,171.2z"/>
<path class="st16" d="M1573.3,162.5c4.6-8.6,22.6,12.3,14.4,16.4S1568.7,171.2,1573.3,162.5z"/>
<path class="st13" d="M1454.7,165.1c0,0-26.7-15.9-18.4-41.8c0,0-51.8-7.5-49.3,37.2c0,0,23-29.2,33.8,1.6c0,0,8.8-17.6,21.6,8.1
	C1442.4,170.1,1450.4,175.2,1454.7,165.1z"/>
<path class="st17" d="M1572.2,255.7c-22.5,10.9-34.8,24.6-47.1,21.2c-12.3-3.4-26.7-11.6-33.5,4.1s-21.9,21.2-32.2,11.6
	c-10.3-9.6-16.8-21.9-29.6-18.5c0,0,11.1,32.8,43,33.5c23.9,0.5,63.8-23.3,85.4-35.2"/>
<path class="st17" d="M1603.5,278.8c3.2,2.1,6.8,4.5,10.8,7.4c9,6.5,51.3-2.2,46.4-35.2c-3-20.2-9.7,3.4-32.3,3.4
	c-22.6,0-14.7,18.5-25.8,15.1"/>
<polyline class="st7" points="1548.3,284.3 1606.9,223.6 1601.4,299.5 "/>
<polygon class="st4" points="1579.2,300.3 1612.4,223.5 1606.9,303.6 "/>
<polygon class="st10" points="1573.7,296.3 1606.9,223.6 1601.4,299.5 "/>
<g>
	<path class="st18" d="M1200.5,643.4c-2.7,9.3-6.2,18.2-10.1,26.9c-3.9,8.7-8.4,17.2-13.5,25.3c-5.1,8.1-10.8,15.8-17.3,22.8
		c-3.2,3.5-6.7,6.8-10.3,9.9c-3.6,3.1-7.5,5.9-11.5,8.5c3.9-2.7,7.7-5.6,11.3-8.8c3.5-3.2,6.9-6.5,10-10.1
		c6.3-7.1,11.7-14.9,16.6-23.1c4.8-8.2,9.1-16.7,12.7-25.4c3.7-8.7,6.9-17.7,9.3-26.8l0-0.1c0.2-0.8,1-1.3,1.8-1.1
		C1200.3,641.7,1200.7,642.6,1200.5,643.4C1200.5,643.4,1200.5,643.4,1200.5,643.4z"/>
</g>
<g>
	<path class="st18" d="M1146.6,643c-6.9-7.4-14-14.5-21.6-21.2c-7.5-6.6-15.4-13-24.1-17.8c-4.3-2.3-9-4.3-13.7-4.4
		c-2.3,0-4.6,0.5-6.3,1.9c-0.9,0.7-1.6,1.4-2.5,2.4l-2.5,2.9c-6.6,7.6-12.9,15.4-18.1,23.9c-5.2,8.5-9.5,17.6-11.8,27.2
		c-1.2,4.8-1.8,9.7-1.9,14.7c-0.1,4.9,0.5,9.9,1.5,14.7c2.2,9.7,6.6,18.8,12.3,27c5.7,8.3,12.7,15.6,20.1,22.4
		c-4-3.1-7.8-6.5-11.3-10.1c-3.6-3.6-7-7.4-10-11.4c-3.1-4.1-5.8-8.4-8.1-13c-2.3-4.6-4.1-9.4-5.3-14.4c-2.5-10-2.4-20.6-0.1-30.6
		c2.3-10,6.7-19.5,12.1-28.1c5.4-8.7,11.8-16.6,18.6-24.1l2.5-2.8c0.8-0.9,1.8-2,3-2.8c2.3-1.7,5.2-2.3,7.9-2.3
		c2.7,0.1,5.3,0.7,7.8,1.6c2.4,0.9,4.8,2.1,7,3.3c4.5,2.5,8.6,5.5,12.6,8.7c4,3.2,7.8,6.5,11.4,10c3.7,3.5,7.2,7.1,10.6,10.8
		C1140.1,635.3,1143.5,639.1,1146.6,643z"/>
</g>
<g>
	<path class="st15" d="M1535.9,230.6c4.1,0.3,8.2,0.2,12.3,0c2-0.2,4-0.3,6-0.7c2-0.3,4-0.6,5.9-1.1c3.9-1,7.7-2.3,11.3-4
		c3.6-1.8,7-4,10.3-6.5c-2.4,3.4-5.5,6.3-9.1,8.6c-3.6,2.3-7.6,3.9-11.7,4.9c-4.1,1-8.4,1.4-12.6,1.2
		C1544,232.7,1539.8,232.1,1535.9,230.6z"/>
</g>
<g>
	<path class="st19" d="M902.2,622.7c-3.6-4.6-7.5-8.9-11.6-13.1c-4.1-4.2-8.3-8.2-12.7-12c-8.8-7.6-18.5-14.2-29-19.1
		c-5.3-2.4-10.7-4.4-16.4-5.6c-5.6-1.2-11.4-1.6-17.1-1c-2.9,0.2-5.7,0.8-8.4,1.5c-2.7,0.8-5.5,1.7-8,3c-5.2,2.4-10,5.6-14.3,9.4
		c-4.3,3.8-8.2,8-11.8,12.6c-3.5,4.6-6.8,9.3-9.7,14.3c-0.8,1.2-1.5,2.5-2.2,3.8c-0.7,1.3-1.4,2.5-2.1,3.8c-1.3,2.6-2.7,5.2-3.8,7.8
		l-1.8,3.9l-1.7,4c-1.2,2.7-2.2,5.4-3.3,8.1c-4.2,10.8-7.7,21.9-10.8,33.2c-3.1,11.2-5.6,22.6-7.5,34c-4,22.9-5.7,46.2-5.1,69.5
		c0.2,11.6,1.1,23.2,2.3,34.8c1.3,11.6,3,23.1,5,34.6c2,11.5,4.4,22.9,6.9,34.3c2.5,11.4,5.1,22.8,7.2,34.3c1,5.8,2,11.5,2.5,17.4
		c0.5,5.8,0.7,11.7-0.1,17.6c-0.4,2.9-1.1,5.8-2.2,8.5c-1.1,2.7-2.7,5.3-4.6,7.5c-2,2.2-4.3,4-6.8,5.5c-2.5,1.5-5.3,2.5-8,3.4
		c2.7-1,5.4-2.1,7.9-3.6c2.5-1.5,4.7-3.4,6.6-5.6c1.9-2.2,3.4-4.7,4.4-7.4c1-2.7,1.6-5.5,2-8.4c0.7-5.8,0.4-11.6-0.2-17.4
		c-0.6-5.8-1.7-11.5-2.8-17.2c-2.3-11.4-5-22.8-7.6-34.2c-2.6-11.4-5.1-22.8-7.3-34.3c-4.4-23-7.2-46.3-7.8-69.7
		c-0.7-23.4,1-46.9,4.9-70c2-11.6,4.6-23,7.7-34.3c3.1-11.3,6.8-22.4,11-33.4c1.1-2.7,2.1-5.5,3.3-8.1l1.7-4l1.9-4
		c1.2-2.7,2.6-5.3,3.9-7.9c0.7-1.3,1.4-2.6,2.1-3.9c0.7-1.3,1.4-2.6,2.2-3.8c3-5.1,6.3-10,10-14.6c3.7-4.6,7.7-9,12.3-12.8
		c4.5-3.8,9.5-7.1,15-9.6c2.7-1.3,5.5-2.2,8.4-3c2.9-0.7,5.8-1.3,8.8-1.5c5.9-0.6,11.9,0,17.7,1.3c5.8,1.3,11.3,3.4,16.6,5.9
		c10.6,5.2,20.2,12.1,28.9,19.9C887.1,604.8,895.1,613.4,902.2,622.7z"/>
</g>
</svg>
