<?xml version="1.0" encoding="utf-8"?>
<!-- Generator: Adobe Illustrator 21.1.0, SVG Export Plug-In . SVG Version: 6.00 Build 0)  -->
<svg version="1.0" xmlns="http://www.w3.org/2000/svg" xmlns:xlink="http://www.w3.org/1999/xlink" x="0px" y="0px"
	 viewBox="0 0 561.7 731" style="enable-background:new 0 0 561.7 731;" xml:space="preserve">
<style type="text/css">
	.st0{fill:#7884BA;}
	.st1{fill:#F2DDA4;}
	.st2{fill:#BFD7B5;}
	.st3{fill:#413C57;}
	.st4{fill:#F0EFF4;}
	.st5{fill:#8B9ECC;}
	.st6{fill:#E7EFC5;stroke:#E7EFC5;stroke-width:2;stroke-linecap:round;stroke-linejoin:round;stroke-miterlimit:10;}
	.st7{fill:#322F47;}
	.st8{fill:none;stroke:#6D6DB2;stroke-width:2;stroke-linecap:round;stroke-linejoin:round;stroke-miterlimit:10;}
	.st9{fill:none;stroke:#413C57;stroke-width:2;stroke-linecap:round;stroke-linejoin:round;stroke-miterlimit:10;}
	.st10{fill:none;stroke:#DDB68C;stroke-width:2;stroke-linecap:round;stroke-linejoin:round;stroke-miterlimit:10;}
	.st11{fill:none;stroke:#322F47;stroke-width:2;stroke-linecap:round;stroke-linejoin:round;stroke-miterlimit:10;}
	.st12{fill:none;stroke:#99C199;stroke-width:2;stroke-linecap:round;stroke-linejoin:round;stroke-miterlimit:10;}
	.st13{fill:none;stroke:#D9D9E2;stroke-linecap:round;stroke-linejoin:round;stroke-miterlimit:10;}
	.st14{fill:#99C199;}
	.st15{fill:none;stroke:#2C2942;stroke-width:2;stroke-linecap:round;stroke-linejoin:round;stroke-miterlimit:10;}
	.st16{fill:none;stroke:#D9D9E2;stroke-width:2;stroke-linecap:round;stroke-linejoin:round;stroke-miterlimit:10;}
	.st17{fill:#A5D2DB;stroke:#85ADC1;stroke-width:2;stroke-linecap:round;stroke-linejoin:round;stroke-miterlimit:10;}
	.st18{fill:none;stroke:#0C1C15;stroke-width:2;stroke-linecap:round;stroke-linejoin:round;stroke-miterlimit:10;}
	.st19{fill:#6D6DB2;}
</style>
<g id="Fills">
	<path class="st0" d="M211,532.4c0,0-28.2-108.6,32.8-101.7c61,6.9,19.1,104.3,19.1,104.3s105-154.7,113.9-194.7
		s-21-108.8-108.2-107.7c-87.1,1.1-145.8,71.8-128.5,130.1S178.3,487.2,211,532.4z"/>
	<path class="st1" d="M263.7,567.3c1.8-2.3,16.3-13,22.6-7.5c3.6,3.2-0.7,27-8.3,31.3L263.7,567.3z"/>
	<path class="st1" d="M283.2,602.6c0,0,14.8-10,24.1-0.7c3.7,3.7-8.8,26.8-13.6,27.3C288.9,629.6,283.2,602.6,283.2,602.6z"/>
	<path class="st1" d="M300.8,678.4c0,0,19.8-8.3,22.4-4.4s-7.1,27.2-7.1,27.2L300.8,678.4z"/>
	<path class="st1" d="M331.1,713.3c0,0,12.4-9.8,18.3-8.5c5.8,1.3,0,19.5,0,19.5L331.1,713.3z"/>
	<path class="st1" d="M288.7,639c0,0,14.5-6.9,21.1-0.3c4.8,4.8-7.9,24.5-11.9,24.5S288.7,639,288.7,639z"/>
	<path class="st2" d="M282.6,589.1c-8.4-14.1-19.1-47.3-64.6-31c-45.5,16.2-116.6,90.8-65.4,129.1s106.6,33,125.8,6.4
		C297.5,666.9,299.6,617.6,282.6,589.1z"/>
	<path class="st2" d="M288.9,623.9c0,0-1.7,71.2,60.5,100.4c0,0-59.7,20.8-118.7-11L288.9,623.9z"/>
	<path class="st2" d="M143.5,670.1c0,0-6.6-10.7-26.6-6.5l-7.8-12.3v29l43.5,6.7L143.5,670.1z"/>
	<path class="st1" d="M222.3,564.7c0,0-1.9-30.5,9.7-33.1c11.7-2.6,19.5,35.7,19.5,35.7S235.4,572.3,222.3,564.7z"/>
	<path class="st3" d="M249.5,654.7c7.9-3.9-14.3-24.4-38.6-22.7c-24.3,1.7-47.7,4.7-42.3,14.4c5.4,9.7,42.8-3.1,42.8-3.1
		S238.5,660.1,249.5,654.7z"/>
	<path class="st4" d="M190.5,609.7c-4.3-17.6,7.9-34.7,31.7-36.2s39.5,26.2,26.1,43.5C234.7,634.3,197.3,637.5,190.5,609.7z"/>
	<path class="st4" d="M217,632.9c0,0-0.2,11.4,10.8,11.6c10.9,0.2,10.1-3.6,10.1-3.6S227.2,632.6,217,632.9z"/>
	<path class="st4" d="M199.9,646.5c0,0-2.6-7.3-8.7-5.8c-6.1,1.5-7.4,9.1-7.4,9.1L199.9,646.5z"/>
	<path class="st5" d="M265.9,549.5c0,0,228.1-181.1,269-263.2s-45-237-230.7-256.2C117.7,10.8,9.5,129.5,5.6,198.8
		s192,348.7,192,348.7l16.5-12.9c0,0-106.8-79.5-62.7-188.4c33-81.4,213.5-61.8,204.3,35.5C345.6,490.7,261.2,541,261.2,541
		L265.9,549.5z"/>
	<path d="M451.3,208.4c-19.6,7.4,23.2,30.8,35.4,25.5C498.9,228.5,477.7,198.5,451.3,208.4z"/>
	<path d="M95.4,161.7c1.8-12.8-40.6,2.7-36.6,15.5S93.4,176.5,95.4,161.7z"/>
	<path class="st3" d="M133.9,54.4c0,0-28-28-20.7-50.1c0,0-23.1,24.5-55.2,18.9c0,0,32.3,5,29.2,23.6c0,0,24-13.5,27.4,5.8
		C114.5,52.6,123,45.5,133.9,54.4z"/>
	<path class="st3" d="M436.3,402.8c-33.5,6.6-15.6-6.4-31.3-26.4c-15.7-20-20.7,7.3-49.1,5.4L261.2,541l4.7,8.5L436.3,402.8z"/>
	<path class="st3" d="M146.8,354.1c-0.1-21.8-33.5-55.9-45.9-27.8s12.7,46.8-16,47.7l112.8,173.5l16.5-12.9
		C214.2,534.6,147.1,419.6,146.8,354.1z"/>
	<path class="st6" d="M230.7,713.3c0,0,13.3-47.4-9.3-52.3c-28.1-6.1-60.7-3.5-61.4,30.9C160,691.9,198.9,720.5,230.7,713.3z"/>
	<path class="st2" d="M248.2,700.2c0,0-13.8-11-30.2-7.4l-9.3-15.4v27.3l28.2,8.6L248.2,700.2z"/>
	<path class="st2" d="M271.7,615.6c0,0-21.6-76.6-20.5-80s3.5,3.4,3.5,3.4s-2.4-7.5-0.7-7.4c1.7,0.1,3.4,6.5,3.4,6.5
		s-1.5-6.1,0.2-6.5s2.7,6.2,2.7,6.2s-0.1-7.5,1.2-6.2c1.3,1.3,22.9,84.1,22.9,84.1H271.7z"/>
	<path class="st2" d="M152.5,609.8c0,0,49.2-73.3,51.9-76.2c2.7-2.9,2.2,1.9,0,5.6c0,0,2-6.1,4.2-5.4s-1.2,6.3-1.2,6.3
		s3.2-5.4,4.6-4.4c1.5,1-1.7,5.8-1.7,5.8s3.6-6.1,4.9-4.1c1.2,1.9-53.5,72.2-53.5,72.2L152.5,609.8z"/>
	<path class="st7" d="M346.9,396.5c-23-10.1-24.5-34.5-45.6-8.7s-26.3,30.1-43,14.9c-16.7-15.2-12.8-63-39.5-35.6
		s-17.2,59.6-38.8,49.7s-21.6-9.9-21.6-9.9l48.5,124.8l2.8-5.1c0,0-25.9-103.6,34.1-96S261.2,541,261.2,541L346.9,396.5z"/>
</g>
<g id="Lines">
	<path class="st3" d="M465.4,94.9c0,0,49.3-27.1,56.1-57.7c0,0,7.5,26.8,34.7,37.8c0,0-34.6-15-35.9,9.7c0,0-36-10.9-36,8.4
		C484.3,92.9,474,88.9,465.4,94.9z"/>
	<path class="st8" d="M263.7,544.1c0,0,225.7-179,266.6-261.2s-45-237-230.7-256.2C113.2,7.5,5,126.1,1.1,195.5
		c-3.7,65,168,314.2,189.8,345.5"/>
	<path class="st9" d="M263.7,544.1l168-144.7c-33.5,6.6-15.6-6.4-31.3-26.4c-15.7-20-20.7,7.3-49.1,5.4l-91.7,154.3"/>
	<path class="st10" d="M296.9,674.5c0,0,19.8-8.3,22.4-4.4c2.6,3.9-7.1,27.2-7.1,27.2L296.9,674.5z"/>
	<path class="st11" d="M342.3,393.1c-23-10.1-24.5-34.5-45.6-8.7s-26.3,30.1-43,14.9s-12.8-63-39.5-35.6
		c-26.7,27.4-17.2,59.6-38.8,49.7c-21.6-9.9-21.6-9.9-21.6-9.9"/>
	<path class="st9" d="M209.6,531.3c0,0-67.1-115-67.4-180.5c-0.1-21.8-33.5-55.9-45.9-27.8s12.7,46.8-16,47.7L191,540.9"/>
	<path class="st12" d="M253.4,555.2c-2.9-1.6-6.2-2.9-9.9-3.6"/>
	<path class="st12" d="M216.5,554c-1.1,0.4-2.3,0.7-3.4,1.1c-45.5,16.2-116.6,90.8-65.4,129.1c28.8,21.5,58.9,29.3,83.2,27.2
		c18.9-1.6,34.2-9.2,42.6-20.8c7.6-10.6,12.6-24.7,14.7-39.8c3.2-22.8-0.1-47.5-10.4-64.7c-1.2-2.1-3.5-6.6-5-9.3"/>
	<path class="st10" d="M326.2,710.4c0,0,12.4-9.8,18.3-8.5c5.8,1.3,0,19.5,0,19.5L326.2,710.4z"/>
	<path class="st8" d="M206.4,529c0,0-28.2-108.6,32.8-101.7c61,6.9,19.1,104.3,19.1,104.3"/>
	<path class="st10" d="M217.4,561.8c0,0-1.9-30.5,9.7-33.1c11.7-2.6,19.5,35.7,19.5,35.7S230.5,569.4,217.4,561.8z"/>
	<path class="st10" d="M267.1,558.5c5-2.7,10.9-4.5,14.4-1.5c3.6,3.2,3.8,25-3.8,29.2"/>
	<path class="st10" d="M283,597.2c5.1-2.2,13.4-4.2,19.4,1.8c3.7,3.7-8.8,26.8-13.6,27.3"/>
	<path class="st12" d="M288.1,650.8c6,23,20.6,53.8,56.4,70.6c0,0-59.7,20.8-118.7-11"/>
	<path class="st13" d="M215,631c0,0-0.2,11.4,10.8,11.6c10.9,0.2,10.1-3.6,10.1-3.6S225.3,630.7,215,631z"/>
	<path class="st13" d="M198,645.5c0,0-2.6-7.3-8.7-5.8c-6.1,1.5-7.4,9.1-7.4,9.1L198,645.5z"/>
	<g>
		<path class="st14" d="M131.4,661.7c-3.1-1.1-6.4-1.6-9.6-1.6c-3.3,0-6.5,0.5-9.6,1.2c-0.3,0.1-0.5-0.1-0.7-0.3l0,0l-4-6.1l-4-6.1
			l1.6-0.5c0.1,4.8,0.1,9.7,0.1,14.5c0,4.8,0,9.7,0,14.5l-0.8-1c3.6,0.6,7.2,1.2,10.8,1.8l10.8,1.9c3.6,0.6,7.2,1.3,10.8,2
			c3.6,0.7,7.2,1.3,10.8,2.1c-3.6-0.4-7.3-0.8-10.9-1.3c-3.6-0.4-7.3-0.9-10.9-1.4l-10.9-1.5c-3.6-0.5-7.3-1-10.9-1.6
			c-0.5-0.1-0.8-0.5-0.8-1c0-4.8,0-9.7,0-14.5c0-4.8,0-9.7,0.1-14.5l0,0c0-0.5,0.4-0.9,0.9-0.9c0.3,0,0.6,0.2,0.7,0.4l3.8,6.2
			l3.8,6.2l-0.7-0.3c3.3-0.6,6.6-0.9,9.9-0.7c1.7,0.1,3.3,0.3,4.9,0.7C128.3,660.5,129.9,661,131.4,661.7z"/>
	</g>
	<g>
		<path class="st14" d="M243.3,697.3c-2.2-1.5-4.6-2.7-7-3.8c-2.4-1.1-5-1.9-7.5-2.5c-2.6-0.6-5.2-0.9-7.8-1
			c-2.6-0.1-5.2,0.3-7.8,0.8l0,0c-0.4,0.1-0.7-0.1-0.9-0.4c-3.2-5.1-6.3-10.2-9.4-15.3l1.8-0.5c0,4.5,0,9.1,0,13.6l-0.1,13.6
			L204,701c4.7,1.5,9.3,3,14,4.6l7,2.4c2.3,0.8,4.6,1.6,7,2.4c-2.4-0.6-4.8-1.2-7.1-1.9l-7.1-1.9c-4.7-1.3-9.4-2.7-14.2-4
			c-0.4-0.1-0.6-0.4-0.6-0.8l0,0l-0.1-13.6c0-4.5-0.1-9.1,0-13.6l0,0c0-0.5,0.4-1,1-1c0.4,0,0.7,0.2,0.8,0.5
			c3.1,5.1,6.2,10.3,9.2,15.4l-0.9-0.4l2-0.3l1-0.2c0.3,0,0.7,0,1-0.1l2-0.1l2,0.1c2.7,0.1,5.4,0.6,8,1.4c2.6,0.7,5.1,1.8,7.5,3
			C239,694.2,241.3,695.6,243.3,697.3z"/>
	</g>
	<path class="st15" d="M246.6,653.8c7.9-3.9-14.3-24.4-38.6-22.7c-24.3,1.7-47.7,4.7-42.3,14.4c5.4,9.7,42.8-3.1,42.8-3.1
		S235.6,659.1,246.6,653.8z"/>
	<path class="st16" d="M185.6,606.7c-4.3-17.6,7.9-34.7,31.7-36.2s39.5,26.2,26.1,43.5C229.9,631.4,192.4,634.6,185.6,606.7z"/>
	<path class="st17" d="M213.1,605.1c-8.3-6-21.3,13.3-9.3,15.9C215.8,623.6,222.6,611.9,213.1,605.1z"/>
	<g>
		<path class="st14" d="M268.8,612.7c-2.2-7.1-4.3-14.3-6.4-21.4c-2.1-7.1-4.1-14.3-6.1-21.5c-2-7.2-4-14.3-5.8-21.6
			c-0.9-3.6-1.8-7.2-2.6-10.9c-0.2-0.9-0.4-1.8-0.5-2.8c0-0.2-0.1-0.5-0.1-0.7l0-0.4c0-0.1,0-0.2,0-0.4c0-0.2,0-0.4,0.1-0.6
			c0-0.2,0.1-0.3,0.1-0.4c0.1-0.3,0.2-0.6,0.7-1c0.2-0.2,0.6-0.3,1-0.3c0.2,0,0.3,0.1,0.4,0.1c0.1,0,0.2,0.1,0.3,0.2
			c0.3,0.2,0.5,0.5,0.7,0.7c0.4,0.4,0.6,0.9,0.8,1.3c0.5,0.9,0.8,1.7,1.2,2.7l-1.8,0.6c-0.4-1.3-0.7-2.5-1-3.8
			c-0.1-0.7-0.3-1.3-0.3-2c0-0.4-0.1-0.7,0-1.1c0-0.2,0-0.4,0.2-0.7c0-0.1,0.1-0.3,0.3-0.5c0.2-0.2,0.4-0.4,0.6-0.4
			c0.1-0.1,0.2-0.1,0.4-0.1c0.1,0,0.2,0,0.3,0c0.2,0,0.3,0.1,0.5,0.1c0.3,0.1,0.5,0.3,0.7,0.4c0.3,0.3,0.6,0.6,0.8,0.9
			c0.4,0.6,0.7,1.2,1,1.9c0.5,1.2,0.9,2.5,1.3,3.8l-1.9,0.5c-0.3-1.2-0.5-2.4-0.6-3.6c0-0.6-0.1-1.2,0-1.9c0.1-0.4,0.1-0.7,0.4-1.2
			c0.2-0.4,0.8-1,1.6-1c0.8,0.1,1.2,0.5,1.4,0.8c0.3,0.3,0.4,0.6,0.6,0.9c0.3,0.6,0.5,1.2,0.7,1.8c0.3,1.2,0.6,2.3,0.8,3.5l-1.9,0.2
			c0-1,0-2,0.1-3c0.1-1,0.1-2,0.5-3.2c0.1-0.2,0.1-0.3,0.3-0.5c0-0.1,0.1-0.1,0.1-0.2c0.1-0.1,0.1-0.1,0.2-0.2
			c0.2-0.1,0.5-0.3,0.8-0.2c0.2,0,0.3,0.1,0.4,0.1c0.1,0,0.2,0.1,0.3,0.1c0.1,0.1,0.2,0.2,0.3,0.3c0.1,0.1,0.1,0.2,0.2,0.3
			c0.1,0.1,0.1,0.1,0.1,0.2c0.2,0.5,0.3,1,0.5,1.5l0.9,2.8c1.1,3.8,2.1,7.6,3.2,11.3l3.1,11.4l2.9,11.4l5.8,22.8
			c1.9,7.6,3.8,15.2,5.6,22.8c-2.2-7.5-4.3-15.1-6.5-22.6l-6.3-22.7l-6.3-22.7c-1.1-3.8-2.1-7.5-3.2-11.3l-0.9-2.8
			c-0.1-0.4-0.3-0.9-0.5-1.3c0,0-0.1-0.1,0-0.1c0,0,0,0,0,0c0,0,0,0,0,0c0,0,0.1,0,0.1,0.1c0,0,0.1,0,0.2,0c0.2,0,0.4-0.1,0.5-0.1
			c0,0,0.1,0,0.1-0.1c0,0,0,0,0,0c0,0,0,0,0,0.1c-0.2,0.7-0.3,1.7-0.3,2.7c0,0.9-0.1,1.9,0,2.9c0,0.5-0.4,1-0.9,1
			c-0.5,0-0.9-0.3-1-0.8l0,0c-0.2-1.1-0.4-2.2-0.7-3.3c-0.2-0.5-0.3-1-0.6-1.5c-0.1-0.2-0.2-0.4-0.3-0.6c-0.1-0.1-0.2-0.1,0-0.1
			c0.2,0,0.3-0.1,0.2-0.1c0,0.1-0.1,0.3-0.1,0.5c-0.1,0.5,0,1,0,1.5c0.1,1.1,0.3,2.2,0.5,3.3l0,0c0.1,0.5-0.2,1.1-0.8,1.2
			c-0.5,0.1-1-0.2-1.2-0.7c-0.3-1.2-0.7-2.4-1.2-3.5c-0.2-0.6-0.5-1.1-0.8-1.6c-0.1-0.2-0.3-0.4-0.4-0.6c-0.1-0.1-0.1-0.1-0.1-0.1
			c0,0,0,0,0,0c0,0,0,0,0.1,0c0,0,0.1,0,0.1,0c0.1,0,0.2-0.1,0.2-0.2c0,0,0-0.1,0-0.1c0,0,0,0.1,0,0.2c0,0.2,0,0.5,0,0.8
			c0,0.6,0.2,1.2,0.3,1.8c0.3,1.2,0.6,2.4,1,3.6c0.2,0.5-0.1,1-0.6,1.2c-0.5,0.2-1-0.1-1.2-0.6c-0.3-0.8-0.7-1.7-1.1-2.4
			c-0.2-0.4-0.4-0.8-0.6-1c-0.1-0.1-0.2-0.3-0.3-0.3c0,0,0,0,0,0c0,0,0,0,0.1,0c0.1,0,0.3,0,0.3-0.1c0.1-0.1,0,0-0.1,0.2
			c0,0.1-0.1,0.2-0.1,0.2c0,0.1,0,0.1,0,0.1c0,0,0,0.1,0,0.2l0,0.3c0,0.2,0,0.4,0.1,0.6c0.1,0.9,0.3,1.8,0.5,2.7
			c0.7,3.6,1.6,7.2,2.5,10.8c1.8,7.2,3.6,14.4,5.4,21.6L268.8,612.7z"/>
	</g>
	<g>
		<path class="st14" d="M150.5,604c4.5-6.9,9.1-13.7,13.7-20.5l13.9-20.3l14.1-20.2c2.4-3.4,4.7-6.7,7.2-10c0.6-0.8,1.2-1.6,1.9-2.5
			c0.3-0.4,0.7-0.8,1.3-1.3c0.2-0.1,0.3-0.2,0.6-0.3c0.2-0.1,0.6-0.2,1.1,0c0.4,0.2,0.6,0.5,0.8,0.8c0.1,0.2,0.1,0.5,0.2,0.6
			c0.1,0.7,0,1.3-0.1,1.8c-0.1,0.6-0.3,1.1-0.4,1.6c-0.4,1-0.8,2-1.4,3l0,0c-0.3,0.4-0.9,0.6-1.3,0.3c-0.4-0.2-0.6-0.7-0.4-1.1
			c0.4-1.2,0.9-2.3,1.5-3.4c0.3-0.6,0.7-1.1,1.2-1.6c0.1-0.1,0.3-0.3,0.4-0.4c0.1-0.1,0.3-0.2,0.5-0.3c0.2-0.1,0.4-0.2,0.7-0.2
			c0.2-0.1,0.5,0,0.8,0c0.3,0,0.5,0.2,0.8,0.4c0.2,0.2,0.4,0.4,0.5,0.7c0.2,0.5,0.2,0.9,0.2,1.3c0,0.8-0.3,1.4-0.5,2
			c-0.4,1.2-1,2.3-1.6,3.4c-0.2,0.4-0.8,0.6-1.2,0.3c-0.4-0.2-0.6-0.8-0.3-1.2l0,0c0.6-1,1.2-1.9,2-2.8c0.4-0.4,0.8-0.9,1.2-1.3
			c0.2-0.2,0.5-0.4,0.9-0.6c0.3-0.2,0.9-0.3,1.5-0.1c0.3,0.1,0.5,0.3,0.7,0.5c0.2,0.2,0.2,0.5,0.3,0.7c0.1,0.4,0,0.8,0,1.1
			c-0.1,0.7-0.3,1.2-0.6,1.8c-0.5,1.1-1,2-1.6,3l0,0c-0.2,0.4-0.7,0.5-1.1,0.2c-0.4-0.2-0.5-0.7-0.2-1.1c0.5-0.8,1.1-1.6,1.7-2.4
			c0.6-0.8,1.2-1.5,2.3-2.2c0.3-0.1,0.6-0.3,1.1-0.2c0.2,0,0.5,0.1,0.7,0.3c0.1,0.1,0.2,0.2,0.2,0.2l0.1,0.1c0,0,0.1,0.1,0.1,0.2
			c0,0.1,0.1,0.3,0.1,0.4l0,0.2c0,0.1-0.1,0.2-0.1,0.3c-0.1,0.1-0.1,0.3-0.2,0.4c-0.1,0.2-0.2,0.5-0.4,0.7c-0.5,0.9-1,1.7-1.6,2.4
			c-2.2,3.2-4.4,6.2-6.7,9.3c-2.3,3-4.6,6.1-7,9.1c-2.3,3-4.7,6-7.1,9l6.6-9.3l6.6-9.3c2.2-3.1,4.4-6.2,6.4-9.4
			c0.5-0.8,1-1.6,1.4-2.4c0.1-0.2,0.2-0.4,0.3-0.6c0.1-0.1,0.1-0.2,0.1-0.3c0-0.1,0-0.1,0-0.1l0,0c0,0.1,0,0.2,0,0.2
			c0.1,0.1,0.1,0.1,0,0.1l0,0c0,0,0,0,0,0c0,0,0,0,0,0c0,0-0.1,0-0.2,0.1c-0.6,0.4-1.2,1.1-1.8,1.8c-0.5,0.7-1.1,1.5-1.5,2.3
			l-1.4-0.9c0.5-0.9,1.1-1.8,1.4-2.8c0.2-0.5,0.4-1,0.4-1.4c0-0.1,0-0.2,0-0.3c0-0.1,0-0.1,0-0.2c0-0.1,0,0,0,0c0.1,0,0,0-0.1,0.1
			c-0.1,0.1-0.3,0.2-0.5,0.3c-0.3,0.3-0.7,0.7-1,1.1c-0.6,0.8-1.3,1.7-1.8,2.6l-1.5-0.9c0.6-1,1.1-2,1.5-3.1c0.2-0.5,0.3-1,0.3-1.5
			c0-0.1,0-0.2,0-0.3c0-0.1,0-0.1,0-0.2c0,0,0,0,0,0c0,0,0,0-0.1,0c-0.1,0-0.4,0.1-0.7,0.4c-0.3,0.3-0.6,0.8-0.9,1.3
			c-0.5,1-1,2-1.4,3.1l-1.7-0.8c0.5-0.8,0.9-1.7,1.2-2.6c0.2-0.5,0.3-0.9,0.4-1.4c0.1-0.4,0.1-0.9,0.1-1.2c0-0.1,0-0.1,0-0.1
			c0,0,0.1,0.1,0.3,0.2c0.2,0.1,0.3,0,0.3,0c0,0,0,0-0.1,0.1c-0.3,0.2-0.6,0.5-0.9,0.9c-0.6,0.7-1.2,1.6-1.8,2.4
			c-2.4,3.3-4.8,6.6-7.2,10l-14.3,20l-14.4,20C160.2,590.7,155.4,597.4,150.5,604z"/>
	</g>
	<path class="st18" d="M449.6,206.3c-19.6,7.4,23.2,30.8,35.4,25.5C497.2,226.4,475.9,196.4,449.6,206.3z"/>
	<path class="st18" d="M93.6,160.5c1.8-12.8-40.6,2.7-36.6,15.5S91.6,175.3,93.6,160.5z"/>
	<g>
		<path class="st19" d="M63.8,200.7c2.2-0.4,4.5-0.2,6.8,0.1c2.3,0.3,4.5,0.7,6.7,1.2c4.4,1,8.8,2.2,13.2,3.4
			c8.7,2.5,17.3,5.3,25.9,8.1c8.6,2.7,17.3,5.5,26,7.5c2.2,0.5,4.4,1,6.6,1.3c2.2,0.3,4.4,0.6,6.6,0.6c1.1,0,2.2-0.1,3.2-0.4
			c0.5-0.2,1-0.3,1.3-0.6c0.4-0.3,0.9-0.7,1.3-1c1.8-1.4,3.6-2.7,5.5-4.1c7.3-5.3,14.9-10.4,22.7-15.1c7.8-4.7,15.8-9,24.2-12.6
			c4.2-1.8,8.5-3.4,12.8-4.7c4.4-1.3,8.9-2.2,13.5-2.5c4.6-0.2,9.4,0.3,13.7,2.3c4.2,2,8,4.6,11.4,7.9c3.4,3.2,6.1,7,8.7,10.6
			c1.3,1.8,2.7,3.6,4.2,5.1c1.6,1.5,3.3,2.7,5.4,3.2c2,0.6,4.2,0.6,6.4,0.4c2.2-0.2,4.3-0.7,6.5-1.3c4.2-1.2,8.5-3,12.9-4.2
			c1.1-0.3,2.2-0.6,3.3-0.9l3.3-0.8l1.7-0.4l1.7-0.3l3.4-0.5c1.1-0.1,2.3-0.2,3.4-0.3l1.7-0.1l1.7,0c1.2,0,2.3,0,3.5,0.1l3.4,0.4
			c0.3,0,0.6,0.1,0.9,0.1l0.8,0.2l1.7,0.4l1.7,0.4c0.6,0.1,1.1,0.4,1.7,0.5c1.1,0.4,2.2,0.7,3.3,1.1l3.1,1.5c0.5,0.2,1,0.5,1.5,0.8
			l1.5,0.9l1.5,0.9c0.5,0.3,0.9,0.7,1.4,1l2.7,2.1l2.5,2.4l1.3,1.2c0.4,0.4,0.8,0.8,1.2,1.3l2.3,2.6c0.8,0.9,1.4,1.8,2.1,2.7
			c0.7,0.9,1.4,1.8,2.1,2.7l3.8,5.7c1.2,1.9,2.6,3.6,4.2,5.2c3.1,3.2,6.7,5.9,10.6,8.1c3.9,2.2,8.1,4,12.3,5.4
			c8.5,2.9,17.4,4.7,26.4,5.7c4.5,0.5,9,0.9,13.5,1.1c4.5,0.2,9,0.3,13.6,0.1c-9,0.5-18.1,0.2-27.1-0.7c-9-0.9-18-2.5-26.7-5.3
			c-4.3-1.4-8.5-3.2-12.5-5.4c-4-2.2-7.8-4.9-11-8.2c-1.6-1.6-3.1-3.4-4.4-5.3l-3.8-5.6c-0.7-0.9-1.4-1.8-2.1-2.7
			c-0.7-0.9-1.3-1.8-2.1-2.6l-2.3-2.5c-0.4-0.4-0.7-0.8-1.1-1.2l-1.2-1.1l-2.5-2.3l-2.7-2c-0.5-0.3-0.9-0.7-1.3-1l-1.4-0.9l-1.4-0.9
			c-0.5-0.3-0.9-0.6-1.5-0.8l-3-1.4c-1-0.4-2.1-0.7-3.1-1.1c-0.5-0.2-1-0.4-1.6-0.5l-1.6-0.3l-1.6-0.3l-0.8-0.2
			c-0.3,0-0.6-0.1-0.8-0.1l-3.3-0.3c-1.1-0.1-2.2,0-3.3,0l-1.7,0l-1.7,0.1c-1.1,0.1-2.2,0.2-3.3,0.3l-3.3,0.5l-1.7,0.3l-1.6,0.4
			l-3.3,0.8c-1.1,0.3-2.2,0.6-3.2,0.9c-4.3,1.2-8.5,2.9-12.9,4.3c-2.2,0.6-4.5,1.2-6.8,1.4c-2.3,0.2-4.7,0.2-7.1-0.5
			c-2.4-0.6-4.5-2-6.2-3.6c-1.7-1.6-3.1-3.5-4.5-5.3c-2.7-3.7-5.3-7.3-8.5-10.4c-3.2-3.1-6.9-5.6-10.9-7.5
			c-3.9-1.8-8.4-2.4-12.8-2.1c-4.4,0.2-8.8,1.1-13.1,2.4c-4.3,1.2-8.5,2.8-12.7,4.6c-8.3,3.5-16.2,7.8-24,12.4
			c-7.7,4.6-15.3,9.6-22.7,14.8c-1.8,1.3-3.7,2.6-5.5,4c-0.5,0.3-0.8,0.7-1.4,1c-0.5,0.4-1.1,0.6-1.7,0.8c-1.2,0.3-2.4,0.4-3.5,0.5
			c-2.3,0-4.6-0.3-6.9-0.6c-2.3-0.4-4.5-0.9-6.7-1.4c-8.8-2.2-17.4-5-26-7.8c-8.6-2.9-17.2-5.8-25.8-8.5c-4.3-1.3-8.7-2.6-13.1-3.6
			c-2.2-0.5-4.4-1-6.7-1.3C68.3,200.6,66,200.4,63.8,200.7z"/>
	</g>
	<g>
		<path class="st19" d="M438.5,240.4c2.7,2.4,5.3,4.9,7.8,7.5c2.5,2.6,5,5.2,7.4,7.9c2.4,2.7,4.8,5.4,7.1,8.2
			c2.3,2.8,4.5,5.6,6.7,8.5c-2.7-2.4-5.3-4.9-7.8-7.5c-2.5-2.6-5-5.2-7.4-7.9c-2.4-2.7-4.8-5.4-7.1-8.2
			C442.9,246.2,440.6,243.4,438.5,240.4z"/>
	</g>
	<g>
		<path class="st19" d="M82.7,186.8c-2.2,2.7-4.5,5.2-6.9,7.7c-2.4,2.5-4.8,4.9-7.3,7.3c-2.5,2.4-5,4.7-7.6,7
			c-2.6,2.3-5.2,4.5-8,6.6c2.2-2.7,4.5-5.2,6.9-7.7c2.4-2.5,4.8-4.9,7.3-7.3c2.5-2.4,5-4.7,7.6-7C77.2,191.1,79.9,188.9,82.7,186.8z
			"/>
	</g>
	<path class="st15" d="M129.3,51.1c0,0-28-28-20.7-50.1c0,0-23.1,24.5-55.2,18.9c0,0,32.3,5,29.2,23.6c0,0,24-13.5,27.4,5.8
		C109.9,49.3,118.5,42.2,129.3,51.1z"/>
	<path class="st10" d="M289.2,634.1c4.8-1.4,11.7-2.3,15.7,1.7c4.8,4.8-7.9,24.5-11.9,24.5"/>
	<g>
		<path class="st19" d="M258.4,531.5l41.7-69.8l41.9-69.7c6.8-11.5,8.6-25.8,4.7-38.6c-2-6.4-4.9-12.5-8.5-18.1
			c-3.6-5.6-8-10.8-12.9-15.3l-3.8-3.3l-1-0.8l-1-0.7l-2-1.5c-2.7-2.1-5.6-3.6-8.5-5.4c-1.5-0.8-3-1.5-4.5-2.3
			c-1.5-0.7-3-1.5-4.6-2.1c-3.1-1.2-6.2-2.6-9.4-3.5c-12.8-4.2-26.2-6.3-39.6-7.2c-13.4-0.9-27-0.5-40.2,2.2
			c-6.6,1.2-13,3.3-19.3,5.7l-4.6,2c-1.5,0.7-3,1.6-4.4,2.3c-0.7,0.4-1.5,0.8-2.2,1.2l-2.1,1.4c-1.4,0.9-2.9,1.8-4.2,2.8
			c-5.4,3.9-10.3,8.6-14.5,13.8c-4.2,5.2-7.8,10.9-10.2,17.2c-2.4,6.2-3.7,12.9-3.8,19.6c0,3.3,0.2,6.7,0.7,10
			c0.5,3.3,1.4,6.5,2.2,9.8c6.7,26.2,15.2,52,25.4,77.1c5.1,12.6,10.6,24.9,16.5,37.1c6,12.1,12.4,24.1,19.3,35.8
			c-7-11.6-13.6-23.5-19.7-35.5c-6.1-12.1-11.7-24.5-17-37c-10.4-25-19.1-50.8-26-77.1c-0.8-3.3-1.8-6.6-2.3-10
			c-0.6-3.4-0.8-6.8-0.8-10.3c0-6.9,1.4-13.7,3.8-20.2c1.2-3.2,2.7-6.3,4.5-9.3c0.9-1.5,1.9-2.9,2.8-4.3l3.1-4.1
			c4.3-5.4,9.3-10.1,14.9-14.1c1.3-1.1,2.8-2,4.2-2.9l2.2-1.4c0.7-0.4,1.5-0.8,2.2-1.2c1.5-0.8,3-1.7,4.5-2.4l4.7-2.1
			c6.3-2.5,12.9-4.7,19.6-5.9c13.4-2.7,27.1-3.2,40.7-2.3c13.6,1,27.1,3.1,40.1,7.4c3.3,0.9,6.4,2.4,9.6,3.6
			c1.6,0.6,3.1,1.4,4.6,2.2c1.5,0.8,3.1,1.5,4.6,2.3c2.9,1.8,5.9,3.4,8.6,5.5l2.1,1.5l1,0.8l1,0.8l3.9,3.3c5,4.7,9.5,9.9,13.1,15.7
			c3.7,5.8,6.6,12,8.6,18.6c2,6.6,2.6,13.6,1.7,20.5c-0.9,6.8-3.2,13.5-6.7,19.4L301,462.3L258.4,531.5z"/>
	</g>
	<path class="st15" d="M469.9,98.2c0,0,49.3-27.1,56.1-57.7c0,0,7.5,26.8,34.7,37.8c0,0-34.6-15-35.9,9.7c0,0-36-10.9-36,8.4
		C488.9,96.3,478.5,92.3,469.9,98.2z"/>
</g>
</svg>
