<?xml version="1.0" encoding="utf-8"?>
<!-- Generator: Adobe Illustrator 23.0.6, SVG Export Plug-In . SVG Version: 6.00 Build 0)  -->
<svg version="1.1" id="hero" xmlns="http://www.w3.org/2000/svg" xmlns:xlink="http://www.w3.org/1999/xlink" x="0px" y="0px"
	 viewBox="0 0 1200 600" style="enable-background:new 0 0 1200 600;" xml:space="preserve">
<style type="text/css">
	.monsters { opacity: .6 }
	.monster-body {fill:rgb(169, 138, 209);}
	.monster-boots {fill:#F2DDA4;}
</style>
<g class="monsters">
<g id="blade" class="monster">
	<path id="blade-body" class="monster-body" d="M765.2,542.4c0-0.4-1.6-1.2-4-2.6c-0.1-2.6-0.4-6.2-1.6-7.3c-0.3-0.3-0.8-0.3-1.4,0
		c-0.2-0.5-0.4-0.8-0.7-1c-1.2-1.1-3.5,0.7-5.4,2.6c-1.6-1.2-3.3-2.5-5-4c1.8-2.8,4.6-7.6,4.2-10.1c-0.1-0.8-0.9-1.2-2-1.4
		c-0.2-0.3-0.4-0.6-0.7-0.8c-2.1-1.3-7.8-0.2-11.1,0.6c-0.4-0.6-0.7-1.3-1.1-2c0-2.6-0.3-5.5-1-8.5c2.1-2.8,5.3-7.9,4.6-10.5
		c-0.3-1-1.1-1.5-2.3-1.8c-0.3-0.4-0.6-0.7-1-0.9c-1.7-1-4.4-0.8-6.4-0.5c-1.5-2.9-2.9-5.6-4.4-8.1c2.4-2,5.7-10.9,3.3-11.9
		c-0.3-0.1-0.7-0.2-1.1-0.1c-0.2-0.6-0.6-0.9-0.9-1c-1.8-0.8-5.8,1.2-8.3,2.6c-2.5-3.3-5-6-7.4-8.3c0,0,0,0,0-0.1
		c1.3-2.8,2.3-8.9,1.1-9.7c-0.2-0.2-0.7-0.1-1.4,0c-0.1-0.5-0.3-1-0.6-1.2c-1.3-0.8-6.7,1.8-9.2,3.2c0,0-0.1-0.1-0.1-0.1
		c-5.7-3.6-10.2-4.5-12.5-4.8c-3.5-4.5-7.4-9.2-8.2-9.1c-0.1,0-0.2,0.1-0.3,0.3c-1-1-1.8-1.5-2.1-1.5c-1.1,0.3-1.6,3.7-1.7,5.2
		c-0.5,4.8,0,10.4,3,12.5c-11.3,9.3-26.4,27.7-32.4,50.1c-3.7,13.8,2.5,21.9,10.3,26.6c-3.7-1.9-7.2-4.5-9.6-8
		c-3.7-5.2-4.5-11.7-2.5-19.2c5.9-22.1,21.2-40.6,32.4-49.7l-0.6-0.8c-11.4,9.3-26.8,28-32.8,50.3c-2.1,7.9-1.2,14.6,2.7,20.1
		c4.5,6.3,12.2,9.7,17.9,11.5c5.3,1.6,9.9,2.2,11,2.3c2.5,5.2,2.2,8.3,1.6,9.9c-0.7,1.8-2.1,2.3-2.1,2.4l0.2,1l3.2-0.4
		c-0.5,0.4-1,0.6-1,0.6l15.1-1.9l-1.6-9.8h6.6c2.1,4.5,1.9,6.8,1.3,8c-0.7,1.4-2.1,1.6-2.1,1.6l0.1,1l3.7-0.4
		c-0.7,0.5-1.5,0.6-1.5,0.6l15.9-1.9l-1.2-7c0,0,2.5-1,5.8-3.3C721.8,545.7,765.1,544,765.2,542.4z M756.9,532.2
		c0.1,0.1,0.3,0.4,0.5,0.8c-1,0.7-2,1.7-2.9,2.7c-0.5-0.3-0.9-0.6-1.4-1C755,532.6,756.5,531.8,756.9,532.2z M747.9,518.5
		c-3.1,0-7.3,1.1-9.2,1.6c-0.2-0.3-0.3-0.5-0.5-0.8C741.5,518.6,746,517.7,747.9,518.5z M736,495.5c-1.6,0-3.4,0.2-4.7,0.4
		c-0.1-0.2-0.2-0.4-0.3-0.6C732.6,495.1,734.6,494.9,736,495.5z M727.1,474.2c0.1,0,0.2,0.1,0.3,0.3c-2.3,0.6-5.4,2.3-6.9,3.1
		c-0.2-0.3-0.5-0.7-0.7-1C722.5,475.1,725.9,473.6,727.1,474.2z M710.4,457.4c0.1,0.1,0.2,0.3,0.3,0.6c-2.7,0.9-6.7,3.1-6.7,3.1
		s0,0,0.1,0.1c-0.4-0.3-0.9-0.6-1.3-0.8C706.1,458.7,709.8,457.1,710.4,457.4z M677.8,455.2c-0.4-4.5,0.5-8.9,1-9.5
		c0.3,0.1,0.8,0.6,1.5,1.4c-1,3-1.5,10.6,0.8,14.3c-0.2,0.1-0.3,0.3-0.5,0.4C678.7,460.6,678,457.6,677.8,455.2z M678.7,555.8
		c1-2.5,0.6-6-1.4-10.2c1,0.1,1.5,0.2,1.5,0.2c3,6.3,2.4,9.7,1.2,11.5l-2.4,0.3C678,557,678.4,556.5,678.7,555.8z M700.3,555.7
		c1-1.9,0.7-4.8-1-8.5h1.4c2.4,4.9,2.3,7.6,1.4,9l-2.4,0.3C700,556.3,700.2,556,700.3,555.7z"/>
	<g id="blade-boots" class="monster-boots">
		<path d="M675.4,545.6l16.3,1.5l1.6,9.8l-18.5,2.9C674.8,559.6,681.3,550.1,675.4,545.6z"/>
		<path d="M697,546.4l17.1,0.7l1.6,9.8l-19.8,1.2C695.9,558,701.4,551.3,697,546.4z"/>
	</g>
</g>
<g id="skedaddle" class="monster">
	<path id="skedaddle-body" class="monster-body" d="M1084.9,540.9c0,0-8.7-76.2-34.4-117.7c-1.6-3.8-1.8-11.6-1.6-17.1c14-2.1,16.6-26.5,6.1-32
		c-0.1-0.1-0.2-0.2-0.3-0.3c-2.5-2.3-7.2-4.3-14.9-0.7c-7.5,3.6-11.7,7.9-12.5,12.8c-1,6,3.3,11.7,7.1,15.3c1.7,1.7,3.7,2.9,5.9,3.5
		c0.2,8.1-0.6,21.4-7.7,27.2c-0.9,0.7-1.9,1.5-3.2,2.4c-10.5,7.9-31.6,23.8-33.2,58.9c-1.7,0.7-5,2.5-5.2,5.7
		c-1.2-0.6-3.4-1.5-5.5-1.6l-2-5v3.9l-2.2-5.5l-1,0.2v6.7l-14.9,1.7v1l5.4,0.6l-2.6,0.3l3.5,0.4l-4.9,0.7l0,1l5.1,0.6l-2.3,0.3
		l4.7,0.5l-3.9,2.3l0.3,0.9l5.6-0.9l-3,1.8l8.2-1.3c2.2,2.2,6.8,6.5,11.2,7.2c1.7,0.8,3.4,1.2,5,0.9c0.8,4.7,1.9,9.8,3.3,15
		c-0.9,1.2-5.3,7.7-3.7,12.8c0.7,2.3,2.5,3.9,5.4,4.9c2,0.7,3.9,1.2,5.4,1.7c2,0.6,4,1.2,4.2,1.4c-0.3,0.7-6.1,2.6-11.8,4.4l0.2,1
		h5.2c-0.8,0.3-1.6,0.5-2.5,0.8h19.1l-1-17.8c1.4,0.5,3.3,1.1,5.4,1.7c7.3,2.3,20.8,5.6,33.1,4.2v12.9l0.5,0.5h2.7v0.8h20.9
		c0,0-1.1-0.4-2.6-1.1l0.1-0.6c-1.9-0.7-4.4-1.9-6.3-3c-0.6-0.6-0.9-1.2-0.6-1.6C1075.6,551.4,1090.9,548.9,1084.9,540.9z
		 M1028.2,386c0.7-4.6,4.8-8.6,12-12.1c2.7-1.3,5.1-1.9,7.4-1.9c1.6,0,3.1,0.3,4.4,1c-2.6-0.4-5.7,0.1-9.3,1.8
		c-20.2,9.6-10.9,21.9-5.3,27.3c0.1,0.1,0.2,0.1,0.3,0.2c-0.9-0.6-1.8-1.2-2.6-2C1031.4,397,1027.3,391.6,1028.2,386z M1029.9,435.1
		c1.2-0.9,2.3-1.7,3.2-2.5c7.3-6,8.3-19.4,8.1-27.7c0.1,0,0.2,0.1,0.4,0.1c0.6,0.3,1.2,0.5,1.8,0.7c0.2,8.1-0.6,21.9-7.9,27.9
		c-8.4,6.9-34.6,22.1-36.2,61.4c-0.8,0.4-1.5,0.9-2.3,1.4c0-0.8,0-1.7,0.1-2.5c0.1-0.1,0.2-0.1,0.2-0.1l-0.2-0.7
		C998.7,458.6,1019.6,442.9,1029.9,435.1z M996.1,494.4c0,1-0.1,1.9-0.1,2.9c-1.2,1.1-2.1,2.4-1.9,3.9c0,0-1.1-0.6-2.6-1.2l0.4-0.3
		C991.6,496.9,994.4,495.2,996.1,494.4z M989.5,499.4c-1.1-0.2-2.3-0.3-3.2,0.1l-0.5-1.1C987.1,498.5,988.5,499,989.5,499.4z
		 M969.9,499.8l10.9-1.2l0.4-0.5v-4.6l1.9,4.7l0.3,0.1v1.1l-8.2,0.9L969.9,499.8z M970.6,502.7l4.9-0.7l5,0.6l-4.9,0.7L970.6,502.7z
		 M973,506.6l2.8-1.7l3.4,0.4l-0.7,0.4L973,506.6z M982.6,507.4l0.6-0.1c0,0,1.8,2.1,4.4,4.2C985.6,510.2,983.8,508.6,982.6,507.4z
		 M998.2,543.3c-1.6-5,3.6-12,3.7-12.1l0.1-0.4c-1.5-5.4-2.6-10.4-3.4-15.3c0.2-0.1,0.3-0.1,0.5-0.2c0.5-0.2,0.9-0.6,1.3-1
		c0.8,5.6,2,11.5,3.8,17.9c0,0-7.2,9.6-2.4,14.8C999.9,546.2,998.7,544.9,998.2,543.3z M1003.8,555.9c7.5-2.4,9.3-3.2,9.4-4.3
		c3.6,1.1,3.2,1.8-4.3,4.3H1003.8z M1060.9,558.2v-12.6c0.7-0.1,1.5-0.2,2.2-0.3v12.9H1060.9z"/>
	<g id="skedaddle-boots" class="monster-boots">
		<path d="M994.4,539.5l27.6,3.4l1.6,15.7l-27.6-1.2c0,0,13.2-4.1,11.3-6.1S994.7,548.2,994.4,539.5z"/>
		<path d="M1057.6,546.9l29.1-4c0,0-5.5,9.9-10.2,10.9c-1.8,0.9,6.6,3.8,7.4,6.1h-25.2L1057.6,546.9z"/>
	</g>
</g>
<g id="timber" class="monster">
	<path id="timber-body" class="monster-body" d="M95,359.4c-2-9-3-26.6-3.6-42c0.1,0,0.2,0,0.3,0c2.9,0,5.3-2.4,5.3-5.3s-2.4-5.3-5.3-5.3
			c-0.2,0-0.4,0-0.7,0.1c-0.3-11-0.3-19.1-0.3-19.1c9.6-12.1,5.4-18.1,0.4-20.9c-3.8-3.4-9.7-4.2-10-4.2l-0.3,0.9
			c3.6,2.6,5.4,5.3,5.5,8c0,3.3-2.5,5.7-3.3,6.3l-26.5,4.7l0,0l-6.7-3.3l5.3-11.9c0,0-2.1,1.6-4.4,4l2.3-5.1l-0.8-0.6
			c-0.5,0.4-11.8,9.4-11.2,16.4c0.5,5.8,7.6,8,10.3,8.6c0.2,0.1,0.3,0.1,0.5,0.2c-1.6,5.5-13.8,46.3-18.1,54.9
			c-0.4,0.8-1.2,2.2-2.2,4.1c-5.1,9.3-17.1,31-24.2,55.1c-8.8,30.2-7.1,54.1,5.1,71l0.9-0.3l-0.2-2.2c0.7,1.2,1.5,2.4,2.3,3.5
			l-0.4-3.9l1,2.8l1-0.2l-0.3-5.3l2.4,6.7l-0.2-4.9l1.8,5.3l1-0.2v-5l2.1,6.3v-7.9l3.1,6.8l1-0.2c0-0.1,0-1.2,0-3.1l2.1,4.5
			c0,0-0.1-41.9,4.2-65.1c1.2,13.1,5.2,36.4,17.8,63.9c4.1,11.5,7.9,66.2,0,79.2l0.4,0.8h3.1c-0.2,0.3-0.3,0.6-0.5,0.9h18
			c0,0-1.6-0.3-3.5-0.9h0.9l0.1-1c-0.1,0-3.7-0.7-6.5-2.2c-0.7-0.9-1.1-2-0.7-3.2c1.1-3.5,5-23.5,7.5-39.7l2.1,45.6l0.5,0.5H76
			l0,0.9h13.3c0,0-1.1-0.4-2.5-1.3l0.1-0.5c0,0-1-0.4-2.2-1.2c-2.3-2.2-4.5-5.6-4.3-10.9c0.3-10.4,8.5-59.5,9-62.5l2.6,4.9l-1.1-9.5
			l7.5,9.5l-3.7-9.5l7.3,5.6c-4.6-5.3-6.9-30.5-6.9-30.5S125.6,427.7,95,359.4z M87.2,271.6c0-2.6-1.5-5.1-4.2-7.5
			c0.7,0.2,1.5,0.4,2.3,0.7c-1-0.2-1.6-0.3-1.6-0.3c11.5,8.2,2,15.3,2,15.3l-1,0.2l-0.9-1.5C84.8,277.6,87.2,275.1,87.2,271.6z
			 M82.9,279l0.8,1.2L59,284.5c0,0,1.3,2.5,0.2,4.7c0.8-2.1-0.2-4.7-0.2-4.7l-1.8-0.9c0,0,0-0.1,0-0.1L82.9,279z M41.9,282.1
			c-0.4-4.9,6-11.3,9.1-14.1l-2.6,5.8c-2.5,3-4.7,6.5-4.5,9.7c0.2,1.8,1,3.3,2.2,4.4C44.1,286.6,42.1,284.7,41.9,282.1z M12.1,473.9
			c-17.4-26.2-10.6-67.7,20.2-123.5c1-1.9,1.8-3.3,2.2-4.1c4.3-8.8,16.5-49.4,18.1-55.1c1.3,0.4,2.3,0.5,2.3,0.5
			s-13.7,46.3-18.3,55.6c-4.4,8.9-48.7,79.9-24.8,124.1L12.1,473.9z M15.8,472.4l-1.2-3.3l-0.6-6.1l1.5,4.2L15.8,472.4z M20.6,474.3
			l-1.9-5.8l-0.3-5.8l2.2,6.6V474.3z M26.8,475.1l-3.1-6.7v-3l3.1,6.7C26.8,473.3,26.8,474.3,26.8,475.1z M53.2,556.4
			c7.4-14.4,3.7-67.9-0.4-79.3c-13.8-29.9-17.2-54.9-18-67c0.6-2.4,1.2-4.6,1.9-6.3c0,0-1.3,32.3,18.3,74.9
			c3.8,10.8,7.7,61.7,0.9,77.7H53.2z M73.9,556.4l-2.3-50.2c0.9-6.4,1.5-11.7,1.4-14.4l2.9,64.6H73.9z"/>
	<g id="timber-boots" class="monster-boots">
		<polygon points="68.9,536.5 84,534.1 84,550.2 93.5,559.2 70.4,559.2"/>
		<polygon points="54.1,534.1 68.9,536.5 65.7,552.1 73,558.3 49.1,559.8"/>
	</g>
</g>
<g id="smiley" class="monster">
	<path id="smiley-body" class="monster-body" d="M510.9,551.3c-0.5-2.4-3-4.7-6.1-6.6c-3.9-3.1-9.8-5.6-12.5-6.7c-0.8-1.4-1.9-4.5-3.3-11.3
		c-2.9-35.2,19.9-78.8,1.1-107.9c-3.6-5.5-8.1-9.7-13.1-12.8c-8.8-6.4-22.6-11.7-44.1-11.1c4.5-5.8,15.9-19.4,24.9-20.4
		c12.9-1.4,16.7,5.7,19.8,11.3c1.3,2.3,2.5,4.4,4.1,5.6c-2.3,2.4-3,5.3-1.6,7c0.7,0.8,1.6,1.1,2.8,1.1c1.6,0,3.5-0.8,5.2-2.2
		c2.9-2.5,3.9-5.9,2.3-7.8c-0.8-0.9-2.1-1.3-3.6-1.1c-1.5,0.2-3,1-4.4,2.1c0,0,0,0,0,0c-1.5-1.1-2.7-3.1-3.9-5.4
		c-3.1-5.6-7.3-13.3-20.8-11.8c-9.8,1.1-21.9,15.9-26.1,21.4c-3.7,0.1-7.7,0.5-11.9,1c-0.8-2.4-2.9-8.4-6.1-14.9
		c-3.9-7.8-10.3-18-18.7-22.2c-4.8-2.4-9.8-2.6-14.8-0.7c-5.8,1.7-9.3,6.6-11.4,10.7c-0.7-0.8-1.5-1.3-2.4-1.4
		c-1.2-0.1-2.4,0.6-3.3,1.8c-0.9,1.2-1.4,2.8-1.6,4.6c-0.1,1.8,0.2,3.5,0.8,4.8c0.7,1.4,1.8,2.2,3,2.3c0.1,0,0.2,0,0.2,0
		c1.1,0,2.2-0.6,3.1-1.8c0.9-1.2,1.4-2.8,1.6-4.6c0.1-1.7-0.2-3.4-0.8-4.7c1.9-4.1,5.3-9.2,11-10.8c4.8-1.8,9.5-1.6,14.1,0.7
		c13.8,6.9,22.3,30.5,24.3,36.4c-1.5,0.2-3.1,0.4-4.6,0.7l0,0.5l-0.1-0.5c-12.5,2-20.9,11.5-25.7,19.1c-5.5,8.6-9.3,19.5-10.3,29.1
		c-1.6,16.2,15.3,88.7,17.2,96.8c-20.6-0.4-27,15.6-27,15.7l0.5,0.7l3.1-0.1c-0.3,0.6-0.4,0.9-0.4,0.9l59.3-2.4l0.2-8
		c2.7,1,12.6-0.4,17.6-1.2l0.9,7.9l0.5,0.4l2.5-0.2l0.1,1L510.9,551.3z M461.7,399.4c-10.6-2.9-21.7-3.1-30.3-2.6
		c0.2-0.3,0.4-0.6,0.7-1C444.3,395.5,454,396.9,461.7,399.4z M369.4,557.1c1.5-3,8.1-14.4,24.9-14.4c0.5,0,1,0,1.5,0l0.5-0.6
		c-0.2-0.8-19-80.5-17.3-97.1c0.9-9.4,4.7-20.1,10.1-28.7c4.7-7.4,12.9-16.7,25-18.6l0,0c1.6-0.3,3.2-0.5,4.8-0.7
		c0.1,0.2,0.1,0.3,0.1,0.3l1-0.3c0,0,0-0.1-0.1-0.2c3.8-0.5,7.4-0.8,10.8-0.9c-0.4,0.5-0.6,0.9-0.7,1l0,0c-6.2,0.4-11,1.2-13.3,1.6
		c-21.9,3.5-33.9,30.8-35.6,47.7c-1.7,16.9,17.3,97.3,17.3,97.3c-16.4-0.6-23.8,9.2-26.2,13.5L369.4,557.1z M450.2,554.6l-0.9-7.4
		c1.2-0.2,2-0.3,2-0.3l0.9,7.6L450.2,554.6z"/>
	<g id="smiley-boots" class="monster-boots">
		<path d="M392.4,536.7l39.6,12v9.9l-66.9,0.9c0,0,6.9-22.6,26.9-18.8L392.4,536.7z"/>
		<path d="M445.8,558.1l66.9-4.7c0,0-4.7-15.8-20.5-17.3l-0.2-5.6L445.9,548v10.1H445.8z"/>
	</g>
</g>
<g id="mingle">
	<path id="mingle-body" class="monster-body" d="M1180.4,380.6l16.7-26.7l-3.6,1l1.3-2l-0.6-0.7l-20.2,5.8c-0.6-0.6-1.3-1-2-1.3
		c-0.5-0.4-0.9-0.8-1.4-1.2c-4.2-2.7-9.3-0.9-13.4,0.5c-1.4,0.5-2.8,1-4,1.2l0-0.1l-20.3-1.6l-0.5,0.7l8.5,16.8
		c-2.6,4.4-5.6,9.6-9,15.5c-8.4,14.7-18.7,32.6-23.4,35.6c-2.4-5.2-7.4-19.9-2.9-42.8c1.6-8.1,1.4-15.8,0.2-22.5l13.1-15.1l-3.5,0.3
		l1.1-1.3l-0.4-0.8l-16.4,1.3c-2-2.9-4.2-5.1-6.6-6.5c-0.6-0.5-1.3-1-1.9-1.4c-4.1-2.6-8.5-2.4-12.2,0.4c-1.8,1.9-3.5,3.8-5,5.8
		l0.1-0.3l-15.3-5.6l-0.6,0.7l7.4,18.3l0.9-0.3c-5,11.4-6.3,24.2-3.8,38.2c3.3,18,12.1,34.2,18.6,45c-2.2,8.8-5.7,19.1-8.6,20
		c-0.1-0.2-0.2-0.3-0.3-0.5c-5.5-11.6-1.7-30.1-7.9-33.9l0.3,1.7c-0.6-1.5-1.4-2.7-2.6-3.4l-0.8,0.5l1.3,8.1l-21.3,5.7l0,1l3.3,0.7
		l-0.6,0.2l10,2l7.2-1c0.3,5.7,1.8,24.1,7.3,28.5c0.8,0.6,1.7,1,2.7,1c0.1,0,0.2,0,0.3,0c0.9,0.7,2,1,3.1,0.7
		c6.5-1.4,11.2-10.4,13.4-15.6c5.6,19.9,5.7,49.5,5.8,64.7c0,2.9,0,5.2,0.1,6.8c0.3,12.4-13.4,25.1-13.5,25.2l0.3,0.9
		c1.2,0.1,2.9-0.4,4.7-1.2c-1.2,1.2-2,2-2,2c3.3,0.2,9.8-3.7,13.9-6.4c-0.8,2.9-2.3,6.3-3.1,7.9l0.7,0.6l4-2.6
		c-0.8,2-1.5,3.5-1.5,3.5l10.8-7.2l9.9,9.5l0.8-0.4l0-0.8l2.2,2.2l-0.6-11.2l10.8,10.3l0.8-0.6c0,0-0.2-0.4-0.4-1l2.7,2.5
		c0,0-6.4-14-7.7-39.5c-0.8-15.9,1.1-35,4.8-50.2l10.9,9.5l0.7,0c0.2-0.2,0.3-0.4,0.3-0.7l2,1.7c1.8-2-4.2-8.9-4.2-8.9
		c1-5.2-2-9.1-2-9.1c5.4,1.4,25.7-4,28-8c2.2-3.9-6-27.8-6.5-29.2C1171,411.4,1180.4,397,1180.4,380.6z M1140.7,445.6
		c2.7-3.7,7.5-8.5,12.8-14.1c1.8,4.3,4.7,11.9,4.4,16c-0.3,3.9-13.3,5.3-21.4,5.7C1137.8,450.2,1139.2,447.6,1140.7,445.6z
		 M1135,457.1l-2.4,7.7C1133.3,462.1,1134.1,459.5,1135,457.1z M1136.1,454.2c7-0.3,22.4-1.5,22.8-6.7c0.4-4.4-2.8-12.6-4.6-16.9
		c0.3-0.4,0.7-0.7,1-1.1c0.5,1,6.2,13.6,5.8,19.3c-0.5,5.8-23.6,6.3-25.4,6.3C1135.9,454.9,1136,454.5,1136.1,454.2z M1192.1,355.3
		l-16.3,4.6c-0.3-0.5-0.6-0.9-1-1.2l18.4-5.3L1192.1,355.3z M1157.6,356.9c3.8-1.4,8.2-2.9,11.8-1c-4.7-0.5-9.9,2.5-13.4,3.1
		l-3.6-0.3c0.4-0.3,0.7-0.5,1-0.5C1154.6,358,1156.1,357.5,1157.6,356.9z M1133.8,356.6l17.9,1.4c-0.2,0.2-0.5,0.4-0.7,0.6
		l-15.5-1.3l6.8,13.5c-0.3,0.4-0.5,0.8-0.8,1.3L1133.8,356.6z M1132.9,389c3.4-6,6.9-12.1,10.1-17.2l1.3,2.6
		c-12.2,20.3-29.2,53.3-34.6,51.9c0,0-0.3-0.5-0.7-1.3C1113.7,422.1,1121.8,408.5,1132.9,389z M1115.1,342.9l-1,1.2l-13.1,1
		c-0.2-0.3-0.4-0.7-0.6-1L1115.1,342.9z M1079.7,336.4c3-2.3,6.3-2.6,9.6-1.1c-2.4-0.3-4.9,0.3-7.2,2c-1.8,1.9-3.5,3.9-5,5.8
		l-2.4-0.9C1076.2,340.2,1077.9,338.3,1079.7,336.4z M1059.6,336.9l1.9,0.7l5.9,14.6c-0.3,0.6-0.6,1.2-0.9,1.9L1059.6,336.9z
		 M1063.7,392.2c-2.6-14.2-1.1-27.2,4.2-38.7l1.3,3.2c-11.9,28.6,2.2,59.2,12.8,77.7c-0.1,0.5-0.3,1.1-0.4,1.6
		C1075.2,425.2,1066.9,409.5,1063.7,392.2z M1082.2,437.8l0.4-0.2c-0.1-0.1-0.2-0.3-0.2-0.4c0.1-0.6,0.3-1.1,0.4-1.6
		c0.6,1,1.1,1.9,1.7,2.8c-2.1,8.2-7,25.1-11.2,19.7C1077,456.4,1080.5,444.7,1082.2,437.8z M1043.9,435.8l19.6-5.2l0.4-0.6l-1.2-7.2
		c1.5,1.7,2.2,4.9,2.6,8.7l-18.3,4.9L1043.9,435.8z M1062.5,438.1l2-0.3c0,0,0.8,22.1,6.2,28.8c-0.4-0.1-0.9-0.3-1.3-0.6
		C1064.2,461.9,1062.8,443.6,1062.5,438.1z M1082.4,549.3c3.3-3.3,13.1-14,12.8-25c0-1.7-0.1-3.9-0.1-6.8
		c-0.1-15.5-0.2-46.1-6.2-66.2c0.6-1.4,0.9-2.3,0.9-2.3l-0.3-1c8.9,22.9,7.6,66.1,7.9,77.6c0.2,8.5-5.9,17-10.1,21.8
		C1085.5,548.3,1083.8,549,1082.4,549.3z M1096.2,551.5c0.8-1.9,2.1-5,2.7-7.6c1.5-1,2.5-1.7,2.5-1.7c0.3,1.4-0.6,4.3-1.5,6.8
		L1096.2,551.5z M1118.1,555l-8.8-8.5l0.4-0.3l8.4,8.1L1118.1,555z M1130.7,554.3l-10-9.5l0-0.6l9.7,9.2
		C1130.5,553.7,1130.6,554,1130.7,554.3z M1142.9,476.1l-10.8-9.4c0-0.1,0-0.2,0.1-0.2l10.8,9.4
		C1142.9,475.9,1142.9,476,1142.9,476.1z"/>
	<g id="mingle-boots" class="monster-boots">
	<path d="M1120.4,548.4l15.1,10.6c-2.7-2.7-6.7-26.5-6.7-26.5l-9.4,0.6l0-0.1H1108h-1l-7.4,0.2h-8.4
		l-13.6,20.4l17.6-6.3l-3.1,9.8l15.9-9.2v-0.7l13.1,11.8L1120.4,548.4z"/>
</g>
</g>
<g id="spook">
	<path id="spook-body" class="monster-body" d="M225.3,446c0,0-1.6-1.8-4.2-3.4c-3.3-2.7-10.5-7.4-17.7-3.1c-4.9,2.9-2.5,11.1,0.1,19.8
		c2.6,8.9,5.3,18-0.1,21.1c-1.2,0.7-2.5,0.7-3.9,0.2c-0.5-0.2-1.1-0.5-1.6-0.8c-9.4-8.4-19.1-31.7-19.7-33
		c-3.9-11.5-7.1-19.2-7.1-19.2l6.7-4.7c-0.8,0.2-1.8,0-3-0.6l0.6-0.4l-0.4-0.9c-0.9,0.2-2.1-0.2-3.6-1c-2.7-2.4-5.8-6.3-8.5-11.8
		c-2.1-4.2-6.2-8.1-11.1-11.6c-7.9-6.3-18.5-11.4-25.2-14.6l-0.6-0.3c-8.2-4-22.4-1.9-27.9,1.4c-1.7,1-2.6,2.1-2.7,3.3
		c-0.1,2.5-0.1,2.8,1,3.2c0.7,0.2,2.1,0.6,4.9,3.8c4.9,5.6,9.6,32.5,16.8,73.3l1.1,6.5c0.2,1.4,0.5,2.8,0.7,4.1
		c0.1,0.6,0.2,1.2,0.3,1.8c-0.9,2.7-2,5.3-3.5,7.7c-0.9,1.4-2,2.7-3.2,3.9c-1.3,1.2-2.6,2.2-4.1,3c-3,1.7-6.3,2.6-9.7,3.1
		c-1.7,0.3-3.4,0.4-5.1,0.6c-1.7,0.2-3.5,0.2-5.2,0.5s-3.5,0.8-5,1.8c-1.5,0.9-2.8,2.4-3.4,4.1c-0.6,1.7-0.7,3.5-0.4,5.3
		c0.2,1.8,0.7,3.5,1.5,5.1h0.9c0.4-0.8,0.8-1.5,1.3-2.2c0.5,1.9,1.1,3.2,1.1,3.2c2.5-5.4,5.9-6.7,9.3-6.3c1.1,0.4,2.2,0.8,3.3,1.4
		l2.8,1.4c0.5,0.2,1,0.4,1.5,0.6s1.1,0.4,1.7,0.4c0.1,0,0.2,0,0.3,0c1,0.4,1.8,0.7,2.4,0.7c6.6-0.6,12-2.6,16.3-5.5
		c-3.7,35.6-44.4,33.9-44.8,33.9l-0.2,1c0.1,0,2.4,0.9,6.3,2.1c16.7,5.6,89.4,27.6,103.5-3.4c5.4-11.8,5.2-28.5,2.6-45.6
		c2.6,1.7,5.6,3.2,8.9,4c4.6,1.8,10.1,2.5,16.1,0.5c17.1-5.7,0.6-37.9-0.7-48.6C213.8,441.3,225.3,446,225.3,446z M203.9,481.2
		c6.1-3.4,3.3-13,0.5-22.2c-2.5-8.3-4.8-16.2-0.5-18.7c3.9-2.3,7.8-1.8,11-0.4c-2.7-0.5-5.6-0.3-8.6,1.4c-9.5,5.6,11.1,34.7,0,40.9
		c-1.8,1-3.7,0.8-5.6-0.3C201.9,482,203,481.8,203.9,481.2z M96.5,388.7c-0.1-0.2-0.1-1,0-2.1c0-0.8,0.8-1.7,2.2-2.5
		c5.1-3.1,18.1-5,26.1-1.7c-10.5-2.5-25.9,1.3-26.1,5.6c0,0.7,0,1.3,0,1.6c-0.9-0.6-1.5-0.7-1.9-0.9
		C96.7,388.7,96.5,388.7,96.5,388.7z M119.2,466.6c-7.5-42.4-12-67.9-17.1-73.8c-0.6-0.7-1.2-1.3-1.7-1.7c0.9,0.5,2.2,1.4,4,3.5
		c5.1,5.8,9.8,33.2,17.7,77.5c-0.3,1.7-0.6,3.4-1.1,5c-0.2-1.3-0.5-2.7-0.7-4L119.2,466.6z M82.9,513c-0.5-1.2-0.9-2.6-1.1-3.8
		c-0.3-1.7-0.2-3.4,0.3-4.9c0.5-1.6,1.6-2.8,3-3.7c1.4-0.9,3.1-1.4,4.7-1.7s3.4-0.3,5.1-0.5c1.8-0.1,3.5-0.3,5.2-0.6
		c3.4-0.6,6.9-1.5,9.9-3.3c1.5-0.8,2.9-1.9,4.2-3.1c1.3-1.3,2.4-2.6,3.3-4.1c0.5-0.8,0.9-1.5,1.3-2.3s0.8-1.6,1.1-2.4
		c0.3-0.7,0.5-1.4,0.8-2.2c0.1,0.6,0.2,1.2,0.3,1.9l1-0.2c-0.2-1.3-0.4-2.5-0.7-3.8c0.1-0.2,0.1-0.4,0.2-0.6
		c0.4-1.5,0.7-2.9,0.9-4.4c0.4,2.1,0.8,4.3,1.1,6.5c-4.8,16-15.6,18.8-28.4,19.6c-10.9,0.7-11.7,7-10.9,11.5
		C83.7,511.6,83.3,512.3,82.9,513z M124.4,507.3c0.9-0.6,1.7-1.3,2.4-2c-0.8,34.4-32.5,38.2-42.6,38.5c-1.1-0.3-2-0.7-2.8-0.9
		C91.2,542.5,121.6,538.8,124.4,507.3z"/>
	<g id="spook-boots" class="monster-boots">
		<path d="M102,398.5l20.9-19.1l-22.6-10.1c0,0,10-16.1,1.5-18.6s-20.5,26.8-20.5,26.8L102,398.5z"/>
	</g>
</g>
<g id="squido">
	<path id="squido-body" class="monster-body" d="M422.5,528c0-0.4-0.3-0.5-0.6-0.7c-0.5-0.2-1.1-0.3-1.8-0.4c-7.6-2.4-34.1-12.1-41.1-16
		c-0.6-1-1.5-3-2.6-5.7c1.2-0.5,2.9-1.3,4.7-2.2c4.2-1.5,7.8-3.2,8-4.5c0,0-0.7-0.1-1.8-0.3c0.1-0.2,0.2-0.4,0.2-0.7L387,497
		c-0.1,0-9.1-1-14-4.1c-0.2-0.2-0.5-0.5-0.7-0.7l0,0c-1-5-1.5-10.4-0.6-15.4c2.4-14,0.8-45,0.8-45h7.9c0,0-7.3-13.8-9.5-22.8
		c-1.5-6-3.4-28.5-17.5-39c-5.2-4.6-12.1-7.5-21.6-7c-5.8,0.3-11.5,1.8-16.8,4.4c-7.1,3.4-17.7,9.1-17.8,9.1l-0.3,0.4
		c0,0.7-4.3,72.4,6.8,111.2l0,0.6c0,1.6,0,3.5-0.1,5.5c-0.9,1.3-8.9,12.5-20.6,12.6l-0.2,1c0.4,0.1,7.9,2.8,13.9,2.8
		c0.7,0,1.3,0,1.9-0.1c0.1,0,0.3,0,0.4,0c-2.6,4.2-6.8,7.7-13.2,9.6c-18.7,5.4-27.8,13.1-27.9,13.2l0.4,0.9l4.3-1
		c-1.5,1-2.2,1.6-2.2,1.6l53.2-12.8c-7.6,7.2-27,26.1-27.9,32.6l0.7,0.5c0.1,0,1-0.6,2.7-1.4c-0.4,0.8-0.6,1.5-0.7,2.1
		c0,0,36.7-19.6,44.3-20.9c7.2-1.3,18.3-9.2,20.8-15.5c3.7,2.9,11.7,8.5,21.4,10.9c4.3,1.3,8.9,2,13.7,1.6c10.6-1,27.3-4.2,33.6-3.4
		c-0.1,0-0.2-0.1-0.3-0.1L422.5,528z M386.1,498.1c-1.1-0.2-2.5-0.5-3.9-0.8c1.7,0.4,3.2,0.6,4,0.7C386.2,498,386.1,498,386.1,498.1
		z M297.9,377.2c1.6-0.9,11-5.9,17.5-9c5.2-2.6,10.7-4.1,16.4-4.3c4.1-0.2,7.7,0.3,10.9,1.3c-2.6-0.6-5.5-0.8-8.7-0.7
		c-5.8,0.3-11.4,1.8-16.6,4.4c-7.2,3.4-17.8,9.1-17.8,9.1s-4.4,71.9,6.8,111.1c0,2,0,4.7-0.2,7.6c-0.6,0.6-1.3,1.3-2,2.1
		c0.5-3.8,0.5-7.4,0.5-10.1l0-0.6l0-0.1C294,450.4,297.6,382.1,297.9,377.2z M303.5,496c-0.1,1.3-0.3,2.6-0.5,3.9
		c-3.8,3.5-9.3,7.3-15.4,8.3c-0.8-0.2-1.5-0.4-2.1-0.6C294.5,506.3,301,499.1,303.5,496z M260.5,532.7c3.5-2.5,12-7.7,25.6-11.6
		c7-2,11.4-5.9,14.1-10.4c0.7,0.1,1.4,0.2,2.1,0.2c-2.6,4.7-7,8.7-14.2,10.8c-11,3.2-18.6,7.1-23,9.8L260.5,532.7z M287.1,553.7
		c2.7-7.5,22.6-26.6,28.6-32.2l3.6-0.9c0,0-22.8,21-29.1,31.4C288.8,552.8,287.8,553.4,287.1,553.7z M354,518.4
		C354,518.4,354,518.3,354,518.4c0-0.1,0.4,0.3,1.2,0.9C354.7,519,354.3,518.7,354,518.4z"/>
	<g id="squido-boots" class="monster-boots">
		<path d="M323,539.1c0,0-7.9-11.2-17.8-12l-19.1,15.2c0,0-10.1-7.1-12.1-1.3s13,17.7,13,17.7L323,539.1z"/>
	</g>
</g>
<g id="filo">
	<path id="filo-body" class="monster-body" d="M277.8,483.7c-11.8-26.9-16.9-37.1-16.7-46.6c0.2-8.1,1.2-34.9,1.5-42.7
		c7.6-2.7,12.6-9.2,4.1-18.3c-1.1-1.2-2.2-2-3.4-2.6c-4.4-3.9-9.9-4-15-0.1c-5,3.9-7.8,10.3-5.8,13.5c3.3,5.5,7.2,7.7,10,8
		c0.2,0.1,0.4,0.2,0.6,0.3c0.3,5.6,1.8,44.2-8,50.9c-0.6,0.4-1.2,0.6-1.8,0.5c-6.3-8.2-8.8-41.4-9.4-49.1c0.9-0.8,1.6-1.7,2.1-2.9
		c2.5-6.4,1.2-14.3-4.6-17.2c-1.8-1.8-4.3-2.8-7.2-2.9c-5.6-0.2-10.8,1.8-13.5,5.4c-2,2.6-2.5,5.7-1.5,8.8c2.4,7.9,8,9.8,8.2,9.9
		l0.1,0c0.1,0,0.8,0.2,1.8,0.3c0.6,0.4,1.1,0.5,1.1,0.5s2.2,0.5,4.9,0.5c0.5,6.6,2.2,37.7-4.6,50.7c-1,2-2.4,4.3-4,7.1
		c-9.9,17.2-28.3,49.2-10,68.1c4.1,4.3,8.9,7.7,14.2,10.1l0.2-0.5c18.7,10.1,39.1,4,45.7,0c5-3,12.5-11.8,14.8-24.5l2.7,3
		C287.6,496.8,277.8,483.7,277.8,483.7z M243.4,386.3c-1.7-2.7,1-8.6,5.5-12.1c1.4-1.1,4-2.7,7.1-2.7c1.2,0,2.5,0.3,3.8,0.9
		c-8.9-1.1-17.1,11-14.2,15.5c1.2,2.1,2.5,3.7,3.8,4.9C247.6,391.7,245.4,389.6,243.4,386.3z M210.2,388.3c-0.9-2.8-0.4-5.6,1.4-7.9
		c2.6-3.3,7.4-5.3,12.7-5c1.5,0.1,2.8,0.4,4,0.9c-0.4-0.1-0.8-0.1-1.3-0.1c-9.5-0.4-17,5.9-14.6,13.6c1.1,3.7,3,6,4.6,7.5
		C215.5,396.4,211.9,393.9,210.2,388.3z M223.6,452.1c-7.8,14.9-34.9,53.1-14,74.6c1.7,1.7,3.4,3.2,5.2,4.6
		c-2.7-1.8-5.1-3.9-7.4-6.3c-17.9-18.4-0.4-48.8,10.1-66.9c1.6-2.7,2.9-5.1,4-7.1c7-13.4,5.3-44.3,4.8-51.2c0.8,0,1.5-0.1,2.3-0.2
		C229.1,410.3,229.9,440,223.6,452.1z M248.1,447.7c-1.4,0.9-2.7,0.8-3.9-0.3c0.5-0.1,1-0.3,1.4-0.6c10.2-6.9,8.8-44.3,8.5-51.4
		c0.8,0.2,1.5,0.3,2.1,0.2C256.3,395.7,259,440.3,248.1,447.7z"/>
	<g id="filo-boots" class="monster-boots">
		<path d="M239.4,542l23.8-4.6c0,0-2.5,12.2-4.9,13.2c0,0,6,4.5,6.2,7.3l-24.5,1.3L239.4,542z"/>
		<path d="M219.1,537.4l21.6,3.7c0,0-1.5,9.2-2.9,11.3c0,0,5.5,3.9,5.5,6.9h-23.9L219.1,537.4z"/>
	</g>
</g>
<g id="frex" class="monster">
	<path id="frex-body" class="monster-body" d="M928.1,507.8l-3.7-0.5l1.3-0.6l-0.1-0.9l-0.1,0l0-0.1l-0.2,0.1l-2.7-0.4
		c5.1-4.5,18.9-18.7,5.4-31.3c-0.5-0.4-1.1-0.8-1.7-1.2c-0.5-0.5-1.1-1-1.6-1.4c-1-0.7-2.1-1.3-3.2-1.8c-1-0.5-2-0.9-3-1.2
		c-1.6-9.9-6.3-18.7-15.3-24l10.1-12.2l-17-26.2l-0.5,0.8l-1.6-2.4l-0.8,0l-9.2,14.2l0.3,0.8l2.8,0.6l-0.1,0.2l3.8,0.8l5-2.7
		l1.2,2.5l-16.7,16.3c-38.2-5.3-85-0.3-102.2,2.4l-4-11.2h6.3l-0.1,1.8l0.3,0.5l2.9,1l0.2-0.1l2.4,0.8l1.9-5.2l-2.2-1.6l0,0
		l-14.2-10.1l-0.5,0l-22.6,11.7l-0.2,0.7l9.7,18.2c-9.9,5.3-16.1,13.2-18.2,23.5c-0.1,0.6-0.2,1.1-0.3,1.7
		c-1.9,1-11.7,6.8-14.1,14.9c-1,3.4-0.6,6.8,1.3,10.1c3.2,4,10.7,7.3,12.7,8.1c-0.4,1.3-1.3,5.2,1.3,7.8l-5.6,7.1l0.7,0.7l7.6-5.9
		l-5.4,6.8l11.9-9.3c0.4,0.5,0.7,1,1.1,1.4c1.5,1.8,4.9,3.4,9.5,4.7c3.4,1.2,7.7,2.2,12.8,3c0.1,2.8,0.8,10.1,5.3,14.7
		c2.1,2.2,4.9,3.4,8.1,3.7c0.4,0.1,0.8,0.2,1.2,0.3c-0.3,2.9-1.9,12.7-7.1,14.8l0.2,1h3.7c-0.4,0.2-0.7,0.4-1.1,0.6h15v-32.3
		c14.9,1,31.5,1.4,47,1.4c0.9,6.5,3.7,15.7,12.1,17.2c0.6,0.3,1.3,0.5,2,0.7c-0.4,3.1-1.9,12.5-7.1,14.6l0.2,1h4
		c-0.4,0.3-0.9,0.6-1.4,0.8h15v-34.6c13.1-0.5,23.3-1.3,27.9-2.3c4.4-0.9,8.9-5.5,12.6-12l9.8,7.3l0.4,0.1l0.9-0.1l1.6,1.2l5.9-0.8
		l-7.3-7.5L928.1,507.8z M887.9,419.2l-2.4-0.5l8.4-12.9l1.4,2.1L887.9,419.2z M781.5,428.4h2.1l-0.1,2.2l-2-0.7L781.5,428.4z
		 M727.6,495.8c-1.7-3-2.1-6.2-1.2-9.3c2.1-7,10.2-12.3,13-14c-0.1,0.8-0.2,1.6-0.2,2.5c-5.5,3.8-15.2,12.3-9.4,22.4
		c0.5,0.6,1,1.1,1.6,1.7C729.9,498,728.6,496.9,727.6,495.8z M738.6,516.6l3.3-4.2l-0.1-0.7c-2.8-2.2-1.6-6.3-1.3-7.2
		c1.3,0.6,2.1,0.9,2.1,0.9s-1.8,4.6,0.8,7.4L738.6,516.6z M734.7,495.7c-1.7-1.5-2.8-3.2-2.7-5c0.4-4,4.3-6.9,7.2-8.5
		c0.6,6.5,2.4,12.8,4.6,18.2C741.3,499.4,737.6,497.7,734.7,495.7z M745.9,502.1l-0.5-0.9l-0.3-0.2c0,0,0,0,0,0
		c-2.4-5.6-4.4-12.3-4.9-19.2c1-0.5,1.7-0.8,1.9-0.9c0.3,7.8,2.5,15.5,5.2,21.8C747.1,502.6,746.6,502.4,745.9,502.1z M751.8,512.4
		c-0.3-0.4-0.7-0.9-1.1-1.4l0.7-0.6c0.8,1.3,1.6,2.5,2.4,3.5c0.1,0.1,0.2,0.3,0.4,0.4C753.2,513.7,752.3,513.1,751.8,512.4z
		 M742.5,472.8c-0.2,0.1-1,0.5-2.1,1.2l0.1-2.5l-0.1,0c0.1-0.6,0.2-1.2,0.3-1.8c2.1-10,8-17.6,17.7-22.8l0.8,1.5
		C748.8,454.6,744,463.5,742.5,472.8z M761.3,447.4c-0.3,0.2-0.7,0.4-1,0.5l-10.7-20.1l21.9-11.3l1.6,1.1l-21.6,11.2L761.3,447.4z
		 M779.3,534.7c-4.1-4.2-4.8-11-5-13.8c0.7,0.1,1.5,0.2,2.3,0.4c0.5,4.8,2.1,12.4,7,16.2C782,536.9,780.5,535.9,779.3,534.7z
		 M786,554.2h-3.1c4.4-3.4,5.7-11.7,6-14.5c0.7,0.1,1.4,0.2,2.2,0.1C791.1,539.8,790.3,549.8,786,554.2z M846.6,524.9
		c0.6,0,1.2,0,1.9,0c0.5,4.5,1.9,11.1,6,15C849.3,536.9,847.3,530.1,846.6,524.9z M857.9,557.2h-3.3c4.3-3.3,5.7-11.4,6-14.3
		c0.7,0.1,1.4,0.2,2.2,0.1C862.9,543,862.2,552.7,857.9,557.2z M879.2,438.4c-38.1-4.5-83.6,0.4-100.2,3.2l-0.4-1.1
		c17.2-2.7,63.2-7.6,101-2.5L879.2,438.4z M883.2,439c-0.9-0.1-1.8-0.2-2.7-0.4l17.7-17.2l0.1-0.6l-1.4-2.9l1-0.6l2.4,5L883.2,439z
		 M921.5,470c1.1,0.5,2.1,1.1,3.1,1.8c0,0,0,0,0.1,0.1c-1.9-1-3.9-1.7-5.9-2.3c0-0.2-0.1-0.5-0.1-0.7
		C919.6,469.2,920.6,469.6,921.5,470z M919.3,476.2c0.5,0.5,1,1,1.5,1.6c1.8,2.2,2.9,5,2.9,7.9c0,2.8-1,5.6-2.3,8.2
		c-1,1.2-2.4,2.2-3.8,3.1c-0.5,0.3-1,0.7-1.5,1C918.2,491.1,919.5,483.6,919.3,476.2z M914.5,502.4c0.4-0.9,0.7-1.9,1-2.9
		c0.9-0.5,1.7-1.1,2.5-1.6c1.4-0.9,2.8-1.9,3.9-3.3c1.3-2.7,2.3-5.6,2.3-8.6s-1.2-6-3.1-8.2c-0.6-0.6-1.2-1.2-1.9-1.8
		c0-0.2,0-0.3,0-0.5c5.6,3.7,10.2,10,4.9,20.2C922.9,497.5,918.5,500.2,914.5,502.4z M921,506.8c0,0,0.4-0.3,0.9-0.8l2,0.3l-1.5,0.7
		L921,506.8z"/>
	<g id="frex-boots" class="monster-boots">
		<path d="M783.4,539.8l15.8-0.3l-0.6,16.4h-19.3C779.3,555.9,785.5,546.6,783.4,539.8z"/>
		<path d="M855.4,543l15.8-0.3l-0.6,16.4h-19.3C851.3,559.1,857.5,549.7,855.4,543z"/>
	</g>
</g>
<g id="melville" class="monster">
	<path id="melville-body" class="monster-body" d="M1011.5,507.1c0-0.2,0-0.3,0.1-0.5l-0.2-0.4c-0.2-0.1-0.5-0.2-0.8-0.4c0.8-2,1.3-4.2-0.9-3.4
		l-0.7,0.7c0.1-0.4,0.2-0.9,0.2-1.4c-0.1-0.2-0.1-0.5-0.3-0.7c-0.1-0.1-0.2-0.2-0.4-0.3c0.2-1.3,0-2.2-1.2-1.6
		c-0.3,0.1-0.6,0.3-0.9,0.5c0.1-0.4,0.1-0.8,0.1-1.2c0-0.2,0-0.4-0.1-0.6s-0.2-0.5-0.5-0.6c-0.5-0.2-0.9,0-1.2,0.1h0.1
		c-0.5,0.2-1,0.5-1.4,0.9c0-0.2,0-0.4-0.1-0.6c0-0.1,0-0.2-0.1-0.3c-0.1-0.1-0.2-0.2-0.3-0.3c-0.2-0.2-0.5-0.2-0.7-0.2
		c-1.5,0.3-2.4,1.2-3.1,2.3c-0.7,1-1.1,2.2-1.6,3.3c-0.3,0.7-0.6,1.3-1,1.9c-0.2-0.1-0.4-0.2-0.6-0.2c-0.1-0.3-0.3-0.5-0.5-0.8
		c-0.5-0.6-1.3-1-2.1-1.1c-0.1,0-0.3,0-0.4,0l0.2-0.8c0,0,1.1-15.1,2.2-32c1.2,0.5,2.4,1.4,3.1,2.7c0.7,1.2,1.2,3-0.2,5.4l0.9,0.5
		c1.6-2.8,1-5,0.2-6.4c-0.9-1.6-2.4-2.7-3.9-3.2c1.3-20,2.6-42.1,2-44.4c-0.3-1.3-1.1-3.7-2.8-6.5l7-16.3l-2.9,2l1.4-3.2l-0.7-0.6
		l-13.9,9.4c-4.5-2.6-10.6-4.6-18.8-4.9l-7.1-22.1l-0.6,1.4l-0.9-3l-0.9,0l-9.3,22.7l0,0.4c0,0,0,0.1,0.1,0.1
		c-5.1,1.3-9.7,3.2-13.8,5.7l0,0l0-0.4L919,396.8l-0.8,0.5l3.2,22.2l0.9,0.2c-1.1,1.5-2.1,3-3,4.6c-5.7,10-7.4,22.3-4.8,34.6l0,0.1
		c0,0.1,2.5,5.6,4.7,12.8h-12.8c0,0,0,0,0,0c-0.8-1-1.7-1.8-2.5-2.4l1.8-1.8c1.1,1.1,2.8,2.4,4.5,2.7c1.4,0.8,3,1.3,4.6,0.5
		c1-0.8,1-5.6-2.3-7.9c-1.3-1.8-3.3-2.9-5.8-2.9c-2.3,0-14.6,15.4-18.3,20.1l0,0.6c0.4,0.6,7.9,12,16.6,14.5c2,0.9,4,1.4,6.1,1.2
		c4.4-0.4,8.4-3.1,11.6-5.9c0,0.8,0,1.6-0.1,2.4l0.6,0.5l1.9-0.5c0,0.5,0,0.9-0.1,1.4l5.1-1.4c1,1.6,2.9,4.3,6.1,7.4
		c0.4,0.4,0.8,0.7,1.2,1.1c-1,1.9-5.9,12.4-3.3,16.8c0.8,1.3,2.5,2.6,4.7,4.3c5.9,4.4,14.7,11.1,13,24.7c0,3.1-9.7,7-13.5,8.2l0.2,1
		h4.2c-1.3,0.5-2.2,0.8-2.2,0.8h21.3v-28.6c0,0-0.6-0.4-1.5-1.2v-0.1l-0.2-0.4c0,0-0.6-0.4-1.5-1.2c-2.6-3-5.4-7.9-2.3-13.7
		c1.8,0.7,3.7,1.3,5.7,1.8c1.3,2.6,7.2,14,17.4,19.7c1.1,1.3,1.6,4.3,0.5,7.9c-1,3.4-4.2,9.6-14.1,12.1l-0.1,0.9l3.6,1.8l0.2,0.1
		h0.4l1.6,0.8h19.3v-26.6c0,0-13.3-12.2-3.5-18.7c0.2,0.2,0.4,0.5,0.7,0.7c0.3,0.2,0.6,0.5,0.9,0.7l1,0.6c1.7,0.9,3.5,1.6,5.4,2
		c8.8,3.4,18.4-0.3,18.5-7.8C1013.8,507.9,1012.7,507.2,1011.5,507.1z M1011.2,506.9c0,0.1,0,0.2,0,0.3c-0.7,0.1-1.3,0.4-1.8,1.3
		c0.2-0.3,0.6-1,0.9-1.9C1010.6,506.6,1010.9,506.7,1011.2,506.9z M1008.6,501.7c0.1,0.4-0.1,1.1-0.3,1.7c-0.1,0.2-0.2,0.5-0.3,0.7
		l-0.7,0.8c0,0,0.7-1.9,1.1-3.5C1008.5,501.4,1008.5,501.4,1008.6,501.7z M1005.3,498.1L1005.3,498.1c0.3-0.1,0.6-0.1,0.6-0.1
		s0.1,0.1,0.1,0.4c0,0.5-0.1,1-0.2,1.6c0,0.1-0.1,0.2-0.1,0.3c-0.3,0.4-0.5,0.8-0.6,1.1c0.3-0.9,0.8-3.3-0.9-2.7
		C1004.6,498.5,1004.9,498.3,1005.3,498.1z M998.4,502.7c0.5-1.1,1-2.2,1.6-3.2c0.3-0.4,0.7-0.8,1.1-1.2c0.5-0.3,1-0.7,1.4-0.7
		c0.2,0,0.2,0,0.3,0.2c0,0.2,0,0.4,0,0.7c0,0.3-0.1,0.5-0.1,0.8c0,0,0,0.1-0.1,0.1c-0.2,0.3-0.3,0.5-0.4,0.9l0,0
		c-1.6,2-1.9,5.1-4,6.7c0,0,0-1.3-1-2.2C997.7,504.1,998.1,503.4,998.4,502.7z M993.2,502.8c0.7,0.1,1.3,0.4,1.7,0.9
		c0.1,0.1,0.1,0.2,0.2,0.2c-0.3,0-0.6,0-1,0c-0.4,0-1,0-1.7-0.3l0.2-0.9C992.8,502.7,993,502.7,993.2,502.8z M998.4,401.1l-1.3,3.1
		l-9.2,6.2c-0.5-0.4-1-0.7-1.6-1.1L998.4,401.1z M948.8,403l8.7-21.2l0.9,2.8l-8.1,19.8c0,0,0.1,0.2,0.4,0.6c-0.1,0-0.2,0-0.2,0
		c-0.7-0.8-1.2-1.5-1.5-1.9l0-0.1c0,0,0,0,0,0C948.8,403.1,948.8,403,948.8,403z M948.4,404.3c0.2,0.3,0.5,0.7,0.8,1
		c-5.1,1.1-9.6,2.8-13.5,5.1l-0.8-0.6C938.9,407.3,943.5,405.5,948.4,404.3z M913.3,485.2c0.8,0.4,1.6,0.7,2.5,0.9
		c-2,1.7-4.3,3.1-6.9,3.3c-2.5,0.2-5-0.8-7.4-2.9c-0.3-0.3-0.6-0.7-0.9-1.1c0,0,5.3-0.1,8.1-2.7
		C909.9,483.8,911.4,484.7,913.3,485.2z M909,490.5c3.1-0.2,5.9-2,8.1-4c0.8,0.1,1.6,0.2,2.4,0.2c-3.3,3.3-8.1,6.4-13.5,3.6
		C907,490.5,908,490.6,909,490.5z M921.9,473.6h-1.1c-0.1-0.3-0.2-0.5-0.2-0.8h1.1C921.7,473.1,921.8,473.3,921.9,473.6z M909.4,482
		C909.4,482,909.4,482,909.4,482c0.1,0,0.1,0.1,0.2,0.1C909.5,482.1,909.4,482.1,909.4,482z M926.3,417.9c2-2.3,5.2-5.3,8.8-7.1
		C931.6,412.8,928.7,415.2,926.3,417.9z M919.4,398.4l1.5,1.1l2.5,17.3c-0.4,0.5-0.8,1-1.1,1.3L919.4,398.4z M922.6,419.3
		c-0.1,0.1-0.1,0.2-0.2,0.3C922.4,419.5,922.5,419.5,922.6,419.3z M915.5,458.6c-2.6-12.1-0.9-24.1,4.7-33.9
		c1.1-1.9,2.3-3.6,3.6-5.3l0.2,1.3c-7.9,10.6-10,24.9-6.9,39.3c0,0,2.2,5,4.4,11.7h-1.1C918.2,464.7,915.7,459.2,915.5,458.6z
		 M919.7,473.6h-11.6c-0.2-0.3-0.5-0.5-0.7-0.8h12.1C919.6,473.1,919.7,473.3,919.7,473.6z M906.3,466.8l0.1-0.1
		c0,0,0.2,0.4,0.7,0.8C906.8,467.3,906.5,467.1,906.3,466.8z M889.3,480.3c7.5-9.5,15.9-19.2,17.3-19.4c1.5,0,2.6,0.4,3.5,1
		c-0.5-0.1-0.9-0.2-1.5-0.2c-0.6,0-2.1,1.4-4,3.4l-0.6,0l-2.9,3l0.1,0.8c-5,5.7-10.6,12.8-10.6,12.8s2,3.1,5.2,6.5
		C892.5,484.8,890,481.3,889.3,480.3z M923.4,492.1c0-0.9,0.1-1.8,0-2.7c0.5-0.4,0.9-0.9,1.3-1.3l-0.3-2.2c0,0,0.1,0,0.1,0
		c0.3,2,0.4,3.9,0.4,5.8L923.4,492.1z M931,492.4l0.6-0.2c0,0,1.4,3.2,5.3,7.2c0,0,0,0-0.1-0.1C933.8,496.5,932,494,931,492.4z
		 M934.8,517.4c-2.2-3.8,2.1-13.3,3.3-15.6c0.5,0.4,1,0.8,1.5,1.2c-1.2,2.6-5.5,12-3.2,15.9c0.1,0.1,0.2,0.3,0.3,0.4
		C935.8,518.7,935.2,518.1,934.8,517.4z M941.3,555.2c4.2-1.6,11.4-4.8,11.4-8.1c1.1-8.9-2.1-15-6.1-19.3c4.7,4.4,8.9,10.7,7.6,20.6
		c0,2.5-5.1,5.2-9.1,6.9H941.3z M963.3,514c0.3,0.1,0.6,0.2,0.9,0.2c0,0,3,7,9,13.3C967.9,522.4,964.6,516.5,963.3,514z
		 M980.8,541.6c0.9-3,0.8-5.9-0.1-7.9c0.3,0.2,0.6,0.4,1,0.6c2.8,3.1,1.8,16.2-12.7,20.6l-1.7-0.9C977,551.1,980,544.4,980.8,541.6z
		 M988.5,511c0.1-0.1,0.2-0.1,0.3-0.2c0.3,0.5,0.6,0.9,1,1.3C989.3,511.8,988.9,511.4,988.5,511z"/>
	<g id="melville-boots" class="monster-boots">
		<path d="M950.7,542.9h11.7l1,15.2l-27.1-0.6l0.5-3C936.8,554.5,952.9,553.3,950.7,542.9z"/>
		<path d="M965,558.1l-0.8-4.9c0,0,14.4-4,14.4-12.3H991v17.3L965,558.1z"/>
	</g>
</g>
<g id="yodel" class="monster">
	<g id="yodel-body" class="monster-body">
		<path d="M544.3,559.1h-1.1C543.6,559.3,544,559.3,544.3,559.1z"/>
		<path d="M625.1,451.4c-0.4-0.3-1-0.2-1.7,0c0,0,0,0,0,0c0-0.2,0.1-0.4,0.1-0.7s-0.2-0.6-0.4-0.7
			c-0.1-0.1-0.2-0.2-0.3-0.2c-0.1-0.1-0.2-0.1-0.3-0.1c-0.3,0-0.4,0-0.6,0c-0.1,0-0.2,0-0.2,0c0.3-0.7,0.2-1.3-0.6-1.4
			c-0.3-0.1-0.7,0-1.2,0.1c0.1-0.3,0.1-0.5,0.1-0.8c-0.1-0.3-0.3-0.5-0.5-0.7c-0.3-0.1-0.5-0.2-0.7-0.2c-0.5-0.1-0.8,0-1.2,0.1
			c-1.4,0.4-2.6,1.2-3.7,2c-0.5,0.3-0.9,0.7-1.4,1.1c-0.6-1.4-1.4-2.6-2-2.6c-0.1,0-0.2,0.1-0.3,0.3c-0.3-0.5-0.6-1.1-1.2-1.5
			c-0.2-0.2-0.4-0.3-0.7-0.3c0,0-0.2,0-0.3,0.1c-0.1,0.1-0.1,0.1-0.2,0.2c-0.1,0.1-0.2,0.2-0.2,0.3c-0.1,0.4-0.2,0.8-0.2,1.1
			c-0.1,1.3,0,2.7,0.1,4c0.1,1.3,0.2,2.5,0.4,3.7c-10.4,5.1-20.8,10.3-31.2,15.5c-0.2-0.5-0.3-1-0.5-1.5l-0.9,0l-2.3,6.7l-4.3-10.1
			l-0.2,2.4l-1.5-3.6l-1,0.2l-1.5,16.8l-3.6-2.7l0,0l-1.9-1.4l-0.8,0.2l-3.7,8l-1.2-2.2l-0.4,1.3l-1.4-2.5l-0.9,0.1l-0.9,3.2l-4-5.7
			l-0.1,1l-1.6-2.3l-0.9,0.2l-1.5,10.8c-0.6-0.2-1.7-0.7-3-1.5c-1.2-0.9-2.5-2.1-3.7-3.6c0.4-1.4,1.6-5.3,3.1-8.2
			c0.5-0.9,1-1.4,1.7-1.5c0.5,0.1,1.1,0.3,1.9,0.5c1.4,0.5,3.1,1.1,5.2,1.1c0.2,0,0.4,0,0.5,0c0.2,0,0.4,0,0.6,0
			c3.9,0.1,3.8-3.1,3.6-4.8c0.5,0.2,1,0.3,1.6,0.2c0.1,0,0.2,0,0.3,0c3.3,0.6,6.6-4.3,6.6-4.3s-0.4,0-0.9,0.1
			c0.1-0.2,0.2-0.3,0.2-0.3l-0.4-0.8c-0.1,0-2.4,0-4.9,2c-0.7,0.5-1.5,0-2.6-0.9c-0.9-0.7-1.8-1.4-2.7-1.1c-0.7,0.2-1.2,1-1.6,2.3
			c-1.2,3.7-2.1,3.5-5.4,3.1c-1-0.2-2.3-0.3-3.9-0.4c-1.5-0.1-2.9,0.4-3.9,1.4c-1.4,1.3-2.2,3.3-2.6,5.1c-2.1-5.1-3.1-11.9-1.6-21
			l3.7,9.5l1-0.1l0.3-2.6l1.4,3.5l1.6-12l5,6.9l0.9-0.3l0-1.4l1.7,2.4l-0.3-7.3l12.2,9.6l0.8-0.6l-0.1-0.3l1.8,1.4l-4.1-11.8
			l9.6,5.9l0.7-0.5l1.8,1.1l-4.3-13.7l15.2,8.3l0.5-0.4l1.9,1.1c0,0-6.3-22.9-17.9-31.1c-2.9-2.6-6-4.1-9.2-4.4
			c-5.3-0.5-13.1,0.3-21.1,2.5c-1.7-1.2-3.7-2.5-5.8-3.8c-8.4-4.8-15.7-6-21.3-3.7c-3.4,1.4-6.1,4.1-8.2,8.1
			c-3.3-1.8-6.5-2.5-9.6-2.2c-7.6,0.8-13.9,8.4-18.7,22.5c-2.3,0.2-4.1,2-4.1,4.4c0,2.4,2,4.4,4.4,4.4s4.4-2,4.4-4.4
			c0-2.2-1.6-4-3.7-4.3c4.7-13.5,10.6-20.7,17.8-21.5c3-0.3,6.1,0.5,9,2.1c-2.8,5.7-4.4,13.9-4.8,24.4c-2.2,0.2-3.9,2.1-3.9,4.4
			c0,2.4,2,4.4,4.4,4.4s4.4-2,4.4-4.4c0-2.2-1.7-4.1-3.9-4.3c0.4-10.3,1.9-18.3,4.6-23.9c4.3,2.5,8.3,6.5,11.4,10.2
			c-0.3,0.3-0.6,0.6-1,0.9c-6.6,6.5-9.6,14.3-8.8,23.1c0.3,3.3,0.8,6.8,1.6,10.7c-3-1.3-6-2.5-9.1-3.6c-7.4-2.7-15-4.9-22.7-6.9
			c-1-1.7-3.1-5-4.3-5.2c-0.2-0.2-0.3-0.4-0.5-0.5c-0.3-0.2-0.5-0.4-0.8-0.6c-0.1-0.1-0.3-0.2-0.5-0.2s-0.5,0-0.7,0.1
			c-0.4,0.1-0.6,0.6-0.7,0.9c-0.1,0.4-0.1,0.7-0.1,1c0,0.8,0.1,1.6,0.4,2.4c-1.2-0.7-2.4-1.3-3.7-1.8c-0.8-0.3-1.7-0.6-2.6-0.7
			c-0.4-0.1-1-0.1-1.5,0.2c-0.6,0.3-0.9,1-0.7,1.6c0.1,0.6,0.5,1,0.8,1.3c0.4,0.3,0.7,0.6,1.1,0.8c0.7,0.4,1.5,0.8,2.3,1.2
			c0.7,0.4,1.4,0.7,2.2,1c-0.5,0-1,0.1-1.6,0.1c-0.7,0.1-1.5,0.2-2.2,0.4s-1.5,0.5-2.1,1.1c-0.3,0.3-0.5,0.7-0.6,1.2
			c0,0.2,0,0.4,0.1,0.7c0.1,0.3,0.3,0.6,0.5,0.7c0.4,0.2,0.7,0.3,1,0.3c-0.4,0.2-0.7,0.5-1,0.9c-0.1,0.2-0.2,0.5-0.3,0.7
			c-0.1,0.3-0.1,0.5,0,0.9c0.1,0.3,0.4,0.5,0.7,0.6c0.2,0.1,0.5,0.1,0.7,0.1c0.3,0,0.6-0.1,0.9-0.1c0,0,0,0.1,0,0.1
			c0.1,1.1,2.5,0.5,4.8-0.4c0,0,0,0,0,0.1c-0.3,0.7-0.5,1.6-0.2,2.4c0,0.2,0.2,0.5,0.5,0.6c0.3,0.1,0.6,0.1,0.8,0
			c0.4-0.1,0.7-0.4,1-0.6c0,0,0,0,0,0c0,0.3,0.1,0.6,0.2,0.9c1,2.1,7-6.8,7-6.8c0.5-0.2,1.6-0.1,3,0.3c0.2,0.1,0.4,0.1,0.7,0.2
			c1.9,0.6,3.9,1.3,5.8,2c3.8,1.4,7.6,3,11.4,4.5c4.8,2,9.7,4,14.5,6c0.9,2.9,2,5.6,3.1,8.2c-1.5,0.1-3,0.3-4.5,0.7
			c-2.9,0.7-5.6,2-8,3.7c-2.4,1.7-4.5,3.9-6.1,6.4c-1.6,2.5-2.9,5.3-3.1,8.3c-0.1,0.8,0,1.5,0.3,2.3c0.2,0.3,0.4,0.7,0.7,1
			s0.7,0.5,1.1,0.6c0.6,0.2,1.1,0.3,1.7,0.4c3.1,1.7,12.8-0.8,20.4-3.2c-0.5,0.6-1,1.3-1.2,2.1c-0.1,0.4-0.2,0.8,0,1.4
			c0.1,0.3,0.4,0.5,0.7,0.6c0.3,0,0.6,0,0.8,0c0.4,0,0.7-0.1,1.1-0.2c0,0.7,0.5,0.9,1.2,0.8l-1.1,3.4l0.1,0.5l2.4,3l0.6,0.1l1-0.7
			l1,1.3l4.3-3c0,0,3-4.3,4.7-8.5c0.4,0.2,0.7,0.4,1.1,0.5l-1.1,50.9l0.5,0.5h2.2l0,0.6h14.3c-0.3-0.1-0.6-0.3-1-0.6
			c0.1,0,0.2-0.1,0.2-0.1l-0.3-0.9h-1c-0.1,0-0.1-0.1-0.2-0.1c-1.1-1-2-2.1-2-2.1c-4.9-4-1.3-36.7-0.3-45.5
			c3.1,0.3,6.8,0.4,10.6,0.2l1.4,48.1l0.5,0.5c0.7,0,1.4,0,2.2-0.1l0,0.7c0,0,9.2-0.3,10,0c0,0-2.7-2.5-5.7-6.8s5.7-44.7,5.7-44.7
			l-0.8,0.2c8.2-2.4,15.3-7.2,17.6-15.8c0.7,0.9,1.4,1.8,2.1,2.7c1.4,1.6,2.9,3.2,4.5,4.6c1.7,1.4,3.4,2.7,5.4,3.6
			c0.8,0.4,1.8,0.7,2.7,0.8c2,0.8,4.1,1,5.8,0.1c4.1-1.4,3.3-21.7,3.3-21.7l20-5.7c0,0-0.7-0.4-1.8-0.9l0-0.4
			c-1.6-0.9-3.3-1.5-5.1-1.9c-1.8-0.4-3.6-0.6-5.4-0.6c-1.8,0.1-3.6,0.2-5.4,0.7c-0.8,0.2-1.6,0.5-2.4,0.7c0.3-1.9,0.2-4.3-1.7-4.1
			c0,0,0,0,0,0.1c0-0.1-0.1-0.2-0.1-0.3c-0.1-0.2-0.2-0.3-0.3-0.5c-0.2-0.1-0.3-0.3-0.5-0.4c-0.2-0.1-0.4-0.2-0.6-0.2
			c-0.2,0-0.4,0-0.6,0l-0.4,0.4l-1.6,14.1c-0.3,2.3-0.5,4.7-0.8,7c-0.2,1.1-0.3,2.3-0.6,3.4c-0.3,1.1-0.7,2.3-1.4,3.1
			c-0.3,0.4-0.8,0.7-1.3,0.7c-0.3,0-0.6-0.1-0.9-0.2c-2.7-2.2-6.5-7.3-11.9-17.2l31.4-20.1c0.3,0.1,0.6,0.2,0.9,0.3
			c0.6,0.2,1.1,0.4,1.7,0.5c2.4,0.9,5.8,1.9,6,1.2c0.3-1-2.2-2.7-3-3.2c-0.1-0.1-0.1-0.1-0.2-0.2c0.8,0,6.3,0.2,6.3-1.5
			c0-0.9-0.9-1.2-1.8-1.2c0,0,0-0.1,0-0.1c0-0.3-0.2-0.6-0.4-0.8C623.6,453.8,625.9,452.1,625.1,451.4z M511.4,436.4
			c-0.4-0.5-0.7-0.9-1.1-1.4c6.1-5.3,14.1-9,22-11.3c0.4,0.3,0.8,0.6,1.2,0.9C525.5,427,517.4,430.8,511.4,436.4z M508.7,490.5
			c1.3,2.2,2.9,4.4,4.6,6.5l0.8-0.6c-1.7-2.1-3.2-4.2-4.5-6.3c0.3-0.1,0.5-0.2,0.7-0.3c1.6,2.9,3.3,5.4,5.2,7.7
			c-0.3,0.1-0.7,0.1-1,0.2c-3,0.6-6,1.5-8.9,2.3c-1.5,0.4-2.9,0.8-4.4,1.2c-1.3,0.4-2.7,0.7-4.1,0.8
			C495.5,497.5,502.5,493.3,508.7,490.5z M497.5,502.7c0,0,0-0.1-0.1-0.1c1.4-0.1,2.8-0.4,4.2-0.7c1.5-0.3,2.9-0.7,4.4-1.1
			c2.9-0.8,5.8-1.6,8.8-2.2c0.5-0.1,1-0.2,1.5-0.3c0.2,0.3,0.4,0.5,0.7,0.8C508.8,500.8,498.6,504.6,497.5,502.7z M621.2,450.8
			c0.5-0.1,1.1-0.2,1.3-0.1c0.1-0.1,0,0,0,0.1c0,0.2-0.2,0.4-0.4,0.6c-0.4,0.4-0.8,0.8-1.3,1.1c-0.6,0.5-1.3,0.9-1.9,1.3
			C619.3,453.3,620.4,452,621.2,450.8C621.2,450.8,621.2,450.8,621.2,450.8z M614.5,449.8c1.1-0.8,2.2-1.5,3.4-1.9
			c0.6-0.2,1.3-0.1,1.2,0.1c0.1,0.1,0,0.4-0.1,0.7c0,0,0,0.1,0,0.1c-2.6,1.2-5.8,4.1-5.8,4.1c0-0.5-0.1-1.2-0.3-1.9
			C613.4,450.6,613.9,450.2,614.5,449.8z M608.7,456l0.2-0.4c-0.1-1.3-0.2-2.6-0.3-3.9s-0.2-2.6-0.1-3.9c0-0.3,0-0.7,0.1-0.9
			c0,0,0,0,0-0.1c0,0,0.1,0,0.1,0.1c0.4,0.3,0.7,0.9,1,1.4c0.1,0.2,0.2,0.5,0.3,0.7c-0.1,2.7,0.5,7.5,0.5,7.5l-32,15.5l0,0.2
			c-0.2-0.6-0.4-1.2-0.6-1.8l-0.7,2c-0.2-0.5-0.3-1.1-0.5-1.7C587.3,465.9,597.8,460.8,608.7,456z M575.7,470.9
			c0.4,1.1,0.7,2.1,0.9,3.1l-2,5.9l-1.1-2.6L575.7,470.9z M566.7,466.8l1.5,3.5l-1.2,13.2l-1.7-1.2L566.7,466.8z M558.8,478.7
			l1.6,1.2l-4.2,9.1l-1.2-2.1L558.8,478.7z M551.2,483.8l1.3,2.4l-0.7,2.4l-1.4-2L551.2,483.8z M542.3,490.4l1.4-10.2l1.5,2.2
			l-1.3,8.9c0,0-0.7-0.2-1.9-0.8L542.3,490.4z M554.2,469.3c1.2-0.9,2.3-1.4,3.1-1.6c-0.1,0.2-0.3,0.4-0.5,0.6
			c-0.6,0.3-1.2,0.6-1.9,1.2c-0.5,0.4-1,0.4-1.5,0.2C553.8,469.6,554,469.5,554.2,469.3z M547.6,469c0.4-1.3,0.8-1.6,1-1.7
			c0.2-0.1,0.4,0,0.7,0.2c-0.4,0.3-0.7,0.8-1,1.8c-1,3.3-2.1,3.8-4.2,3.6C545.6,472.9,546.7,472,547.6,469z M534.1,473.5
			c0.9-0.8,1.9-1.2,3.2-1.1c0.1,0,0.2,0,0.3,0c-4.2,0.4-5.3,5.8-5.5,8.1c-0.2-0.3-0.4-0.7-0.5-1
			C531.8,477.8,532.4,475.1,534.1,473.5z M533.2,464.2l-3.6-9.3c0.1-0.7,0.3-1.4,0.4-2.1l3.5,9L533.2,464.2z M542,460.2l-4.7-6.4
			l0.1-1l4.5,6.2L542,460.2z M556.1,463.3l-11.6-9.1l0-0.1l11.5,9L556.1,463.3z M553.4,421.1c1,0.1,2,0.4,3,0.7
			c-0.3,0-0.5-0.1-0.8-0.1c-5.2-0.5-13,0.2-21.1,2.5c-0.4-0.3-0.7-0.6-1.1-0.9C541.1,421.3,548.4,420.6,553.4,421.1z M507.5,431.7
			c-3.3-3.5-6.4-6.2-9.5-8c2-3.8,4.6-6.3,7.8-7.7c8.4-3.5,19.1,2.4,25.5,6.9c-7.8,2.3-15.6,6-21.6,11.2
			C509,433.4,508.2,432.5,507.5,431.7z M500.1,458.8c-0.7-8.5,2.1-16,8.5-22.3c0.3-0.3,0.6-0.6,0.9-0.8c0.4,0.5,0.8,1,1.1,1.4
			c-5.9,5.8-9.7,13.3-8.9,22.8c0.3,3.9,0.9,7.5,1.6,10.9c-0.2-0.1-0.4-0.1-0.5-0.2c-0.7-0.3-1.3-0.6-2-0.9l0.8-0.2
			C500.9,465.5,500.4,462.1,500.1,458.8z M487.5,465.2c-9.6-3-18-5.1-18-5.1s0,0,0,0C475.5,461.6,481.5,463.3,487.5,465.2z
			 M462.5,453.4c0.1-0.2,0.6,0.1,1,0.5c0.1,0.1,0.2,0.3,0.4,0.4c-0.6,1.2,0.5,4.5,0.5,4.5s-0.7-0.4-1.7-0.9l0.2-0.2
			c-0.3-1.1-0.6-2.2-0.7-3.2C462.2,454,462.3,453.4,462.5,453.4z M454.3,456.1c-0.1-0.3,0-0.5,0.2-0.6c0.2-0.1,0.6-0.1,1-0.1
			c0.7,0.1,1.5,0.3,2.3,0.6c-1-0.2-1.8-0.1-2.1,0.6c-0.1,0.3,0,0.7,0.2,1.1c0,0-0.1,0-0.1-0.1C455.2,457.2,454.5,456.6,454.3,456.1z
			 M454.7,462.9c0.3-0.4,1-0.7,1.6-0.9c0.6-0.2,1.3-0.3,2-0.4c1.3-0.1,2.6-0.2,3.9-0.1c0,0,0,0,0,0l0,0c0.1,0,0.2,0,0.3,0l0-0.1
			c1.1,0.4,1.9,0.6,1.9,0.6s-7.7-0.5-8.6,2.1c-0.5,0-1.1,0-1.3-0.1C454.3,464,454.3,463.3,454.7,462.9z M454.5,467.3
			C454.4,467.2,454.4,467.2,454.5,467.3c-0.1-0.1-0.1-0.3-0.1-0.4c0.1-0.2,0.1-0.3,0.2-0.4c0.3-0.4,0.9-0.8,1.4-1.1
			c0.6,0.4,1.9,0.2,3.2-0.1c-1.1,0.5-2.3,1-3,1.7c-0.4,0.1-0.9,0.2-1.3,0.2C454.8,467.3,454.6,467.3,454.5,467.3z M462.3,469.5
			c-0.3,0.2-0.6,0.4-0.8,0.5c-0.3,0-0.2,0-0.3-0.2c-0.2-0.5-0.1-1.1,0.2-1.7c0.1-0.2,0.3-0.4,0.4-0.6c2-0.8,3.7-1.7,3.7-1.7
			s-1.6,1.4-2.4,3C462.8,469.1,462.6,469.3,462.3,469.5z M487.3,504.9c0.2-2.9,1.4-5.7,2.9-8.1c1.6-2.5,3.6-4.7,5.9-6.4s5-3,7.8-3.8
			c1.4-0.4,2.9-0.7,4.4-0.8c0.2,0.4,0.4,0.8,0.6,1.2c-15.5,2-21.9,17.4-19.3,21.4c-0.2,0-0.5-0.1-0.7-0.2
			C487.6,507.8,487.3,506.3,487.3,504.9z M510.9,509.3c-0.1,0-0.2,0-0.3,0c-0.1,0-0.1,0-0.1-0.1c-0.1-0.1-0.1-0.5,0-0.8
			c0.2-0.6,0.6-1.2,1-1.7c0.5-0.6,1.1-1.1,1.8-1.6c3.7-1.2,6.6-2.3,7.2-2.5c0,0,0,0,0,0c-1,0.4-7.2,3.2-8.3,6.3
			C511.8,509,511.3,509.2,510.9,509.3z M515.2,516.8l-1.9-2.4l1.5-4.3c1.2-0.6,2.4-1.4,2.4-1.4l-2.2,6.5l1,1.2L515.2,516.8z
			 M527.2,557.5l1.1-49.9c0.6,0.2,1.1,0.5,1.7,0.7l-1.1,49.3H527.2z M551.6,557.5l-1.4-47.6c0.8-0.1,1.6-0.1,2.4-0.2l-0.8,0.1
			l1.4,47.6C552.6,557.5,552,557.5,551.6,557.5z M587,498.8c-1.6-1.3-3.1-2.8-4.6-4.4c-0.8-0.9-1.5-1.7-2.3-2.6
			c0.1-0.4,0.2-0.8,0.3-1.2c0.2,0.3,4.9,6.8,10.3,10.8C589.4,500.7,588.1,499.7,587,498.8z M603.8,474.9c0.8-0.2,1.6-0.5,2.5-0.7
			c1.7-0.5,3.5-0.6,5.2-0.7c1.8-0.1,3.5,0.1,5.2,0.5c0.4,0.1,0.9,0.2,1.3,0.4c-3.7-0.7-8.8-0.6-14.7,2c0,0,0.2-0.6,0.3-1.4
			C603.7,474.9,603.7,474.9,603.8,474.9z M594,497.8c0.6-0.1,1.3-0.4,1.7-0.9c0.9-1,1.3-2.1,1.6-3.3s0.5-2.3,0.7-3.5
			c0.3-2.3,0.6-4.7,0.9-7l1.6-13.7c0.4,0,0.6,0.2,0.7,0.6c0.2,0.5,0.2,1.1,0.2,1.7c0,1.2-0.3,2.4-0.6,3.6l0.6,0.6c0,0,0.1,0,0.1,0
			c-0.5,4.9-1.2,11.5-1.7,14.6C599.3,493.8,598.5,500.7,594,497.8C594,497.8,594,497.8,594,497.8z M621.3,455.5
			c0.1,0.1,0.2,0.2,0.2,0.3c-0.6,0-1.1,0.1-1.1,0.1s0.3-0.2,0.8-0.5C621.2,455.5,621.3,455.5,621.3,455.5z"/>
		<path d="M506.6,484.3c-1.2-2.7-2.1-4.9-2.8-7l-1,0.3c0.7,2.2,1.6,4.5,2.8,7.2L506.6,484.3z"/>
	</g>
	<g id="boots_6_" class="monster-boots">
		<path d="M526.1,544.6h10.5c0,0,0,12.7,8,13.1v2.3l-18.5-0.1V544.6z"/>
		<path d="M548.6,543.4h9c0,0-2.5,9.2,7.1,14.7v1.8h-16.9L548.6,543.4z"/>
	</g>
</g>
<g id="drift" class="monster">
	<path id="drift-body" class="monster-body" d="M656,541.3c-0.1-0.1-0.1-0.2-0.2-0.2c-0.8-0.9-1.8-1.4-2.9-1.7c-0.6-4-3.2-14.5-13.2-20.5
		c-0.8-0.6-1.7-1.2-2.6-1.8c2.5-1,4.4-1.3,5.8-1.2c0.9,0.6,1.2,1.4,1.2,1.4l0.4-0.1l0.5,0c0-0.3,0-0.5,0.1-0.8
		c1.6,0.7,2.1,2,2.1,2.1c0.2-4.9,2.7-5.8,5.1-5.5c0.9,0.4,1.5,0.7,1.5,0.8l0.3-0.3c1.5,0.5,2.6,1.2,2.6,1.2
		c-6.8-10.4,8.9-11.5,8.9-11.5c-1.5,0.1-3.1-0.1-4.8-0.5c0,0,0.1,0,0.1,0c0.7,0,1.4-0.1,2.1-0.3l-0.2-1c-0.1,0-0.9,0.1-2.1,0.3
		c-1.9,0.1-3.9-0.4-5.8-1.1c-4.4-2-7.9-4.3-7.9-4.3c0,0,0,0.1,0,0.1c-1.5-1-2.4-1.8-2.4-1.8l-0.8,0.5c2.5,14-8.2,19.7-10,20.5
		c-3.8-1.7-8.4-2.7-14-2.8c-13.8-0.2-24.7,2.1-32.5,6.6c0,0,0,0,0,0c-0.3-0.1-1.4-0.7-2.8-1.6c-3.5-2.9-7.4-7.8-7.1-14.9
		c0,0-0.7,0.8-1.9,1.7c-0.1-0.9-0.2-1.9-0.2-3l-0.9-0.3c-0.2,0.2-5,5.7-11.8,3.4c-0.4-0.2-0.7-0.3-0.8-0.3l-0.3,0.9
		c0.2,0.1,0.4,0.2,0.7,0.3c2.3,0.9,10,4.4,8.5,9.8l0.8,0.5c0.4-0.4,1.4-1,2.4-1.3c0.1,0.7,0.1,1.4-0.1,2.2c0,0,1.5-1.2,3.1-1.5
		c0.7,0.9,1.1,2.5,1.1,4.7l1,0.2c0,0,0.4-0.9,2-1.1c0.1,0.6,0.2,1.4,0.2,2.2c0.1,0,0.9-2,4.8-1.3c0.1,0,0.2,0.1,0.3,0.1
		c-8.5,5.4-13.1,13.8-13.5,24.9c-1.2,0.3-4,1.3-5.9,3.8c-2.2,2.8-2.7,6.6-1.4,11.3l0.5,0.4l2.5-0.1c0.1,0.3,0.1,0.6,0.2,0.9
		l91.9-3.1C660.6,558,662.7,543.8,656,541.3z M654.1,541c-0.3,0-0.6,0-1,0c0,0,0-0.2,0-0.5C653.4,540.6,653.8,540.8,654.1,541z
		 M640.6,511.5c2.6-3,5.5-8.1,4.5-15.5c0.6,0.4,1.3,1,2.2,1.6c1,8.3-2.7,13.6-6.1,16.6c-0.4-0.1-0.8-0.1-1.3-0.1
		c-0.7,0-1.4,0.1-2.3,0.2C638.6,513.6,639.6,512.7,640.6,511.5z M640.2,515.1c-1.3,1-2.5,1.7-3.1,2c-0.6-0.4-1.2-0.7-1.9-1
		C637.3,515.3,639,515,640.2,515.1z M565.9,506c4,0,7-2.2,8.5-3.5c0,0.8,0.1,1.7,0.3,2.4c-1.8,1.1-4.5,2.2-7.6,1.7
		C566.7,506.5,566.3,506.3,565.9,506C565.9,506,565.9,506,565.9,506z M572,514.2c0.2-2.4-1.1-4.4-2.9-5.9c2,1.2,4,3,4.7,5.1
		C573.1,513.6,572.5,513.9,572,514.2z M579.8,518.1c-0.3,0.1-0.6,0.3-0.8,0.4c-0.1-1.5-0.4-2.6-0.9-3.5c1.1,0.1,2.1,0.8,2.7,2.8
		C580.5,517.9,580.1,518,579.8,518.1z M566.4,559.3c-0.9-3.9-0.6-7.1,1-9.5c2.2-3.3,6.1-4.1,6-4.1l0.5-0.5
		c0.3-11.5,4.8-19.9,13.7-25.1c0.7,0.2,1.5,0.5,2.3,0.9c0,0-0.8-0.3-2-1.1c7.3-4.2,17.4-6.3,30.3-6.3c0.6,0,1.1,0,1.7,0
		c4.4,0.1,8.1,0.8,11.3,1.9c-2.6-0.6-5.4-1-8.6-1.1c-29-0.4-46,9.7-46.5,32.1c-0.1,0-9.7,1.8-7.8,12.7L566.4,559.3z"/>
	<g id="drift-boots" class="monster-boots">
		<path d="M596.5,518c0,0,19.1,5.5,27.4-2.1l-5.4-32.5l-32.4,2c0,0-5.2,14.4,17.2,12.8L596.5,518z"/>
	</g>
</g>
</g>
</svg>
