<?xml version="1.0" encoding="utf-8"?>
<!-- Generator: Adobe Illustrator 21.1.0, SVG Export Plug-In . SVG Version: 6.00 Build 0)  -->
<svg version="1.0" xmlns="http://www.w3.org/2000/svg" xmlns:xlink="http://www.w3.org/1999/xlink" x="0px" y="0px"
	 viewBox="0 0 372 461.7" style="enable-background:new 0 0 372 461.7;" xml:space="preserve">
<style type="text/css">
	.st0{fill:#413C57;}
	.st1{display:none;}
	.st2{display:inline;fill:#413C57;}
	.st3{display:inline;}
</style>
<g id="Layer_4">
	<g>
		<path class="st0" d="M257.6,256.5c-33.4-61.9-29.9-121.2-27.4-159L216,95.7c0,0,6.6,117.3-22.7,116
			c-29.3-1.3-18.6-119.2-18.6-119.2l-20.2,1.9c0,0,17.2,85.2-34.5,169.4c-70.7,115-34.7,164.7,66.3,164.7
			C267.2,428.5,328.7,399.9,257.6,256.5z M190.9,337c-45,4.7-59.3-65.3-59.3-65.3s44.3,64.7,109.3-8
			C240.9,263.7,235.9,332.3,190.9,337z"/>
		<circle class="st0" cx="156.6" cy="67.2" r="34"/>
		<circle class="st0" cx="230.6" cy="67.2" r="34"/>
	</g>
</g>
<g id="Layer_3" class="st1">
	<path class="st2" d="M185.6,40.7c36.2-0.2,89.7,14.4,90.5,106.5c0.7,92.1-24.5,196.3,26.9,231.2s60.3,34.3,60.3,34.3
		s-91,9.5-145.6-46c0,0,4.1,43.5,29.4,54.3c0,0-49.6,1.2-68.8-46.3c0,0-16.4,40.6-75.4,41.9c0,0,31.1-22.7,27.7-53.1
		c0,0-45.7,43.2-121.9,42.4c0,0,89.5-32.9,95.3-97.5C109.8,243.9,67.4,41.2,185.6,40.7z"/>
</g>
<g id="Layer_5" class="st1">
	<g class="st3">
		<path class="st0" d="M231.8,150.4c0,0,99.1-18.9,12.7-136c0,0,27.3,80.2-13.7,98.5L231.8,150.4z"/>
		<path class="st0" d="M140.2,150.4c0,0-99.1-18.9-12.7-136c0,0-27.3,80.2,13.7,98.5L140.2,150.4z"/>
		<path class="st0" d="M275.3,333.6c-6.1-70.3-44.5-220.6-44.5-220.6l-91.5-1.1c0,0-38,186-38,250.5c0,42,30.7,80.2,68.5,84.3
			C230,453.2,281.4,403.9,275.3,333.6z M219.8,229.9c-9.8,0-18.1-6.5-20.8-15.5h-22.6c-2.7,9-10.9,15.5-20.8,15.5
			c-12,0-21.7-9.7-21.7-21.7c0-12,9.7-21.7,21.7-21.7c12,0,21.7,9.7,21.7,21.7c0,0.3,0,0.6,0,0.9h20.8c0-0.3,0-0.6,0-0.9
			c0-12,9.7-21.7,21.7-21.7c12,0,21.7,9.7,21.7,21.7C241.4,220.2,231.7,229.9,219.8,229.9z"/>
	</g>
</g>
</svg>
