<?xml version="1.0" encoding="utf-8"?>
<!-- Generator: Adobe Illustrator 21.1.0, SVG Export Plug-In . SVG Version: 6.00 Build 0)  -->
<svg version="1.0" id="Layer_3" xmlns="http://www.w3.org/2000/svg" xmlns:xlink="http://www.w3.org/1999/xlink" x="0px" y="0px"
	 viewBox="0 0 600 400" style="enable-background:new 0 0 600 400;" xml:space="preserve">
<style type="text/css">
	.st0{opacity:0.7;fill:#A5D2DB;enable-background:new    ;}
	.st1{opacity:0.7;}
	.st2{fill:#A5D2DB;}
	.st3{fill:#F0EFF4;}
	.st4{fill:#413C57;}
	.st5{fill:none;stroke:#8AA5C4;stroke-width:2;stroke-linecap:round;stroke-linejoin:round;stroke-miterlimit:10;}
	.st6{fill:#8AA5C4;}
	.st7{fill:none;stroke:#D9D9E2;stroke-width:2;stroke-linecap:round;stroke-linejoin:round;stroke-miterlimit:10;}
	.st8{fill:none;stroke:#2C2F44;stroke-width:2;stroke-linecap:round;stroke-linejoin:round;stroke-miterlimit:10;}
</style>
<path class="st0" d="M133.2,33.9c0.6-15.5,62.2-28.8,93.5-13.4S318.3,64,335.1,98c16.8,34,37.6,48.1,46.6,46l-20.8,14.7
	c0,0,104,247.9,53.8,358.2s-336.5,6.7-336.5,6.7s171.2,9,139.7-165.5S169.6,75.3,151.3,54.5S132.4,49.3,133.2,33.9z"/>
<g class="st1">
	<path class="st2" d="M383.4,223c0,0,53.6,130,88.4,110.7c34.7-19.3-29.8-110.5,0-127.7c29.8-17.2,59,14.5,59,14.5
		S494.8,206,499,239.2c4.2,33.4,55.7,134,2.1,152.1s-95.8-34.7-95.8-34.7l-0.2-0.4C377.5,317.3,369.6,268.2,383.4,223L383.4,223z"/>
</g>
<g class="st1">
	<path class="st2" d="M260.1,293.2C266.2,307.5,258,422.8,157,432c-12,0-48.3-35.7-67.4,5.7c0,0-23.7-47.1,30-50.4
		c54-3.6,96.6-17.9,98.3-129.8C247.7,248,253.8,278.9,260.1,293.2z"/>
	<path class="st2" d="M260.1,293.2C266.2,307.5,258,422.8,157,432c-12,0-48.3-35.7-67.4,5.7c0,0-23.7-47.1,30-50.4
		c54-3.6,96.6-17.9,98.3-129.8C247.7,248,253.8,278.9,260.1,293.2z"/>
</g>
<polygon class="st3" points="237.6,184.8 256.5,227.4 256.5,188.3 "/>
<path class="st4" d="M256.1,119.4c2.9-14.3-10.3-27.3-24.6-23.9c-6.3,1.5-9.5,5.7-6.3,12.4c6.3,13.2,28.8,21.6,30.9,12
	C256.1,119.7,256.1,119.7,256.1,119.4z"/>
<path class="st4" d="M299.8,79.7c-5.3-9-31.5-5.5-19.5,11.6C292.3,108.3,310.3,98,299.8,79.7z"/>
<path class="st4" d="M257.6,72.6c13.9-5.9,6.5-27.3-8-23.1c-2.9,0.8-5,2.3-5.7,4c-2.1,5.5,2.3,22.7,11.8,20
	C256.3,73,257,72.8,257.6,72.6z"/>
<path class="st5" d="M205.9,331.6c-1.7-9.7-3.4-19.1-5-28.4c-25.6-144.3-40.8-233.4-57.1-252.1c-18.3-20.8-18.9-5.3-18.3-20.8
	c0.8-15.5,62.4-29,93.9-13.7S311.2,60.2,328,94.4c16.8,34.2,37.8,48.3,46.8,46.2l-21,14.7c0,0,104.4,248.5,54,359.2
	s-337.6,7.1-337.6,7.1s136.6,7.4,143.7-115.5"/>
<path class="st5" d="M376.1,215.4c0,0,54,131.1,89.1,111.6s-30-111.3,0-128.8c30-17.4,59.5,14.7,59.5,14.7s-36.3-14.7-32.1,18.9
	s56.1,135.1,2.1,153.4c-33,11.1-62-4.6-79.2-18.3"/>
<g>
	<path class="st6" d="M254.4,287.9c-0.4,15.8-2.7,31.5-6.5,46.8c-4,15.3-9.7,30.3-18.1,43.9c-4.2,6.7-9,13.2-14.5,19.1
		c-5.5,5.9-11.8,10.9-18.5,15.3c-13.4,8.8-29.4,13.4-45.4,15.1h-0.2c-2.1,0-3.8-0.6-5.5-1.3c-1.7-0.6-3.2-1.3-4.6-2.1l-8.8-4.4
		c-5.9-2.7-11.8-5.3-18.1-6.1c-6.1-1.1-12.4,0.2-17.2,3.8c-5,3.6-8.4,9-11.1,14.7l0,0c-0.4,1.1-1.7,1.5-2.7,1.1
		c-0.4-0.2-0.8-0.6-1.1-1.1c-2.5-5.3-4-10.5-4.8-16.2c-0.8-5.7-0.6-11.6,1.3-17c1.9-5.7,6.1-10.3,10.9-13.2c4.8-3.2,10.5-4.6,16-5.7
		c1.5-0.2,2.7-0.4,4.2-0.6l4.2-0.4l8.2-0.6c5.5-0.4,10.7-1.1,16-1.9c10.5-1.7,21-4.4,30.5-9.7c4.8-2.5,8.8-5.7,12.8-9.2l2.7-2.9
		c0.8-1.1,1.9-1.9,2.7-2.9c1.7-2.1,3.4-4.2,4.6-6.5c1.5-2.3,2.9-4.4,4-6.9c1.3-2.3,2.5-4.8,3.4-7.4c2.1-5,3.8-10.1,5.3-15.3
		c5.7-20.8,7.4-42.6,8-64.5c0.2,10.9,0,21.8-1.1,32.6c-0.8,10.9-2.5,21.6-5,32.4c-1.3,5.3-2.9,10.5-5,15.5c-0.8,2.5-2.1,5-3.4,7.6
		c-1.1,2.5-2.5,4.8-4,7.1c-1.3,2.5-3.2,4.6-4.8,6.7c-0.8,1.1-1.7,2.1-2.7,3.2l-2.7,3.2c-4.2,3.8-8.4,7.4-13.4,9.9
		c-4.8,2.9-10.1,4.8-15.3,6.7c-5.3,1.7-10.7,2.9-16.2,3.8c-5.5,1.1-10.9,1.5-16.4,2.1l-8.2,0.6l-4,0.4c-1.3,0.2-2.5,0.4-4,0.6
		c-5.3,1.1-10.3,2.5-14.5,5.3c-4.4,2.7-7.8,6.5-9.2,11.3c-1.7,4.6-1.9,10.1-1.1,15.1c0.8,5,2.3,10.3,4.6,14.9h-3.8
		c1.5-3.2,2.9-6.1,5-8.8s4.4-5.5,7.4-7.4c2.9-2.1,6.3-3.6,9.7-4.2c3.6-0.6,7.1-0.6,10.5-0.2c6.9,1.1,13.2,3.8,19.1,6.7l8.8,4.4
		c1.5,0.6,2.9,1.5,4.4,1.9c1.5,0.6,2.9,1.1,4,1.1h-0.2c15.3-1.5,30.7-5.9,43.9-14.3c13.2-8.2,24.2-19.7,32.6-33
		c8.4-13.2,14.3-27.9,18.7-43.1c2.1-7.6,4-15.3,5.3-23.1C253,303.7,254,295.7,254.4,287.9z"/>
</g>
<polygon class="st7" points="235.5,182.7 254.4,225.5 254.4,186.5 "/>
<path class="st5" d="M191.4,157.5c0,0,65.1,75,183.4-16.8"/>
<path class="st8" d="M254.4,119.4c2.9-14.3-10.3-27.3-24.6-23.9c-6.3,1.5-9.5,5.7-6.3,12.4c6.3,13.2,28.8,21.6,30.9,12
	C254.4,119.7,254.4,119.7,254.4,119.4z"/>
<path class="st8" d="M299.8,83.3c-5.3-9-31.5-5.5-19.5,11.6C292.3,111.9,310.3,101.6,299.8,83.3z"/>
<path class="st8" d="M254,72.6c13.9-5.9,6.5-27.3-8-23.1c-2.9,0.8-5,2.3-5.7,4c-2.1,5.5,2.3,22.7,11.8,20
	C252.8,73,253.4,72.8,254,72.6z"/>
<g>
	<path class="st6" d="M210.3,144.7c-4.2,4.6-8.6,8.6-12.6,12.6c-2.1,2.1-4.2,4.2-5.9,6.3c-1.9,2.3-3.6,4.6-5.3,7.1
		c0-3.2,1.1-6.3,2.5-9c1.5-2.7,3.6-5.3,5.7-7.6s4.6-4.2,7.1-5.9C204.4,147,207.2,145.5,210.3,144.7z"/>
</g>
</svg>
