<?xml version="1.0" encoding="utf-8"?>
<!-- Generator: Adobe Illustrator 21.1.0, SVG Export Plug-In . SVG Version: 6.00 Build 0)  -->
<svg version="1.0" id="Layer_3" xmlns="http://www.w3.org/2000/svg" xmlns:xlink="http://www.w3.org/1999/xlink" x="0px" y="0px"
	 viewBox="0 0 220.2 266.6" style="enable-background:new 0 0 220.2 266.6;" xml:space="preserve">
<style type="text/css">
	.st0{opacity:0.7;fill:#A5D2DB;}
	.st1{opacity:0.7;}
	.st2{fill:#A5D2DB;}
	.st3{fill:#F0EFF4;}
	.st4{fill:#413C57;}
	.st5{fill:none;stroke:#8AA5C4;stroke-width:2;stroke-linecap:round;stroke-linejoin:round;stroke-miterlimit:10;}
	.st6{fill:#8AA5C4;}
	.st7{fill:none;stroke:#D9D9E2;stroke-width:2;stroke-linecap:round;stroke-linejoin:round;stroke-miterlimit:10;}
	.st8{fill:none;stroke:#2C2F44;stroke-width:2;stroke-linecap:round;stroke-linejoin:round;stroke-miterlimit:10;}
</style>
<path class="st0" d="M31,12.4C31.3,5,60.6-1.3,75.5,6s43.6,20.7,51.6,36.9s17.9,22.9,22.2,21.9l-9.9,7c0,0,49.5,118,25.6,170.5
	S4.8,245.5,4.8,245.5s81.5,4.3,66.5-78.8S48.3,32.1,39.6,22.2S30.6,19.7,31,12.4z"/>
<g class="st1">
	<path class="st2" d="M150.1,102.4c0,0,25.5,61.9,42.1,52.7c16.5-9.2-14.2-52.6,0-60.8c14.2-8.2,28.1,6.9,28.1,6.9
		s-17.2-6.9-15.2,8.9c2,15.9,26.5,63.8,1,72.4S160.5,166,160.5,166l-0.1-0.2C147.3,147.3,143.5,123.9,150.1,102.4L150.1,102.4z"/>
</g>
<g class="st1">
	<path class="st2" d="M91.4,135.8c2.9,6.8-1,61.7-49.1,66.1c-5.7,0-23-17-32.1,2.7c0,0-11.3-22.4,14.3-24c25.7-1.7,46-8.5,46.8-61.8
		C85.5,114.3,88.4,129,91.4,135.8z"/>
	<path class="st2" d="M91.4,135.8c2.9,6.8-1,61.7-49.1,66.1c-5.7,0-23-17-32.1,2.7c0,0-11.3-22.4,14.3-24c25.7-1.7,46-8.5,46.8-61.8
		C85.5,114.3,88.4,129,91.4,135.8z"/>
</g>
<polygon class="st3" points="80.7,84.2 89.7,104.5 89.7,85.9 "/>
<path class="st4" d="M89.5,53.1c1.4-6.8-4.9-13-11.7-11.4c-3,0.7-4.5,2.7-3,5.9c3,6.3,13.7,10.3,14.7,5.7
	C89.5,53.2,89.5,53.2,89.5,53.1z"/>
<path class="st4" d="M110.3,34.2c-2.5-4.3-15-2.6-9.3,5.5S115.3,42.9,110.3,34.2z"/>
<path class="st4" d="M90.2,30.8c6.6-2.8,3.1-13-3.8-11c-1.4,0.4-2.4,1.1-2.7,1.9c-1,2.6,1.1,10.8,5.6,9.5
	C89.6,31,89.9,30.9,90.2,30.8z"/>
<path class="st5" d="M65.6,154.1c-0.8-4.6-1.6-9.1-2.4-13.5C51,71.9,43.8,29.5,36,20.6c-8.7-9.9-9-2.5-8.7-9.9
	C27.7,3.3,57-3.1,72,4.2s43.7,20.7,51.7,37s18,23,22.3,22l-10,7c0,0,49.7,118.3,25.7,171S1,244.6,1,244.6s65,3.5,68.4-55"/>
<path class="st5" d="M146.6,98.8c0,0,25.7,62.4,42.4,53.1c16.7-9.3-14.3-53,0-61.3s28.3,7,28.3,7s-17.3-7-15.3,9s26.7,64.3,1,73
	c-15.7,5.3-29.5-2.2-37.7-8.7"/>
<g>
	<path class="st6" d="M88.7,133.3c-0.2,7.5-1.3,15-3.1,22.3c-1.9,7.3-4.6,14.4-8.6,20.9c-2,3.2-4.3,6.3-6.9,9.1
		c-2.6,2.8-5.6,5.2-8.8,7.3c-6.4,4.2-14,6.4-21.6,7.2c0,0-0.1,0-0.1,0c-1,0-1.8-0.3-2.6-0.6c-0.8-0.3-1.5-0.6-2.2-1l-4.2-2.1
		c-2.8-1.3-5.6-2.5-8.6-2.9c-2.9-0.5-5.9,0.1-8.2,1.8c-2.4,1.7-4,4.3-5.3,7l0,0c-0.2,0.5-0.8,0.7-1.3,0.5c-0.2-0.1-0.4-0.3-0.5-0.5
		c-1.2-2.5-1.9-5-2.3-7.7c-0.4-2.7-0.3-5.5,0.6-8.1c0.9-2.7,2.9-4.9,5.2-6.3c2.3-1.5,5-2.2,7.6-2.7c0.7-0.1,1.3-0.2,2-0.3l2-0.2
		l3.9-0.3c2.6-0.2,5.1-0.5,7.6-0.9c5-0.8,10-2.1,14.5-4.6c2.3-1.2,4.2-2.7,6.1-4.4l1.3-1.4c0.4-0.5,0.9-0.9,1.3-1.4
		c0.8-1,1.6-2,2.2-3.1c0.7-1.1,1.4-2.1,1.9-3.3c0.6-1.1,1.2-2.3,1.6-3.5c1-2.4,1.8-4.8,2.5-7.3c2.7-9.9,3.5-20.3,3.8-30.7
		c0.1,5.2,0,10.4-0.5,15.5c-0.4,5.2-1.2,10.3-2.4,15.4c-0.6,2.5-1.4,5-2.4,7.4c-0.4,1.2-1,2.4-1.6,3.6c-0.5,1.2-1.2,2.3-1.9,3.4
		c-0.6,1.2-1.5,2.2-2.3,3.2c-0.4,0.5-0.8,1-1.3,1.5l-1.3,1.5c-2,1.8-4,3.5-6.4,4.7c-2.3,1.4-4.8,2.3-7.3,3.2
		c-2.5,0.8-5.1,1.4-7.7,1.8c-2.6,0.5-5.2,0.7-7.8,1l-3.9,0.3l-1.9,0.2c-0.6,0.1-1.2,0.2-1.9,0.3c-2.5,0.5-4.9,1.2-6.9,2.5
		c-2.1,1.3-3.7,3.1-4.4,5.4c-0.8,2.2-0.9,4.8-0.5,7.2c0.4,2.4,1.1,4.9,2.2,7.1l-1.8,0c0.7-1.5,1.4-2.9,2.4-4.2
		c1-1.3,2.1-2.6,3.5-3.5c1.4-1,3-1.7,4.6-2c1.7-0.3,3.4-0.3,5-0.1c3.3,0.5,6.3,1.8,9.1,3.2l4.2,2.1c0.7,0.3,1.4,0.7,2.1,0.9
		c0.7,0.3,1.4,0.5,1.9,0.5l-0.1,0c7.3-0.7,14.6-2.8,20.9-6.8c6.3-3.9,11.5-9.4,15.5-15.7c4-6.3,6.8-13.3,8.9-20.5
		c1-3.6,1.9-7.3,2.5-11C88,140.8,88.5,137,88.7,133.3z"/>
</g>
<polygon class="st7" points="79.7,83.2 88.7,103.6 88.7,85 "/>
<path class="st5" d="M58.7,71.2c0,0,31,35.7,87.3-8"/>
<path class="st8" d="M88.7,53.1c1.4-6.8-4.9-13-11.7-11.4c-3,0.7-4.5,2.7-3,5.9c3,6.3,13.7,10.3,14.7,5.7
	C88.7,53.2,88.7,53.2,88.7,53.1z"/>
<path class="st8" d="M110.3,35.9c-2.5-4.3-15-2.6-9.3,5.5S115.3,44.6,110.3,35.9z"/>
<path class="st8" d="M88.5,30.8c6.6-2.8,3.1-13-3.8-11c-1.4,0.4-2.4,1.1-2.7,1.9c-1,2.6,1.1,10.8,5.6,9.5
	C87.9,31,88.2,30.9,88.5,30.8z"/>
<g>
	<path class="st6" d="M67.7,65.1c-2,2.2-4.1,4.1-6,6c-1,1-2,2-2.8,3c-0.9,1.1-1.7,2.2-2.5,3.4c0-1.5,0.5-3,1.2-4.3
		c0.7-1.3,1.7-2.5,2.7-3.6c1-1.1,2.2-2,3.4-2.8C64.9,66.2,66.2,65.5,67.7,65.1z"/>
</g>
</svg>
