<?xml version="1.0" encoding="utf-8"?>
<!-- Generator: Adobe Illustrator 21.1.0, SVG Export Plug-In . SVG Version: 6.00 Build 0)  -->
<svg version="1.0" id="Layer_2" xmlns="http://www.w3.org/2000/svg" xmlns:xlink="http://www.w3.org/1999/xlink" x="0px" y="0px"
	 viewBox="0 0 600 400" style="enable-background:new 0 0 600 400;" xml:space="preserve">
<style type="text/css">
	.st0{fill:#413C57;}
	.st1{fill:#F0EFF4;}
	.st2{fill:#D44368;}
	.st3{fill:none;stroke:#D9D9E2;stroke-width:2;stroke-linecap:round;stroke-linejoin:round;stroke-miterlimit:10;}
	.st4{fill:none;stroke:#2C2942;stroke-width:2;stroke-linecap:round;stroke-linejoin:round;stroke-miterlimit:10;}
	.st5{fill:#2C2942;}
	.st6{fill:#C290D1;stroke:#8F76B7;stroke-width:2;stroke-linecap:round;stroke-linejoin:round;stroke-miterlimit:10;}
</style>
<path class="st0" d="M332.7,113c0,0,9.9,80.4-23.9,107.9s-158.7,98-99.4,313.1c0,0-31.7,42.3,4.2,54.4c36,12.1,50.1,8.5-7,26.9h60.7
	l-3.4-57.1c0,0,73.8,29,132.4,17.6v46.5h66.2c0,0-33.9-13.3-30.3-20.5c3.6-7,52.3-14.8,33.2-40.2c0,0-27.5-241.8-109.4-373.9
	c-8.5-19.7-4.2-74.7-4.2-74.7S332.7,113,332.7,113z"/>
<path class="st1" d="M346.4,134c-11.6,0.4-23.1-4.4-31.5-12.5c-17.8-16.9-47.4-56.1,16.7-86.7C408-1.8,408.9,132.1,346.4,134z"/>
<path class="st0" d="M205.1,411.4c0,0-29,9.9-27.5,24.3c0,0-16.3-8.9-24.8-5.3l-9.1-22.6v22.6l-48.7,5.3l39.6,4.7l-35.3,4.9
	l31.1,3.6l-19,11.2l31.7-4.9c0,0,30.7,35.3,50.6,25.4C213.6,470.6,205.1,411.4,205.1,411.4z"/>
<path class="st2" d="M212.1,331.2c0,0,95.8-50.4,157.8-48.9L265,356.8l-59.2-9.1L212.1,331.2z"/>
<polygon class="st1" points="204.9,329.3 212.1,341.8 223.5,320.6 "/>
<polygon class="st1" points="230.7,316.6 239.6,341.5 259.7,304.9 "/>
<polygon class="st1" points="265.4,300.5 277,328.9 289.5,292 "/>
<polygon class="st1" points="295,292 301.4,306.2 309.2,285.9 "/>
<polygon class="st1" points="258.2,351.5 258.2,322.7 277.9,338.4 "/>
<polygon class="st3" points="203.6,326.9 210.8,339.4 222.2,318.3 "/>
<path class="st4" d="M325.5,130c0.8,25.2-1.1,67.3-25.2,86.7c-33.9,27.5-158.7,98-99.4,313.1c0,0-31.7,42.3,4.2,54.4
	c36,12.1,50.1,8.5-7,26.9h60.7l-3.4-57.1c0,0,73.8,29,132.4,17.6v46.5h66.2c0,0-33.9-13.3-30.3-20.5c3.6-7,52.3-14.8,33.2-40.2
	c0,0-27.5-241.8-109.4-373.9c-5.1-11.8-5.5-36.4-5.1-54.2"/>
<path class="st3" d="M338,129.8c-11.6,0.4-23.1-4.4-31.5-12.5c-17.8-16.9-47.4-56.1,16.7-86.7C399.5-6.1,400.4,127.9,338,129.8z"/>
<g>
	<path class="st5" d="M359.6,352.5c0,16.3,0.8,32.6,2.5,48.7c1.9,16.1,4.4,32.2,8.7,47.8c2.1,7.8,4.7,15.4,7.8,22.9
		c3.2,7.4,7,14.6,11.6,20.9s10.4,12.1,17.1,16.1c6.8,4,14.4,6.1,22.2,6.3l-1.3,3.6l-9.9-8.5c-0.8-0.6-1.1-2.1-0.2-3
		c0.4-0.4,1.1-0.6,1.7-0.6l0,0l18.4,0.6l-0.8,4l-18.4-7.8l0,0c-1.1-0.4-1.5-1.7-1.1-2.8c0.2-0.6,1.1-1.3,1.7-1.3l18.4-1.3l-0.4,3.8
		l-26-7.2l0,0c-0.6-0.2-1.1-0.6-1.3-1.3c-1.7-7-1.7-14-0.6-20.7c0.4-3.4,1.5-6.8,2.5-9.9s2.8-6.3,3.8-9.3c1.9-6.1,2.8-12.7,3-19.3
		c0.2-6.6,0-13.1-0.4-19.9c-0.6-6.6-1.7-13.1-3.2-19.7c-1.5-6.3-3.4-12.9-5.9-19c-2.5-6.1-5.7-12.1-9.7-17.1c-4-5.3-9.1-9.7-15-12.9
		c5.9,3,11.4,7.2,15.7,12.5c4.2,5.3,7.6,11,10.6,17.1c5.5,12.3,8.7,25.6,10.2,38.9c0.8,6.8,1.1,13.3,0.8,20.1
		c-0.2,6.8-0.8,13.5-2.8,20.3c-1.1,3.6-2.5,6.1-3.6,9.3c-1.1,3.2-1.9,6.1-2.3,9.5c-0.4,3.2-0.6,6.3-0.6,9.7c0,3.2,0.4,6.6,1.3,9.3
		l-1.3-1.3l26,7c1.1,0.2,1.7,1.3,1.5,2.3c-0.2,0.8-0.8,1.5-1.7,1.5l0,0l-18.4,1.5l0.6-4l18.4,7.6c1.1,0.4,1.5,1.7,1.1,2.8
		c-0.4,0.8-1.3,1.3-2.1,1.3l-18.4-0.8l1.5-3.6l9.9,8.5l0,0c0.8,0.6,0.8,1.9,0.2,2.8c-0.4,0.4-1.1,0.6-1.5,0.6
		c-8.5-0.2-16.9-2.5-24.1-7c-7.2-4.4-13.3-10.4-18.2-17.1c-9.7-13.5-15.2-29.4-19.3-45.3c-3.8-15.9-6.3-32.2-7.6-48.2
		C359.1,385.1,358.7,368.8,359.6,352.5z"/>
</g>
<path class="st4" d="M187.5,410.9c0,0-19.7,5.9-18.4,20.5c0,0-16.3-8.9-24.8-5.3l-9.1-22.6v22.6l-48.7,5.3l39.6,4.7L90.9,441
	l31.1,3.6l-19,11.2l31.7-4.9c0,0,30.7,35.3,50.6,25.4"/>
<polygon class="st3" points="230.7,314.5 239.6,339.4 259.7,302.8 "/>
<polygon class="st3" points="265.4,300.5 277,328.9 289.5,292 "/>
<polygon class="st3" points="294,289.9 302.4,306.2 310.3,285.9 "/>
<polygon class="st3" points="256.5,352.5 256.5,321.7 276.2,337.3 "/>
<path class="st4" d="M203.6,326.9c0,0,95.8-50.4,157.8-48.9l-104.9,74.5l-59.2-9.1L203.6,326.9z"/>
<g>
	<path class="st5" d="M455,558c-1.3-3.4-3.4-6.8-5.5-9.9c-2.3-3.2-4.9-6.1-7.8-8.7c-3-2.5-6.1-4.9-9.5-6.8
		c-3.4-1.9-7.2-3.4-10.8-4.4c3.8,0.8,7.8,1.9,11.4,3.6c3.6,1.5,7.2,3.6,10.4,6.1c3.2,2.3,6.1,5.1,8.9,8.3s5.1,6.3,7,10.2
		c0.4,1.1,0,2.3-0.8,2.8c-1.1,0.4-2.3,0-2.8-0.8C455,558.4,455,558.2,455,558L455,558z"/>
</g>
<g>
	<path class="st5" d="M199.4,528.4l13.5-11.2l-10.4,14.2c-0.6,0.8-2.1,1.1-3,0.4c-0.8-0.6-1.1-2.1-0.4-3
		C199.2,528.6,199.2,528.4,199.4,528.4z"/>
</g>
<g>
	<path class="st5" d="M254.2,555.7L237.7,543l18.6,9.1c1.1,0.4,1.5,1.7,1.1,2.8c-0.4,1.1-1.7,1.5-2.8,1.1
		C254.6,555.7,254.4,555.7,254.2,555.7z"/>
</g>
<g>
	<path class="st5" d="M360,251.2c0,2.1,0.2,4,0.6,6.1c0.4,1.9,1.1,3.8,1.7,5.7c1.5,3.6,3.4,7,5.5,10.4c2.1,3.4,4.7,6.3,7.2,9.5
		c1.3,1.5,2.5,3,4,4.7c1.3,1.5,2.8,3,4,4.7c-1.9-0.8-3.6-2.1-5.5-3.2c-1.7-1.3-3.4-2.5-4.9-3.8c-1.5-1.5-3-3-4.4-4.4
		c-1.3-1.7-2.8-3.2-3.8-5.1c-2.3-3.6-4.2-7.6-5.1-11.8c-0.2-1.1-0.4-2.1-0.4-3.2c0-1.1-0.2-2.1,0-3.2
		C358.5,255.2,358.9,253.1,360,251.2z"/>
</g>
<circle class="st6" cx="329.7" cy="75.4" r="16.7"/>
</svg>
