<?xml version="1.0" encoding="utf-8"?>
<!-- Generator: Adobe Illustrator 21.1.0, SVG Export Plug-In . SVG Version: 6.00 Build 0)  -->
<svg version="1.0" id="Layer_2" xmlns="http://www.w3.org/2000/svg" xmlns:xlink="http://www.w3.org/1999/xlink" x="0px" y="0px"
	 viewBox="0 0 600 400" style="enable-background:new 0 0 600 400;" xml:space="preserve">
<style type="text/css">
	.st0{fill:#E7EFC5;}
	.st1{fill:#D44368;}
	.st2{fill:#F0EFF4;}
	.st3{fill:none;stroke:#D3D19C;stroke-linecap:round;stroke-linejoin:round;stroke-miterlimit:10;}
	.st4{fill:#D3D19C;}
	.st5{fill:none;stroke:#D3D19C;stroke-width:2;stroke-linecap:round;stroke-linejoin:round;stroke-miterlimit:10;}
	.st6{fill:none;stroke:#D9D9E2;stroke-width:2;stroke-linecap:round;stroke-linejoin:round;stroke-miterlimit:10;}
	.st7{fill:#808CC3;stroke:#6D6DB2;stroke-width:2;stroke-linecap:round;stroke-linejoin:round;stroke-miterlimit:10;}
</style>
<path class="st0" d="M404.6,351.3c0,0,28.6,38.4,18.8,88.4l-18.8-20.8V351.3z"/>
<path class="st0" d="M308.7,511.2v55.9h53c0,0-13-18.8-21.4-16.9c0,0,26.6-27.9,13.6-47.4L308.7,511.2z"/>
<path class="st0" d="M341.6,93.9c0,0,7.8,130.7-24.1,152.1S275.9,93.9,275.9,93.9h-16.3c0,0,9.1,121.5-13.6,165.1
	s-102.1,155.3-40.9,218.4s143.6,39.6,167,25.3c23.4-14.3,67-72.8,32.4-151.4s-49.4-108.5-48.7-136.5s4.7-131,4.7-131L341.6,93.9z"/>
<path class="st1" d="M362.1,286.3c0,0-45.8,25.3-81.5,13.6s-50-10.3-50-10.3s1.9,92.3,63.6,87.1S375.3,315.5,362.1,286.3z"/>
<path class="st2" d="M236.3,104.4c0,0,37.1,8.5,46.2-14.3s1.3-52.4-26.6-53.5S206,53.7,213,76.5S236.3,104.4,236.3,104.4z"/>
<path class="st2" d="M341.6,93.9c30.5-2.1,61.9-23.8,30.3-57.4s-71.9,17.8-61.5,34.6S333.2,94.5,341.6,93.9z"/>
<path class="st0" d="M246,506.7l2.8,65.6h51c0,0-8.4-15-19.4-14.3c0,0,22.3-29.3,8.5-46.7L246,506.7z"/>
<path class="st2" d="M235.8,324.6l41.5,24.8l10.3-21.4l58.5-3.3l9.8,16.5c0,0,16.9-35.2,6.2-54.8c0,0-32.1,17.8-59.2,16.7
	c-27.1-1-54.4-16.7-72.4-13.6L235.8,324.6z"/>
<path class="st3" d="M251.7,484.6c3.6,2.8,8.5,3.6,12.8,2c3.7-1.5,6.6-4.9,0.7-12.4C255.8,462.1,240.5,475.9,251.7,484.6z"/>
<path class="st3" d="M190,447.3c1.9,4.2,5.8,7.2,10.3,7.7c4.1,0.3,8.1-1.3,6.4-10.7C204.1,429.2,184.2,434.4,190,447.3z"/>
<g>
	<path class="st4" d="M232.9,498.8c0.1-2.1-0.2-4.2-0.8-6.2c-0.5-2-1.4-3.8-2.4-5.6c-2.1-3.5-5.2-6.4-8.6-8.6
		c-1.6-1.3-3.5-2.1-5.3-3.1c-0.9-0.5-1.9-0.8-2.8-1.3c-0.9-0.3-1.9-0.8-2.9-1.2c-2-0.6-4-1.3-5.9-1.9c-2-0.5-4.1-1-6-1.5
		c2.1,0.3,4.1,0.7,6.2,1c2.1,0.5,4.1,1,6,1.6c1,0.2,2,0.7,2.9,1s2,0.7,2.9,1.2c1.9,1,3.8,1.9,5.5,3.1c3.5,2.3,6.6,5.3,8.7,9.1
		C232.4,490.4,233.5,494.7,232.9,498.8z"/>
</g>
<path class="st3" d="M199.3,393.4c3.4-1.7,3.6-6.4,0.8-9c-3-2.8-6.7-5.2-6.7-0.6C193.5,389.6,195.3,395.5,199.3,393.4z"/>
<g>
	<path class="st4" d="M233.8,405.5c2.3,3.3,4.1,6.9,5.3,10.6c1.4,3.7,2.2,7.7,2.2,11.7c0,4-0.7,8.1-2.7,11.6
		c-1.9,3.6-4.7,6.5-7.9,8.7c1.4-1.3,2.9-2.7,4.1-4.2c0.7-0.7,1.2-1.5,1.7-2.3c0.5-0.8,0.9-1.6,1.4-2.6c1.6-3.5,2.3-7.3,2.3-11.3
		c-0.1-3.8-0.8-7.7-2-11.4c-0.6-1.9-1.3-3.7-2-5.5C235.7,409,234.8,407.3,233.8,405.5z"/>
</g>
<path class="st3" d="M264.6,446.7c1.6-3.5-0.7-7.6-4.4-8.5c-4.3-0.9-9.8-1.2-8.5,4.1C253.4,448.9,262.1,452.3,264.6,446.7z"/>
<path class="st3" d="M215.6,366.9c10.9-3.6,6-29.5-3.8-20.6C201.9,355.3,200,372.1,215.6,366.9z"/>
<g>
	<path class="st4" d="M203.9,337.1c1.3,0.2,2.4,0.5,3.7,0.5s2.4,0,3.6-0.3s2.2-0.8,3-1.7c0.8-0.8,1.3-2,1.5-3
		c0.3-1.2,0.3-2.4,0.3-3.6c0-1.3-0.2-2.4-0.3-3.7c-0.1-0.6-0.2-1.3-0.3-1.9c-0.1-0.6-0.2-1.3-0.5-1.9c-0.2-1.3-0.6-2.4-0.9-3.7
		c1,2.3,2,4.7,2.6,7.2c0.6,2.4,0.9,5.1,0.3,7.8c-0.3,1.3-0.9,2.6-1.9,3.6c-0.9,1-2.3,1.6-3.6,1.9
		C208.9,338.7,206.3,338.2,203.9,337.1z"/>
</g>
<g>
	<path class="st4" d="M273,568.3c-0.8-0.9-1.7-1.9-2.7-2.7c-0.9-0.8-1.9-1.6-2.8-2.3c-2-1.4-4.1-2.7-6.4-3.4c-2.3-0.7-4.8-0.8-7-0.2
		c-1.2,0.3-2.3,0.7-3.4,1.4c-1,0.6-2.1,1.3-3,2.1c1.6-1.9,3.7-3.5,6.2-4.3c2.4-0.9,5.2-0.8,7.7,0c2.4,0.8,4.7,2.2,6.5,3.8
		C270,564.3,271.7,566.2,273,568.3z"/>
</g>
<path class="st3" d="M268.1,539.5c7.8-3.6,13.6-23.6,0-20.5C254.5,522.1,257.8,544.3,268.1,539.5z"/>
<path class="st3" d="M260.3,506.7c5.7-3.8-4.9-16.4-6.7-7.9C251.7,507.3,254.5,510.6,260.3,506.7z"/>
<g>
	<path class="st4" d="M308.7,551.4c0.8-1.7,1.2-3.5,1.4-5.3s0.2-3.7,0.1-5.6c-0.1-1.9-0.3-3.7-0.6-5.6c-0.2-1.9-0.6-3.7-0.9-5.6
		c0.8,1.7,1.4,3.5,1.9,5.3c0.5,1.9,0.7,3.7,0.8,5.7c0.1,1.9,0,3.8-0.3,5.7C310.7,548.1,309.9,549.9,308.7,551.4z"/>
</g>
<path class="st3" d="M327.4,535.6c-2-10.5-14.4-0.9-7.9,4C326,544.3,328.8,543.1,327.4,535.6z"/>
<path class="st3" d="M327.4,563.2c4.5-5.3-0.9-19.5-9.8-7.8C308.8,567.1,322.4,569,327.4,563.2z"/>
<g>
	<path class="st4" d="M247.8,546.3c1.9-1.3,3.6-2.8,5-4.5c1.4-1.7,2.2-3.8,2.1-6c-0.1-2.1-1.2-4.2-2.4-5.9c-1.4-1.7-2.9-3.4-4.7-5
		c2,1.2,3.8,2.7,5.3,4.4c0.7,0.9,1.4,1.9,2,3c0.5,1,0.8,2.3,0.9,3.5c0.1,2.4-0.9,4.9-2.6,6.6C251.9,544.1,249.9,545.4,247.8,546.3z"
		/>
</g>
<path class="st3" d="M269.1,551.7c1.3-7.7-10.6-8.6-10.9-2.8S268.1,557.8,269.1,551.7z"/>
<path class="st3" d="M192.9,424.1c7.2-5.8,1.4-16.2-3-12.1C185.5,416.1,186.6,429.1,192.9,424.1z"/>
<g>
	<path class="st4" d="M210.3,387.5c1,1,1.9,2.2,2.6,3.4c0.3,0.6,0.7,1.3,1,1.9l0.5,0.9l0.3,1c1,2.7,1.6,5.6,1.9,8.5
		c0.1,2.9,0,5.8-0.6,8.6c-0.1,0.7-0.3,1.4-0.5,2.1L215,416c-0.5,1.4-0.9,2.7-1.5,4.1c0.2-1.4,0.7-2.8,0.9-4.2
		c0.2-1.4,0.6-2.8,0.7-4.2c0.1-0.7,0.1-1.4,0.2-2.1s0.1-1.4,0.1-2.1c0.1-1.4,0-2.8,0-4.2c-0.2-2.8-0.7-5.6-1.5-8.3l-0.3-1l-0.3-0.9
		c-0.2-0.7-0.6-1.3-0.8-2C211.9,389.9,211.2,388.7,210.3,387.5z"/>
</g>
<path class="st3" d="M230.5,426.8c1.9-8.3-10.3-9.7-8.7,0S228.5,435.4,230.5,426.8z"/>
<path class="st3" d="M248.9,277.8c7.2-9.4-0.6-9.3-6.6-5.3S243.9,284.4,248.9,277.8z"/>
<path class="st3" d="M265.2,286.3c2.2-6.9-8.7-5.8-9.8-2C254.5,288.3,263.6,291.4,265.2,286.3z"/>
<path class="st3" d="M246,400.6c-7.6,5.2-10-9.7-4.3-15.6C247.3,379.2,256.5,393.4,246,400.6z"/>
<path class="st3" d="M230.7,317.8c0,0-6.7-4.5-3.5-16.4"/>
<g>
	<path class="st4" d="M409.6,449.5c-1.3,1.2-2.7,2.3-4,3.5s-2.6,2.4-3.7,3.7c-2.3,2.6-4.7,5.2-6.5,8c-2,2.9-3.5,5.9-4.4,9.3
		s-0.6,6.9,0.8,10.1c-0.9-1.5-1.5-3.3-1.7-5c-0.2-1.7-0.2-3.6,0.1-5.3c0.7-3.5,2.3-6.7,4.3-9.8c2-2.9,4.3-5.6,6.9-8
		C403.9,453.7,406.6,451.4,409.6,449.5z"/>
</g>
<path class="st3" d="M402.1,411c-10.7,2.2-3,23.1,5.8,17C416.7,421.8,411.7,409,402.1,411z"/>
<path class="st3" d="M374.1,478.4c-1.2-7.1-12.3,2.9-8.5,5.8C369.5,487.1,375.3,486,374.1,478.4z"/>
<g>
	<path class="st4" d="M423.1,395.5c-2.1-1.9-3.5-4.3-4.7-6.7c-1.3-2.4-2.2-5-2.9-7.7c-0.8-2.7-1.4-5.2-1.9-7.9
		c-0.5-2.7-0.9-5.3-1-8.1l0.9,4c0.3,1.3,0.6,2.7,0.9,4c0.7,2.7,1.4,5.2,2.1,7.8s1.6,5.1,2.7,7.7c0.5,1.3,1,2.4,1.7,3.6
		c0.3,0.6,0.7,1.2,1,1.7C422.3,394.4,422.8,394.9,423.1,395.5z"/>
</g>
<path class="st3" d="M393.6,437.7c0-6.2-18.1-0.6-12.3,5.9C387.1,450,393.6,446.8,393.6,437.7z"/>
<path class="st3" d="M386.8,463.8c0.1-5.6-8.6-2.8-6.7,3.1C381.8,472.8,386.6,472.1,386.8,463.8z"/>
<path class="st3" d="M396.8,371.1c-1.6-2.8-9.8,6.2-3.3,8.8C400.1,382.5,400.7,378,396.8,371.1z"/>
<g>
	<path class="st4" d="M401.5,344.2c-2-0.8-3.7-2.1-5.1-3.7c-1.5-1.5-2.7-3.4-3.6-5.3c-0.8-2-1.5-4.1-1.7-6.2c-0.2-1-0.1-2.1-0.2-3.1
		c0-1,0.1-2.1,0.2-3.1c0.1,1,0.2,2.1,0.3,3.1l0.2,1.5c0.1,0.5,0.1,1,0.2,1.5l0.3,1.5c0.1,0.5,0.3,0.9,0.5,1.5c0.2,1,0.7,2,1,2.9
		c0.8,1.9,2,3.6,3.3,5.2C398.4,341.6,399.9,343.1,401.5,344.2z"/>
</g>
<path class="st5" d="M288.9,514.7c35.5,2.7,62.4-8,75.3-15.9c23.4-14.3,67-72.8,32.4-151.4S347.3,238.9,348,210.9
	s4.5-123.3,4.5-123.3"/>
<path class="st5" d="M251.7,101.9c0,0,9.3,109.6-13.5,153.1s-102.1,155.3-40.9,218.4c12.9,13.4,26.9,22.8,40.9,29.3"/>
<path class="st5" d="M333.8,89.9c0,0,7.8,130.7-24.1,152.1S268.1,95.9,268.1,95.9"/>
<g>
	<path class="st4" d="M226.6,366.9c1.3,4.2,2.2,8.5,3.1,12.9c0.9,4.3,1.6,8.7,2.3,13c1.2,8.7,1.9,17.6,1.9,26.5
		c0,4.4-0.2,8.8-0.7,13.3c-0.5,4.4-1.2,8.8-2.2,13.1c-1,4.3-2.3,8.6-4.1,12.8c-1.7,4.2-4,8.1-6.5,11.7c-0.3,0.5-1,0.6-1.5,0.2
		c-0.2-0.2-0.5-0.5-0.5-0.8l-2.6-21.3l-1.3-10.7l-1.2-10.7l-2.3-21.3c-0.7-7.1-1.5-14.2-2.1-21.4c1,7.1,2.1,14.2,3.1,21.3l2.9,21.3
		l1.4,10.6l1.4,10.6l2.7,21.3l-2-0.5c4.9-7.1,8.3-15.2,10.2-23.7c1-4.2,1.7-8.5,2.2-12.9c0.6-4.3,0.8-8.7,0.9-13.1
		c0.2-8.7-0.2-17.6-1.2-26.3C229.9,384.2,228.5,375.5,226.6,366.9z"/>
</g>
<polyline class="st6" points="233.8,322.6 275.3,347.4 285.7,326 344.2,322.6 353.9,339.1 "/>
<path class="st5" d="M396.8,347.4c0,0,28.6,38.4,18.8,88.4l-8.4-9.3"/>
<path class="st5" d="M360.1,284.4c0,0-45.8,25.3-81.5,13.6s-50-10.3-50-10.3s1.9,92.3,63.6,87.1S373.5,313.5,360.1,284.4z"/>
<path class="st6" d="M228.5,100.4c0,0,37.1,8.5,46.2-14.3c9.1-22.8,1.3-52.4-26.6-53.5s-49.8,17.1-42.8,39.9
	C212.2,95.3,228.5,100.4,228.5,100.4z"/>
<path class="st6" d="M333.8,89.9c30.5-2.1,61.9-23.8,30.3-57.4s-71.9,17.8-61.5,34.6C313,84,325.5,90.5,333.8,89.9z"/>
<g>
	<path class="st4" d="M238.2,502.8c0.5,5.5,0.7,10.9,1.2,16.4c0.3,5.5,0.7,10.9,1,16.4l0.9,16.4c0.3,5.5,0.6,10.9,0.8,16.4l-1-0.9
		l25.5-0.1c8.5-0.1,17,0,25.5,0.1l-0.9,1.6c-1-1.7-2.2-3.5-3.5-5c-1.3-1.6-2.7-3.1-4.2-4.4c-1.5-1.3-3.3-2.4-5-3.3
		c-1.9-0.8-3.7-1.2-5.7-1.2l0,0c-0.5,0-0.9-0.3-0.9-0.9c0-0.2,0.1-0.5,0.2-0.6c2.4-3.3,4.8-6.9,6.7-10.6c2-3.7,3.6-7.6,4.9-11.5
		c1.2-4,2-8.1,1.7-12.3c-0.2-4.2-1.6-8.3-4.1-11.7c1.3,1.6,2.4,3.5,3.3,5.5c0.8,2,1.3,4.1,1.5,6.3c0.5,4.3-0.2,8.6-1.3,12.7
		c-1.2,4.1-2.8,8.1-4.7,12c-2,3.8-4.1,7.4-6.6,11l-0.8-1.5c2.3-0.1,4.5,0.3,6.6,1.2c2.1,0.9,3.8,2.2,5.6,3.5c1.6,1.4,3.1,3,4.5,4.7
		c1.4,1.6,2.7,3.4,3.7,5.3c0.3,0.5,0.1,1.2-0.3,1.4c-0.1,0.1-0.3,0.1-0.6,0.1l0,0c-8.5,0-17,0.1-25.5,0.1l-25.5-0.1l0,0
		c-0.6,0-1-0.5-1-0.9c-0.2-5.5-0.5-10.9-0.6-16.4l-0.5-16.4c-0.2-5.5-0.3-10.9-0.5-16.4C238.5,513.8,238.4,508.3,238.2,502.8z"/>
</g>
<g>
	<path class="st4" d="M300.9,507.3c0.1,4.7,0.2,9.3,0.3,14s0.2,9.3,0.2,14l0.3,27.9l-0.9-0.9l26.5-0.1h13.3l13.3,0.1l-0.9,1.7
		c-1.3-1.9-2.8-3.7-4.3-5.6c-1.5-1.7-3-3.5-4.8-5.1c-1.6-1.6-3.5-3.1-5.3-4.3c-1.9-1.2-4.1-2-5.9-1.6l0,0c-0.6,0.1-1-0.2-1.2-0.7
		c-0.1-0.3,0-0.6,0.2-0.8c2.9-3.1,5.7-6.6,8.1-10.2c2.4-3.6,4.7-7.4,6.3-11.4c1.6-4.1,2.9-8.3,3-12.7c0.2-4.3-0.9-8.7-3.3-12.6
		c1.3,1.9,2.2,3.8,2.9,5.9c0.7,2.1,0.9,4.4,0.9,6.6c0,4.5-1,9-2.6,13c-1.6,4.2-3.7,8.1-6.2,11.9c-2.4,3.7-5.1,7.3-8,10.7l-0.9-1.6
		c1.4-0.3,2.8-0.1,4,0.2c1.3,0.3,2.4,0.9,3.5,1.6c2.1,1.3,4,2.9,5.7,4.5c1.7,1.6,3.4,3.4,4.9,5.2c1.5,1.9,3,3.7,4.4,5.7
		c0.3,0.5,0.2,1.2-0.2,1.5c-0.2,0.1-0.5,0.2-0.6,0.2l0,0l-13.3,0.1h-13.3l-26.5-0.1l0,0c-0.6,0-0.9-0.5-0.9-0.9l0,0l0.3-27.9
		c0-4.7,0.2-9.3,0.2-14C300.7,516.6,300.8,511.9,300.9,507.3z"/>
</g>
<circle class="st7" cx="251.7" cy="57.4" r="13.5"/>
<circle class="st7" cx="340.9" cy="46" r="13.5"/>
</svg>
