<?xml version="1.0" encoding="utf-8"?>
<!-- Generator: Adobe Illustrator 21.1.0, SVG Export Plug-In . SVG Version: 6.00 Build 0)  -->
<svg version="1.0" id="Layer_3" xmlns="http://www.w3.org/2000/svg" xmlns:xlink="http://www.w3.org/1999/xlink" x="0px" y="0px"
	 viewBox="0 0 600 400" style="enable-background:new 0 0 600 400;" xml:space="preserve">
<style type="text/css">
	.st0{fill:#F2DDA4;}
	.st1{fill:#BFD7B5;}
	.st2{fill:#F0EFF4;}
	.st3{fill:#413C57;}
	.st4{fill:#E7EFC5;stroke:#E7EFC5;stroke-width:2;stroke-linecap:round;stroke-linejoin:round;stroke-miterlimit:10;}
	.st5{fill:none;stroke:#DDB68C;stroke-width:2;stroke-linecap:round;stroke-linejoin:round;stroke-miterlimit:10;}
	.st6{fill:none;stroke:#99C199;stroke-width:2;stroke-linecap:round;stroke-linejoin:round;stroke-miterlimit:10;}
	.st7{fill:none;stroke:#D9D9E2;stroke-width:2;stroke-linecap:round;stroke-linejoin:round;stroke-miterlimit:10;}
	.st8{fill:none;stroke:#D9D9E2;stroke-linecap:round;stroke-linejoin:round;stroke-miterlimit:10;}
	.st9{fill:#99C199;}
	.st10{fill:none;stroke:#2C2942;stroke-width:2;stroke-linecap:round;stroke-linejoin:round;stroke-miterlimit:10;}
	.st11{fill:#A5D2DB;stroke:#85ADC1;stroke-width:2;stroke-linecap:round;stroke-linejoin:round;stroke-miterlimit:10;}
</style>
<path class="st0" d="M347,118.5c0,0,37-12.7,41.8-8.7c4.7,4-3.8,30.4-11.6,41.8C369.2,163.1,347,118.5,347,118.5z"/>
<path class="st0" d="M403.9,203.7c0,0,35.4-15.3,45.3-9.4c9.9,5.9-10.6,42.5-22.6,49.5S403.9,203.7,403.9,203.7z"/>
<path class="st0" d="M432.9,289.8c0,0,44.8-4.2,46.7,13c1.9,17.2-35.9,50.7-35.9,50.7L432.9,289.8z"/>
<path class="st1" d="M289.5,86.9c0,0,92.7,9.9,151,196.3S331.2,509.7,331.2,509.7l0.5,31.1l-70.8-2.8c0,0,26.4,0.5,11.8-46.7
	l-39.6-6.6v43.6l-67.2-2.4c0,0,27.6-5.2,12.3-57.1c0,0-170.3-40.6-113.7-167S247.7,92.4,289.5,86.9z"/>
<path class="st0" d="M306.7,118.8c0,0-42.9-83-49.5-82.6c-6.6,0.5-24.5,60.9-4,76.2S306.7,118.8,306.7,118.8z"/>
<path class="st2" d="M311.9,151.8c-14.6-17.7-83-30.7-101.9,7.1s-0.7,73.1,58,67.9C326.7,221.6,326.7,169.5,311.9,151.8z"/>
<path class="st0" d="M452.9,400.7c0,0,60.2-8.3,60.2,7.5s-33.5,49.5-33.5,49.5L452.9,400.7z"/>
<path class="st0" d="M502.9,489.1c0,0,30.2-28.3,36.6-20.1c6.4,8.3,0,43.6,0,43.6L502.9,489.1z"/>
<path class="st1" d="M358.8,499.7c0,0,197.4,23.6,198.6,16.5c1.2-7.1-99.8-60.2-113.7-162.8S358.8,499.7,358.8,499.7z"/>
<path class="st3" d="M188.7,217.6c0,0,42.9,34.4,52.1,38c9.2,3.5,52.1-18.4,82.8-13.4c0,0-56.8,33.7-82.8,29
	S190.9,242.4,188.7,217.6z"/>
<path class="st4" d="M273,491.5c0,0,64.4-182.3-38.9-202.2c-34.2-6.6-86.6-28.8-94.4,19.8s38.9,159.9,38.9,159.9L273,491.5z"/>
<path class="st2" d="M259.7,266.9c0,0,0.5-15.3,19.8-15.3c19.3,0,15.1,2.1,15.1,2.1L259.7,266.9z"/>
<path class="st2" d="M223.9,244.5l-22.2-17.2C201.7,227.3,200.8,247.8,223.9,244.5"/>
<path class="st5" d="M337.6,113.8c0,0,37-12.7,41.8-8.7c4.7,4-3.8,30.4-11.6,41.8"/>
<path class="st5" d="M399.2,199c0,0,30.7-15.3,40.6-9.4c9.9,5.9-10.6,42.5-22.6,49.5"/>
<path class="st5" d="M435.2,287.4c0,0,33-6.6,34.9,10.6c1.2,11.6-15.6,30.4-26.7,41.8"/>
<path class="st5" d="M448.2,396c0,0,55.4-8.3,55.4,7.5c0,10.9-15.6,30-25.5,41"/>
<path class="st5" d="M505.1,474.5c9.2-7.3,21.2-15.1,25-10.1c4,5.2,3.1,21.5,1.7,32.6"/>
<path class="st6" d="M280,82.2c0,0,92.7,9.9,151,196.3S321.8,504.9,321.8,504.9l0.5,31.1l-70.8-2.8c0,0,26.4,0.5,11.8-46.7
	l-39.6-6.6v43.6l-67.2-2.4c0,0,27.8-5.2,12.3-57.1c0,0-170.3-40.6-113.7-167c42.2-92.7,122-162.8,177.6-195.3"/>
<path class="st5" d="M297.3,114.1c0,0-42.9-83-49.5-82.6c-6.6,0.5-24.5,60.9-4,76.2S297.3,114.1,297.3,114.1z"/>
<path class="st7" d="M309.5,147.1c-14.6-17.7-83-30.7-101.9,7.1s-0.7,73.1,58,67.9C324.4,216.9,324.4,164.8,309.5,147.1z"/>
<path class="st6" d="M349.4,495c0,0,197.4,23.6,198.6,16.5c0.9-5.2-53.5-35.4-88-91.8c-6.6-10.6-12.3-22.2-16.7-34.9"/>
<path class="st8" d="M259.7,266.9c0,0,0.5-15.3,19.8-15.3c19.3,0,15.1,2.1,15.1,2.1L259.7,266.9z"/>
<path class="st8" d="M201.7,227.3c0,0-0.9,20.5,22.2,17.5L201.7,227.3z"/>
<g>
	<path class="st1" d="M312.8,370.7c-12.3,0.2-9.2,6.1-30.7,15.3c-21.5,9.2-35.6-22.6-42-30.2s-22.2,3.3-29.7-0.2
		c-7.5-3.5,0.2-8.5,0.2-8.5c-9.7-4.5,1.4-9,1.4-9c-7.5-5,0-8.3,0-8.3c-3.8-1.9,0-5.9,0-5.9c20.1-4.7,28.8,9,46.9,36.1
		c17.9,27.1,41.5-20.1,41.5-20.1"/>
	<path class="st9" d="M312.8,370.7c-2.8,0.2-5.7,0.7-8,2.1c-2.4,1.4-4.2,3.3-6.6,5c-4.5,3.5-9.4,6.4-14.4,8.7
		c-2.6,1.2-5.4,2.4-8.5,2.4c-3.1,0.2-6.1-0.2-8.7-1.4c-5.7-2.1-9.9-6.4-13.7-10.6c-3.8-4.2-7.1-9-10.1-13.7l-2.4-3.5
		c-0.7-0.9-1.7-2.4-2.4-2.8c-1.4-1.4-3.5-1.7-6.1-1.4c-5.2,0.5-10.4,2.6-16.5,3.1c-1.7,0-3.3,0-5-0.5c-0.5-0.2-0.9-0.2-1.2-0.5
		l-1.2-0.7c-0.5-0.2-0.7-0.5-1.2-0.7s-0.7-0.7-1.2-0.9c-0.7-0.7-1.2-2.1-1.2-3.3c0-1.4,0.5-2.4,0.9-3.1c1.2-1.7,2.1-2.6,3.8-3.5
		l0.2,4l-1.7-0.9c-0.7-0.5-1.2-0.7-1.7-1.4c-0.2-0.2-0.5-0.7-0.9-0.9c-0.2-0.5-0.5-0.9-0.7-1.4c-0.2-0.5-0.2-1.2-0.2-1.7
		s0.2-1.2,0.5-1.7c0.9-1.9,2.1-2.6,3.1-3.5c1.2-0.7,2.1-1.4,3.5-1.9l-0.5,4.2c-0.9-0.7-1.7-1.2-2.6-2.1c-0.7-0.9-1.7-2.1-1.9-4
		c0-1.9,0.9-3.3,1.7-4.2c0.9-0.9,1.9-1.4,3.1-2.1v4.2c-0.7-0.5-1.7-0.9-2.4-1.9c-0.7-0.9-0.7-2.4-0.7-3.3c0.2-0.9,0.5-1.7,0.9-2.4
		c0.5-0.7,0.7-1.2,1.4-1.9c0.2-0.2,0.7-0.5,1.2-0.7l0,0c5.2-1.2,11.1-1.4,16.3,0.5c5.4,1.9,9.4,5.7,13,9.4c3.5,3.8,6.6,8,9.4,12.3
		c2.8,4.2,5.7,8.5,8.3,12.7c0.7,0.9,1.4,2.1,2.1,3.1l0.9,1.4l1.2,1.4c1.7,1.7,3.5,3.3,5.7,4c4.2,1.4,9.2-0.5,13-3.3
		c4-2.8,7.3-6.6,10.6-10.6c3.1-4,5.9-8.3,8.5-12.5c-2.1,4.5-4.7,9-7.5,13.2c-2.8,4.2-6.1,8.3-10.1,11.6c-2.1,1.7-4.2,3.1-6.8,4
		s-5.4,1.2-8.3,0.2c-5.7-1.7-9-6.6-11.8-10.6c-2.8-4.2-5.7-8.3-8.7-12.5c-3.1-4-5.9-8-9.4-11.6c-3.3-3.5-7.1-6.6-11.6-8
		c-4.2-1.4-9-1.4-13.7-0.2l1.2-0.7c-0.2,0.2-0.5,0.7-0.7,0.9c-0.2,0.5-0.2,0.7-0.2,0.9c0,0.2,0,0.2,0,0.2s0.2,0,0.5,0.2h0.2
		c1.2,0.7,1.4,2.1,0.7,3.3c-0.2,0.5-0.7,0.7-0.9,0.9c-0.5,0.2-1.2,0.7-1.7,1.2s-0.5,0.7-0.5,0.7s0.2,0.5,0.7,0.9s1.2,0.9,1.7,1.4
		c1.2,0.7,1.4,2.1,0.7,3.3c-0.2,0.5-0.7,0.7-0.9,0.9c-0.7,0.2-1.9,0.9-2.6,1.4c-0.7,0.5-1.4,1.2-1.4,1.4l0,0l0,0c0,0,0,0,0,0.2
		l0.2,0.2c0.2,0.2,0.7,0.5,0.9,0.7l1.2,0.7l0,0c1.2,0.7,1.7,2.1,0.9,3.1c-0.2,0.5-0.5,0.7-0.7,0.9c-0.9,0.5-1.9,1.4-2.4,2.1
		c-0.2,0.2-0.2,0.7-0.2,0.7s0,0.2,0.2,0.5c0.5,0.5,1.7,1.2,2.4,1.4c0.9,0.2,2.1,0.2,3.3,0.2c5-0.5,10.4-2.4,16.3-2.8
		c0.7,0,1.7,0,2.4,0c0.7,0,1.7,0.2,2.4,0.2c0.9,0.2,1.7,0.5,2.4,0.9l1.2,0.7l0.9,0.9c1.4,1.2,1.9,2.4,2.8,3.5l2.4,3.5
		c2.8,4.7,5.9,9.4,9.4,13.4c3.5,4.2,7.3,8,12.3,10.1c2.4,1.2,5,1.7,7.5,1.4c2.6,0,5.2-0.7,7.5-1.9c5.2-2.1,10.1-4.5,14.6-7.5
		c2.4-1.4,4.5-3.3,7.1-4.7C307.2,370.7,310,370.5,312.8,370.7z"/>
</g>
<g>
	<path class="st1" d="M99.1,353c0,0,4.2,29.3,37.5,16.3c8-2.6,23.4-22.4,34.2-20.3c10.9,2.1,17.9,8,19.3,2.6s-3.3-6.8-3.3-6.8
		s8.7,3.8,9.2-2.1c0.5-5.9-4-6.6-4-6.6s9.7,3.3,8.5-2.6c-1.2-5.9-5-5-5-5s8.3,5,7.1-2.6c-1.2-7.5-21.5-10.6-29.7-6.1
		c-8.3,4.5-27.8,39.2-42.9,29.3c-15.1-9.9-11.8-9-11.8-9"/>
	<path class="st9" d="M99.1,353c1.2,4.7,3.5,9.2,6.8,12.7c3.3,3.3,8,5.4,12.7,5.7c1.2,0,2.4,0.2,3.5,0c1.2-0.2,2.4-0.2,3.5-0.5
		c2.4-0.5,4.7-0.9,6.8-1.9l3.3-1.2c0.5-0.2,0.9-0.5,1.4-0.7l1.4-0.9c1.9-1.4,3.8-2.8,5.7-4.5c3.8-3.3,7.3-6.6,11.6-9.7
		c2.1-1.4,4.2-2.8,6.6-4c2.4-0.9,5.2-1.9,8.5-1.4c5.2,0.9,9.9,2.8,14.4,4.2c0.9,0.2,2.1,0.5,2.4,0.2l0,0l0,0c0-0.2,0-0.2,0.2-0.5
		l0.2-0.7c0.2-0.9,0-1.4-0.2-2.1c-0.2-0.2-0.5-0.5-0.7-0.7c-0.2-0.2-0.7-0.5-0.9-0.5l1.7-4.2c1.2,0.5,2.8,0.9,4,0.9
		c0.7,0,1.2,0,1.4-0.2s0.2,0,0.2-0.2c0,0,0-0.2,0-0.5c0-0.2,0-0.7,0-0.9c0-0.7-0.2-1.2-0.2-1.7c-0.2-0.5-0.5-0.7-0.7-0.9
		c-0.2-0.2-0.9-0.5-0.9-0.5l1.2-4.5c1.2,0.5,2.8,0.7,4,0.7c0.7,0,1.2,0,1.4-0.2s0,0,0,0c0-0.2-0.2-2.1-0.7-2.8
		c-0.2-0.5-0.5-0.7-0.7-0.9c-0.2,0-0.2-0.2-0.5-0.2c0,0-0.5,0-0.2,0l0.7-4.2c0.7,0.5,1.9,0.9,2.6,1.2c0.5,0,0.9,0.2,0.9,0.2
		c0.2,0,0,0,0,0s0,0-0.2,0c0,0.2,0.2-0.7,0-1.7c-0.2-0.5-0.5-1.2-1.2-1.9c-1.2-1.2-3.3-2.4-5.4-3.1c-2.1-0.7-4.2-1.2-6.6-1.4
		c-4.5-0.5-9.2-0.5-13.2,1.2c-1.7,0.7-3.3,2.4-5,4c-1.7,1.7-3.3,3.5-4.7,5.2c-3.1,3.5-6.4,7.1-9.9,10.6c-3.5,3.3-7.3,6.6-11.8,8.7
		c-2.4,0.9-4.7,1.9-7.3,1.7c-2.6,0-5-1.2-6.8-2.6c-1.9-1.4-4-2.8-5.9-4.2c-0.9-0.7-1.9-1.4-2.8-2.1c-0.5-0.5-0.9-0.7-1.4-1.2
		c-0.2-0.2-0.5-0.5-0.7-0.7c0,0-0.2-0.2-0.2-0.5c0-0.2,0.2-0.2,0.2,0c0,0-0.5,0-0.2,0c0,0.2,0.2,0.2,0.2,0.2
		c0.2,0.2,0.5,0.5,0.7,0.5c0.5,0.5,0.9,0.7,1.4,0.9c0.9,0.7,1.9,1.4,3.1,1.9l6.1,3.8c1.9,1.4,4,2.1,6.4,2.1c2.1,0,4.5-0.9,6.4-1.9
		c4-2.4,7.5-5.4,10.6-9c3.3-3.5,6.1-7.1,9.2-10.9c1.7-1.9,3.1-3.8,4.7-5.4c0.9-0.9,1.7-1.9,2.6-2.6c0.5-0.5,0.9-0.9,1.4-1.2
		c0.5-0.5,1.2-0.7,1.9-1.2c5-2.4,10.1-2.4,15.1-1.9c2.6,0.2,5,0.7,7.5,1.4c2.4,0.9,5,1.9,7.1,4c1.2,0.9,1.9,2.6,2.4,4.2
		c0,0.7,0.2,1.4,0,2.4c0,0.5,0,0.9-0.2,1.4l-0.2,0.7c-0.2,0.2-0.2,0.5-0.5,0.7c-0.2,0.5-0.9,0.9-1.4,1.2s-1.2,0.5-1.7,0.5
		c-0.9,0-1.9,0-2.6-0.2c-1.4-0.5-2.6-0.9-4-1.7l0,0c-1.2-0.7-1.4-1.9-0.9-3.1c0.2-0.7,0.9-0.9,1.7-1.2c3.1-0.5,5.4,1.2,6.4,3.1
		c0.5,0.9,0.9,1.9,1.2,2.8c0,0.5,0.2,0.9,0.2,1.4v0.9c0,0.2,0,0.7-0.2,0.9c-0.2,1.4-1.7,2.8-3.1,3.3c-1.2,0.5-2.4,0.5-3.3,0.5
		c-1.9,0-3.5-0.5-5.2-0.9l0,0c-1.2-0.5-1.9-1.7-1.7-2.8s1.4-1.9,2.6-1.7c0.9,0.2,1.2,0.2,1.9,0.7c0.5,0.2,0.9,0.7,1.4,0.9
		c0.9,0.7,1.7,1.9,2.1,2.8c0.5,1.2,0.7,2.1,0.7,3.1c0,0.5,0,0.9,0,1.7c0,0.7,0,1.2-0.5,1.9c-0.2,0.7-0.7,1.2-1.2,1.9
		c-0.5,0.5-1.2,0.9-1.9,1.2c-1.2,0.5-2.4,0.5-3.3,0.5c-2.1-0.2-3.8-0.7-5.4-1.4l0,0c-1.2-0.5-1.7-1.9-1.2-3.1
		c0.5-1.2,1.7-1.7,2.8-1.4c0.9,0.5,1.7,0.7,2.4,1.2c0.7,0.5,1.2,1.2,1.9,1.9c0.9,1.7,1.2,3.5,0.9,5.2l-0.2,1.2
		c-0.2,0.5-0.2,0.9-0.5,1.4c-0.2,0.5-0.7,0.9-0.9,1.4c-0.5,0.5-0.9,0.7-1.7,0.9c-2.4,0.7-3.5,0-5-0.2c-2.6-0.7-4.7-1.7-7.1-2.6
		c-2.4-0.7-4.5-1.4-6.8-1.9c-1.9-0.2-4,0.2-5.9,0.9c-2.1,0.7-4,2.1-6.1,3.3c-4,2.6-7.8,5.9-11.6,9c-1.9,1.7-4,3.1-6.1,4.5l-1.7,0.9
		c-0.7,0.2-1.2,0.5-1.9,0.7l-3.5,1.2c-2.4,0.9-5,1.2-7.3,1.7c-1.2,0.2-2.6,0.2-3.8,0.2c-1.2,0-2.6,0-3.8-0.2
		c-5.2-0.5-9.9-3.1-13.4-6.8C101.7,362.5,99.8,357.7,99.1,353z"/>
</g>
<path class="st10" d="M186.4,215.3c0,0,42.9,34.4,52.1,38c9.2,3.5,52.1-18.4,82.8-13.4c0,0-56.8,33.7-82.8,29
	C212.6,264.1,188.5,240,186.4,215.3z"/>
<g>
	<path class="st9" d="M284.5,484.4c-6.8,2.4-14.4,3.1-21.7,3.3c-7.3,0.2-14.6-0.7-21.9-1.9c-7.1-1.7-14.4-3.5-21-6.1
		c-3.5-1.2-6.6-3.1-9.9-4.5c-3.3-1.7-6.4-3.5-9.4-5.4c3.5,0.9,6.8,2.4,10.4,3.3l5.2,1.7l2.6,0.9l2.6,0.7c1.7,0.5,3.5,0.9,5.2,1.4
		c1.7,0.5,3.5,0.9,5.2,1.2c3.5,0.9,6.8,1.7,10.4,2.4c7.1,1.4,13.9,2.4,21.2,2.8C270.1,484.6,277.2,484.9,284.5,484.4z"/>
</g>
<circle class="st11" cx="250.5" cy="173.7" r="13.9"/>
</svg>
