<?xml version="1.0" encoding="utf-8"?>
<!-- Generator: Adobe Illustrator 21.1.0, SVG Export Plug-In . SVG Version: 6.00 Build 0)  -->
<svg version="1.0" id="Layer_3" xmlns="http://www.w3.org/2000/svg" xmlns:xlink="http://www.w3.org/1999/xlink" x="0px" y="0px"
	 viewBox="0 0 342.8 493.1" style="enable-background:new 0 0 342.8 493.1;" xml:space="preserve">
<style type="text/css">
	.st0{fill:#413C57;}
	.st1{fill:#F2DDA4;}
	.st2{fill:#F0EFF4;}
	.st3{fill:#D44368;}
	.st4{fill:#413C57;stroke:#413C57;stroke-width:2;stroke-linecap:round;stroke-linejoin:round;stroke-miterlimit:10;}
	.st5{fill:none;stroke:#2C2942;stroke-width:2;stroke-linecap:round;stroke-linejoin:round;stroke-miterlimit:10;}
	.st6{fill:none;stroke:#DDB68C;stroke-width:2;stroke-linecap:round;stroke-linejoin:round;stroke-miterlimit:10;}
	.st7{fill:none;stroke:#D9D9E2;stroke-width:2;stroke-linecap:round;stroke-linejoin:round;stroke-miterlimit:10;}
	.st8{fill:none;stroke:#AF286F;stroke-width:2;stroke-linecap:round;stroke-linejoin:round;stroke-miterlimit:10;}
	.st9{fill:#DDB68C;}
	.st10{fill:#7F2361;stroke:#5B1159;stroke-width:2;stroke-linecap:round;stroke-linejoin:round;stroke-miterlimit:10;}
</style>
<polygon class="st0" points="124.9,26.3 171,22.6 138.8,60 "/>
<polygon class="st0" points="82.3,22.6 44.2,8.6 63.3,55.6 "/>
<polygon class="st0" points="252.4,56.3 207.7,52.7 230,96.8 "/>
<polygon class="st0" points="291.2,60 342.8,45.2 306.1,104 "/>
<path class="st1" d="M150.5,204.4c16.9,4.4,85.7-145.1,101.9-148s48.4-28.3,53.5,40.4S239.2,219,218.7,246.9s-33,103.1-30,159.3
	s16.9,87,16.9,87l-30.8-29.3l1.5,29.3l-25.6-24.9l-26.4,17.6c0,0,9.5-19.8,8.1-26.4c0,0-27.8,20.5-38.8,19.8c0,0,30.8-28.2,30-56.2
	c-0.7-28,2.9-140.9-24.2-184.9S12,89.9,89.7,8.6c27.8-21.2,64.5,32.3,52,96.8S150.5,204.4,150.5,204.4z"/>
<path class="st2" d="M281.3,74.7c16.9,4.3,27.5,36.6,9.9,54.9c-17.6,18.3-58.6-9.5-30.8-49.8C264.8,71,281.3,74.7,281.3,74.7z"/>
<path class="st3" d="M233.3,128.2c0,0,29.1,16.1,38.4,16.9c9.3,0.7,16.6,0,16.6,0s-19.8,13.9-27.5,11.7
	C253.1,154.5,233.3,128.2,233.3,128.2z"/>
<path class="st1" d="M263.7,197.1c0,0,19.4,55.6,14.3,64.4s-49.8,20.6-61.6,17.6c0,0,6.6,8.5,4.4,20c0,0,13.2,15.1,9.2,19.5
	l-31.1-26.1l8.8-25.6c0,0,55,0.4,56.1-12.8S251,211.4,251,211.4L263.7,197.1z"/>
<path class="st2" d="M91.1,92.7c21.2,9.1,45.4-14.6,30-47.5S32.5,67.4,91.1,92.7z"/>
<path class="st3" d="M60.4,93.2c0,0,6.9,15.4,57.2,9.4c0,0-19.1,24.2-28.6,21.2C79.4,120.8,60.4,93.2,60.4,93.2z"/>
<path class="st1" d="M97.4,222c0,0-16.6,75.2-28.6,49.7s-3.6-66.3-17.4-74.5l3.1,18.7L6.9,228.6l22,4.5l22.5-3
	c0,0,2.4,71.7,22.9,67.4c20.5-4.4,32.7-42.7,32.7-42.7L97.4,222z"/>
<polygon class="st4" points="193.2,447.7 115.6,450.6 109.6,460.3 196.2,460.3 "/>
<polygon class="st4" points="190.3,430.1 122.9,430.1 122.9,416.6 189.6,419.7 "/>
<polygon class="st4" points="188.6,406.1 120.5,404.4 120.5,392 188.6,392 "/>
<polygon class="st4" points="188.6,379.7 122.9,379.7 122.8,370.8 188.6,365.1 "/>
<polygon class="st4" points="190.1,350.9 122.3,356.5 121.8,346.2 190.9,342.7 "/>
<polygon class="st4" points="97.4,222 107,254.8 102.9,265.4 91.9,233 "/>
<polygon class="st4" points="99.5,274.7 86,255 84.6,264 92.9,283.1 "/>
<polygon class="st4" points="84.6,292.1 80.6,271.6 76.9,275.9 80.7,294.8 "/>
<polygon class="st4" points="74.3,297.4 74.3,276.9 70.9,275.1 70.8,297.4 "/>
<polygon class="st4" points="64.8,294 68.8,271.6 67.2,267.9 60.5,285.2 "/>
<polygon class="st4" points="56.9,273.9 66.3,265.4 65.3,262.1 55.6,267.9 "/>
<polygon class="st4" points="54.6,262.1 64.6,257.9 63.4,253.3 53.9,257.7 "/>
<polygon class="st4" points="53.3,253.3 62.6,248.5 62.1,244.4 52.6,246.7 "/>
<polygon class="st4" points="52.2,242.1 62.6,240.8 61.5,237.9 51.4,237.9 "/>
<polygon class="st4" points="51.4,233.5 61.1,233.5 61,231.3 51.4,230 "/>
<polygon class="st4" points="251,211.4 263.7,197.1 267.4,208.2 255.5,222 "/>
<polygon class="st4" points="256.9,225.6 270.2,217.2 273,225.6 259.2,231.9 "/>
<polygon class="st4" points="260.9,237.1 274.7,233.2 276.6,240.9 262.8,244.4 "/>
<polygon class="st4" points="263.5,248.5 278.1,248.5 278.9,255 263.7,254.2 "/>
<polygon class="st4" points="262.4,257.2 278,261.5 275.6,265.4 260.1,259.3 "/>
<polygon class="st4" points="265.8,271.6 256.9,260.9 253.4,262.3 260.9,273 "/>
<polygon class="st4" points="253.4,275.1 251,263 246.5,263 250,276.4 "/>
<polygon class="st4" points="245.1,277.4 241.3,265.2 238.2,265.2 241.7,278.4 "/>
<polygon class="st4" points="236.2,277.9 232.3,265.4 225.7,267 230,278.9 "/>
<polygon class="st4" points="222.8,279.6 222.8,267.3 218.2,267.3 216.5,279.1 "/>
<polyline class="st5" points="246.5,53.4 201.8,49.8 220.8,87.2 "/>
<polyline class="st5" points="290.3,55.7 336.9,42.3 300.3,101.1 "/>
<path class="st6" d="M90.1,229.8C61.8,183.2,9.1,83.9,83.8,5.7c27.8-21.2,64.5,32.3,52,96.8s8.8,98.9,8.8,98.9
	c16.9,4.4,85.7-145.1,101.9-148c16.1-2.9,48.4-28.3,53.5,40.4c5.1,68.8-66.7,122.3-87.2,150.1s-33,103.1-30,159.3
	c2.9,56.2,16.9,87,16.9,87l-30.8-29.3l1.5,29.3l-25.6-24.9l-26.4,17.6c0,0,9.5-19.8,8.1-26.4c0,0-27.8,20.5-38.8,19.8
	c0,0,30.8-28.2,30-56.2c-0.7-26,2.4-124.9-18.7-174.2"/>
<polyline class="st5" points="127.4,22.7 165.2,19.7 137.4,51.9 "/>
<polyline class="st5" points="72,18 38.4,5.7 54.8,46.1 "/>
<path class="st7" d="M275.5,71.8c16.9,4.3,27.5,36.6,9.9,54.9c-17.6,18.3-58.6-9.5-30.8-49.8C259,68,275.5,71.8,275.5,71.8z"/>
<path class="st8" d="M230.4,125.2c0,0,29.1,16.1,38.4,16.9c9.3,0.7,16.6,0,16.6,0s-19.8,13.9-27.5,11.7
	C250.2,151.6,230.4,125.2,230.4,125.2z"/>
<path class="st6" d="M257.9,194.2c0,0,19.4,55.6,14.3,64.4c-5.1,8.8-49.8,20.6-61.6,17.6c0,0,6.6,8.5,4.4,20c0,0,13.2,15.1,9.2,19.5
	L194,289.7l7.8-24.6c0,0,55-0.6,56.1-13.8s-12.7-42.8-12.7-42.8L257.9,194.2z"/>
<path class="st7" d="M85.3,89.7c21.2,9.1,45.4-14.6,30-47.5S26.6,64.5,85.3,89.7z"/>
<path class="st8" d="M57.4,91.7c0,0,6.9,14.2,57.2,9.4c0,0-19.1,24.2-28.6,21.2S57.4,91.7,57.4,91.7z"/>
<path class="st6" d="M91.5,219c0,0-16.6,75.2-28.6,49.7c-12.1-25.5-3.6-66.3-17.4-74.5l3.1,18.7L1,225.6l22,4.5l22.5-3
	c0,0,2.4,71.7,22.9,67.4s32.7-42.7,32.7-42.7"/>
<g>
	<path class="st9" d="M167.8,460.9c-1.2-18.3-2.1-36.6-2.9-55c-0.3-9.2-0.6-18.3-0.7-27.5c0-4.6-0.1-9.2,0.1-13.8
		c0.1-4.6,0.3-9.2,0.8-13.7c-0.4,4.6-0.6,9.2-0.6,13.7c0,4.6,0.1,9.2,0.2,13.8c0.3,9.2,0.7,18.3,1.2,27.5c1,18.3,2.3,36.6,3.8,54.9
		c0,0.6-0.4,1-0.9,1.1S167.9,461.5,167.8,460.9C167.8,461,167.8,461,167.8,460.9z"/>
</g>
<g>
	<path class="st9" d="M143.6,465.3c0.3-19.1,0.4-38.1,0.4-57.2c0-9.5-0.1-19.1-0.3-28.6c-0.1-4.8-0.2-9.5-0.4-14.3
		c-0.1-2.4-0.2-4.8-0.4-7.1l-0.3-3.6c-0.2-1.2-0.4-2.4-0.6-3.5c0.2,1.2,0.4,2.3,0.6,3.5l0.4,3.6c0.3,2.4,0.4,4.8,0.5,7.1
		c0.3,4.8,0.5,9.5,0.7,14.3c0.4,9.5,0.6,19.1,0.8,28.6c0.4,19.1,0.5,38.1,0.6,57.2c0,0.6-0.4,1-1,1
		C144.1,466.3,143.6,465.8,143.6,465.3C143.6,465.3,143.6,465.3,143.6,465.3z"/>
</g>
<g>
	<path class="st9" d="M125.3,456.3c1.3-8.2,2.3-16.5,3.2-24.8c0.9-8.3,1.7-16.6,2.3-24.9c0.6-8.3,1-16.7,1.2-25
		c0.1-8.3,0-16.7-0.6-25c0.8,8.3,1.1,16.7,1.1,25c0,8.4-0.3,16.7-0.7,25.1c-0.4,8.4-1.1,16.7-1.8,25c-0.8,8.3-1.7,16.6-2.8,25
		c-0.1,0.5-0.6,0.9-1.1,0.9C125.6,457.4,125.3,456.9,125.3,456.3C125.3,456.4,125.3,456.3,125.3,456.3L125.3,456.3z"/>
</g>
<circle class="st10" cx="271.6" cy="97.7" r="13.7"/>
<circle class="st10" cx="91.5" cy="52.7" r="13.7"/>
</svg>
