<?xml version="1.0" encoding="utf-8"?>
<!-- Generator: Adobe Illustrator 21.1.0, SVG Export Plug-In . SVG Version: 6.00 Build 0)  -->
<svg version="1.0" id="Layer_3" xmlns="http://www.w3.org/2000/svg" xmlns:xlink="http://www.w3.org/1999/xlink" x="0px" y="0px"
	 viewBox="0 0 600 400" style="enable-background:new 0 0 600 400;" xml:space="preserve">
<style type="text/css">
	.st0{fill:#413C57;}
	.st1{fill:#F2DDA4;}
	.st2{fill:#F0EFF4;}
	.st3{fill:#D44368;}
	.st4{fill:#413C57;stroke:#413C57;stroke-width:2;stroke-linecap:round;stroke-linejoin:round;stroke-miterlimit:10;}
	.st5{fill:none;stroke:#2C2942;stroke-width:2;stroke-linecap:round;stroke-linejoin:round;stroke-miterlimit:10;}
	.st6{fill:none;stroke:#DDB68C;stroke-width:2;stroke-linecap:round;stroke-linejoin:round;stroke-miterlimit:10;}
	.st7{fill:none;stroke:#D9D9E2;stroke-width:2;stroke-linecap:round;stroke-linejoin:round;stroke-miterlimit:10;}
	.st8{fill:none;stroke:#AF286F;stroke-width:2;stroke-linecap:round;stroke-linejoin:round;stroke-miterlimit:10;}
	.st9{fill:#DDB68C;}
	.st10{fill:#7F2361;stroke:#5B1159;stroke-width:2;stroke-linecap:round;stroke-linejoin:round;stroke-miterlimit:10;}
</style>
<polygon class="st0" points="243.3,37.1 299.4,32.5 260.2,78 "/>
<polygon class="st0" points="191.5,32.5 145.2,15.5 168.4,72.6 "/>
<polygon class="st0" points="398.4,73.5 344,69.2 371.2,122.8 "/>
<polygon class="st0" points="445.6,78 508.4,60 463.7,131.5 "/>
<path class="st1" d="M274.4,253.7c20.6,5.4,104.3-176.6,124-180c19.7-3.6,58.9-34.5,65.1,49.1c6.3,83.6-81.1,148.6-106.1,182.6
	c-25,33.9-40.2,125.4-36.5,193.8S341.6,605,341.6,605l-37.5-35.7l1.8,35.7l-31.1-30.3L242.6,596c0,0,11.5-24.1,9.8-32.1
	c0,0-33.8,25-47.2,24.1c0,0,37.5-34.3,36.5-68.4c-0.9-34,3.6-171.4-29.4-224.9S106,114.4,200.6,15.5c33.8-25.7,78.4,39.3,63.2,117.7
	C248.6,211.7,274.4,253.7,274.4,253.7z"/>
<path class="st2" d="M433.5,95.9c20.6,5.3,33.5,44.5,12.1,66.8c-21.4,22.3-71.3-11.5-37.5-60.5C413.5,91.4,433.5,95.9,433.5,95.9z"
	/>
<path class="st3" d="M375.1,160.9c0,0,35.4,19.6,46.7,20.6c11.3,0.9,20.1,0,20.1,0s-24.1,16.9-33.5,14.2
	C399.3,192.9,375.1,160.9,375.1,160.9z"/>
<path class="st1" d="M412.2,244.7c0,0,23.6,67.6,17.3,78.3c-6.2,10.7-60.5,25.1-75,21.4c0,0,8.1,10.3,5.4,24.3
	c0,0,16,18.3,11.2,23.7l-37.7-31.6l10.7-31.1c0,0,66.9,0.4,68.3-15.6c1.3-16-15.6-51.9-15.6-51.9L412.2,244.7z"/>
<path class="st2" d="M202.3,117.7c25.7,11.1,55.3-17.8,36.5-57.7S131,87,202.3,117.7z"/>
<path class="st3" d="M164.9,118.4c0,0,8.4,18.7,69.6,11.4c0,0-23.3,29.4-34.8,25.7C187.9,152,164.9,118.4,164.9,118.4z"/>
<path class="st1" d="M209.9,275c0,0-20.1,91.5-34.8,60.4c-14.5-31-4.4-80.7-21.1-90.6l3.8,22.7L99.9,283l26.7,5.5l27.4-3.7
	c0,0,2.9,87.2,27.9,82c25-5.4,39.7-51.9,39.7-51.9L209.9,275z"/>
<polygon class="st4" points="326.5,549.6 232,553.1 224.7,564.9 330,564.9 "/>
<polygon class="st4" points="322.9,528.1 240.9,528.1 240.9,511.8 322,515.5 "/>
<polygon class="st4" points="320.9,498.9 238,496.9 238,481.8 320.9,481.8 "/>
<polygon class="st4" points="320.9,466.8 240.9,466.8 240.7,456.1 320.9,449.1 "/>
<polygon class="st4" points="322.6,431.8 240.2,438.6 239.5,426.1 323.7,421.8 "/>
<polygon class="st4" points="209.9,275 221.5,315 216.6,327.9 203.2,288.5 "/>
<polygon class="st4" points="212.4,339.2 196,315.2 194.3,326.2 204.4,349.3 "/>
<polygon class="st4" points="194.3,360.3 189.4,335.4 184.9,340.6 189.6,363.7 "/>
<polygon class="st4" points="181.8,366.8 181.8,341.8 177.6,339.6 177.5,366.8 "/>
<polygon class="st4" points="170.3,362.7 175.1,335.4 173.2,330.9 165,351.9 "/>
<polygon class="st4" points="160.6,338.2 172,327.9 170.8,323.8 159.1,330.9 "/>
<polygon class="st4" points="157.8,323.8 170,318.7 168.5,313.1 156.9,318.5 "/>
<polygon class="st4" points="156.3,313.1 167.6,307.3 166.9,302.3 155.4,305.1 "/>
<polygon class="st4" points="154.9,299.6 167.6,297.9 166.2,294.4 153.9,294.4 "/>
<polygon class="st4" points="153.9,289 165.7,289 165.6,286.4 153.9,284.8 "/>
<polygon class="st4" points="396.7,262.2 412.2,244.7 416.6,258.3 402.2,275 "/>
<polygon class="st4" points="403.9,279.4 420.1,269.2 423.5,279.4 406.7,287.1 "/>
<polygon class="st4" points="408.8,293.4 425.6,288.7 427.8,298.1 411,302.3 "/>
<polygon class="st4" points="411.9,307.3 429.7,307.3 430.6,315.2 412.2,314.2 "/>
<polygon class="st4" points="410.6,317.9 429.5,323 426.6,327.9 407.8,320.5 "/>
<polygon class="st4" points="414.7,335.4 403.9,322.4 399.6,324.1 408.8,337.1 "/>
<polygon class="st4" points="399.6,339.6 396.7,325 391.2,325 395.5,341.2 "/>
<polygon class="st4" points="389.6,342.4 384.9,327.6 381.2,327.6 385.4,343.6 "/>
<polygon class="st4" points="378.7,343.1 374,327.9 365.9,329.8 371.2,344.3 "/>
<polygon class="st4" points="362.4,345.1 362.4,330.2 356.8,330.2 354.8,344.5 "/>
<polyline class="st5" points="391.2,70 336.9,65.6 360,111.1 "/>
<polyline class="st5" points="444.5,72.8 501.2,56.5 456.7,128 "/>
<path class="st6" d="M201,284.6c-34.5-56.7-98.6-177.5-7.6-272.6c33.8-25.7,78.4,39.3,63.2,117.7C241.4,208.1,267.4,250,267.4,250
	c20.5,5.4,104.2-176.4,123.9-180c19.6-3.6,58.9-34.5,65.1,49.1c6.2,83.7-81.1,148.8-106.1,182.6c-25,33.8-40.2,125.4-36.5,193.8
	c3.6,68.4,20.6,105.8,20.6,105.8l-37.6-35.7l1.8,35.7L267.5,571l-32.1,21.4c0,0,11.5-24.1,9.8-32.1c0,0-33.8,25-47.2,24.1
	c0,0,37.5-34.3,36.5-68.4c-0.9-31.7,2.9-151.9-22.7-211.9"/>
<polyline class="st5" points="246.3,32.6 292.3,29 258.5,68.2 "/>
<polyline class="st5" points="179,26.9 138.1,12 158.1,61.1 "/>
<path class="st7" d="M426.5,92.3c20.6,5.3,33.5,44.5,12.1,66.8c-21.4,22.3-71.3-11.5-37.5-60.5C406.4,87.8,426.5,92.3,426.5,92.3z"
	/>
<path class="st8" d="M371.7,157.3c0,0,35.4,19.6,46.7,20.6c11.3,0.9,20.1,0,20.1,0s-24.1,16.9-33.5,14.2
	C395.7,189.5,371.7,157.3,371.7,157.3z"/>
<path class="st6" d="M405.1,241.3c0,0,23.6,67.6,17.3,78.3c-6.2,10.7-60.5,25.1-75,21.4c0,0,8.1,10.3,5.4,24.3
	c0,0,16,18.3,11.2,23.7l-36.7-31.7l9.5-29.9c0,0,66.9-0.8,68.3-16.8c1.3-16-15.4-52-15.4-52L405.1,241.3z"/>
<path class="st7" d="M195.2,114.2c25.7,11.1,55.3-17.8,36.5-57.7S123.7,83.5,195.2,114.2z"/>
<path class="st8" d="M161.2,116.6c0,0,8.4,17.2,69.6,11.4c0,0-23.3,29.4-34.8,25.7C184.5,150.2,161.2,116.6,161.2,116.6z"/>
<path class="st6" d="M202.7,271.4c0,0-20.1,91.5-34.8,60.4c-14.8-31-4.4-80.7-21.1-90.6l3.8,22.7l-57.8,15.4l26.7,5.5l27.4-3.7
	c0,0,2.9,87.2,27.9,82c25-5.3,39.7-51.9,39.7-51.9"/>
<g>
	<path class="st9" d="M295.5,565.6c-1.5-22.3-2.6-44.5-3.6-66.9c-0.3-11.2-0.8-22.3-0.9-33.5c0-5.6-0.1-11.2,0.1-16.8
		c0.1-5.6,0.3-11.2,1-16.7c-0.4,5.6-0.8,11.2-0.8,16.7c0,5.6,0.1,11.2,0.2,16.8c0.3,11.2,0.9,22.3,1.5,33.5
		c1.2,22.3,2.8,44.5,4.6,66.8c0,0.8-0.4,1.2-1.1,1.3C296.1,567,295.7,566.4,295.5,565.6C295.5,565.7,295.5,565.7,295.5,565.6z"/>
</g>
<g>
	<path class="st9" d="M266,571c0.3-23.3,0.4-46.3,0.4-69.6c0-11.5-0.1-23.3-0.3-34.8c-0.1-5.8-0.2-11.5-0.4-17.3
		c-0.1-2.9-0.2-5.8-0.4-8.6l-0.3-4.4c-0.2-1.5-0.4-2.9-0.8-4.3c0.2,1.5,0.4,2.8,0.8,4.3l0.4,4.4c0.3,2.9,0.4,5.8,0.6,8.6
		c0.3,5.8,0.6,11.5,0.9,17.3c0.4,11.5,0.8,23.3,1,34.8c0.4,23.3,0.6,46.3,0.8,69.6c0,0.8-0.4,1.2-1.2,1.2
		C266.7,572.2,266,571.5,266,571L266,571z"/>
</g>
<g>
	<path class="st9" d="M243.8,560c1.6-10,2.8-20,3.9-30.2c1.1-10.1,2-20.1,2.8-30.3c0.8-10.1,1.2-20.4,1.5-30.4
		c0.1-10.1,0-20.4-0.8-30.4c1,10.1,1.3,20.4,1.3,30.4c0,10.2-0.3,20.4-0.9,30.5c-0.4,10.2-1.3,20.4-2.2,30.4
		c-1,10.1-2,20.1-3.4,30.4c-0.1,0.6-0.8,1.1-1.3,1.1C244.2,561.4,243.8,560.8,243.8,560C243.8,560.1,243.8,560,243.8,560L243.8,560z
		"/>
</g>
<circle class="st10" cx="421.8" cy="123.9" r="16.7"/>
<circle class="st10" cx="202.7" cy="69.2" r="16.7"/>
</svg>
