<?xml version="1.0" encoding="utf-8"?>
<!-- Generator: Adobe Illustrator 21.1.0, SVG Export Plug-In . SVG Version: 6.00 Build 0)  -->
<svg version="1.0" id="Layer_3" xmlns="http://www.w3.org/2000/svg" xmlns:xlink="http://www.w3.org/1999/xlink" x="0px" y="0px"
	 viewBox="0 0 600 400" style="enable-background:new 0 0 600 400;" xml:space="preserve">
<style type="text/css">
	.st0{fill:#5C6096;}
	.st1{fill:#736DA7;}
	.st2{fill:#F0EFF4;}
	.st3{fill:#E7EFC5;stroke:#E7EFC5;stroke-width:2;stroke-linecap:round;stroke-linejoin:round;stroke-miterlimit:10;}
	.st4{fill:none;stroke:#57548C;stroke-width:2;stroke-linecap:round;stroke-linejoin:round;stroke-miterlimit:10;}
	.st5{fill:none;stroke:#D9D9E2;stroke-width:2;stroke-linecap:round;stroke-linejoin:round;stroke-miterlimit:10;}
	.st6{fill:#57548C;}
	.st7{fill:#E7EFC5;stroke:#D3D19C;stroke-width:2;stroke-linecap:round;stroke-linejoin:round;stroke-miterlimit:10;}
</style>
<path class="st0" d="M199.9,417.1c0,0-28,38-65.9,38.8c0,0,36.8,12.1,54.5,7.3"/>
<path class="st1" d="M176.8,68.6c0,0-12.9,213.6,20.2,329.9c0,25,1.6,80.8-54.1,96.9s-82.4,38.8-82.4,38.8l174.5-42
	c0,0-88.1,80.8-91.3,104.2c0,0,109.1-58.2,131.7-62.2c22.6-4,58.2-29.9,63-49.3c0,0,48.5,45.2,103.4,40.4
	c34.7-3.2,90.2-10.5,104.2-8.9c13.6,1.6-127.6-42.8-133.3-53.3c-5.7-10.5-29.1-60.1-21.8-101.5c7.3-41.4,2.4-133.8,2.4-133.8h23.4
	c0,0-21.8-41-28.3-67.7C382.7,136,374.1,23.7,278.8,28.1c-17.1,0.8-33.9,5.5-49.3,13.1C208.5,51.6,176.8,68.6,176.8,68.6z"/>
<polygon class="st2" points="264.9,204.7 264.9,182.9 285.1,208.5 264.9,205.3 "/>
<polygon class="st2" points="348.1,219.5 370.7,251.7 372.3,221.6 "/>
<path class="st0" d="M404.8,449.8c0,0,36.2-13.4,37.8-23.1c0,0-40.4-4-51.4-18.6"/>
<path class="st3" d="M215,48.6c0,0,2.4,28.4-18.1,31.2c-20.7,2.6-20-11.1-20-11.1L215,48.6z"/>
<path class="st3" d="M190.2,98c6.6-4.5,26.5-1.1,24.7,11.8s-9.4,37.6-19.1,29.1C186.2,130.3,173.1,109.8,190.2,98z"/>
<path class="st3" d="M235.3,79.6c0,0-7.6-7.6-11.3-2.1c-3.7,5.3-9.2,11.3-2.1,12.4C228.8,90.9,238.5,86.1,235.3,79.6z"/>
<path class="st3" d="M278.8,28.1c-13.9-0.2-35.7,7.3-35.7,7.3S279.1,44.9,278.8,28.1z"/>
<path class="st3" d="M241.1,47.3c0,0,18.1-3.6,16.5,3.6s-25.9,10.2-25,4.5C233.4,49.7,241.1,47.3,241.1,47.3z"/>
<path class="st3" d="M218.3,63.6c0-4.4,5.7-6,8.2-2.6c0.6,0.8,1,1.8,0.5,2.7c-1.5,2.6-8.7,2.3-8.7,0
	C218.3,63.8,218.3,63.8,218.3,63.6z"/>
<path class="st3" d="M182.2,178.7c7.6-7.9,21.2-5.5,25,4.5c1.5,3.6,1.5,7.8-1.1,12.3C199.4,207.6,169.9,191.4,182.2,178.7z"/>
<path class="st3" d="M306.2,39.2l1.6,0.6c1.5,0.6,2.6,1.9,2.9,3.7c0.5,2.7,0.3,6.5-3.9,5c-5.2-1.8-8.6-4.8-6.3-7.9
	C301.9,38.9,304.3,38.4,306.2,39.2z"/>
<path class="st3" d="M174.4,149.1c0,0,6.5,12.6,0,15.8V149.1z"/>
<path class="st3" d="M179.2,269.3c5.7,5.7,1.8,39.7,1.8,39.7L179.2,269.3z"/>
<path class="st3" d="M190.2,226.2c6.3-4.7,6.1,14.2,0,12.9C184.1,237.8,181.8,232.5,190.2,226.2z"/>
<path class="st4" d="M170.4,65.4c0,0-11.9,196.2,16.3,314.9c3.2,13.3,4.4,27.1,3.1,40.7c-2.5,26.6-12.7,59.5-53.3,71.3
	C80.7,508.4,54,531.1,54,531.1l174.5-42c0,0-88.1,80.8-91.3,104.2c0,0,109.1-58.2,131.7-62.2c22.6-4,58.2-29.9,63-49.3
	c0,0,48.5,45.2,103.4,40.4c34.7-3.2,90.2-9.4,104.2-8.9c12.9,0.3-127.6-42.8-133.3-53.3c-5.7-10.5-29.1-60.1-21.8-101.5
	s2.4-133.8,2.4-133.8h23.4c0,0-21.8-41-28.3-67.7c-5.8-24.2-14.4-136.5-109.7-132.2c-17.1,0.8-33.9,5.5-49.3,13.1
	C202,48.4,170.4,65.4,170.4,65.4z"/>
<polyline class="st5" points="264.9,204.7 264.9,182.9 282.5,206.6 "/>
<polyline class="st5" points="346.5,219.5 370.7,251.7 370.7,223.2 "/>
<g>
	<path class="st6" d="M330.5,481.1c1.9-4.5,3.9-9.2,5.5-13.9c1.6-4.7,3.2-9.4,4.7-14.2c2.7-9.5,5-19.4,5.8-29.4
		c-0.3,10-2.1,20-4.4,29.9c-1.1,4.8-2.4,9.7-3.9,14.5c-1.5,4.8-3.1,9.5-4.8,14.4c-0.3,0.8-1.3,1.3-2.1,1
		C330.5,483.1,330.2,482.1,330.5,481.1L330.5,481.1L330.5,481.1z"/>
</g>
<path class="st4" d="M400,446.6c0,0,34.6-13.4,36.2-23.1c0,0-38.8-4-49.8-18.6"/>
<path class="st4" d="M190.2,413.9c0,0-24.7,38-62.7,38.8c0,0,33.6,12.1,51.2,7.3"/>
<path class="st4" d="M386.9,224.5c0,0-100.2-16.8-129.3-20c-29.1-3.2-30.7-22.6-30.7-22.6"/>
<g>
	<path class="st6" d="M210.8,185.3c1.9-2.3,4.7-3.6,7.4-4.5c2.7-0.8,5.8-1.1,8.7-1c2.9,0.2,5.8,0.8,8.6,1.6c1.3,0.5,2.7,1.1,4,1.6
		c1.3,0.6,2.6,1.5,3.7,2.3c-1.5-0.2-2.7-0.5-4.2-0.6s-2.7-0.5-4-0.6c-2.7-0.3-5.3-0.8-8.1-0.8c-2.7-0.2-5.3-0.2-8.1,0.2
		S213.3,184.1,210.8,185.3z"/>
</g>
<g>
	<path class="st6" d="M227.9,487.6c3.2-1.5,6.6-3.6,9.7-5.8s5.8-5,8.1-7.9c2.4-2.9,4.4-6.3,5.7-9.9c1.5-3.6,1.9-7.4,2.3-11.3
		c0,3.9-0.3,7.8-1.6,11.5c-1.1,3.7-2.9,7.4-5.2,10.7c-2.3,3.2-4.8,6.1-7.9,8.9c-3.1,2.6-6.1,4.8-9.9,6.8c-0.8,0.5-1.8,0.2-2.3-0.6
		c-0.5-0.8-0.2-1.8,0.6-2.3C227.7,487.6,227.7,487.6,227.9,487.6L227.9,487.6z"/>
</g>
<g>
	<path class="st6" d="M306.9,92.5c-2.3-3.6-4.8-6.9-7.6-10c-2.7-3.1-6-5.7-9.7-7.3c-1.8-0.8-3.7-1.3-5.7-1.3c-1.9,0-3.7,0.3-5.5,1.1
		c-0.8,0.3-1.8,1-2.6,1.5c-0.8,0.6-1.6,1.1-2.4,1.8c-1.6,1.3-3.2,2.6-4.8,4c-6.5,5.3-12.4,11.1-19.2,16.3c-3.4,2.6-6.9,5-10.7,6.9
		c-3.9,1.9-7.9,3.4-12,4.2c7.9-2.7,14.9-7.6,21.2-13.1c3.1-2.7,6.3-5.5,9.2-8.4c3.1-2.9,6.1-5.7,9.4-8.4c1.6-1.3,3.2-2.7,4.8-4
		c0.8-0.6,1.8-1.3,2.6-1.9c1-0.6,1.9-1.1,3.1-1.6c2.1-0.8,4.5-1.3,6.8-1.1c2.3,0.2,4.5,0.8,6.6,1.8c4,2.1,7.1,5.2,9.7,8.6
		C303,84.9,305.3,88.5,306.9,92.5z"/>
</g>
<ellipse transform="matrix(0.9903 -0.1393 0.1393 0.9903 -15.3078 39.0333)" class="st7" cx="271.2" cy="128.9" rx="7.9" ry="17.1"/>
<ellipse transform="matrix(0.995 -9.999875e-02 9.999875e-02 0.995 -11.5522 33.7741)" class="st7" cx="331.1" cy="132.1" rx="7.9" ry="17.1"/>
</svg>
