<?xml version="1.0" encoding="utf-8"?>
<!-- Generator: Adobe Illustrator 21.1.0, SVG Export Plug-In . SVG Version: 6.00 Build 0)  -->
<svg version="1.0" id="Layer_2" xmlns="http://www.w3.org/2000/svg" xmlns:xlink="http://www.w3.org/1999/xlink" x="0px" y="0px"
	 viewBox="0 0 225 480.5" style="enable-background:new 0 0 225 480.5;" xml:space="preserve">
<style type="text/css">
	.st0{fill:#E7EFC5;}
	.st1{fill:#D44368;}
	.st2{fill:#F0EFF4;}
	.st3{fill:none;stroke:#D3D19C;stroke-linecap:round;stroke-linejoin:round;stroke-miterlimit:10;}
	.st4{fill:#D3D19C;}
	.st5{fill:none;stroke:#D3D19C;stroke-width:2;stroke-linecap:round;stroke-linejoin:round;stroke-miterlimit:10;}
	.st6{fill:none;stroke:#D9D9E2;stroke-width:2;stroke-linecap:round;stroke-linejoin:round;stroke-miterlimit:10;}
	.st7{fill:#808CC3;stroke:#6D6DB2;stroke-width:2;stroke-linecap:round;stroke-linejoin:round;stroke-miterlimit:10;}
</style>
<path class="st0" d="M202.5,287.1c0,0,24.6,33,16.2,76l-16.2-17.9V287.1z"/>
<path class="st0" d="M120,424.6v48.1h45.6c0,0-11.2-16.2-18.4-14.5c0,0,22.9-24,11.7-40.8L120,424.6z"/>
<path class="st0" d="M148.3,65.7c0,0,6.7,112.4-20.7,130.8S91.8,65.7,91.8,65.7h-14c0,0,7.8,104.5-11.7,142s-87.8,133.6-35.2,187.8
	s123.5,34.1,143.6,21.8c20.1-12.3,57.6-62.6,27.9-130.2s-42.5-93.3-41.9-117.4S164.5,57,164.5,57L148.3,65.7z"/>
<path class="st1" d="M165.9,231.2c0,0-39.4,21.8-70.1,11.7c-30.7-10.1-43-8.9-43-8.9s1.6,79.4,54.7,74.9S177.3,256.3,165.9,231.2z"
	/>
<path class="st2" d="M57.7,74.7c0,0,31.9,7.3,39.7-12.3s1.1-45.1-22.9-46c-24-0.9-42.8,14.7-36.8,34.3S57.7,74.7,57.7,74.7z"/>
<path class="st2" d="M148.3,65.7c26.2-1.8,53.2-20.5,26.1-49.4s-61.8,15.3-52.9,29.8S141.1,66.2,148.3,65.7z"/>
<path class="st0" d="M66.1,420.7l2.4,56.4h43.9c0,0-7.2-12.9-16.7-12.3c0,0,19.2-25.2,7.3-40.2L66.1,420.7z"/>
<path class="st2" d="M57.3,264.1L93,285.4l8.9-18.4l50.3-2.8l8.4,14.2c0,0,14.5-30.3,5.3-47.1c0,0-27.6,15.3-50.9,14.4
	S68.2,231.3,52.7,234L57.3,264.1z"/>
<path class="st3" d="M71,401.7c3.1,2.4,7.3,3.1,11,1.7c3.2-1.3,5.7-4.2,0.6-10.7C74.5,382.4,61.3,394.2,71,401.7z"/>
<path class="st3" d="M17.9,369.6c1.6,3.6,5,6.2,8.9,6.6c3.5,0.3,7-1.1,5.5-9.2C30,354.1,12.9,358.5,17.9,369.6z"/>
<g>
	<path class="st4" d="M54.8,413.9c0.1-1.8-0.2-3.6-0.7-5.3c-0.4-1.7-1.2-3.3-2.1-4.8c-1.8-3-4.5-5.5-7.4-7.4c-1.4-1.1-3-1.8-4.6-2.7
		c-0.8-0.4-1.6-0.7-2.4-1.1c-0.8-0.3-1.6-0.7-2.5-1c-1.7-0.5-3.4-1.1-5.1-1.6c-1.7-0.4-3.5-0.9-5.2-1.3c1.8,0.3,3.5,0.6,5.3,0.9
		c1.8,0.4,3.5,0.9,5.2,1.4c0.9,0.2,1.7,0.6,2.5,0.9c0.8,0.3,1.7,0.6,2.5,1c1.6,0.9,3.3,1.6,4.7,2.7c3,2,5.7,4.6,7.5,7.8
		C54.4,406.7,55.3,410.4,54.8,413.9z"/>
</g>
<path class="st3" d="M25.9,323.3c2.9-1.5,3.1-5.5,0.7-7.7c-2.6-2.4-5.8-4.5-5.8-0.5C20.9,320,22.5,325.1,25.9,323.3z"/>
<g>
	<path class="st4" d="M55.6,333.7c2,2.8,3.5,5.9,4.6,9.1c1.2,3.2,1.9,6.6,1.9,10.1c0,3.4-0.6,7-2.3,10c-1.6,3.1-4,5.6-6.8,7.5
		c1.2-1.1,2.5-2.3,3.5-3.6c0.6-0.6,1-1.3,1.5-2c0.4-0.7,0.8-1.4,1.2-2.2c1.4-3,2-6.3,2-9.7c-0.1-3.3-0.7-6.6-1.7-9.8
		c-0.5-1.6-1.1-3.2-1.7-4.7C57.2,336.7,56.4,335.2,55.6,333.7z"/>
</g>
<path class="st3" d="M82.1,369.1c1.4-3-0.6-6.5-3.8-7.3c-3.7-0.8-8.4-1-7.3,3.5C72.4,371,79.9,373.9,82.1,369.1z"/>
<path class="st3" d="M39.9,300.5c9.4-3.1,5.2-25.4-3.3-17.7S26.5,305,39.9,300.5z"/>
<g>
	<path class="st4" d="M29.9,274.9c1.1,0.2,2.1,0.4,3.2,0.4c1.1,0,2.1,0,3.1-0.3c1-0.3,1.9-0.7,2.6-1.5c0.7-0.7,1.1-1.7,1.3-2.6
		c0.3-1,0.3-2.1,0.3-3.1c0-1.1-0.2-2.1-0.3-3.2c-0.1-0.5-0.2-1.1-0.3-1.6c-0.1-0.5-0.2-1.1-0.4-1.6c-0.2-1.1-0.5-2.1-0.8-3.2
		c0.9,2,1.7,4,2.2,6.2c0.5,2.1,0.8,4.4,0.3,6.7c-0.3,1.1-0.8,2.2-1.6,3.1c-0.8,0.9-2,1.4-3.1,1.6C34.2,276.2,31.9,275.8,29.9,274.9z
		"/>
</g>
<g>
	<path class="st4" d="M89.3,473.7c-0.7-0.8-1.5-1.6-2.3-2.3c-0.8-0.7-1.6-1.4-2.4-2c-1.7-1.2-3.5-2.3-5.5-2.9c-2-0.6-4.1-0.7-6-0.2
		c-1,0.3-2,0.6-2.9,1.2c-0.9,0.5-1.8,1.1-2.6,1.8c1.4-1.6,3.2-3,5.3-3.7c2.1-0.8,4.5-0.7,6.6,0c2.1,0.7,4,1.9,5.6,3.3
		C86.7,470.3,88.2,471.9,89.3,473.7z"/>
</g>
<path class="st3" d="M85.1,448.9c6.7-3.1,11.7-20.3,0-17.6S76.2,453.1,85.1,448.9z"/>
<path class="st3" d="M78.4,420.7c4.9-3.3-4.2-14.1-5.8-6.8C71,421.2,73.4,424.1,78.4,420.7z"/>
<g>
	<path class="st4" d="M120,459.2c0.7-1.5,1-3,1.2-4.6c0.2-1.6,0.2-3.2,0.1-4.8c-0.1-1.6-0.3-3.2-0.5-4.8c-0.2-1.6-0.5-3.2-0.8-4.8
		c0.7,1.5,1.2,3,1.6,4.6c0.4,1.6,0.6,3.2,0.7,4.9c0.1,1.6,0,3.3-0.3,4.9C121.7,456.3,121,457.9,120,459.2z"/>
</g>
<path class="st3" d="M136.1,445.6c-1.7-9-12.4-0.8-6.8,3.4C134.9,453.1,137.3,452,136.1,445.6z"/>
<path class="st3" d="M136.1,469.3c3.9-4.6-0.8-16.8-8.4-6.7S131.8,474.3,136.1,469.3z"/>
<g>
	<path class="st4" d="M67.6,454.8c1.6-1.1,3.1-2.4,4.3-3.9c1.2-1.5,1.9-3.3,1.8-5.2c-0.1-1.8-1-3.6-2.1-5.1c-1.2-1.5-2.5-2.9-4-4.3
		c1.7,1,3.3,2.3,4.6,3.8c0.6,0.8,1.2,1.6,1.7,2.6c0.4,0.9,0.7,2,0.8,3c0.1,2.1-0.8,4.2-2.2,5.7C71.1,452.9,69.4,454,67.6,454.8z"/>
</g>
<path class="st3" d="M85.9,459.4c1.1-6.6-9.1-7.4-9.4-2.4S85.1,464.7,85.9,459.4z"/>
<path class="st3" d="M20.4,349.7c6.2-5,1.2-13.9-2.6-10.4S15,354,20.4,349.7z"/>
<g>
	<path class="st4" d="M35.4,318.2c0.9,0.9,1.6,1.9,2.2,2.9c0.3,0.5,0.6,1.1,0.9,1.6l0.4,0.8l0.3,0.9c0.9,2.3,1.4,4.8,1.6,7.3
		c0.1,2.5,0,5-0.5,7.4c-0.1,0.6-0.3,1.2-0.4,1.8l-0.5,1.8c-0.4,1.2-0.8,2.3-1.3,3.5c0.2-1.2,0.6-2.4,0.8-3.6
		c0.2-1.2,0.5-2.4,0.6-3.6c0.1-0.6,0.1-1.2,0.2-1.8c0.1-0.6,0.1-1.2,0.1-1.8c0.1-1.2,0-2.4,0-3.6c-0.2-2.4-0.6-4.8-1.3-7.1l-0.3-0.9
		l-0.3-0.8c-0.2-0.6-0.5-1.1-0.7-1.7C36.7,320.3,36.1,319.2,35.4,318.2z"/>
</g>
<path class="st3" d="M52.7,352c1.6-7.1-8.9-8.3-7.5,0C46.6,360.3,51,359.4,52.7,352z"/>
<path class="st3" d="M68.6,223.9c6.2-8.1-0.5-8-5.7-4.6S64.3,229.5,68.6,223.9z"/>
<path class="st3" d="M82.6,231.2c1.9-5.9-7.5-5-8.4-1.7C73.4,232.9,81.2,235.6,82.6,231.2z"/>
<path class="st3" d="M66.1,329.5c-6.5,4.5-8.6-8.3-3.7-13.4C67.2,311.1,75.1,323.3,66.1,329.5z"/>
<path class="st3" d="M52.9,258.3c0,0-5.8-3.9-3-14.1"/>
<g>
	<path class="st4" d="M206.8,371.5c-1.1,1-2.3,2-3.4,3c-1.1,1-2.2,2.1-3.2,3.2c-2,2.2-4,4.5-5.6,6.9c-1.7,2.5-3,5.1-3.8,8
		c-0.8,2.9-0.5,5.9,0.7,8.7c-0.8-1.3-1.3-2.8-1.5-4.3c-0.2-1.5-0.2-3.1,0.1-4.6c0.6-3,2-5.8,3.7-8.4c1.7-2.5,3.7-4.8,5.9-6.9
		C201.9,375.1,204.2,373.2,206.8,371.5z"/>
</g>
<path class="st3" d="M200.3,338.4c-9.2,1.9-2.6,19.9,5,14.6C212.9,347.7,208.6,336.7,200.3,338.4z"/>
<path class="st3" d="M176.2,396.4c-1-6.1-10.6,2.5-7.3,5C172.3,403.9,177.3,402.9,176.2,396.4z"/>
<g>
	<path class="st4" d="M218.4,325.1c-1.8-1.6-3-3.7-4-5.8c-1.1-2.1-1.9-4.3-2.5-6.6c-0.7-2.3-1.2-4.5-1.6-6.8c-0.4-2.3-0.8-4.6-0.9-7
		l0.8,3.4c0.3,1.1,0.5,2.3,0.8,3.4c0.6,2.3,1.2,4.5,1.8,6.7c0.6,2.2,1.4,4.4,2.3,6.6c0.4,1.1,0.9,2.1,1.5,3.1c0.3,0.5,0.6,1,0.9,1.5
		C217.7,324.1,218.1,324.6,218.4,325.1z"/>
</g>
<path class="st3" d="M193,361.4c0-5.3-15.6-0.5-10.6,5.1C187.4,372,193,369.2,193,361.4z"/>
<path class="st3" d="M187.2,383.8c0.1-4.8-7.4-2.4-5.8,2.7C182.9,391.6,187,391,187.2,383.8z"/>
<path class="st3" d="M195.8,304.1c-1.4-2.4-8.4,5.3-2.8,7.6C198.6,313.9,199.1,310,195.8,304.1z"/>
<g>
	<path class="st4" d="M199.8,281c-1.7-0.7-3.2-1.8-4.4-3.2c-1.3-1.3-2.3-2.9-3.1-4.6c-0.7-1.7-1.3-3.5-1.5-5.3
		c-0.2-0.9-0.1-1.8-0.2-2.7c0-0.9,0.1-1.8,0.2-2.7c0.1,0.9,0.2,1.8,0.3,2.7l0.2,1.3c0.1,0.4,0.1,0.9,0.2,1.3l0.3,1.3
		c0.1,0.4,0.3,0.8,0.4,1.3c0.2,0.9,0.6,1.7,0.9,2.5c0.7,1.6,1.7,3.1,2.8,4.5C197.1,278.7,198.4,280,199.8,281z"/>
</g>
<path class="st5" d="M103,427.6c30.5,2.3,53.7-6.9,64.8-13.7c20.1-12.3,57.6-62.6,27.9-130.2s-42.5-93.3-41.9-117.4s3.9-106,3.9-106
	"/>
<path class="st5" d="M71,72.6c0,0,8,94.3-11.6,131.7s-87.8,133.6-35.2,187.8c11.1,11.5,23.1,19.6,35.2,25.2"/>
<path class="st5" d="M141.6,62.3c0,0,6.7,112.4-20.7,130.8S85.1,67.4,85.1,67.4"/>
<g>
	<path class="st4" d="M49.4,300.5c1.1,3.6,1.9,7.3,2.7,11.1c0.8,3.7,1.4,7.5,2,11.2c1,7.5,1.6,15.1,1.6,22.8c0,3.8-0.2,7.6-0.6,11.4
		c-0.4,3.8-1,7.6-1.9,11.3c-0.9,3.7-2,7.4-3.5,11c-1.5,3.6-3.4,7-5.6,10.1c-0.3,0.4-0.9,0.5-1.3,0.2c-0.2-0.2-0.4-0.4-0.4-0.7
		l-2.2-18.3l-1.1-9.2l-1-9.2l-2-18.3c-0.6-6.1-1.3-12.2-1.8-18.4c0.9,6.1,1.8,12.2,2.7,18.3l2.5,18.3l1.2,9.1l1.2,9.1l2.3,18.3
		l-1.7-0.4c4.2-6.1,7.1-13.1,8.8-20.4c0.9-3.6,1.5-7.3,1.9-11.1c0.5-3.7,0.7-7.5,0.8-11.3c0.2-7.5-0.2-15.1-1-22.6
		C52.2,315.4,51,307.9,49.4,300.5z"/>
</g>
<polyline class="st6" points="55.6,262.4 91.3,283.7 100.2,265.3 150.5,262.4 158.9,276.6 "/>
<path class="st5" d="M195.8,283.7c0,0,24.6,33,16.2,76l-7.2-8"/>
<path class="st5" d="M164.2,229.5c0,0-39.4,21.8-70.1,11.7c-30.7-10.1-43-8.9-43-8.9s1.6,79.4,54.7,74.9S175.7,254.6,164.2,229.5z"
	/>
<path class="st6" d="M51,71.3c0,0,31.9,7.3,39.7-12.3s1.1-45.1-22.9-46C43.8,12.1,25,27.7,31,47.3S51,71.3,51,71.3z"/>
<path class="st6" d="M141.6,62.3c26.2-1.8,53.2-20.5,26.1-49.4s-61.8,15.3-52.9,29.8S134.4,62.8,141.6,62.3z"/>
<g>
	<path class="st4" d="M59.4,417.4c0.4,4.7,0.6,9.4,1,14.1c0.3,4.7,0.6,9.4,0.9,14.1l0.8,14.1c0.3,4.7,0.5,9.4,0.7,14.1l-0.9-0.8
		l21.9-0.1c7.3-0.1,14.6,0,21.9,0.1l-0.8,1.4c-0.9-1.5-1.9-3-3-4.3c-1.1-1.4-2.3-2.7-3.6-3.8c-1.3-1.1-2.8-2.1-4.3-2.8
		c-1.6-0.7-3.2-1-4.9-1l0,0c-0.4,0-0.8-0.3-0.8-0.8c0-0.2,0.1-0.4,0.2-0.5c2.1-2.8,4.1-5.9,5.8-9.1c1.7-3.2,3.1-6.5,4.2-9.9
		c1-3.4,1.7-7,1.5-10.6c-0.2-3.6-1.4-7.1-3.5-10.1c1.1,1.4,2.1,3,2.8,4.7c0.7,1.7,1.1,3.5,1.3,5.4c0.4,3.7-0.2,7.4-1.1,10.9
		c-1,3.5-2.4,7-4,10.3c-1.7,3.3-3.5,6.4-5.7,9.5l-0.7-1.3c2-0.1,3.9,0.3,5.7,1c1.8,0.8,3.3,1.9,4.8,3c1.4,1.2,2.7,2.6,3.9,4
		c1.2,1.4,2.3,2.9,3.2,4.6c0.3,0.4,0.1,1-0.3,1.2c-0.1,0.1-0.3,0.1-0.5,0.1l0,0c-7.3,0-14.6,0.1-21.9,0.1l-21.9-0.1l0,0
		c-0.5,0-0.9-0.4-0.9-0.8c-0.2-4.7-0.4-9.4-0.5-14.1l-0.4-14.1c-0.2-4.7-0.3-9.4-0.4-14.1C59.6,426.8,59.5,422.1,59.4,417.4z"/>
</g>
<g>
	<path class="st4" d="M113.3,421.2c0.1,4,0.2,8,0.3,12c0.1,4,0.2,8,0.2,12l0.3,24l-0.8-0.8l22.8-0.1l11.4,0l11.4,0.1l-0.8,1.5
		c-1.1-1.6-2.4-3.2-3.7-4.8c-1.3-1.5-2.6-3-4.1-4.4c-1.4-1.4-3-2.7-4.6-3.7c-1.6-1-3.5-1.7-5.1-1.4l0,0c-0.5,0.1-0.9-0.2-1-0.6
		c-0.1-0.3,0-0.5,0.2-0.7c2.5-2.7,4.9-5.7,7-8.8c2.1-3.1,4-6.4,5.4-9.8c1.4-3.5,2.5-7.1,2.6-10.9c0.2-3.7-0.8-7.5-2.8-10.8
		c1.1,1.6,1.9,3.3,2.5,5.1c0.6,1.8,0.8,3.8,0.8,5.7c0,3.9-0.9,7.7-2.2,11.2c-1.4,3.6-3.2,7-5.3,10.2c-2.1,3.2-4.4,6.3-6.9,9.2
		l-0.8-1.4c1.2-0.3,2.4-0.1,3.4,0.2c1.1,0.3,2.1,0.8,3,1.4c1.8,1.1,3.4,2.5,4.9,3.9c1.5,1.4,2.9,2.9,4.2,4.5
		c1.3,1.6,2.6,3.2,3.8,4.9c0.3,0.4,0.2,1-0.2,1.3c-0.2,0.1-0.4,0.2-0.5,0.2h0l-11.4,0.1l-11.4,0l-22.8-0.1l0,0
		c-0.5,0-0.8-0.4-0.8-0.8l0,0l0.3-24c0-4,0.2-8,0.2-12C113.1,429.2,113.2,425.2,113.3,421.2z"/>
</g>
<circle class="st7" cx="71" cy="34.3" r="11.6"/>
<circle class="st7" cx="147.7" cy="24.5" r="11.6"/>
</svg>
