<?xml version="1.0" encoding="utf-8"?>
<!-- Generator: Adobe Illustrator 21.1.0, SVG Export Plug-In . SVG Version: 6.00 Build 0)  -->
<svg version="1.0" id="Layer_2" xmlns="http://www.w3.org/2000/svg" xmlns:xlink="http://www.w3.org/1999/xlink" x="0px" y="0px"
	 viewBox="0 0 188.8 266.3" style="enable-background:new 0 0 188.8 266.3;" xml:space="preserve">
<style type="text/css">
	.st0{fill:#7F2361;}
	.st1{fill:#413C57;}
	.st2{fill:#BFD7B5;}
	.st3{fill:#F0EFF4;}
	.st4{fill:#F2DDA4;}
	.st5{fill:#5B1159;}
	.st6{fill:none;stroke:#DDB68C;stroke-width:2;stroke-linecap:round;stroke-linejoin:round;stroke-miterlimit:10;}
	.st7{fill:none;stroke:#5B1159;stroke-width:2;stroke-linecap:round;stroke-linejoin:round;stroke-miterlimit:10;}
	.st8{fill:none;stroke:#99C199;stroke-width:2;stroke-linecap:round;stroke-linejoin:round;stroke-miterlimit:10;}
	.st9{fill:none;stroke:#D9D9E2;stroke-width:2;stroke-linecap:round;stroke-linejoin:round;stroke-miterlimit:10;}
	.st10{fill:none;stroke:#2C2942;stroke-width:2;stroke-linecap:round;stroke-linejoin:round;stroke-miterlimit:10;}
	.st11{fill:none;stroke:#0C1C15;stroke-width:2;stroke-linecap:round;stroke-linejoin:round;stroke-miterlimit:10;}
</style>
<path class="st0" d="M157.6,182.8c0,0,7.9-109.8,6.4-116.3c-1.5-6.6-12-35-62-29.5s-67,44.5-58.5,84c0,0,13.5,29.9,11.8,51l10.1-2.8
	c0,0,10.9,24.2,48.9,33.1c0,0,9,20.5,26.3,30.2c4.4,4.8,2.8,25.3-20.8,31.3l5.5,2.7h28.9v-40c0,0-24.1-22,0-30.7L157.6,182.8z"/>
<path class="st0" d="M77.9,184.4c0,0-9.3,18-5.3,25s30.3,15.7,26.7,44c0,6.3-20.7,13-20.7,13h32v-43c0,0-18.3-12.7-6-28L77.9,184.4z
	"/>
<path class="st0" d="M141.7,141.1c0,0-0.3,51.2,14,60.5s32.9,3.9,33.1-9.1c0,0-4.8-3.3-6.8,1.1c0,0,6.3-11.3,0.7-9.3l-3.7,3.7
	c0,0,4.3-10.8,0-8.8c-2.7,0.9-3.5,4.1-3.5,4.1s2.4-6.8-2.2-4.1c-4.5,2.7-4.2,8.9-8.1,11.9c0,0,0-5-6.2-4.7
	c-2.4,0.1-11.7-0.7-7.7-40.5"/>
<path class="st1" d="M65.4,169.1c0,0,42.8-18.5,47.8-27.9c0,0,1,37.4-24.7,38.9C82.1,180,65.4,169.1,65.4,169.1z"/>
<path class="st2" d="M85.5,178c0,0-5-17.9,23.6-26.8C109.1,151.2,105.8,173.8,85.5,178z"/>
<path class="st3" d="M69.7,171l19.3-8.8l10,2.3v-7.8l11.3-7.4c0,0,1.2-7,0.7-10.1c0,0-19.5,18-47.8,27.9L69.7,171z"/>
<path class="st3" d="M73.3,141.1h39.8c0,0,2.3,18.3-19.9,19.4C83.4,161.2,74.5,150.3,73.3,141.1z"/>
<path class="st0" d="M53.6,152.2c0,0-16.6,29.7-34.8,6.8c0,0,13.8-0.1,14.5-9c0.7-8.9-10.2-14.7-10.2-14.7l4.3-4.5
	c0,0,6.5,9.2,12.5,6c2-1.5,1.5-13.3-9.2-13.5c-3.3,0-26.8,29.9-26.8,29.9s15.3,23.5,30.3,22.1c8.2-0.7,15.8-6.9,20.9-12.3"/>
<path class="st3" d="M27.5,141.1h37c0,0,4.5,18.5-15.8,19.4C28.3,161.5,27.5,141.1,27.5,141.1z"/>
<path class="st4" d="M53.7,129.2c0,0,5.3-1.2,1-9.7S48.4,130.4,53.7,129.2z"/>
<path class="st4" d="M81.3,133.3c0,0-6.3-7-1.1-10.1C85.5,120.2,88.5,133.2,81.3,133.3z"/>
<g>
	<path class="st5" d="M184.5,191.6l-7.8,10.2l6.1-11.3c0.3-0.5,0.9-0.7,1.4-0.4c0.5,0.3,0.7,0.9,0.4,1.4
		C184.6,191.5,184.5,191.6,184.5,191.6z"/>
</g>
<g>
	<path class="st5" d="M179.7,188.7l-9.5,9l8-10.4c0.3-0.4,1-0.5,1.4-0.2c0.4,0.3,0.5,1,0.2,1.4C179.8,188.6,179.8,188.7,179.7,188.7
		z"/>
</g>
<g>
	<path class="st5" d="M176.4,183.7c-0.4,0.8-0.8,1.4-1.3,2.1c-0.5,0.7-0.9,1.3-1.5,1.9c-1,1.2-2.2,2.4-3.4,3.3
		c1-1.2,1.9-2.5,2.6-3.9c0.4-0.7,0.7-1.4,1-2.1c0.3-0.7,0.5-1.5,0.7-2.1l0,0c0.1-0.5,0.7-0.9,1.2-0.7s0.9,0.7,0.7,1.2
		C176.5,183.6,176.5,183.6,176.4,183.7z"/>
</g>
<path class="st4" d="M135.7,55.8l34.6-23.6L153,72.1C153,72.1,137.7,76.8,135.7,55.8z"/>
<path class="st4" d="M119.8,42.1L107.2,3l-14,34.1C93.3,37.1,103.2,54.8,119.8,42.1z"/>
<path class="st4" d="M71.7,46.1L49,28.3l4.8,33.3C53.8,61.7,62,50.6,71.7,46.1z"/>
<path class="st6" d="M68.7,44.1L46,26.3l4.8,33.3C50.8,59.7,59,48.6,68.7,44.1z"/>
<path class="st7" d="M147.4,44.5c-7-5.3-17.3-9.7-32.6-10.3"/>
<path class="st7" d="M153.7,184.1l0.9-3.4c0,0,7.9-109.8,6.4-116.3c-0.4-1.8-1.5-5.3-4-9.4"/>
<path class="st7" d="M91.5,35.9c-41.5,9.6-58.8,46.5-51,82.9c0,0,13.5,29.9,11.8,51l10.1-2.8c0,0,10.9,24.2,48.9,33.1
	c0,0,9,20.5,26.3,30.2c4.4,4.8,2.8,25.3-20.8,31.3l5.5,2.7h28.9v-40c0,0-21.2-19.3-4-28.9"/>
<path class="st7" d="M74.9,182.4c0,0-9.3,18-5.3,25s30.3,15.7,26.7,44c0,6.3-20.7,13-20.7,13h32v-43c0,0-15.8-10.9-8.2-24.8"/>
<path class="st8" d="M109.1,151.2c0,0-3.3,22.6-23.6,26.8c0,0-1.8-6.3,2.8-13.3"/>
<g>
	<path class="st5" d="M138.7,139.1c0.3,8.7,0.9,17.5,2,26.1c0.6,4.3,1.3,8.6,2.2,12.9c0.9,4.2,2.2,8.4,3.9,12.4
		c1.8,3.9,4.1,7.6,7.9,9.5c3.7,2.1,7.9,3.3,12.1,3.5c4.2,0.2,8.5-0.6,12-2.8c1.8-1.1,3.3-2.5,4.3-4.2c1.1-1.7,1.6-3.7,1.6-5.7
		l0.4,0.8c-0.4-0.3-1-0.6-1.5-0.7c-0.5-0.2-1.1-0.3-1.6-0.3c-0.5,0-0.9,0.2-1.3,0.5c-0.4,0.3-0.6,0.7-0.9,1.2l-1.8-0.9
		c0.9-1.7,1.8-3.5,2.4-5.3c0.3-0.9,0.6-1.9,0.5-2.5c0-0.1-0.1-0.3-0.1-0.3c0,0,0,0,0,0c-0.1,0-0.6,0-1,0.2l0.4-0.2l-3.7,3.7
		c-0.4,0.4-1,0.4-1.3,0c-0.3-0.3-0.3-0.7-0.2-1c0.6-1.6,1.2-3.3,1.6-5c0.2-0.8,0.3-1.7,0.3-2.4c0-0.2-0.1-0.3-0.1-0.4c0-0.1,0,0,0,0
		c0.1,0-0.3,0-0.6,0.2c0,0,0,0-0.1,0l0,0c-0.7,0.2-1.3,0.7-1.8,1.3c-0.2,0.3-0.5,0.6-0.7,1c-0.2,0.4-0.4,0.8-0.5,1.1l-1.7-0.5
		c0.3-0.8,0.5-1.7,0.6-2.4c0-0.4,0-0.8,0-1c0-0.1-0.1-0.1,0-0.1c0,0,0,0-0.1,0c-0.2,0-0.6,0.2-0.9,0.3c-0.4,0.2-0.7,0.4-1,0.7
		c-0.6,0.5-1.2,1.1-1.6,1.8c-0.9,1.4-1.6,3.1-2.4,4.8c-0.4,0.8-0.8,1.7-1.4,2.5c-0.6,0.8-1.2,1.6-2,2.2c-0.3,0.3-0.8,0.2-1-0.1
		c-0.1-0.1-0.2-0.3-0.2-0.4l0,0c0-0.9-0.4-1.9-1-2.5c-0.6-0.7-1.5-1.2-2.5-1.3c-0.5-0.1-1-0.1-1.5-0.1c-0.5,0-1.2,0-1.8-0.1
		c-1.2-0.2-2.3-0.9-3.2-1.8c-1.6-1.8-2.4-4-3.1-6.1c-0.6-2.2-0.9-4.4-1.2-6.6c-0.4-4.4-0.3-8.9-0.1-13.3c0.2-4.4,0.7-8.8,1.2-13.2
		c-0.3,4.4-0.6,8.8-0.6,13.2c-0.1,4.4,0,8.8,0.6,13.2c0.3,2.2,0.6,4.3,1.3,6.4c0.6,2,1.5,4.1,2.9,5.6c0.7,0.7,1.6,1.2,2.5,1.4
		c0.9,0.2,2.1-0.1,3.3,0.2c1.2,0.2,2.4,0.8,3.3,1.7c0.9,1,1.4,2.1,1.4,3.5l-1.2-0.6c0.6-0.5,1.2-1.1,1.6-1.8
		c0.5-0.7,0.8-1.5,1.2-2.3c0.7-1.6,1.3-3.4,2.4-5c0.5-0.8,1.2-1.6,2-2.2c0.8-0.6,1.6-1.2,2.9-1.4c0.3,0,0.8,0,1.2,0.3
		c0.4,0.3,0.6,0.7,0.7,1c0.2,0.7,0.2,1.2,0.1,1.7c-0.1,1-0.3,1.9-0.6,2.9c-0.1,0.5-0.6,0.7-1.1,0.6c-0.5-0.1-0.7-0.6-0.6-1.1
		c0.2-0.6,0.4-1,0.6-1.5c0.2-0.5,0.5-0.9,0.8-1.3c0.7-0.8,1.6-1.5,2.6-1.9l-0.1,0c0.3-0.1,0.5-0.2,0.8-0.3c0.3-0.1,0.7-0.1,1.2,0.1
		c0.5,0.2,0.8,0.6,0.9,0.9c0.1,0.3,0.2,0.7,0.2,0.9c0.1,1.1-0.1,2-0.3,3c-0.4,1.8-1,3.6-1.7,5.3l-1.5-1l3.7-3.7l0,0
		c0.1-0.1,0.2-0.2,0.3-0.2c0.6-0.2,1.1-0.4,2-0.2c0.4,0.1,0.9,0.4,1.2,0.8c0.3,0.4,0.4,0.8,0.4,1.1c0.1,0.7,0,1.3-0.1,1.8
		c-0.1,0.5-0.3,1.1-0.4,1.6c-0.7,2-1.6,3.8-2.5,5.6l0,0c-0.3,0.5-0.9,0.7-1.3,0.4c-0.5-0.3-0.7-0.9-0.4-1.3c0.4-0.7,0.8-1.4,1.5-1.9
		c0.7-0.5,1.6-0.8,2.4-0.9c0.8,0,1.6,0.1,2.3,0.4c0.7,0.3,1.3,0.6,2,1c0.3,0.2,0.4,0.5,0.4,0.8l0,0c-0.1,2.3-0.7,4.7-2,6.7
		c-1.2,2-3,3.6-5,4.8c-4,2.4-8.6,3.2-13.1,3c-4.5-0.2-8.9-1.6-12.8-3.8c-0.5-0.3-1-0.6-1.4-0.9c-0.5-0.3-0.9-0.7-1.4-1.1
		c-0.9-0.8-1.7-1.6-2.3-2.5c-1.3-1.8-2.4-3.8-3.3-5.9c-1.7-4.1-2.8-8.4-3.7-12.7c-0.9-4.3-1.5-8.6-2-13c-0.4-4.4-0.8-8.7-0.9-13.1
		C138.6,147.9,138.6,143.5,138.7,139.1z"/>
</g>
<g>
	<path class="st5" d="M111.5,128.8c0.3,1.5,0.4,3,0.3,4.4c-0.1,1.5-0.4,3-0.8,4.4c-0.5,1.4-1.1,2.9-2,4.1c-0.8,1.3-1.9,2.4-3.1,3.5
		c-0.4,0.4-1,0.4-1.4,0c-0.4-0.4-0.4-1,0-1.4c0,0,0.1,0,0.1-0.1l0.1,0c1.1-0.8,2.2-1.7,3.1-2.8c0.9-1.1,1.7-2.3,2.3-3.6
		c0.6-1.3,1-2.7,1.3-4.1C111.5,131.8,111.6,130.3,111.5,128.8z"/>
</g>
<path class="st9" d="M68.9,171l19.3-8.8l10,2.3v-7.8l11.3-7.4c0,0,1.2-7,0.7-10.1c0,0-19.5,18-47.8,27.9L68.9,171z"/>
<path class="st7" d="M50.6,150.2c0,0-16.6,29.7-34.8,6.8c0,0,13.8-0.1,14.5-9c0.7-8.9-10.2-14.7-10.2-14.7l4.3-4.5
	c0,0,6.5,9.2,12.5,6c2-1.5,1.5-13.3-9.2-13.5c-3.3,0-26.8,29.9-26.8,29.9s15.3,23.5,30.3,22.1c8.2-0.7,15.8-6.9,20.9-12.3"/>
<path class="st10" d="M62.4,167.1c0,0,42.8-18.5,47.8-27.9c0,0,1,37.4-24.7,38.9C79.1,178,62.4,167.1,62.4,167.1z"/>
<g>
	<path class="st5" d="M75.4,132c1.5,1.8,2.8,3.6,4.3,5.1c0.8,0.7,1.6,1.4,2.4,1.9c0.9,0.6,1.9,0.9,3,1.4c-1.1,0.4-2.4,0.4-3.7,0
		c-1.2-0.4-2.3-1.1-3.2-1.9c-0.9-0.9-1.6-1.9-2.1-3C75.7,134.4,75.4,133.2,75.4,132z"/>
</g>
<path class="st11" d="M24.5,139.1h37c0,0,4.5,18.5-15.8,19.4C25.3,159.5,24.5,139.1,24.5,139.1z"/>
<line class="st11" x1="61.5" y1="139.1" x2="70.3" y2="139.1"/>
<g>
	<path class="st5" d="M60.8,127.2c0.5,1.2,0.5,2.6,0.1,4c-0.4,1.3-1.4,2.5-2.6,3.3c-1.2,0.8-2.6,1.1-3.9,1.3c-0.7,0-1.3,0-2-0.1
		c-0.6-0.1-1.3-0.3-1.9-0.5c0.6-0.2,1.2-0.4,1.8-0.5c0.6-0.2,1.2-0.4,1.7-0.5c1.1-0.4,2.2-0.8,3.1-1.4c0.9-0.6,1.7-1.3,2.2-2.3
		C60,129.6,60.4,128.5,60.8,127.2z"/>
</g>
<g>
	<path class="st5" d="M93.9,113c-4.2-2.4-8.2-5-11.9-8.1l-1.4-1.2l-1.3-1.2c-0.9-0.8-1.8-1.4-2.8-2.1c-1.9-1.3-4-2.5-6.1-3.4
		c-2.1-1-4.3-1.8-6.6-2.2c-2.2-0.5-4.6-0.6-6.8-0.3c-4.6,0.6-8.4,3.8-11,7.8c0.9-2.2,2.3-4.3,4.2-5.9c0.9-0.9,2-1.5,3-2.2
		c1.1-0.6,2.3-1,3.5-1.3c1.2-0.3,2.5-0.4,3.7-0.4c1.3,0,2.5,0.1,3.7,0.3c2.4,0.4,4.8,1.3,7,2.3c2.2,1.1,4.3,2.3,6.3,3.7
		c1,0.7,1.9,1.5,2.9,2.4c0.9,0.9,1.7,1.7,2.6,2.5C86.5,107,90.2,110,93.9,113z"/>
</g>
<g>
	<path class="st5" d="M83,92.7c-2.7-2.1-5.6-4-8.5-5.5c-3-1.5-6.1-2.6-9.4-3c-3.2-0.5-6.5-0.1-9.6,1c-3.1,1.1-5.9,3-8.6,5.2
		c2.1-2.7,4.8-5.1,8-6.6c1.6-0.8,3.4-1.2,5.1-1.5c1.8-0.3,3.6-0.2,5.4,0c3.6,0.5,6.9,1.8,9.9,3.7C78.2,87.7,80.9,90,83,92.7z"/>
</g>
<path class="st7" d="M53.7,130c0,0,5.3-1.2,1-9.7S48.3,131.2,53.7,130z"/>
<path class="st7" d="M81.3,133.3c0,0-6.3-7-1.1-10.1C85.5,120.2,88.5,133.2,81.3,133.3z"/>
<g>
	<path class="st5" d="M104.2,128.1c1.1-0.5,2.2-0.6,3.3-0.7c1.1,0,2.3,0.1,3.4,0.3c1.1,0.2,2.2,0.7,3.2,1.2c1,0.6,1.9,1.3,2.6,2.3
		l-3.2-0.8c-1-0.2-2-0.5-3-0.7C108.5,129.2,106.4,128.8,104.2,128.1z"/>
</g>
<path class="st11" d="M110.2,139.1c0,0,42.8-5.8,47.8-5.8c4.9,0,12.6,6,7.9,14"/>
<g>
	<path class="st5" d="M111.8,202.7c-0.7-1.7-1.2-3.3-1.5-5.1c-0.3-1.7-0.5-3.5-0.5-5.2c0-3.5,0.8-7,2.4-10.1
		c1.6-3.1,3.9-5.7,6.6-7.8c2.7-2.1,5.7-3.7,8.8-5c-3.1,1.4-6,3.2-8.5,5.4c-2.5,2.2-4.7,4.8-6,7.9c-1.4,3-1.9,6.3-1.8,9.6
		c0.2,3.2,1,6.6,2.3,9.4l0,0.1c0.2,0.5,0,1.1-0.5,1.3C112.6,203.5,112,203.3,111.8,202.7C111.8,202.8,111.8,202.8,111.8,202.7z"/>
</g>
<path class="st7" d="M1,151.2c0,0,4.7,6.7,14.8,5.8l-9.5-12.4"/>
<line class="st7" x1="20.7" y1="156.4" x2="12.8" y2="136.7"/>
<line class="st7" x1="26.9" y1="153.8" x2="17.5" y2="131.2"/>
<g>
	<path class="st5" d="M181.5,189.6l-7.8,10.2l6.1-11.3c0.3-0.5,0.9-0.7,1.4-0.4c0.5,0.3,0.7,0.9,0.4,1.4
		C181.6,189.5,181.5,189.6,181.5,189.6z"/>
</g>
<g>
	<path class="st5" d="M176.7,186.7l-9.5,9l8-10.4c0.3-0.4,1-0.5,1.4-0.2c0.4,0.3,0.5,1,0.2,1.4C176.8,186.6,176.8,186.7,176.7,186.7
		z"/>
</g>
<g>
	<path class="st5" d="M173.4,181.7c-0.4,0.8-0.8,1.4-1.3,2.1c-0.5,0.7-0.9,1.3-1.5,1.9c-1,1.2-2.2,2.4-3.4,3.3
		c1-1.2,1.9-2.5,2.6-3.9c0.4-0.7,0.7-1.4,1-2.1c0.3-0.7,0.5-1.5,0.7-2.1l0,0c0.1-0.5,0.7-0.9,1.2-0.7s0.9,0.7,0.7,1.2
		C173.5,181.6,173.5,181.6,173.4,181.7z"/>
</g>
<path class="st6" d="M132.7,53.8l34.6-23.6L150,70.1C150,70.1,134.7,74.8,132.7,53.8z"/>
<path class="st6" d="M116.8,40.1L104.2,1l-14,34.1C90.3,35.1,100.2,52.8,116.8,40.1z"/>
<path class="st11" d="M70.3,139.1h39.8c0,0,2.3,18.3-19.9,19.4C80.4,159.2,71.5,148.3,70.3,139.1z"/>
</svg>
