<?xml version="1.0" encoding="utf-8"?>
<!-- Generator: Adobe Illustrator 21.1.0, SVG Export Plug-In . SVG Version: 6.00 Build 0)  -->
<svg version="1.0" id="Layer_3" xmlns="http://www.w3.org/2000/svg" xmlns:xlink="http://www.w3.org/1999/xlink" x="0px" y="0px"
	 viewBox="0 0 600 400" style="enable-background:new 0 0 600 400;" xml:space="preserve">
<style type="text/css">
	.st0{fill:#C290D1;}
	.st1{fill:#A2C4BC;}
	.st2{fill:#F0EFF4;}
	.st3{fill:none;}
	.st4{fill:#736DA7;stroke:#736DA7;stroke-width:2;stroke-linecap:round;stroke-linejoin:round;stroke-miterlimit:10;}
	.st5{fill:#736DA7;}
	.st6{fill:none;stroke:#8F76B7;stroke-width:2;stroke-linecap:round;stroke-linejoin:round;stroke-miterlimit:10;}
	.st7{fill:none;stroke:#87AF9D;stroke-width:2;stroke-linecap:round;stroke-linejoin:round;stroke-miterlimit:10;}
	.st8{fill:#8F76B7;}
	.st9{fill:none;stroke:#D9D9E2;stroke-width:2;stroke-linecap:round;stroke-linejoin:round;stroke-miterlimit:10;}
	.st10{fill:#7F2361;stroke:#5B1159;stroke-width:2;stroke-linecap:round;stroke-linejoin:round;stroke-miterlimit:10;}
</style>
<path class="st0" d="M214.4,483v-92.2l-61.6-16.2c0,0-1.7,64.6,40.7,64.1c0,0-3,37.2-21,44.5h41.9V483z"/>
<path class="st0" d="M145.7,168.3c27.8-7.2,203.1-30.2,328.3-6.5s69.8,216,17.5,227s-370.7,15.2-401.1-22.7S14.8,202.2,145.7,168.3z
	"/>
<path class="st1" d="M490.9,191l42.4-51.9l-47.1-72.6l-25.7,39.6l10.5,2.3l19.2-10.5l6.6,14L441.4,166
	C441.4,166,459.5,202.2,490.9,191z"/>
<path class="st1" d="M121.3,201l-37.9-71.1l62.9-32.5l39.6,27.9l-5.2,14.5l-8.2-3l0.5-8.4h-26.2l18,50.3
	C164.9,178.8,147.1,210.9,121.3,201z"/>
<path class="st0" d="M58.9,252c0,0-57.4,29.9-36,68.1c10,12.6,36,22.4,36,22.4s-5.9,14.5,3.8,22.2l-16.4,21l37-29.2l-11.2-21.3
	c0,0-44.7-15.9-43-33.4s28.3-27.6,28.3-27.6L58.9,252z"/>
<path class="st0" d="M519.4,246.9c0,0,72.1,14.5,44.2,68.6c-7,10-47.7,29.2-47.7,29.2l45.9,34.4l16.2-2.3l-20.4-21l16.2-7l-19.7-3
	c0,0,64.6-48.9,19.7-90.8c-21.1-17.5-61.1-18-61.1-18L519.4,246.9z"/>
<path class="st0" d="M414.1,491.7V390.8l-61.6-7.5c0,0-1.7,64.6,40.7,64.1c0,0-3,37.2-21,44.5h41.9V491.7z"/>
<polygon class="st2" points="376.2,288.1 352.3,257.2 341.8,290.9 "/>
<polygon class="st2" points="260.3,318.3 283.3,345.4 274.8,309.8 "/>
<polygon class="st2" points="155,280.4 158.5,241 138.7,261.9 "/>
<path class="st3" d="M211.6,440.7"/>
<path class="st4" d="M543,297.7c0,0-38.4,8.6-22.4,29.9C536.9,348.9,543,297.7,543,297.7"/>
<path class="st4" d="M480.5,314.1c14-6.3,19.2,20.3,0,18.7C461.3,331.1,460.4,323.2,480.5,314.1z"/>
<path class="st4" d="M502.1,275.9c8.6-6.5,18.2,15.9,5.6,18.5C495.3,297,490.8,284.4,502.1,275.9z"/>
<path class="st4" d="M510.3,377.5c0,0-23.4-17.6-33.7-3.7c-10.3,14-14.1,19.2-14.1,19.2S498.3,392.5,510.3,377.5z"/>
<path class="st4" d="M121.6,375.6c-6.1-14-38.1-12.7-38.1-12.7S103.3,376.5,121.6,375.6"/>
<path class="st4" d="M482.4,345.4c12.4-1.2,1,16.6-3.1,9.4C475.1,347.6,478,345.7,482.4,345.4z"/>
<path class="st4" d="M506.3,211.3c0.7-5.2,8.9-4,8.2,1.2c-0.5,3.7-3.8,5.8-6.6,3.3C506.3,214.6,506,212.8,506.3,211.3z"/>
<path class="st5" d="M533.4,198.9c0,0-21.7-6.5-20.8-21L533.4,198.9z"/>
<path class="st4" d="M530.2,262.8c6.8-3.1,12.2,11.7,2.8,10.1C523.8,271.3,523.3,265.9,530.2,262.8z"/>
<path class="st4" d="M93.9,332.8c1.6-7-10.5-10.8-10.5-3C83.4,337.7,92.1,340.7,93.9,332.8z"/>
<path class="st4" d="M112,345.2c0-5.8-7.3-4.2-9.4,0C100.5,349.4,112,353.4,112,345.2z"/>
<path class="st4" d="M88.8,308c9.1-10-2.4-25.5-14.7-14.5C61.9,304.3,77.1,320.9,88.8,308z"/>
<path class="st4" d="M178.9,162.6c0,0,8,3.1,18-2.3L178.9,162.6z"/>
<path class="st4" d="M352.3,165.5c7,3.5,19.9,0.7,12.2-5.2C357,154.3,345.3,162,352.3,165.5z"/>
<path class="st4" d="M380.2,152.1c0,0,31.1,15,52,3.7L380.2,152.1z"/>
<path class="st4" d="M401.9,170.8c-0.3-10.7-16.9-10.5-15.2,0C388.4,181.2,402.1,178.1,401.9,170.8z"/>
<path class="st4" d="M423.9,166.9c0.7-3.1-5.2-3.1-5.8,0C417.6,170.1,422.8,172,423.9,166.9z"/>
<path class="st4" d="M207.4,165.5c0-2.6-9.8-1.4-7.5,1.9C202.1,170.8,207.2,172,207.4,165.5z"/>
<path class="st4" d="M92.6,193.1c0,0,7.7,14.7-16.2,16.4L92.6,193.1z"/>
<path class="st4" d="M107.1,208c2.1,3.8-5.6,9.6-7.9,4.5C96.8,207.4,104,202.2,107.1,208z"/>
<path class="st4" d="M498.5,195.9c-4-8.4,11-11.2,13.8-3.1C515.4,201,501.8,202.5,498.5,195.9z"/>
<path class="st4" d="M531.8,227.7c-9.1,3-11.7-14.3-1.9-15.4C539.7,211.4,540.7,224.9,531.8,227.7z"/>
<path class="st6" d="M520.8,350.1c-10.5,19.2-23.4,32.7-36.3,35.4c-12.4,2.6-56.8,5.4-91.3,6.8"/>
<path class="st6" d="M543,257.2c0.5,25-4.5,50.6-13.1,72.6"/>
<path class="st6" d="M496.5,168.8c25.5,14,38.9,37.7,44,64.8"/>
<path class="st6" d="M153.2,162c47.8-8.2,180.9-22.5,288.8-7.7"/>
<path class="st6" d="M349.3,393c-107.9,0.3-247.3-7-265.8-30.4c-27.2-33.9-66.7-139.2,20.3-184.7"/>
<path class="st7" d="M484,187.5l42.4-51.9L479.2,63l-25.7,39.6l10.5,2.3l19.2-10.5l6.6,14l-55.5,54.1
	C434.4,162.6,452.5,198.7,484,187.5z"/>
<path class="st7" d="M114.3,197.5l-37.9-71.1l62.9-32.5l39.6,27.9l-5.2,14.5l-8.2-3l0.5-8.4h-26.2l18,50.3
	C158,175.3,140.1,207.4,114.3,197.5z"/>
<path class="st6" d="M52,248.5c0,0-57.4,29.9-36,68.1c10,12.6,36,22.4,36,22.4s-5.9,14.5,3.8,22.2l-16.4,21l37-29.2l-11.2-21.3
	c0,0-44.7-15.9-43-33.4s28.3-27.6,28.3-27.6L52,248.5z"/>
<g>
	<path class="st8" d="M512.4,243.4c8,1.7,15.7,4.4,23,7.9c7.3,3.7,14.3,8.2,19.7,14.5c5.4,6.3,8.7,14.5,8.7,22.9s-2.6,16.6-6.3,23.9
		v0.2c-1.6,2.1-3.3,3.7-5.2,5.2c-1.9,1.6-3.8,2.8-5.8,4.2c-3.8,2.6-8,5.1-12,7.3c-8.2,4.7-16.6,8.9-25,13.1l0.3-2.6l46.1,34.2
		l-1.2-0.3l16.2-2.4l-1,3l-20.3-21l0,0c-0.7-0.7-0.7-1.7,0-2.3c0.2-0.2,0.3-0.2,0.5-0.3l16.2-7l0.3,3.1l-19.7-3
		c-0.9-0.2-1.4-0.9-1.4-1.7c0-0.3,0.3-0.7,0.5-1l0,0c10.3-8.2,19.6-18.2,26.5-29.5c3.3-5.8,6.3-11.7,7.7-18.2l0.5-2.4l0.3-2.4
		c0.3-1.6,0.2-3.3,0.3-4.9c-0.2-3.3-0.5-6.6-1.4-9.8c-1.7-6.3-5.1-12.2-9.4-17.1c-2.3-2.4-4.4-4.9-7.2-6.8c-2.8-1.9-5.6-3.7-8.6-5.1
		c-5.9-3-12.4-5.2-18.9-6.8c-6.5-1.7-13.1-3-19.9-3.7c13.4,1.2,26.9,3.8,39.3,9.4c3.1,1.4,6.1,3.1,8.9,5.1c3,1.9,5.2,4.4,7.7,7
		c4.5,5.1,8.2,11.2,10.1,17.8c1,3.3,1.4,6.8,1.6,10.3c0,1.7,0,3.5-0.2,5.2l-0.3,2.6l-0.5,2.6c-1.4,6.8-4.2,13.1-7.7,19
		c-3.5,5.9-7.7,11.4-12.2,16.4c-4.5,5.1-9.4,9.8-14.8,14.1l-0.7-2.8l19.7,2.8c0.9,0.2,1.6,0.9,1.4,1.7c0,0.5-0.5,1-0.9,1.2l0,0
		l-16.2,7l0.5-2.6l20.4,21c0.7,0.7,0.7,1.7,0,2.4c-0.3,0.3-0.7,0.3-1,0.5l-16.2,2.3l0,0c-0.5,0-0.9,0-1.2-0.3l-45.9-34.9
		c-0.7-0.5-0.9-1.4-0.3-2.1c0.2-0.2,0.3-0.3,0.5-0.5c8.4-4,16.8-8.2,25-12.7c4-2.3,8-4.5,12-7.2c1.9-1.2,3.8-2.6,5.6-4
		s3.5-3,4.9-4.5v0.2c3.7-7.2,6.3-14.8,6.5-22.9c0.2-8-2.8-15.7-7.9-22c-5.1-6.3-11.9-11-19-14.8C528,248.3,520.3,245.5,512.4,243.4z
		"/>
</g>
<path class="st6" d="M145.7,382c0,0-1.7,53.6,40.7,52.9c0,0-3,37.2-21,44.5h41.9v-92.2"/>
<polygon class="st9" points="376.2,284.8 352.3,253.9 341.8,287.6 "/>
<polygon class="st9" points="260.6,318.3 283.7,345.4 275.3,309.8 "/>
<polygon class="st9" points="155,280.4 158.5,241.1 138.7,262.1 "/>
<path class="st6" d="M345.3,379.6c0,0-0.2,5.2,0.7,12.7c1.9,18.9,9.8,51.7,40.2,51.2c0,0-3,37.2-21,44.5h41.9v-92.2"/>
<path class="st6" d="M81.6,248.5c0,0,40.7-20.3,78.1,39.3s83.3,45.2,121,18.3c37.7-26.9,70.4-10.7,95.5-21.1
	c25-10.5,26.2-60.6,85.6-62.3"/>
<path class="st3" d="M204.6,437.2"/>
<g>
	<path class="st8" d="M171.4,195.2c0.9-2.6,2.8-4.9,5.1-6.6c2.3-1.7,4.7-3.1,7.5-4c2.6-0.9,5.4-1.6,8.2-1.9c2.8-0.5,5.8-0.5,8.4-0.7
		c5.4-0.3,10.7-2.3,15.7-4.7c4.9-2.4,9.8-5.2,15-7.7c5.2-2.3,10.8-4,16.4-4.9l4.4-0.5h4.4c1.4,0,2.8,0,4.4,0.2l4.2,0.3
		c11.4,1.4,22.2,4.7,32.8,8.6c10.5,4,20.8,8.7,31.1,12.9c10.3,4.4,20.8,8,31.6,10.1c2.6,0.7,5.4,0.9,8.2,1.2
		c1.4,0.2,2.8,0.2,4.2,0.2c1.4,0,2.8,0.2,4.2,0l4.2-0.3c1.4-0.2,2.8-0.2,4.2-0.5l8.4-1.2c5.6-0.7,11.2-1.4,16.8-2.1
		c5.6-0.5,11.2-1.2,16.8-1.4c-11.2,1.2-22.2,3.1-33.2,5.1l-8.2,1.4c-1.4,0.2-2.8,0.5-4.2,0.5l-4.2,0.5c-1.4,0.2-2.8,0-4.2,0.2
		c-1.4,0-2.8,0.2-4.2,0c-2.8-0.3-5.8-0.3-8.6-0.9c-11.4-1.7-22-5.8-32.3-10c-10.5-4.2-20.6-8.7-31.1-12.6c-10.3-4-21.1-7.3-32-8.7
		l-4-0.3c-1.4-0.2-2.8-0.2-4-0.2h-4.2l-4,0.3c-5.4,0.7-10.7,2.1-15.7,4.2c-5.1,2.1-10,4.9-15.2,7.2c-5.1,2.3-10.7,4.2-16.4,4.4
		c-3,0.2-5.6,0-8.4,0.3c-2.8,0.2-5.4,0.7-8.2,1.6c-2.6,0.9-5.2,1.9-7.5,3.7C174.4,190.5,172.4,192.6,171.4,195.2z"/>
</g>
<g>
	<path class="st8" d="M460,199.4c0.5,3.8,1.2,7.5,2.3,11.2c1,3.7,2.3,7,3.8,10.3c1.6,3.3,3.7,6.3,6.1,9.1c2.3,3,5.2,5.2,8.2,7.7
		c-3.7-1.2-7.3-3-10.1-5.8l-1.2-1c-0.3-0.3-0.7-0.7-1-1c-0.7-0.7-1.4-1.6-1.9-2.3c-1-1.6-2.3-3.3-3.1-5.1c-1.7-3.7-3-7.5-3.5-11.4
		C459.2,207.1,459.2,203.2,460,199.4z"/>
</g>
<g>
	<path class="st8" d="M76.4,218.4c2.8,2.6,4.9,6.3,6.1,10c1.4,3.7,1.9,7.7,1.7,11.7s-0.9,7.9-2.3,11.7c-0.5,1.9-1.6,3.7-2.4,5.4
		c-1,1.7-2.1,3.3-3.3,4.9c0.5-1.9,1-3.7,1.6-5.6l0.7-2.8c0.2-0.9,0.5-1.7,0.7-2.8c0.2-0.9,0.3-1.7,0.5-2.8c0.2-0.9,0.2-1.7,0.3-2.8
		c0.3-1.7,0.3-3.7,0.5-5.4c0.2-3.7-0.2-7.3-0.9-11C79.2,225.6,78.2,222.1,76.4,218.4z"/>
</g>
<ellipse transform="matrix(0.4006 -0.9162 0.9162 0.4006 -104.2514 280.9406)" class="st10" cx="162.6" cy="220.2" rx="12.2" ry="8.7"/>
<ellipse transform="matrix(0.4006 -0.9162 0.9162 0.4006 -69.7351 338.2702)" class="st10" cx="223.7" cy="222.4" rx="12.2" ry="8.7"/>
<ellipse transform="matrix(0.4006 -0.9162 0.9162 0.4006 -20.9118 413.1016)" class="st10" cx="305.3" cy="222.5" rx="12.2" ry="8.7"/>
<ellipse transform="matrix(0.4006 -0.9162 0.9162 0.4006 26.1525 480.2812)" class="st10" cx="380.2" cy="220.2" rx="12.2" ry="8.7"/>
</svg>
