<?xml version="1.0" encoding="utf-8"?>
<!-- Generator: Adobe Illustrator 21.1.0, SVG Export Plug-In . SVG Version: 6.00 Build 0)  -->
<svg version="1.0" id="Layer_3" xmlns="http://www.w3.org/2000/svg" xmlns:xlink="http://www.w3.org/1999/xlink" x="0px" y="0px"
	 viewBox="0 0 332.5 246.5" style="enable-background:new 0 0 332.5 246.5;" xml:space="preserve">
<style type="text/css">
	.st0{fill:#C290D1;}
	.st1{fill:#A2C4BC;}
	.st2{fill:#F0EFF4;}
	.st3{fill:none;}
	.st4{fill:#736DA7;stroke:#736DA7;stroke-width:2;stroke-linecap:round;stroke-linejoin:round;stroke-miterlimit:10;}
	.st5{fill:#736DA7;}
	.st6{fill:none;stroke:#8F76B7;stroke-width:2;stroke-linecap:round;stroke-linejoin:round;stroke-miterlimit:10;}
	.st7{fill:none;stroke:#87AF9D;stroke-width:2;stroke-linecap:round;stroke-linejoin:round;stroke-miterlimit:10;}
	.st8{fill:#8F76B7;}
	.st9{fill:none;stroke:#D9D9E2;stroke-width:2;stroke-linecap:round;stroke-linejoin:round;stroke-miterlimit:10;}
	.st10{fill:#7F2361;stroke:#5B1159;stroke-width:2;stroke-linecap:round;stroke-linejoin:round;stroke-miterlimit:10;}
</style>
<path class="st0" d="M117.4,241.5v-52.8l-35.3-9.3c0,0-1,37,23.3,36.7c0,0-1.7,21.3-12,25.5H117.4z"/>
<path class="st0" d="M78.1,61.3c15.9-4.1,116.3-17.3,188-3.7s40,123.7,10,130c-30,6.3-212.3,8.7-229.7-13S3.1,80.7,78.1,61.3z"/>
<path class="st1" d="M275.8,74.3l24.3-29.7L273.1,3l-14.7,22.7l6,1.3l11-6l3.8,8l-31.8,31C247.4,60,257.8,80.7,275.8,74.3z"/>
<path class="st1" d="M64.1,80L42.4,39.3l36-18.6l22.7,16l-3,8.3l-4.7-1.7l0.3-4.8h-15l10.3,28.8C89.1,67.3,78.9,85.7,64.1,80z"/>
<path class="st0" d="M28.4,109.2c0,0-32.9,17.1-20.6,39c5.7,7.2,20.6,12.8,20.6,12.8s-3.4,8.3,2.2,12.7l-9.4,12L42.4,169L36,156.8
	c0,0-25.6-9.1-24.6-19.1s16.2-15.8,16.2-15.8L28.4,109.2z"/>
<path class="st0" d="M292.1,106.3c0,0,41.3,8.3,25.3,39.3c-4,5.7-27.3,16.7-27.3,16.7l26.3,19.7l9.3-1.3l-11.7-12l9.3-4l-11.3-1.7
	c0,0,37-28,11.3-52c-12.1-10-35-10.3-35-10.3L292.1,106.3z"/>
<path class="st0" d="M231.8,246.5v-57.8l-35.3-4.3c0,0-1,37,23.3,36.7c0,0-1.7,21.3-12,25.5H231.8z"/>
<polygon class="st2" points="210.1,129.9 196.4,112.2 190.4,131.5 "/>
<polygon class="st2" points="143.7,147.2 156.9,162.7 152,142.3 "/>
<polygon class="st2" points="83.4,125.5 85.4,102.9 74.1,114.9 "/>
<path class="st3" d="M115.8,217.3"/>
<path class="st4" d="M305.6,135.4c0,0-22,4.9-12.8,17.1C302.1,164.7,305.6,135.4,305.6,135.4"/>
<path class="st4" d="M269.8,144.8c8-3.6,11,11.6,0,10.7C258.8,154.5,258.3,150,269.8,144.8z"/>
<path class="st4" d="M282.2,122.9c4.9-3.7,10.4,9.1,3.2,10.6C278.3,135,275.7,127.8,282.2,122.9z"/>
<path class="st4" d="M286.9,181.1c0,0-13.4-10.1-19.3-2.1s-8.1,11-8.1,11S280,189.7,286.9,181.1z"/>
<path class="st4" d="M64.3,180c-3.5-8-21.8-7.3-21.8-7.3S53.8,180.5,64.3,180"/>
<path class="st4" d="M270.9,162.7c7.1-0.7,0.6,9.5-1.8,5.4S268.4,162.9,270.9,162.7z"/>
<path class="st4" d="M284.6,85.9c0.4-3,5.1-2.3,4.7,0.7c-0.3,2.1-2.2,3.3-3.8,1.9C284.6,87.8,284.4,86.8,284.6,85.9z"/>
<path class="st5" d="M300.1,78.8c0,0-12.4-3.7-11.9-12L300.1,78.8z"/>
<path class="st4" d="M298.3,115.4c3.9-1.8,7,6.7,1.6,5.8C294.6,120.3,294.3,117.2,298.3,115.4z"/>
<path class="st4" d="M48.4,155.5c0.9-4-6-6.2-6-1.7S47.4,160,48.4,155.5z"/>
<path class="st4" d="M58.8,162.6c0-3.3-4.2-2.4-5.4,0S58.8,167.3,58.8,162.6z"/>
<path class="st4" d="M45.5,141.3c5.2-5.7-1.4-14.6-8.4-8.3C30.1,139.2,38.8,148.7,45.5,141.3z"/>
<path class="st4" d="M97.1,58c0,0,4.6,1.8,10.3-1.3L97.1,58z"/>
<path class="st4" d="M196.4,59.7c4,2,11.4,0.4,7-3C199.1,53.3,192.4,57.7,196.4,59.7z"/>
<path class="st4" d="M212.4,52c0,0,17.8,8.6,29.8,2.1L212.4,52z"/>
<path class="st4" d="M224.8,62.7c-0.2-6.1-9.7-6-8.7,0C217.1,68.7,224.9,66.9,224.8,62.7z"/>
<path class="st4" d="M237.4,60.5c0.4-1.8-3-1.8-3.3,0C233.8,62.3,236.8,63.4,237.4,60.5z"/>
<path class="st4" d="M113.4,59.7c0-1.5-5.6-0.8-4.3,1.1C110.4,62.7,113.3,63.4,113.4,59.7z"/>
<path class="st4" d="M47.7,75.5c0,0,4.4,8.4-9.3,9.4L47.7,75.5z"/>
<path class="st4" d="M56,84c1.2,2.2-3.2,5.5-4.5,2.6C50.1,83.7,54.2,80.7,56,84z"/>
<path class="st4" d="M280.1,77.1c-2.3-4.8,6.3-6.4,7.9-1.8C289.8,80,282,80.9,280.1,77.1z"/>
<path class="st4" d="M299.2,95.3c-5.2,1.7-6.7-8.2-1.1-8.8C303.7,86,304.3,93.7,299.2,95.3z"/>
<path class="st6" d="M292.9,165.4c-6,11-13.4,18.7-20.8,20.3c-7.1,1.5-32.5,3.1-52.3,3.9"/>
<path class="st6" d="M305.6,112.2c0.3,14.3-2.6,29-7.5,41.6"/>
<path class="st6" d="M279,61.6c14.6,8,22.3,21.6,25.2,37.1"/>
<path class="st6" d="M82.4,57.7C109.8,53,186,44.8,247.8,53.3"/>
<path class="st6" d="M194.7,190c-61.8,0.2-141.6-4-152.2-17.4C26.9,153.2,4.3,92.9,54.1,66.8"/>
<path class="st7" d="M271.8,72.3l24.3-29.7L269.1,1l-14.7,22.7l6,1.3l11-6l3.8,8l-31.8,31C243.4,58,253.8,78.7,271.8,72.3z"/>
<path class="st7" d="M60.1,78L38.4,37.3l36-18.6l22.7,16l-3,8.3l-4.7-1.7l0.3-4.8h-15l10.3,28.8C85.1,65.3,74.9,83.7,60.1,78z"/>
<path class="st6" d="M24.4,107.2c0,0-32.9,17.1-20.6,39c5.7,7.2,20.6,12.8,20.6,12.8s-3.4,8.3,2.2,12.7l-9.4,12L38.4,167L32,154.8
	c0,0-25.6-9.1-24.6-19.1s16.2-15.8,16.2-15.8L24.4,107.2z"/>
<g>
	<path class="st8" d="M288.1,104.3c4.6,1,9,2.5,13.2,4.5c4.2,2.1,8.2,4.7,11.3,8.3c3.1,3.6,5,8.3,5,13.1c0,4.8-1.5,9.5-3.6,13.7
		c0,0,0,0.1,0,0.1c-0.9,1.2-1.9,2.1-3,3c-1.1,0.9-2.2,1.6-3.3,2.4c-2.2,1.5-4.6,2.9-6.9,4.2c-4.7,2.7-9.5,5.1-14.3,7.5l0.2-1.5
		l26.4,19.6l-0.7-0.2l9.3-1.4l-0.6,1.7l-11.6-12l0,0c-0.4-0.4-0.4-1,0-1.3c0.1-0.1,0.2-0.1,0.3-0.2l9.3-4l0.2,1.8l-11.3-1.7
		c-0.5-0.1-0.8-0.5-0.8-1c0-0.2,0.2-0.4,0.3-0.6l0,0c5.9-4.7,11.2-10.4,15.2-16.9c1.9-3.3,3.6-6.7,4.4-10.4l0.3-1.4l0.2-1.4
		c0.2-0.9,0.1-1.9,0.2-2.8c-0.1-1.9-0.3-3.8-0.8-5.6c-1-3.6-2.9-7-5.4-9.8c-1.3-1.4-2.5-2.8-4.1-3.9c-1.6-1.1-3.2-2.1-4.9-2.9
		c-3.4-1.7-7.1-3-10.8-3.9c-3.7-1-7.5-1.7-11.4-2.1c7.7,0.7,15.4,2.2,22.5,5.4c1.8,0.8,3.5,1.8,5.1,2.9c1.7,1.1,3,2.5,4.4,4
		c2.6,2.9,4.7,6.4,5.8,10.2c0.6,1.9,0.8,3.9,0.9,5.9c0,1,0,2-0.1,3l-0.2,1.5l-0.3,1.5c-0.8,3.9-2.4,7.5-4.4,10.9
		c-2,3.4-4.4,6.5-7,9.4c-2.6,2.9-5.4,5.6-8.5,8.1l-0.4-1.6l11.3,1.6c0.5,0.1,0.9,0.5,0.8,1c0,0.3-0.3,0.6-0.5,0.7l0,0l-9.3,4
		l0.3-1.5l11.7,12c0.4,0.4,0.4,1,0,1.4c-0.2,0.2-0.4,0.2-0.6,0.3l-9.3,1.3l0,0c-0.3,0-0.5,0-0.7-0.2L285.6,161
		c-0.4-0.3-0.5-0.8-0.2-1.2c0.1-0.1,0.2-0.2,0.3-0.3c4.8-2.3,9.6-4.7,14.3-7.3c2.3-1.3,4.6-2.6,6.9-4.1c1.1-0.7,2.2-1.5,3.2-2.3
		c1-0.8,2-1.7,2.8-2.6l0,0.1c2.1-4.1,3.6-8.5,3.7-13.1c0.1-4.6-1.6-9-4.5-12.6c-2.9-3.6-6.8-6.3-10.9-8.5
		C297,107.1,292.6,105.5,288.1,104.3z"/>
</g>
<path class="st6" d="M78.1,183.7c0,0-1,30.7,23.3,30.3c0,0-1.7,21.3-12,25.5h24v-52.8"/>
<polygon class="st9" points="210.1,128 196.4,110.3 190.4,129.6 "/>
<polygon class="st9" points="143.9,147.2 157.1,162.7 152.3,142.3 "/>
<polygon class="st9" points="83.4,125.5 85.4,103 74.1,115 "/>
<path class="st6" d="M192.4,182.3c0,0-0.1,3,0.4,7.3c1.1,10.8,5.6,29.6,23,29.3c0,0-1.7,21.3-12,25.5h24v-52.8"/>
<path class="st6" d="M41.4,107.2c0,0,23.3-11.6,44.7,22.5s47.7,25.9,69.3,10.5s40.3-6.1,54.7-12.1c14.3-6,15-34.7,49-35.7"/>
<path class="st3" d="M111.8,215.3"/>
<g>
	<path class="st8" d="M92.8,76.7c0.5-1.5,1.6-2.8,2.9-3.8c1.3-1,2.7-1.8,4.3-2.3c1.5-0.5,3.1-0.9,4.7-1.1c1.6-0.3,3.3-0.3,4.8-0.4
		c3.1-0.2,6.1-1.3,9-2.7c2.8-1.4,5.6-3,8.6-4.4c3-1.3,6.2-2.3,9.4-2.8l2.5-0.3l2.5,0c0.8,0,1.6,0,2.5,0.1l2.4,0.2
		c6.5,0.8,12.7,2.7,18.8,4.9c6,2.3,11.9,5,17.8,7.4c5.9,2.5,11.9,4.6,18.1,5.8c1.5,0.4,3.1,0.5,4.7,0.7c0.8,0.1,1.6,0.1,2.4,0.1
		c0.8,0,1.6,0.1,2.4,0l2.4-0.2c0.8-0.1,1.6-0.1,2.4-0.3l4.8-0.7c3.2-0.4,6.4-0.8,9.6-1.2c3.2-0.3,6.4-0.7,9.6-0.8
		c-6.4,0.7-12.7,1.8-19,2.9l-4.7,0.8c-0.8,0.1-1.6,0.3-2.4,0.3l-2.4,0.3c-0.8,0.1-1.6,0-2.4,0.1c-0.8,0-1.6,0.1-2.4,0
		c-1.6-0.2-3.3-0.2-4.9-0.5c-6.5-1-12.6-3.3-18.5-5.7c-6-2.4-11.8-5-17.8-7.2c-5.9-2.3-12.1-4.2-18.3-5l-2.3-0.2
		c-0.8-0.1-1.6-0.1-2.3-0.1l-2.4,0l-2.3,0.2c-3.1,0.4-6.1,1.2-9,2.4c-2.9,1.2-5.7,2.8-8.7,4.1c-2.9,1.3-6.1,2.4-9.4,2.5
		c-1.7,0.1-3.2,0-4.8,0.2c-1.6,0.1-3.1,0.4-4.7,0.9c-1.5,0.5-3,1.1-4.3,2.1C94.5,74,93.4,75.2,92.8,76.7z"/>
</g>
<g>
	<path class="st8" d="M258.1,79.1c0.3,2.2,0.7,4.3,1.3,6.4c0.6,2.1,1.3,4,2.2,5.9c0.9,1.9,2.1,3.6,3.5,5.2c1.3,1.7,3,3,4.7,4.4
		c-2.1-0.7-4.2-1.7-5.8-3.3l-0.7-0.6c-0.2-0.2-0.4-0.4-0.6-0.6c-0.4-0.4-0.8-0.9-1.1-1.3c-0.6-0.9-1.3-1.9-1.8-2.9
		c-1-2.1-1.7-4.3-2-6.5C257.6,83.5,257.6,81.3,258.1,79.1z"/>
</g>
<g>
	<path class="st8" d="M38.4,90c1.6,1.5,2.8,3.6,3.5,5.7c0.8,2.1,1.1,4.4,1,6.7c-0.1,2.3-0.5,4.5-1.3,6.7c-0.3,1.1-0.9,2.1-1.4,3.1
		c-0.6,1-1.2,1.9-1.9,2.8c0.3-1.1,0.6-2.1,0.9-3.2l0.4-1.6c0.1-0.5,0.3-1,0.4-1.6c0.1-0.5,0.2-1,0.3-1.6c0.1-0.5,0.1-1,0.2-1.6
		c0.2-1,0.2-2.1,0.3-3.1c0.1-2.1-0.1-4.2-0.5-6.3C40,94.1,39.4,92.1,38.4,90z"/>
</g>
<ellipse transform="matrix(0.4006 -0.9162 0.9162 0.4006 -30.782 134.9726)" class="st10" cx="87.8" cy="91" rx="7" ry="5"/>
<ellipse transform="matrix(0.4006 -0.9162 0.9162 0.4006 -11.0166 167.8263)" class="st10" cx="122.8" cy="92.3" rx="7" ry="5"/>
<ellipse transform="matrix(0.4006 -0.9162 0.9162 0.4006 17.0104 210.6694)" class="st10" cx="169.5" cy="92.3" rx="7" ry="5"/>
<ellipse transform="matrix(0.4006 -0.9162 0.9162 0.4006 43.8977 249.1306)" class="st10" cx="212.4" cy="91" rx="7" ry="5"/>
</svg>
