<?xml version="1.0" encoding="utf-8"?>
<!-- Generator: Adobe Illustrator 21.1.0, SVG Export Plug-In . SVG Version: 6.00 Build 0)  -->
<svg version="1.0" id="Layer_2" xmlns="http://www.w3.org/2000/svg" xmlns:xlink="http://www.w3.org/1999/xlink" x="0px" y="0px"
	 viewBox="0 0 317.6 267.8" style="enable-background:new 0 0 317.6 267.8;" xml:space="preserve">
<style type="text/css">
	.st0{fill:#D44368;}
	.st1{fill:#7F2361;}
	.st2{fill:#3C2745;}
	.st3{fill:#5B1159;}
	.st4{fill:none;stroke:#2C2942;stroke-width:2;stroke-linecap:round;stroke-linejoin:round;stroke-miterlimit:10;}
	.st5{fill:none;stroke:#AF286F;stroke-width:2;stroke-linecap:round;stroke-linejoin:round;stroke-miterlimit:10;}
	.st6{fill:none;stroke:#0C1C15;stroke-width:2;stroke-linecap:round;stroke-linejoin:round;stroke-miterlimit:10;}
	.st7{fill:#7F2361;stroke:#5B1159;stroke-width:2;stroke-linecap:round;stroke-linejoin:round;stroke-miterlimit:10;}
	.st8{fill:#413C57;stroke:#2C2942;stroke-width:2;stroke-linecap:round;stroke-linejoin:round;stroke-miterlimit:10;}
</style>
<path class="st0" d="M235.6,76.8c0,0-16.5-59.5-46-62.5s-104,16.5-99.5,70.5s33,85.5,56.5,90.5s112.5,7.5,84-71l-6,17.5l-11-26.1
	l-3,32.6l-11.5-8.5l-8.5,18.5l-5.5-10l-2.5,9.5l-11.5-16l-3,21c0,0-39.2-12.5-25.8-71l10.3,26.5l3.5-26.5l13.5,18.5l-0.5-16
	l27.3,21.4l-8.3-23.9l23,14l-8.5-27L235.6,76.8z"/>
<path class="st0" d="M203.6,267.8c-1.5-0.5-18.5,0-18.5,0l-2.5-91l21-4.1c0,0-16,74.6-10.5,82.6S203.6,267.8,203.6,267.8z"/>
<path class="st0" d="M158.6,172.8c0,0-10.5,79.6,0,88.1c0,0,3.3,3.9,6.7,5.9c0.5,0.3,0.3,1.1-0.3,1.1h-24.8l2.2-99L158.6,172.8z"/>
<path class="st1" d="M235.2,141.5c0,0,22.8,31.9,37.3,24.4c7.5-2.5,6-40,6-40l37-10.5c0,0-16-10-38,0c0,0,3.7-12.5-2.2-12
	c0,0-2.8,28-4.3,38s-4.3,36.9-36.4-22.8L235.2,141.5z"/>
<path class="st1" d="M111.6,134.4c1.7,0.1,2.1,2.4,0.5,3c-12.3,4.6-36.8,15.4-29.9,26.4c3,5,40-11.5,51.5-7.5s-7,30.5-7,30.5l-8,5.5
	l-4.5-5.5l4-12c0,0-10.4,7.5-9,1c1.5-6.5,15.7-12.1,15.7-12.1s-51.2,19.6-57.2,11.1C62,166.9,76.6,133,111.6,134.4z"/>
<path class="st1" d="M115.6,125.8c-4.6-2.3-77-35-84.5-32.5c0,0-11,16.5-13,12.5s5-10.1,5-10.1s-17.5,8.6-18,4.6s12-7.1,12-7.1
	s-13,5.4-12,0s16-4.4,16-4.4S3.4,83.3,5,78.8s16.1,4,16.1,4s-3-8.5,0-9s9.5,11.5,9.5,11.5s71,17.9,84,31.8c0.7,0.7,1.4,1.4,2.1,2.1
	C121.4,123.4,119.8,127.9,115.6,125.8z"/>
<path class="st2" d="M145.7,124.8c0,0,0.3-17.5,11.8-17s15,4.5,18-5.5s8,3.5,12.5,0s8.5-3.5,8.5-3.5s-9,13.5-16,5.5
	c0,0,3.7,11-6,10.8c-9.7-0.2-14.7-6.8-18-0.2c-3.3,6.7-6,16.1-6,16.1L145.7,124.8z"/>
<path class="st1" d="M231.6,107.2l59-28.6c0,0-2-16.8,0-17s5.2,7,5,10.2c0,0,10-9.2,14.5-8.5s-4.5,10.5-4.5,10.5s9.5-6.7,11.8-4.7
	s-8.8,8.2-8.8,8.2s7-1.2,7,2s-11.8,2.8-11.8,2.8s6.8,4,6,6.2s-15.8-4-15.8-4l-61,39.2L231.6,107.2z"/>
<g>
	<path class="st3" d="M227.6,105.2c9.7-5,19.5-9.8,29.3-14.7l29.4-14.5l-0.4,0.8c-0.3-2.4-0.5-4.9-0.7-7.3c-0.2-2.5-0.3-4.9-0.2-7.4
		c0.1-0.6,0.1-1.3,0.4-2c0.1-0.2,0.2-0.4,0.3-0.6c0.1-0.1,0.2-0.3,0.4-0.4c0.1-0.1,0.2-0.1,0.3-0.1c0.1,0,0.2,0,0.3,0
		c0.6,0,1,0.3,1.4,0.5c1.2,1,1.8,2.1,2.4,3.2c0.6,1.1,1.1,2.3,1.4,3.5c0.4,1.2,0.7,2.5,0.6,3.9l-1.5-0.7c1.9-1.7,3.9-3.3,5.9-4.8
		c2.1-1.5,4.2-2.9,6.9-3.7c0.7-0.2,1.4-0.3,2.2-0.2c0.4,0,0.8,0.1,1.3,0.4c0.5,0.3,0.8,0.8,0.9,1.3c0.2,1-0.1,1.7-0.3,2.4
		c-0.3,0.7-0.6,1.2-0.9,1.8c-1.4,2.3-3,4.2-4.7,6.1L301,71c1.8-1.3,3.7-2.4,5.6-3.5c1-0.5,2-1,3.1-1.4c0.6-0.2,1.1-0.4,1.8-0.4
		c0.6-0.1,1.4-0.1,2.2,0.4c0.4,0.2,0.8,0.8,0.9,1.4c0.1,0.6-0.1,1-0.3,1.3c-0.3,0.7-0.7,1.1-1.2,1.5c-0.8,0.8-1.7,1.5-2.6,2.2
		c-1.8,1.3-3.6,2.5-5.5,3.6l-0.6-1.8c0.9-0.2,1.8-0.2,2.7-0.2c0.9,0,1.9,0,2.9,0.3c0.5,0.1,1,0.4,1.5,0.7c0.5,0.4,0.9,1,1,1.7
		c0,0.2,0,0.3,0,0.5c0,0.2,0,0.4-0.1,0.6c-0.1,0.4-0.3,0.7-0.5,0.9c-0.4,0.5-0.9,0.7-1.4,1c-1.8,0.8-3.6,0.9-5.4,1.1
		c-1.8,0.1-3.5,0.1-5.3,0.1l0.5-1.7c1.9,1.2,3.7,2.4,5.3,4.1c0.4,0.4,0.8,0.9,1,1.6c0.1,0.3,0.2,0.7,0.2,1.2c0,0.1,0,0.2-0.1,0.3
		c-0.1,0.2-0.1,0.3-0.3,0.5c-0.2,0.3-0.5,0.4-0.7,0.5c-0.8,0.2-1.4,0.1-2,0.1c-0.6-0.1-1.1-0.2-1.7-0.3c-2.2-0.5-4.2-1.2-6.2-1.9
		c-2-0.7-4-1.5-6-2.3l0.8-0.1l-29.7,19.4L246,112l-14.9,9.6l14.6-10l14.6-10l29.3-19.9c0.2-0.2,0.5-0.2,0.7-0.1l0,0
		c2,0.8,4,1.5,6,2.2c2,0.7,4,1.3,6.1,1.8c0.5,0.1,1,0.2,1.5,0.3c0.5,0.1,1,0.1,1.2,0c0,0,0,0,0,0c0,0-0.1,0.1-0.1,0.1c0,0,0,0,0,0
		c0-0.1,0-0.2-0.1-0.4c-0.1-0.3-0.4-0.7-0.7-1.1c-1.3-1.4-3.1-2.7-4.8-3.7c-0.4-0.3-0.6-0.8-0.3-1.2c0.2-0.3,0.5-0.4,0.8-0.4
		c1.7,0,3.4,0,5.1-0.1c1.7-0.1,3.4-0.4,4.8-0.9c0.3-0.1,0.6-0.3,0.8-0.5c0.1-0.1,0.1-0.1,0.1-0.2c0,0,0-0.1,0-0.1l0-0.2
		c0-0.2-0.1-0.3-0.3-0.5c-0.2-0.2-0.5-0.3-0.8-0.4c-1.4-0.4-3.2-0.2-4.8,0l0,0c-0.5,0.1-1-0.3-1.1-0.8c-0.1-0.4,0.1-0.8,0.5-1
		c1.8-1.1,3.6-2.2,5.3-3.5c0.8-0.6,1.7-1.3,2.3-2c0.3-0.3,0.6-0.7,0.8-1c0.1-0.1,0.1-0.3,0.1-0.2c0,0.1,0.1,0.1,0,0.1
		c-0.1-0.1-0.5-0.1-0.9-0.1c-0.4,0.1-0.9,0.2-1.4,0.3c-0.9,0.3-1.9,0.8-2.8,1.2c-1.9,1-3.7,2.1-5.4,3.3c-0.4,0.3-1,0.2-1.4-0.2
		c-0.3-0.4-0.2-0.9,0.1-1.2c1.6-1.8,3.2-3.8,4.5-5.8c0.3-0.5,0.6-1,0.8-1.5c0.2-0.5,0.3-1,0.3-1.3c0-0.1,0-0.1-0.1-0.2
		c-0.1,0-0.3-0.1-0.5-0.1c-0.4,0-1,0-1.5,0.2c-2.2,0.6-4.3,2-6.3,3.4c-2,1.4-3.9,3-5.8,4.7c-0.4,0.3-0.9,0.3-1.3-0.1
		c-0.2-0.2-0.2-0.4-0.2-0.7c0.1-1-0.2-2.2-0.5-3.3c-0.3-1.1-0.8-2.2-1.3-3.2c-0.5-1-1.2-2.1-1.9-2.6c-0.2-0.1-0.3-0.2-0.3-0.2
		c0,0,0,0,0,0c0.1,0,0.1,0,0.1,0c0.1,0,0.1-0.1,0.1-0.1c0,0,0,0.1-0.1,0.2c-0.1,0.4-0.2,1-0.3,1.6c-0.2,2.3,0,4.8,0.1,7.2
		c0.1,2.4,0.4,4.8,0.6,7.3l0,0c0,0.3-0.1,0.6-0.4,0.7l-29.6,14C247.4,95.9,237.5,100.6,227.6,105.2z"/>
</g>
<g>
	<path class="st3" d="M232.2,139.5c2.3,3.1,4.8,6.1,7.4,9c2.6,2.9,5.3,5.7,8.3,8.2c2.9,2.5,6.1,4.8,9.6,6.3c1.8,0.7,3.6,1.3,5.5,1.4
		c1.9,0.1,3.7-0.2,5.4-1.1l0.1,0l0,0c0.6-0.2,1.2-0.8,1.6-1.4c0.4-0.7,0.8-1.4,1.1-2.2c0.6-1.6,1-3.2,1.3-4.9
		c0.6-3.4,0.9-6.8,1.2-10.2c0.2-3.4,0.3-6.9,0.3-10.3c0-3.4,0-6.9-0.1-10.3c0-0.4,0.3-0.8,0.6-0.9l37-10.6l-0.2,1.7
		c-2.7-1.5-5.8-2.6-8.9-3.3c-3.1-0.7-6.3-1-9.5-1c-3.2,0-6.4,0.4-9.5,1.2c-3.1,0.7-6.2,1.8-9.1,3.1c-0.5,0.2-1,0-1.2-0.5
		c-0.1-0.2-0.1-0.4,0-0.6c0.3-1.1,0.6-2.2,0.7-3.3c0.2-1.1,0.3-2.2,0.4-3.3c0-1.1-0.1-2.2-0.4-3.1c-0.4-0.9-0.9-1.2-1.9-1.1l0.8-0.8
		c-0.9,8.7-1.8,17.3-2.9,26c-0.5,4.3-1.1,8.7-1.8,13c-0.3,2.2-0.7,4.3-1.2,6.5c-0.6,2.1-1.3,4.3-2.9,6.1c-0.8,0.9-2,1.6-3.2,1.7
		c-1.3,0.1-2.4-0.3-3.4-0.8c-2-1.1-3.7-2.6-5.2-4.2c-3-3.2-5.6-6.8-8-10.4c-4.8-7.3-9-14.9-13-22.7c4.3,7.6,8.7,15.1,13.6,22.3
		c2.5,3.6,5.1,7,8.1,10.1c1.5,1.5,3.1,3,5,3.9c0.9,0.4,1.9,0.8,2.8,0.7c0.9-0.1,1.8-0.6,2.4-1.3c1.3-1.5,2-3.6,2.5-5.6
		c0.5-2.1,0.8-4.2,1.1-6.4c0.6-4.3,1.1-8.6,1.6-12.9c0.9-8.7,1.9-17.3,2.7-26c0-0.4,0.4-0.8,0.8-0.8c0.7-0.1,1.5,0,2.2,0.4
		c0.7,0.4,1.2,1.1,1.5,1.7c0.5,1.3,0.6,2.6,0.6,3.8c0,1.2-0.2,2.4-0.4,3.6c-0.2,1.2-0.5,2.3-0.8,3.5l-1.3-1.1c3-1.4,6.2-2.5,9.5-3.3
		c3.3-0.8,6.6-1.2,10-1.3c3.4-0.1,6.7,0.3,10,1c3.3,0.8,6.4,1.8,9.5,3.6c0.5,0.3,0.6,0.8,0.3,1.3c-0.1,0.2-0.3,0.4-0.6,0.4l0,0
		l-37,10.4l0.6-0.9c0.2,7,0.1,13.9-0.4,20.8c-0.3,3.5-0.6,6.9-1.3,10.4c-0.4,1.7-0.8,3.4-1.4,5.1c-0.3,0.8-0.7,1.7-1.2,2.4
		c-0.5,0.8-1.2,1.5-2.3,1.9l0.1,0c-1.8,0.9-3.9,1.3-6,1.1c-2-0.2-4-0.8-5.8-1.6c-3.6-1.7-6.8-4.1-9.7-6.7c-2.9-2.6-5.6-5.5-8.1-8.4
		C236.8,145.8,234.4,142.7,232.2,139.5z"/>
</g>
<path class="st4" d="M143.7,123.8c0,0,0.3-17.5,11.8-17s15,4.5,18-5.5s8,3.5,12.5,0s8.5-3.5,8.5-3.5s-9,13.5-16,5.5
	c0,0,3.7,11-6,10.8c-9.7-0.2-14.7-6.8-18-0.2c-3.3,6.7-6,16.1-6,16.1L143.7,123.8z"/>
<path class="st5" d="M154.3,174.6c30.7,3.6,98.2-0.7,72.2-72.2l-6,17.5l-11-26.1l-3,32.6l-11.5-8.5l-8.5,18.5l-5.5-10l-2.5,9.5
	l-11.5-16l-3,21c0,0-39.2-12.5-25.8-71l10.3,26.5l3.5-26.5l13.5,18.5l-0.5-16l27.3,21.4l-8.3-23.9l23,14l-8.5-27l33,18
	c0,0-16.5-59.5-46-62.5s-104,16.5-99.5,70.5c0.6,7,1.6,13.7,2.9,20"/>
<path class="st6" d="M133.4,170.1"/>
<path class="st5" d="M102.4,138.9c3,5.2,6.2,9.8,9.6,13.9"/>
<path class="st5" d="M92.8,117c1.5,4.7,3.2,9,5.1,13.1"/>
<path class="st5" d="M199.6,171.8c0,0-16,73.6-10.5,81.6s10.5,12.5,10.5,12.5c-1.5-0.5-18.5,0-18.5,0l-2.5-91"/>
<path class="st5" d="M154.6,170.8c0,0-10.5,79.6,0,88.1c0,0,5.8,5.7,10,7h-28.5l2.2-99"/>
<g>
	<path class="st3" d="M111,134.4c-5.3,2-10.4,4.1-15.5,6.6c-5,2.5-9.9,5.4-13.9,9.2c-1,1-1.9,2-2.6,3.1c-0.7,1.1-1.3,2.4-1.4,3.7
		c-0.2,1.3,0.1,2.6,0.6,3.8c0.2,0.3,0.3,0.6,0.5,0.8c0.1,0.2,0.3,0.3,0.6,0.4c0.6,0.2,1.2,0.2,1.9,0.2c2.7-0.1,5.5-0.8,8.2-1.4
		c2.7-0.7,5.4-1.4,8.1-2.2c5.4-1.5,10.8-3.1,16.3-4.3c2.8-0.6,5.6-1.1,8.4-1.4c1.4-0.1,2.9-0.2,4.3-0.1c1.5,0.1,3,0.3,4.4,1.1
		c0.4,0.2,0.7,0.4,1,0.7c0.3,0.3,0.6,0.6,0.9,0.9c0.5,0.7,0.9,1.4,1.1,2.2c0.4,1.5,0.4,3.1,0.2,4.5c-0.4,2.9-1.4,5.7-2.5,8.3
		c-2.3,5.2-5.1,10.1-8.3,14.9c-0.1,0.1-0.1,0.2-0.2,0.2l0,0l-8,5.5c-0.4,0.3-1,0.2-1.3-0.2l-4.5-5.5c-0.2-0.3-0.3-0.6-0.2-0.9l4-12
		l1.5,1.1c-1.2,0.8-2.3,1.5-3.5,2.2c-1.3,0.6-2.5,1.3-4.1,1.6c-0.4,0-0.9,0.1-1.4-0.1c-0.5-0.1-1.1-0.6-1.3-1.2
		c-0.2-0.5-0.2-1-0.2-1.4c0-0.4,0.1-0.8,0.2-1.2c0.4-1.6,1.3-2.8,2.2-3.9c2-2.1,4.3-3.7,6.6-5.1c2.4-1.4,4.8-2.6,7.4-3.6l0.7,1.7
		c-10.2,3.8-20.5,7.2-31.1,9.9c-5.3,1.3-10.6,2.5-16.1,3c-1.4,0.1-2.8,0.2-4.2,0.1c-1.4-0.1-2.8-0.2-4.2-0.7c-0.7-0.2-1.4-0.6-2-1.1
		c-0.6-0.6-1-1.3-1.3-2c-0.5-1.4-0.7-2.9-0.6-4.3c0.1-2.8,0.9-5.5,1.9-8.1c1-2.6,2.3-5,3.8-7.3c3-4.6,6.8-8.6,11.3-11.8
		c2.2-1.6,4.6-3,7.1-4.1c2.5-1.1,5.1-2.1,7.7-2.7c5.3-1.3,10.8-1.6,16.2-1.1c-5.4-0.3-10.9,0.1-16.1,1.5c-5.2,1.4-10.1,3.8-14.4,7
		c-2.2,1.6-4.1,3.4-6,5.4c-1.8,2-3.5,4.1-4.9,6.4c-1.4,2.3-2.7,4.7-3.6,7.1c-0.9,2.5-1.6,5.1-1.7,7.7c-0.1,1.3,0.1,2.6,0.5,3.7
		c0.2,0.6,0.5,1.1,0.9,1.4c0.4,0.4,0.9,0.6,1.5,0.8c1.2,0.4,2.5,0.5,3.8,0.5c1.3,0,2.6-0.1,4-0.2c5.3-0.6,10.6-1.8,15.8-3.1
		c10.4-2.8,20.7-6.2,30.8-10c0.5-0.2,1,0.1,1.2,0.5c0.2,0.5-0.1,1-0.5,1.2l0,0c-2.4,1-4.8,2.2-7.1,3.5c-2.3,1.4-4.4,2.9-6.2,4.8
		c-0.8,1-1.5,2-1.8,3.1c-0.1,0.5-0.2,1.2-0.1,1.4c0.1,0.1,0,0.1,0.1,0.1c0.1,0,0.3,0,0.6,0c1.1-0.2,2.3-0.8,3.4-1.4
		c1.1-0.6,2.3-1.3,3.3-2.1l0,0c0.5-0.3,1.1-0.2,1.4,0.2c0.2,0.3,0.2,0.6,0.1,0.9l-4,12l-0.2-0.9l4.5,5.5l-1.3-0.2l8-5.5l-0.2,0.2
		c3.1-4.6,6-9.4,8.2-14.5c1.1-2.5,2-5.2,2.4-7.8c0.2-1.3,0.2-2.6-0.2-3.8c-0.3-1.2-1-2.1-2.1-2.7c-1-0.6-2.4-0.8-3.7-0.9
		c-1.3-0.1-2.7,0-4.1,0.1c-2.7,0.2-5.5,0.7-8.2,1.2c-5.5,1.1-10.9,2.6-16.3,4c-2.7,0.7-5.4,1.4-8.2,2.1c-2.8,0.6-5.5,1.3-8.4,1.3
		c-0.7,0-1.5,0-2.3-0.3c-0.4-0.1-0.8-0.4-1.1-0.8c-0.3-0.4-0.4-0.7-0.6-1c-0.6-1.3-0.9-2.9-0.7-4.4c0.2-1.5,0.9-2.9,1.7-4.1
		c0.8-1.2,1.8-2.3,2.8-3.2c4.2-3.8,9.3-6.5,14.3-9C100.4,138.2,105.7,136.2,111,134.4z"/>
</g>
<g>
	<path class="st3" d="M111.6,123.8l-20.9-9c-7-3-14-5.8-21-8.7c-7-2.9-14-5.6-21.1-8.3c-3.5-1.3-7.1-2.6-10.7-3.7
		c-1.8-0.6-3.6-1.1-5.4-1.5c-0.9-0.2-1.8-0.4-2.7-0.6c-0.9-0.1-1.9-0.2-2.4-0.1l0.4-0.3c-1.5,2.2-3,4.3-4.6,6.4
		c-1.6,2.1-3.3,4.1-5.4,5.9c-0.6,0.4-1.1,0.9-1.9,1.1c-0.4,0.1-1,0.2-1.6,0c-0.6-0.3-0.9-0.8-1-1.2c-0.6-1.6-0.3-3.2,0.3-4.5
		c0.6-1.3,1.4-2.4,2.2-3.5c0.9-1.1,1.8-2,2.8-2.9l1,1.5c-2.6,1.3-5.2,2.4-7.9,3.5c-1.3,0.5-2.7,1-4.1,1.4c-1.4,0.4-2.8,0.8-4.4,0.9
		c-0.4,0-0.9,0-1.3-0.2C1.2,100,0.6,99.7,0.3,99c-0.4-1.2,0.1-2.2,0.6-2.9C2,94.7,3.3,94,4.6,93.3c2.7-1.3,5.4-2.2,8.2-3
		c0.5-0.1,1,0.2,1.2,0.7c0.1,0.5-0.1,1-0.6,1.2c-2.5,1-5,1.8-7.8,2.3c-0.7,0.1-1.4,0.2-2.1,0.2c-0.7,0-1.6-0.1-2.4-0.6
		c-0.4-0.3-0.8-0.8-1-1.3C0.1,92.4,0,92.2,0,91.9c0-0.2,0-0.5,0-0.7c0.1-0.9,0.5-1.7,1.1-2.3c1.2-1.2,2.6-1.7,3.9-2.1
		c1.3-0.4,2.7-0.6,4-0.8c2.7-0.3,5.4-0.3,8.1-0.2l-0.4,1.9c-3-1-6-2.1-8.9-3.4c-1.4-0.7-2.9-1.4-4.2-2.3c-0.7-0.5-1.4-0.9-2-1.5
		c-0.6-0.6-1.3-1.3-1.6-2.4c-0.3-1.1,0.2-2.5,1.2-3.1c1-0.5,2-0.5,2.8-0.4c1.7,0.2,3.3,0.7,4.8,1.3c3,1.2,5.8,2.6,8.6,4.2l-1.3,1.1
		c-0.7-2.1-1.2-4.1-1.4-6.4c0-0.6,0-1.2,0.1-1.8c0.1-0.6,0.5-1.4,1.4-1.8c0.2-0.1,0.4-0.1,0.6-0.2c0.2,0,0.5,0,0.6,0
		c0.4,0.1,0.7,0.2,1,0.4c0.6,0.3,1,0.7,1.4,1.1c1.6,1.6,2.8,3.3,4,5.1c1.2,1.8,2.2,3.6,3.2,5.4l-0.5-0.4c7.4,1.9,14.8,4,22.1,6.2
		c7.3,2.2,14.6,4.6,21.8,7.1c7.2,2.6,14.3,5.4,21.3,8.6c3.5,1.6,6.9,3.3,10.2,5.2c3.3,1.9,6.5,4.1,9.4,6.6c-2.9-2.5-6.2-4.5-9.5-6.3
		c-3.3-1.9-6.8-3.5-10.3-5c-7-3.1-14.2-5.7-21.4-8.1c-7.2-2.5-14.5-4.7-21.9-6.8c-7.3-2.1-14.7-4.1-22.1-5.9
		c-0.2-0.1-0.4-0.2-0.5-0.4l0,0c-1-1.8-2.1-3.6-3.2-5.3c-1.1-1.7-2.4-3.4-3.8-4.7c-0.4-0.3-0.7-0.6-1.1-0.8
		c-0.2-0.1-0.3-0.2-0.5-0.2c-0.1,0-0.1,0-0.1,0c0,0-0.1,0-0.1,0c-0.1,0-0.3,0.3-0.4,0.6c-0.1,0.4-0.1,0.8-0.1,1.3
		c0.1,1.9,0.7,3.9,1.3,5.8c0.2,0.5-0.1,1-0.6,1.1c-0.2,0.1-0.5,0-0.7-0.1c-2.7-1.5-5.5-2.9-8.3-4c-1.4-0.5-2.9-1-4.3-1.1
		c-0.7-0.1-1.4,0-1.7,0.2c-0.3,0.2-0.5,0.6-0.4,1c0.1,0.4,0.5,1,1.1,1.5c0.5,0.5,1.1,0.9,1.7,1.3c1.3,0.8,2.6,1.5,4,2.2
		c2.8,1.3,5.7,2.4,8.7,3.3c0.5,0.2,0.8,0.7,0.6,1.2c-0.1,0.4-0.5,0.7-1,0.7l0,0c-2.5-0.1-5.2-0.1-7.7,0.2c-1.3,0.1-2.5,0.4-3.7,0.7
		c-1.2,0.3-2.3,0.9-3,1.6c-0.7,0.6-0.8,1.9-0.4,2c0.2,0.2,0.8,0.3,1.3,0.3c0.6,0,1.2,0,1.8-0.1c2.5-0.4,5-1.2,7.3-2.2l0.6,1.8
		c-2.7,0.7-5.4,1.6-7.8,2.8c-1.2,0.6-2.4,1.3-3.1,2.2c-0.2,0.2-0.3,0.4-0.3,0.6c0,0.2,0,0.4,0,0.4c0,0,0,0,0.2,0.1
		c0.2,0.1,0.5,0.1,0.8,0.1c1.2,0,2.6-0.4,3.9-0.8c1.3-0.4,2.7-0.9,4-1.4c2.6-1,5.2-2.2,7.8-3.4c0.4-0.2,1,0,1.2,0.4
		c0.2,0.4,0.1,0.8-0.2,1l0,0c-1.8,1.7-3.6,3.6-4.6,5.8c-0.5,1.1-0.7,2.2-0.3,3.1c0.1,0.3,0.2,0.3,0.2,0.3c0,0,0.1,0,0.3,0
		c0.4-0.1,0.9-0.5,1.4-0.8c1.9-1.5,3.6-3.6,5.2-5.6c1.6-2,3.1-4.1,4.6-6.2l0-0.1c0.1-0.1,0.2-0.2,0.4-0.3c1.3-0.3,2.2-0.1,3.2,0
		c1,0.2,1.9,0.4,2.8,0.6c1.9,0.5,3.7,1,5.5,1.6c3.6,1.2,7.2,2.5,10.7,3.9c7.1,2.7,14.1,5.6,21.1,8.5c7,3,13.9,6,20.8,9.1
		C97.9,117.5,104.7,120.6,111.6,123.8z"/>
</g>
<path class="st4" d="M116.1,54.8c0,0-55.5-94-87,2.5"/>
<path class="st4" d="M155.6,24.3c0,0-80-74-83,41.5"/>
<g>
	<path class="st3" d="M127.1,161.4c-1.2,0.8-2.3,1.7-3,2.7c-0.8,1-1.2,2.2-1.4,3.4c-0.2,1.2,0,2.5,0.3,3.8l0.6,1.9
		c0.3,0.6,0.5,1.3,0.7,1.9l0.1,0.2c0.1,0.2,0,0.3,0,0.5c-0.4,0.8-0.8,1.5-1.3,2.2c-0.4,0.7-0.9,1.4-1.4,2.1c0.1-0.9,0.4-1.7,0.6-2.5
		c0.2-0.8,0.5-1.6,0.7-2.4l0,0.6c-0.4-0.6-0.7-1.3-1.1-1.9c-0.3-0.7-0.6-1.4-0.8-2.1c-0.4-1.5-0.6-3-0.3-4.6
		c0.2-0.8,0.4-1.5,0.8-2.2c0.4-0.7,0.9-1.3,1.5-1.8C124.3,162.2,125.7,161.5,127.1,161.4z"/>
</g>
<g>
	<path class="st3" d="M272.3,116.8c1-1.3,2.7-2.1,4.4-2.2c0.9,0,1.8,0.1,2.6,0.3c0.4,0.1,0.8,0.3,1.2,0.5c0.4,0.2,0.8,0.4,1.1,0.7
		l-0.7-0.2c1.6-0.3,3.2-0.6,4.9-0.9c1.6-0.2,3.3-0.5,4.9-0.7c1.6-0.2,3.3-0.3,4.9-0.5c1.7-0.1,3.3-0.2,5-0.1c-1.6,0.5-3.2,1-4.8,1.3
		c-1.6,0.4-3.2,0.7-4.8,1c-1.6,0.3-3.3,0.6-4.9,0.8c-1.6,0.2-3.3,0.5-4.9,0.6l0,0c-0.2,0-0.4,0-0.6-0.2c-0.6-0.4-1.2-0.8-1.9-1.2
		c-0.7-0.3-1.4-0.5-2.1-0.6c-0.7-0.1-1.5,0-2.2,0.1C273.8,116.1,273,116.4,272.3,116.8z"/>
</g>
<circle class="st7" cx="29.8" cy="62.6" r="7.2"/>
<circle class="st7" cx="72.6" cy="71.8" r="7.2"/>
<ellipse transform="matrix(0.9324 -0.3615 0.3615 0.9324 -10.9245 56.2982)" class="st8" cx="145" cy="57.3" rx="2.7" ry="8.5"/>
<ellipse transform="matrix(0.8253 -0.5648 0.5648 0.8253 1.9021 104.098)" class="st8" cx="169.2" cy="49" rx="2.7" ry="8.5"/>
</svg>
