<?xml version="1.0" encoding="utf-8"?>
<!-- Generator: Adobe Illustrator 21.1.0, SVG Export Plug-In . SVG Version: 6.00 Build 0)  -->
<svg version="1.0" id="Layer_2" xmlns="http://www.w3.org/2000/svg" xmlns:xlink="http://www.w3.org/1999/xlink" x="0px" y="0px"
	 viewBox="0 0 350.6 225.6" style="enable-background:new 0 0 350.6 225.6;" xml:space="preserve">
<style type="text/css">
	.st0{fill:#8B9ECC;}
	.st1{fill:#413C57;}
	.st2{fill:#413C57;stroke:#413C57;stroke-width:2;stroke-linecap:round;stroke-linejoin:round;stroke-miterlimit:10;}
	.st3{fill:none;stroke:#6D6DB2;stroke-width:2;stroke-linecap:round;stroke-linejoin:round;stroke-miterlimit:10;}
	.st4{fill:none;stroke:#2C2942;stroke-width:2;stroke-linecap:round;stroke-linejoin:round;stroke-miterlimit:10;}
	.st5{fill:none;stroke:#0C1C15;stroke-width:2;stroke-linecap:round;stroke-linejoin:round;stroke-miterlimit:10;}
	.st6{fill:#6D6DB2;}
</style>
<path class="st0" d="M24.1,224.6l309.3-10.4c0,0,8.9-60.4-25.3-57.4c0,0-5.2-88-102.9-89.5c-97.7-1.5-155,32.8-156.5,108.1
	C48.7,175.4,12.9,182.1,24.1,224.6z"/>
<path class="st1" d="M252.8,76.9c0,0,44.9-19.3,35.2-71.5c0,0,37.6,25.2,62.6,23.1c0,0-52.9,3.6-29.8,38.7c0,0-30.6-19.2-32.1,13.2
	C288.7,80.5,283.1,64.1,252.8,76.9z"/>
<path class="st1" d="M95.7,89.6c0,0-43.3-18.5-41.8-61.8c0,0-18.6,21.6-44,11.2c0,0,38,12.7,32.1,35.8c0,0,23.9-19.6,24.6,14.8
	C66.6,89.6,71.1,78.3,95.7,89.6z"/>
<path d="M128.5,129.4c0,0-30,14.2-19.5,20.1S141.9,134.6,128.5,129.4z"/>
<path d="M195.1,115.4c0,0,40.6,5.4,35,16.4C224.6,142.8,184.7,127.3,195.1,115.4z"/>
<path class="st2" d="M333.5,214.2c-13.4-9.7-25.4-19.2-45.7-10c-20.3,9.2-22.9-0.8-40,2.5c-17.1,3.4-25-6.3-52.9-1.5
	s-28.2,17.1-44.3,8.2s-23.9-10.8-38.5-6c-14.5,4.8-20.8,6-31.6-0.7s-23.2-6.3-34.3-4.5c-25.6,4.1-15.5,14.3-24.2,11.2l2.2,11.2
	L333.5,214.2z"/>
<path class="st3" d="M15.2,220.2l309.3-10.4c0,0,8.9-60.4-25.3-57.4c0,0-5.2-88-102.9-89.5S41.3,95.7,39.8,171
	C39.8,171,4,177.7,15.2,220.2z"/>
<path class="st4" d="M243.8,72.5c0,0,44.9-19.3,35.2-71.5c0,0,35,29.8,62.6,23.1c0,0-52.9,3.6-29.8,38.7c0,0-30.6-19.2-32.1,13.2
	C279.8,76,274.2,59.7,243.8,72.5z"/>
<path class="st5" d="M128.5,130c0,0-30,14.2-19.5,20.1S141.9,135.2,128.5,130z"/>
<path class="st4" d="M86.7,85.1c0,0-43.3-18.5-41.8-61.8c0,0-18.6,21.6-44,11.2c0,0,38,12.7,32.1,35.8c0,0,23.9-19.6,24.6,14.8
	C57.7,85.1,62.2,73.8,86.7,85.1z"/>
<path class="st3" d="M72.6,133.7c0,0,48.5,18.6,61.9,33.5c13.4,14.9,20.1-13.4,38.8-11.2c18.6,2.2,23.9,20.1,34.3,9.7
	c10.4-10.4,20.9-32.8,60.4-32.1"/>
<g>
	<path class="st6" d="M254.4,124c2.4,1,4.7,2.2,6.9,3.4c2.3,1.2,4.5,2.6,6.6,3.9c2.2,1.4,4.3,2.8,6.4,4.3c2.1,1.5,4.2,3,6.1,4.8
		c-2.4-1-4.7-2.2-6.9-3.4c-2.3-1.2-4.5-2.6-6.6-3.9c-2.2-1.4-4.3-2.8-6.4-4.3C258.5,127.3,256.4,125.7,254.4,124z"/>
</g>
<g>
	<path class="st6" d="M82.5,125.5c-1.2,1.6-2.5,3.1-3.8,4.6c-1.3,1.4-2.7,2.8-4.2,4.2c-1.4,1.3-2.9,2.6-4.5,3.8
		c-1.5,1.2-3.1,2.4-4.9,3.4c1.2-1.6,2.5-3.1,3.8-4.6c1.3-1.4,2.7-2.8,4.2-4.2c1.4-1.3,2.9-2.6,4.5-3.8
		C79.1,127.7,80.7,126.5,82.5,125.5z"/>
</g>
<path class="st5" d="M198.5,117.3c0,0,40.6,5.4,35,16.4C228,144.6,188.1,129.2,198.5,117.3z"/>
<g>
	<path class="st6" d="M299.9,153c-2.2,2.2-4.5,4-7,5.7c-2.5,1.7-5.1,3.1-7.8,4.3c-1.3,0.6-2.8,1.1-4.2,1.6c-0.7,0.2-1.4,0.4-2.1,0.6
		l-1.1,0.3l-1.1,0.2c-2.9,0.7-5.9,0.8-8.8,0.8c2.9-0.2,5.9-0.5,8.7-1.3l1.1-0.3l1-0.4c0.7-0.2,1.4-0.5,2.1-0.7
		c1.3-0.6,2.7-1.1,4-1.8c2.6-1.3,5.1-2.9,7.4-4.6c2.3-1.7,4.5-3.7,6.4-5.8l0,0c0.4-0.4,1-0.4,1.4-0.1
		C300.3,151.9,300.3,152.5,299.9,153C299.9,153,299.9,153,299.9,153z"/>
</g>
<g>
	<path class="st6" d="M40.4,170.2c0.8,0.7,1.8,1.3,2.7,1.9l1.5,0.9l1.5,0.8c2.1,1.1,4.2,2,6.4,2.8c4.4,1.7,8.9,3,13.5,4
		c2.3,0.6,4.6,0.9,6.9,1.4c2.3,0.4,4.7,0.7,7,1.1l7,0.8l7.1,0.5l-7.1-0.3l-7.1-0.5c-2.4-0.3-4.7-0.5-7.1-0.8c-2.3-0.4-4.7-0.7-7-1.2
		c-4.7-0.9-9.3-2-13.8-3.6c-2.3-0.8-4.5-1.7-6.7-2.7l-1.6-0.8l-1.6-0.9c-1.1-0.6-2.1-1.2-3.1-2.1c-0.4-0.3-0.5-1-0.1-1.4
		C39.3,169.9,39.9,169.8,40.4,170.2C40.4,170.2,40.4,170.2,40.4,170.2L40.4,170.2z"/>
</g>
<g>
	<path class="st6" d="M132.6,184.4c3.8,0.2,7.7,0.5,11.5,0.6c3.8,0.2,7.7,0.3,11.5,0.4c7.7,0.1,15.4,0.1,23-0.2
		c3.8-0.1,7.7-0.4,11.5-0.7c3.8-0.3,7.6-0.8,11.4-1.3c3.8-0.6,7.6-1.2,11.3-2.1c3.7-0.8,7.4-2,11-3.3c-6.9,3.4-14.5,5.6-22.1,7
		c-7.6,1.4-15.3,2.1-23,2.5c-7.7,0.3-15.5,0.2-23.2-0.2C147.9,186.4,140.2,185.6,132.6,184.4z"/>
</g>
</svg>
