<?xml version="1.0" encoding="utf-8"?>
<!-- Generator: Adobe Illustrator 21.1.0, SVG Export Plug-In . SVG Version: 6.00 Build 0)  -->
<svg version="1.0" id="Layer_3" xmlns="http://www.w3.org/2000/svg" xmlns:xlink="http://www.w3.org/1999/xlink" x="0px" y="0px"
	 viewBox="0 0 218.6 217" style="enable-background:new 0 0 218.6 217;" xml:space="preserve">
<style type="text/css">
	.st0{fill:#F2DDA4;}
	.st1{fill:#BFD7B5;}
	.st2{fill:#F0EFF4;}
	.st3{fill:#413C57;}
	.st4{fill:#E7EFC5;stroke:#E7EFC5;stroke-width:2;stroke-linecap:round;stroke-linejoin:round;stroke-miterlimit:10;}
	.st5{fill:none;stroke:#DDB68C;stroke-width:2;stroke-linecap:round;stroke-linejoin:round;stroke-miterlimit:10;}
	.st6{fill:none;stroke:#99C199;stroke-width:2;stroke-linecap:round;stroke-linejoin:round;stroke-miterlimit:10;}
	.st7{fill:none;stroke:#D9D9E2;stroke-width:2;stroke-linecap:round;stroke-linejoin:round;stroke-miterlimit:10;}
	.st8{fill:none;stroke:#D9D9E2;stroke-linecap:round;stroke-linejoin:round;stroke-miterlimit:10;}
	.st9{fill:#99C199;}
	.st10{fill:none;stroke:#2C2942;stroke-width:2;stroke-linecap:round;stroke-linejoin:round;stroke-miterlimit:10;}
	.st11{fill:#A5D2DB;stroke:#85ADC1;stroke-width:2;stroke-linecap:round;stroke-linejoin:round;stroke-miterlimit:10;}
</style>
<path class="st0" d="M129.5,37.9c0,0,15.7-5.4,17.7-3.7s-1.6,12.9-4.9,17.7C138.9,56.8,129.5,37.9,129.5,37.9z"/>
<path class="st0" d="M153.6,74c0,0,15-6.5,19.2-4s-4.5,18-9.6,21S153.6,74,153.6,74z"/>
<path class="st0" d="M165.9,110.5c0,0,19-1.8,19.8,5.5s-15.2,21.5-15.2,21.5L165.9,110.5z"/>
<path class="st1" d="M105.1,24.5c0,0,39.3,4.2,64,83.2s-46.3,96-46.3,96l0.2,13.2l-30-1.2c0,0,11.2,0.2,5-19.8l-16.8-2.8v18.5
	l-28.5-1c0,0,11.7-2.2,5.2-24.2c0,0-72.2-17.2-48.2-70.8S87.4,26.8,105.1,24.5z"/>
<path class="st0" d="M112.4,38c0,0-18.2-35.2-21-35S81,28.8,89.7,35.3S112.4,38,112.4,38z"/>
<path class="st2" d="M114.6,52c-6.2-7.5-35.2-13-43.2,3S71.1,86,96,83.8S120.9,59.5,114.6,52z"/>
<path class="st0" d="M174.4,157.5c0,0,25.5-3.5,25.5,3.2s-14.2,21-14.2,21L174.4,157.5z"/>
<path class="st0" d="M195.6,195c0,0,12.8-12,15.5-8.5s0,18.5,0,18.5L195.6,195z"/>
<path class="st1" d="M134.5,199.5c0,0,83.7,10,84.2,7s-42.3-25.5-48.2-69S134.5,199.5,134.5,199.5z"/>
<path class="st3" d="M62.4,79.9c0,0,18.2,14.6,22.1,16.1s22.1-7.8,35.1-5.7c0,0-24.1,14.3-35.1,12.3S63.3,90.4,62.4,79.9z"/>
<path class="st4" d="M98.1,196c0,0,27.3-77.3-16.5-85.7c-14.5-2.8-36.7-12.2-40,8.4c-3.3,20.6,16.5,67.8,16.5,67.8L98.1,196z"/>
<path class="st2" d="M92.5,100.8c0,0,0.2-6.5,8.4-6.5s6.4,0.9,6.4,0.9L92.5,100.8z"/>
<path class="st2" d="M77.3,91.3L67.9,84C67.9,84,67.5,92.7,77.3,91.3"/>
<path class="st5" d="M125.5,35.9c0,0,15.7-5.4,17.7-3.7s-1.6,12.9-4.9,17.7"/>
<path class="st5" d="M151.6,72c0,0,13-6.5,17.2-4s-4.5,18-9.6,21"/>
<path class="st5" d="M166.9,109.5c0,0,14-2.8,14.8,4.5c0.5,4.9-6.6,12.9-11.3,17.7"/>
<path class="st5" d="M172.4,155.5c0,0,23.5-3.5,23.5,3.2c0,4.6-6.6,12.7-10.8,17.4"/>
<path class="st5" d="M196.5,188.8c3.9-3.1,9-6.4,10.6-4.3c1.7,2.2,1.3,9.1,0.7,13.8"/>
<path class="st6" d="M101.1,22.5c0,0,39.3,4.2,64,83.2s-46.3,96-46.3,96l0.2,13.2l-30-1.2c0,0,11.2,0.2,5-19.8l-16.8-2.8v18.5
	l-28.5-1c0,0,11.8-2.2,5.2-24.2c0,0-72.2-17.2-48.2-70.8C23.6,74.3,57.4,44.6,81,30.8"/>
<path class="st5" d="M108.4,36c0,0-18.2-35.2-21-35S77,26.8,85.7,33.3S108.4,36,108.4,36z"/>
<path class="st7" d="M113.6,50c-6.2-7.5-35.2-13-43.2,3S70.1,84,95,81.8S119.9,57.5,113.6,50z"/>
<path class="st6" d="M130.5,197.5c0,0,83.7,10,84.2,7c0.4-2.2-22.7-15-37.3-38.9c-2.8-4.5-5.2-9.4-7.1-14.8"/>
<path class="st8" d="M92.5,100.8c0,0,0.2-6.5,8.4-6.5s6.4,0.9,6.4,0.9L92.5,100.8z"/>
<path class="st8" d="M67.9,84c0,0-0.4,8.7,9.4,7.4L67.9,84z"/>
<g>
	<path class="st1" d="M115,144.8c-5.2,0.1-3.9,2.6-13,6.5s-15.1-9.6-17.8-12.8s-9.4,1.4-12.6-0.1s0.1-3.6,0.1-3.6
		c-4.1-1.9,0.6-3.8,0.6-3.8c-3.2-2.1,0-3.5,0-3.5c-1.6-0.8,0-2.5,0-2.5c8.5-2,12.2,3.8,19.9,15.3c7.6,11.5,17.6-8.5,17.6-8.5"/>
	<path class="st9" d="M115,144.8c-1.2,0.1-2.4,0.3-3.4,0.9c-1,0.6-1.8,1.4-2.8,2.1c-1.9,1.5-4,2.7-6.1,3.7c-1.1,0.5-2.3,1-3.6,1
		c-1.3,0.1-2.6-0.1-3.7-0.6c-2.4-0.9-4.2-2.7-5.8-4.5c-1.6-1.8-3-3.8-4.3-5.8l-1-1.5c-0.3-0.4-0.7-1-1-1.2c-0.6-0.6-1.5-0.7-2.6-0.6
		c-2.2,0.2-4.4,1.1-7,1.3c-0.7,0-1.4,0-2.1-0.2c-0.2-0.1-0.4-0.1-0.5-0.2l-0.5-0.3c-0.2-0.1-0.3-0.2-0.5-0.3
		c-0.2-0.1-0.3-0.3-0.5-0.4c-0.3-0.3-0.5-0.9-0.5-1.4c0-0.6,0.2-1,0.4-1.3c0.5-0.7,0.9-1.1,1.6-1.5l0.1,1.7l-0.7-0.4
		c-0.3-0.2-0.5-0.3-0.7-0.6c-0.1-0.1-0.2-0.3-0.4-0.4c-0.1-0.2-0.2-0.4-0.3-0.6c-0.1-0.2-0.1-0.5-0.1-0.7c0-0.2,0.1-0.5,0.2-0.7
		c0.4-0.8,0.9-1.1,1.3-1.5c0.5-0.3,0.9-0.6,1.5-0.8l-0.2,1.8c-0.4-0.3-0.7-0.5-1.1-0.9c-0.3-0.4-0.7-0.9-0.8-1.7
		c0-0.8,0.4-1.4,0.7-1.8c0.4-0.4,0.8-0.6,1.3-0.9l0,1.8c-0.3-0.2-0.7-0.4-1-0.8c-0.3-0.4-0.3-1-0.3-1.4c0.1-0.4,0.2-0.7,0.4-1
		c0.2-0.3,0.3-0.5,0.6-0.8c0.1-0.1,0.3-0.2,0.5-0.3l0,0c2.2-0.5,4.7-0.6,6.9,0.2c2.3,0.8,4,2.4,5.5,4c1.5,1.6,2.8,3.4,4,5.2
		c1.2,1.8,2.4,3.6,3.5,5.4c0.3,0.4,0.6,0.9,0.9,1.3l0.4,0.6l0.5,0.6c0.7,0.7,1.5,1.4,2.4,1.7c1.8,0.6,3.9-0.2,5.5-1.4
		c1.7-1.2,3.1-2.8,4.5-4.5c1.3-1.7,2.5-3.5,3.6-5.3c-0.9,1.9-2,3.8-3.2,5.6c-1.2,1.8-2.6,3.5-4.3,4.9c-0.9,0.7-1.8,1.3-2.9,1.7
		c-1.1,0.4-2.3,0.5-3.5,0.1c-2.4-0.7-3.8-2.8-5-4.5c-1.2-1.8-2.4-3.5-3.7-5.3c-1.3-1.7-2.5-3.4-4-4.9c-1.4-1.5-3-2.8-4.9-3.4
		c-1.8-0.6-3.8-0.6-5.8-0.1l0.5-0.3c-0.1,0.1-0.2,0.3-0.3,0.4c-0.1,0.2-0.1,0.3-0.1,0.4c0,0.1,0,0.1,0,0.1c0,0,0.1,0,0.2,0.1l0.1,0
		c0.5,0.3,0.6,0.9,0.3,1.4c-0.1,0.2-0.3,0.3-0.4,0.4c-0.2,0.1-0.5,0.3-0.7,0.5c-0.2,0.2-0.2,0.3-0.2,0.3c0,0,0.1,0.2,0.3,0.4
		c0.2,0.2,0.5,0.4,0.7,0.6c0.5,0.3,0.6,0.9,0.3,1.4c-0.1,0.2-0.3,0.3-0.4,0.4c-0.3,0.1-0.8,0.4-1.1,0.6c-0.3,0.2-0.6,0.5-0.6,0.6
		c0,0,0,0,0,0c0,0,0,0,0,0c0,0,0,0,0,0.1c0,0,0.1,0.1,0.1,0.1c0.1,0.1,0.3,0.2,0.4,0.3l0.5,0.3l0,0c0.5,0.3,0.7,0.9,0.4,1.3
		c-0.1,0.2-0.2,0.3-0.3,0.4c-0.4,0.2-0.8,0.6-1,0.9c-0.1,0.1-0.1,0.3-0.1,0.3c0,0,0,0.1,0.1,0.2c0.2,0.2,0.7,0.5,1,0.6
		c0.4,0.1,0.9,0.1,1.4,0.1c2.1-0.2,4.4-1,6.9-1.2c0.3,0,0.7,0,1,0c0.3,0,0.7,0.1,1,0.1c0.4,0.1,0.7,0.2,1,0.4l0.5,0.3l0.4,0.4
		c0.6,0.5,0.8,1,1.2,1.5l1,1.5c1.2,2,2.5,4,4,5.7c1.5,1.8,3.1,3.4,5.2,4.3c1,0.5,2.1,0.7,3.2,0.6c1.1,0,2.2-0.3,3.2-0.8
		c2.2-0.9,4.3-1.9,6.2-3.2c1-0.6,1.9-1.4,3-2C112.6,144.8,113.8,144.7,115,144.8z"/>
</g>
<g>
	<path class="st1" d="M24.4,137.3c0,0,1.8,12.4,15.9,6.9c3.4-1.1,9.9-9.5,14.5-8.6s7.6,3.4,8.2,1.1s-1.4-2.9-1.4-2.9
		s3.7,1.6,3.9-0.9s-1.7-2.8-1.7-2.8s4.1,1.4,3.6-1.1c-0.5-2.5-2.1-2.1-2.1-2.1s3.5,2.1,3-1.1c-0.5-3.2-9.1-4.5-12.6-2.6
		s-11.8,16.6-18.2,12.4s-5-3.8-5-3.8"/>
	<path class="st9" d="M24.4,137.3c0.5,2,1.5,3.9,2.9,5.4c1.4,1.4,3.4,2.3,5.4,2.4c0.5,0,1,0.1,1.5,0c0.5-0.1,1-0.1,1.5-0.2
		c1-0.2,2-0.4,2.9-0.8l1.4-0.5c0.2-0.1,0.4-0.2,0.6-0.3l0.6-0.4c0.8-0.6,1.6-1.2,2.4-1.9c1.6-1.4,3.1-2.8,4.9-4.1
		c0.9-0.6,1.8-1.2,2.8-1.7c1-0.4,2.2-0.8,3.6-0.6c2.2,0.4,4.2,1.2,6.1,1.8c0.4,0.1,0.9,0.2,1,0.1c0,0,0,0,0,0c0,0,0,0,0,0
		c0-0.1,0-0.1,0.1-0.2l0.1-0.3c0.1-0.4,0-0.6-0.1-0.9c-0.1-0.1-0.2-0.2-0.3-0.3c-0.1-0.1-0.3-0.2-0.4-0.2l0.7-1.8
		c0.5,0.2,1.2,0.4,1.7,0.4c0.3,0,0.5,0,0.6-0.1c0.1-0.1,0.1,0,0.1-0.1c0,0,0-0.1,0-0.2c0-0.1,0-0.3,0-0.4c0-0.3-0.1-0.5-0.1-0.7
		c-0.1-0.2-0.2-0.3-0.3-0.4c-0.1-0.1-0.4-0.2-0.4-0.2l0.5-1.9c0.5,0.2,1.2,0.3,1.7,0.3c0.3,0,0.5,0,0.6-0.1c0.1-0.1,0,0,0,0
		c0-0.1-0.1-0.9-0.3-1.2c-0.1-0.2-0.2-0.3-0.3-0.4c-0.1,0-0.1-0.1-0.2-0.1c0,0-0.2,0-0.1,0l0.3-1.8c0.3,0.2,0.8,0.4,1.1,0.5
		c0.2,0,0.4,0.1,0.4,0.1c0.1,0,0,0,0,0c0,0,0,0-0.1,0c0,0.1,0.1-0.3,0-0.7c-0.1-0.2-0.2-0.5-0.5-0.8c-0.5-0.5-1.4-1-2.3-1.3
		c-0.9-0.3-1.8-0.5-2.8-0.6c-1.9-0.2-3.9-0.2-5.6,0.5c-0.7,0.3-1.4,1-2.1,1.7c-0.7,0.7-1.4,1.5-2,2.2c-1.3,1.5-2.7,3-4.2,4.5
		c-1.5,1.4-3.1,2.8-5,3.7c-1,0.4-2,0.8-3.1,0.7c-1.1,0-2.1-0.5-2.9-1.1c-0.8-0.6-1.7-1.2-2.5-1.8c-0.4-0.3-0.8-0.6-1.2-0.9
		c-0.2-0.2-0.4-0.3-0.6-0.5c-0.1-0.1-0.2-0.2-0.3-0.3c0,0-0.1-0.1-0.1-0.2c0-0.1,0.1-0.1,0.1,0c0,0-0.2,0-0.1,0
		c0,0.1,0.1,0.1,0.1,0.1c0.1,0.1,0.2,0.2,0.3,0.2c0.2,0.2,0.4,0.3,0.6,0.4c0.4,0.3,0.8,0.6,1.3,0.8l2.6,1.6c0.8,0.6,1.7,0.9,2.7,0.9
		c0.9,0,1.9-0.4,2.7-0.8c1.7-1,3.2-2.3,4.5-3.8c1.4-1.5,2.6-3,3.9-4.6c0.7-0.8,1.3-1.6,2-2.3c0.4-0.4,0.7-0.8,1.1-1.1
		c0.2-0.2,0.4-0.4,0.6-0.5c0.2-0.2,0.5-0.3,0.8-0.5c2.1-1,4.3-1,6.4-0.8c1.1,0.1,2.1,0.3,3.2,0.6c1,0.4,2.1,0.8,3,1.7
		c0.5,0.4,0.8,1.1,1,1.8c0,0.3,0.1,0.6,0,1c0,0.2,0,0.4-0.1,0.6l-0.1,0.3c-0.1,0.1-0.1,0.2-0.2,0.3c-0.1,0.2-0.4,0.4-0.6,0.5
		c-0.2,0.1-0.5,0.2-0.7,0.2c-0.4,0-0.8,0-1.1-0.1c-0.6-0.2-1.1-0.4-1.7-0.7l0,0c-0.5-0.3-0.6-0.8-0.4-1.3c0.1-0.3,0.4-0.4,0.7-0.5
		c1.3-0.2,2.3,0.5,2.7,1.3c0.2,0.4,0.4,0.8,0.5,1.2c0,0.2,0.1,0.4,0.1,0.6l0,0.4c0,0.1,0,0.3-0.1,0.4c-0.1,0.6-0.7,1.2-1.3,1.4
		c-0.5,0.2-1,0.2-1.4,0.2c-0.8,0-1.5-0.2-2.2-0.4l0,0c-0.5-0.2-0.8-0.7-0.7-1.2c0.1-0.5,0.6-0.8,1.1-0.7c0.4,0.1,0.5,0.1,0.8,0.3
		c0.2,0.1,0.4,0.3,0.6,0.4c0.4,0.3,0.7,0.8,0.9,1.2c0.2,0.5,0.3,0.9,0.3,1.3c0,0.2,0,0.4,0,0.7c0,0.3,0,0.5-0.2,0.8
		c-0.1,0.3-0.3,0.5-0.5,0.8c-0.2,0.2-0.5,0.4-0.8,0.5c-0.5,0.2-1,0.2-1.4,0.2c-0.9-0.1-1.6-0.3-2.3-0.6l0,0
		c-0.5-0.2-0.7-0.8-0.5-1.3c0.2-0.5,0.7-0.7,1.2-0.6c0.4,0.2,0.7,0.3,1,0.5c0.3,0.2,0.5,0.5,0.8,0.8c0.4,0.7,0.5,1.5,0.4,2.2
		l-0.1,0.5c-0.1,0.2-0.1,0.4-0.2,0.6c-0.1,0.2-0.3,0.4-0.4,0.6c-0.2,0.2-0.4,0.3-0.7,0.4c-1,0.3-1.5,0-2.1-0.1c-1.1-0.3-2-0.7-3-1.1
		c-1-0.3-1.9-0.6-2.9-0.8c-0.8-0.1-1.7,0.1-2.5,0.4c-0.9,0.3-1.7,0.9-2.6,1.4c-1.7,1.1-3.3,2.5-4.9,3.8c-0.8,0.7-1.7,1.3-2.6,1.9
		l-0.7,0.4c-0.3,0.1-0.5,0.2-0.8,0.3l-1.5,0.5c-1,0.4-2.1,0.5-3.1,0.7c-0.5,0.1-1.1,0.1-1.6,0.1c-0.5,0-1.1,0-1.6-0.1
		c-2.2-0.2-4.2-1.3-5.7-2.9C25.5,141.3,24.7,139.3,24.4,137.3z"/>
</g>
<path class="st10" d="M61.4,78.9c0,0,18.2,14.6,22.1,16.1s22.1-7.8,35.1-5.7c0,0-24.1,14.3-35.1,12.3S62.3,89.4,61.4,78.9z"/>
<g>
	<path class="st9" d="M103,193c-2.9,1-6.1,1.3-9.2,1.4c-3.1,0.1-6.2-0.3-9.3-0.8c-3-0.7-6.1-1.5-8.9-2.6c-1.5-0.5-2.8-1.3-4.2-1.9
		c-1.4-0.7-2.7-1.5-4-2.3c1.5,0.4,2.9,1,4.4,1.4l2.2,0.7l1.1,0.4l1.1,0.3c0.7,0.2,1.5,0.4,2.2,0.6c0.7,0.2,1.5,0.4,2.2,0.5
		c1.5,0.4,2.9,0.7,4.4,1c3,0.6,5.9,1,9,1.2C96.9,193.1,99.9,193.2,103,193z"/>
</g>
<circle class="st11" cx="88.6" cy="61.3" r="5.9"/>
</svg>
