<?xml version="1.0" encoding="utf-8"?>
<!-- Generator: Adobe Illustrator 21.1.0, SVG Export Plug-In . SVG Version: 6.00 Build 0)  -->
<svg version="1.0" id="Layer_2" xmlns="http://www.w3.org/2000/svg" xmlns:xlink="http://www.w3.org/1999/xlink" x="0px" y="0px"
	 viewBox="0 0 600 400" style="enable-background:new 0 0 600 400;" xml:space="preserve">
<style type="text/css">
	.st0{fill:#D44368;}
	.st1{fill:#7F2361;}
	.st2{fill:#3C2745;}
	.st3{fill:#5B1159;}
	.st4{fill:none;stroke:#2C2942;stroke-width:2;stroke-linecap:round;stroke-linejoin:round;stroke-miterlimit:10;}
	.st5{fill:none;stroke:#AF286F;stroke-width:2;stroke-linecap:round;stroke-linejoin:round;stroke-miterlimit:10;}
	.st6{fill:none;stroke:#0C1C15;stroke-width:2;stroke-linecap:round;stroke-linejoin:round;stroke-miterlimit:10;}
	.st7{fill:#7F2361;stroke:#5B1159;stroke-width:2;stroke-linecap:round;stroke-linejoin:round;stroke-miterlimit:10;}
	.st8{fill:#413C57;stroke:#2C2942;stroke-width:2;stroke-linecap:round;stroke-linejoin:round;stroke-miterlimit:10;}
</style>
<path class="st0" d="M432.5,158.6c0,0-28.5-102.7-79.4-107.8S173.7,79.2,181.4,172.4c7.8,93.2,56.9,147.5,97.5,156.2
	c40.5,8.6,194.1,12.9,144.9-122.5l-10.4,30.2l-19-45l-5.2,56.3l-19.8-14.7l-14.7,31.9l-9.5-17.3l-4.3,16.4l-19.8-27.6l-5.2,36.2
	c0,0-67.6-21.6-44.5-122.5l17.8,45.7l6-45.7l23.3,31.9l-0.9-27.6l47.1,36.9l-14.3-41.2l39.7,24.2l-14.7-46.6L432.5,158.6z"/>
<path class="st0" d="M377.3,488.1c-2.6-0.9-31.9,0-31.9,0l-4.3-157l36.2-7.1c0,0-27.6,128.7-18.1,142.5
	C368.7,480.4,377.3,488.1,377.3,488.1z"/>
<path class="st0" d="M299.6,324.2c0,0-18.1,137.4,0,152c0,0,5.7,6.7,11.6,10.2c0.9,0.5,0.5,1.9-0.5,1.9h-42.8l3.8-170.8L299.6,324.2
	z"/>
<path class="st1" d="M431.8,270.2c0,0,39.3,55,64.4,42.1c12.9-4.3,10.4-69,10.4-69l63.8-18.1c0,0-27.6-17.3-65.6,0
	c0,0,6.4-21.6-3.8-20.7c0,0-4.8,48.3-7.4,65.6s-7.4,63.7-62.8-39.3L431.8,270.2z"/>
<path class="st1" d="M218.5,257.9c2.9,0.2,3.6,4.1,0.9,5.2c-21.2,7.9-63.5,26.6-51.6,45.6c5.2,8.6,69-19.8,88.9-12.9
	s-12.1,52.6-12.1,52.6l-13.8,9.5l-7.8-9.5l6.9-20.7c0,0-17.9,12.9-15.5,1.7c2.6-11.2,27.1-20.9,27.1-20.9s-88.3,33.8-98.7,19.2
	C133,314,158.2,255.5,218.5,257.9z"/>
<path class="st1" d="M225.4,243.1c-7.9-4-132.9-60.4-145.8-56.1c0,0-19,28.5-22.4,21.6c-3.5-6.9,8.6-17.4,8.6-17.4
	s-30.2,14.8-31.1,7.9c-0.9-6.9,20.7-12.3,20.7-12.3s-22.4,9.3-20.7,0c1.7-9.3,27.6-7.6,27.6-7.6s-30.5-9.5-27.8-17.3
	c2.8-7.8,27.8,6.9,27.8,6.9s-5.2-14.7,0-15.5c5.2-0.9,16.4,19.8,16.4,19.8s122.5,30.9,144.9,54.9c1.2,1.2,2.4,2.4,3.6,3.6
	C235.5,239,232.7,246.7,225.4,243.1z"/>
<path class="st2" d="M277.4,241.4c0,0,0.5-30.2,20.4-29.3c19.8,0.9,25.9,7.8,31.1-9.5s13.8,6,21.6,0c7.8-6,14.7-6,14.7-6
	s-15.5,23.3-27.6,9.5c0,0,6.4,19-10.4,18.6c-16.7-0.3-25.4-11.7-31.1-0.3c-5.7,11.6-10.4,27.8-10.4,27.8L277.4,241.4z"/>
<path class="st1" d="M425.6,211l101.8-49.4c0,0-3.5-29,0-29.3s9,12.1,8.6,17.6c0,0,17.3-15.9,25-14.7c7.8,1.2-7.8,18.1-7.8,18.1
	s16.4-11.6,20.4-8.1c4,3.5-15.2,14.1-15.2,14.1s12.1-2.1,12.1,3.5s-20.4,4.8-20.4,4.8s11.7,6.9,10.4,10.7
	c-1.4,3.8-27.3-6.9-27.3-6.9L428,239.1L425.6,211z"/>
<g>
	<path class="st3" d="M418.7,207.6c16.7-8.6,33.6-16.9,50.6-25.4l50.7-25l-0.7,1.4c-0.5-4.1-0.9-8.5-1.2-12.6
		c-0.3-4.3-0.5-8.5-0.3-12.8c0.2-1,0.2-2.2,0.7-3.5c0.2-0.3,0.3-0.7,0.5-1c0.2-0.2,0.3-0.5,0.7-0.7c0.2-0.2,0.3-0.2,0.5-0.2
		c0.2,0,0.3,0,0.5,0c1,0,1.7,0.5,2.4,0.9c2.1,1.7,3.1,3.6,4.1,5.5c1,1.9,1.9,4,2.4,6c0.7,2.1,1.2,4.3,1,6.7l-2.6-1.2
		c3.3-2.9,6.7-5.7,10.2-8.3c3.6-2.6,7.2-5,11.9-6.4c1.2-0.3,2.4-0.5,3.8-0.3c0.7,0,1.4,0.2,2.2,0.7c0.9,0.5,1.4,1.4,1.6,2.2
		c0.3,1.7-0.2,2.9-0.5,4.1c-0.5,1.2-1,2.1-1.6,3.1c-2.4,4-5.2,7.2-8.1,10.5l-2.2-2.9c3.1-2.2,6.4-4.1,9.7-6c1.7-0.9,3.5-1.7,5.3-2.4
		c1-0.3,1.9-0.7,3.1-0.7c1-0.2,2.4-0.2,3.8,0.7c0.7,0.3,1.4,1.4,1.6,2.4c0.2,1-0.2,1.7-0.5,2.2c-0.5,1.2-1.2,1.9-2.1,2.6
		c-1.4,1.4-2.9,2.6-4.5,3.8c-3.1,2.2-6.2,4.3-9.5,6.2l-1-3.1c1.6-0.3,3.1-0.3,4.7-0.3c1.6,0,3.3,0,5,0.5c0.9,0.2,1.7,0.7,2.6,1.2
		c0.9,0.7,1.6,1.7,1.7,2.9c0,0.3,0,0.5,0,0.9s0,0.7-0.2,1c-0.2,0.7-0.5,1.2-0.9,1.6c-0.7,0.9-1.6,1.2-2.4,1.7
		c-3.1,1.4-6.2,1.6-9.3,1.9c-3.1,0.2-6,0.2-9.1,0.2l0.9-2.9c3.3,2.1,6.4,4.1,9.1,7.1c0.7,0.7,1.4,1.6,1.7,2.8
		c0.2,0.5,0.3,1.2,0.3,2.1c0,0.2,0,0.3-0.2,0.5c-0.2,0.3-0.2,0.5-0.5,0.9c-0.3,0.5-0.9,0.7-1.2,0.9c-1.4,0.3-2.4,0.2-3.5,0.2
		c-1-0.2-1.9-0.3-2.9-0.5c-3.8-0.9-7.2-2.1-10.7-3.3c-3.5-1.2-6.9-2.6-10.4-4l1.4-0.2l-51.2,33.5l-25.7,16.6l-25.7,16.6l25.2-17.3
		l25.2-17.3l50.6-34.3c0.3-0.3,0.9-0.3,1.2-0.2l0,0c3.5,1.4,6.9,2.6,10.4,3.8c3.5,1.2,6.9,2.2,10.5,3.1c0.9,0.2,1.7,0.3,2.6,0.5
		c0.9,0.2,1.7,0.2,2.1,0l0,0l-0.2,0.2l0,0c0-0.2,0-0.3-0.2-0.7c-0.2-0.5-0.7-1.2-1.2-1.9c-2.2-2.4-5.3-4.7-8.3-6.4
		c-0.7-0.5-1-1.4-0.5-2.1c0.3-0.5,0.9-0.7,1.4-0.7c2.9,0,5.9,0,8.8-0.2c2.9-0.2,5.9-0.7,8.3-1.6c0.5-0.2,1-0.5,1.4-0.9
		c0.2-0.2,0.2-0.2,0.2-0.3v-0.2v-0.3c0-0.3-0.2-0.5-0.5-0.9c-0.3-0.3-0.9-0.5-1.4-0.7c-2.4-0.7-5.5-0.3-8.3,0l0,0
		c-0.9,0.2-1.7-0.5-1.9-1.4c-0.2-0.7,0.2-1.4,0.9-1.7c3.1-1.9,6.2-3.8,9.1-6c1.4-1,2.9-2.2,4-3.5c0.5-0.5,1-1.2,1.4-1.7
		c0.2-0.2,0.2-0.5,0.2-0.3c0,0.2,0.2,0.2,0,0.2c-0.2-0.2-0.9-0.2-1.6-0.2c-0.7,0.2-1.6,0.3-2.4,0.5c-1.6,0.5-3.3,1.4-4.8,2.1
		c-3.3,1.7-6.4,3.6-9.3,5.7c-0.7,0.5-1.7,0.3-2.4-0.3c-0.5-0.7-0.3-1.6,0.2-2.1c2.8-3.1,5.5-6.6,7.8-10c0.5-0.9,1-1.7,1.4-2.6
		s0.5-1.7,0.5-2.2c0-0.2,0-0.2-0.2-0.3c-0.2,0-0.5-0.2-0.9-0.2c-0.7,0-1.7,0-2.6,0.3c-3.8,1-7.4,3.5-10.9,5.9
		c-3.5,2.4-6.7,5.2-10,8.1c-0.7,0.5-1.6,0.5-2.2-0.2c-0.3-0.3-0.3-0.7-0.3-1.2c0.2-1.7-0.3-3.8-0.9-5.7s-1.4-3.8-2.2-5.5
		c-0.9-1.7-2.1-3.6-3.3-4.5c-0.3-0.2-0.5-0.3-0.5-0.3l0,0c0.2,0,0.2,0,0.2,0c0.2,0,0.2-0.2,0.2-0.2s0,0.2-0.2,0.3
		c-0.2,0.7-0.3,1.7-0.5,2.8c-0.3,4,0,8.3,0.2,12.4c0.2,4.1,0.7,8.3,1,12.6l0,0c0,0.5-0.2,1-0.7,1.2L470,183.8
		C452.9,191.5,435.8,199.6,418.7,207.6z"/>
</g>
<g>
	<path class="st3" d="M426.6,266.7c4,5.3,8.3,10.5,12.8,15.5s9.1,9.8,14.3,14.1c5,4.3,10.5,8.3,16.6,10.9c3.1,1.2,6.2,2.2,9.5,2.4
		c3.3,0.2,6.4-0.3,9.3-1.9h0.2l0,0c1-0.3,2.1-1.4,2.8-2.4c0.7-1.2,1.4-2.4,1.9-3.8c1-2.8,1.7-5.5,2.2-8.5c1-5.9,1.6-11.7,2.1-17.6
		c0.3-5.9,0.5-11.9,0.5-17.8s0-11.9-0.2-17.8c0-0.7,0.5-1.4,1-1.6l63.8-18.3l-0.3,2.9c-4.7-2.6-10-4.5-15.4-5.7
		c-5.3-1.2-10.9-1.7-16.4-1.7c-5.5,0-11,0.7-16.4,2.1c-5.3,1.2-10.7,3.1-15.7,5.3c-0.9,0.3-1.7,0-2.1-0.9c-0.2-0.3-0.2-0.7,0-1
		c0.5-1.9,1-3.8,1.2-5.7c0.3-1.9,0.5-3.8,0.7-5.7c0-1.9-0.2-3.8-0.7-5.3c-0.7-1.6-1.6-2.1-3.3-1.9l1.4-1.4c-1.6,15-3.1,29.9-5,44.9
		c-0.9,7.4-1.9,15-3.1,22.4c-0.5,3.8-1.2,7.4-2.1,11.2c-1,3.6-2.2,7.4-5,10.5c-1.4,1.6-3.5,2.8-5.5,2.9c-2.2,0.2-4.1-0.5-5.9-1.4
		c-3.5-1.9-6.4-4.5-9-7.2c-5.2-5.5-9.7-11.7-13.8-17.9c-8.3-12.6-15.5-25.7-22.4-39.2c7.4,13.1,15,26.1,23.5,38.5
		c4.3,6.2,8.8,12.1,14,17.4c2.6,2.6,5.3,5.2,8.6,6.7c1.6,0.7,3.3,1.4,4.8,1.2c1.6-0.2,3.1-1,4.1-2.2c2.2-2.6,3.5-6.2,4.3-9.7
		c0.9-3.6,1.4-7.2,1.9-11c1-7.4,1.9-14.8,2.8-22.3c1.6-15,3.3-29.9,4.7-44.9c0-0.7,0.7-1.4,1.4-1.4c1.2-0.2,2.6,0,3.8,0.7
		c1.2,0.7,2.1,1.9,2.6,2.9c0.9,2.2,1,4.5,1,6.6s-0.3,4.1-0.7,6.2c-0.3,2.1-0.9,4-1.4,6l-2.2-1.9c5.2-2.4,10.7-4.3,16.4-5.7
		c5.7-1.4,11.4-2.1,17.3-2.2c5.9-0.2,11.6,0.5,17.3,1.7c5.7,1.4,11,3.1,16.4,6.2c0.9,0.5,1,1.4,0.5,2.2c-0.2,0.3-0.5,0.7-1,0.7l0,0
		l-63.8,17.9l1-1.6c0.3,12.1,0.2,24-0.7,35.9c-0.5,6-1,11.9-2.2,17.9c-0.7,2.9-1.4,5.9-2.4,8.8c-0.5,1.4-1.2,2.9-2.1,4.1
		c-0.9,1.4-2.1,2.6-4,3.3h0.2c-3.1,1.6-6.7,2.2-10.4,1.9c-3.5-0.3-6.9-1.4-10-2.8c-6.2-2.9-11.7-7.1-16.7-11.6
		c-5-4.5-9.7-9.5-14-14.5C434.6,277.6,430.4,272.3,426.6,266.7z"/>
</g>
<path class="st4" d="M273.9,239.7c0,0,0.5-30.2,20.4-29.3s25.9,7.8,31.1-9.5s13.8,6,21.6,0c7.8-6,14.7-6,14.7-6s-15.5,23.3-27.6,9.5
	c0,0,6.4,19-10.4,18.6c-16.7-0.3-25.4-11.7-31.1-0.3c-5.7,11.6-10.4,27.8-10.4,27.8L273.9,239.7z"/>
<path class="st5" d="M292.2,327.3c53,6.2,169.4-1.2,124.6-124.6l-10.4,30.2l-19-45l-5.2,56.3l-19.8-14.7l-14.7,31.9l-9.5-17.3
	l-4.3,16.4l-19.8-27.6l-5.2,36.2c0,0-67.6-21.6-44.5-122.5l17.8,45.7l6-45.7l23.3,31.9l-0.9-27.6l47.1,36.9l-14.3-41.2l39.7,24.2
	l-14.7-46.6l56.9,31.1c0,0-28.5-102.7-79.4-107.8S166.6,75.9,174.4,169.1c1,12.1,2.8,23.6,5,34.5"/>
<path class="st6" d="M256.2,319.5"/>
<path class="st5" d="M202.7,265.7c5.2,9,10.7,16.9,16.6,24"/>
<path class="st5" d="M186.1,227.9c2.6,8.1,5.5,15.5,8.8,22.6"/>
<path class="st5" d="M370.4,322.5c0,0-27.6,127-18.1,140.8c9.5,13.8,18.1,21.6,18.1,21.6c-2.6-0.9-31.9,0-31.9,0l-4.3-157"/>
<path class="st5" d="M292.7,320.8c0,0-18.1,137.4,0,152c0,0,10,9.8,17.3,12.1h-49.2l3.8-170.8"/>
<g>
	<path class="st3" d="M217.5,257.9c-9.1,3.5-17.9,7.1-26.7,11.4c-8.6,4.3-17.1,9.3-24,15.9c-1.7,1.7-3.3,3.5-4.5,5.3
		c-1.2,1.9-2.2,4.1-2.4,6.4c-0.3,2.2,0.2,4.5,1,6.6c0.3,0.5,0.5,1,0.9,1.4c0.2,0.3,0.5,0.5,1,0.7c1,0.3,2.1,0.3,3.3,0.3
		c4.7-0.2,9.5-1.4,14.1-2.4c4.7-1.2,9.3-2.4,14-3.8c9.3-2.6,18.6-5.3,28.1-7.4c4.8-1,9.7-1.9,14.5-2.4c2.4-0.2,5-0.3,7.4-0.2
		c2.6,0.2,5.2,0.5,7.6,1.9c0.7,0.3,1.2,0.7,1.7,1.2s1,1,1.6,1.6c0.9,1.2,1.6,2.4,1.9,3.8c0.7,2.6,0.7,5.3,0.3,7.8
		c-0.7,5-2.4,9.8-4.3,14.3c-4,9-8.8,17.4-14.3,25.7c-0.2,0.2-0.2,0.3-0.3,0.3l0,0l-13.8,9.5c-0.7,0.5-1.7,0.3-2.2-0.3l-7.8-9.5
		c-0.3-0.5-0.5-1-0.3-1.6l6.9-20.7l2.6,1.9c-2.1,1.4-4,2.6-6,3.8c-2.2,1-4.3,2.2-7.1,2.8c-0.7,0-1.6,0.2-2.4-0.2
		c-0.9-0.2-1.9-1-2.2-2.1c-0.3-0.9-0.3-1.7-0.3-2.4c0-0.7,0.2-1.4,0.3-2.1c0.7-2.8,2.2-4.8,3.8-6.7c3.5-3.6,7.4-6.4,11.4-8.8
		c4.1-2.4,8.3-4.5,12.8-6.2l1.2,2.9c-17.6,6.6-35.4,12.4-53.7,17.1c-9.1,2.2-18.3,4.3-27.8,5.2c-2.4,0.2-4.8,0.3-7.2,0.2
		c-2.4-0.2-4.8-0.3-7.2-1.2c-1.2-0.3-2.4-1-3.5-1.9c-1-1-1.7-2.2-2.2-3.5c-0.9-2.4-1.2-5-1-7.4c0.2-4.8,1.6-9.5,3.3-14
		c1.7-4.5,4-8.6,6.6-12.6c5.2-7.9,11.7-14.8,19.5-20.4c3.8-2.8,7.9-5.2,12.3-7.1c4.3-1.9,8.8-3.6,13.3-4.7c9.1-2.2,18.6-2.8,28-1.9
		c-9.3-0.5-18.8,0.2-27.8,2.6c-9,2.4-17.4,6.6-24.8,12.1c-3.8,2.8-7.1,5.9-10.4,9.3c-3.1,3.5-6,7.1-8.5,11c-2.4,4-4.7,8.1-6.2,12.3
		c-1.6,4.3-2.8,8.8-2.9,13.3c-0.2,2.2,0.2,4.5,0.9,6.4c0.3,1,0.9,1.9,1.6,2.4c0.7,0.7,1.6,1,2.6,1.4c2.1,0.7,4.3,0.9,6.6,0.9
		s4.5-0.2,6.9-0.3c9.1-1,18.3-3.1,27.3-5.3c17.9-4.8,35.7-10.7,53.1-17.3c0.9-0.3,1.7,0.2,2.1,0.9c0.3,0.9-0.2,1.7-0.9,2.1l0,0
		c-4.1,1.7-8.3,3.8-12.3,6c-4,2.4-7.6,5-10.7,8.3c-1.4,1.7-2.6,3.5-3.1,5.3c-0.2,0.9-0.3,2.1-0.2,2.4c0.2,0.2,0,0.2,0.2,0.2
		s0.5,0,1,0c1.9-0.3,4-1.4,5.9-2.4c1.9-1,4-2.2,5.7-3.6l0,0c0.9-0.5,1.9-0.3,2.4,0.3c0.3,0.5,0.3,1,0.2,1.6l-6.9,20.7l-0.3-1.6
		l7.8,9.5l-2.2-0.3L236,343l-0.3,0.3c5.3-7.9,10.4-16.2,14.1-25c1.9-4.3,3.5-9,4.1-13.5c0.3-2.2,0.3-4.5-0.3-6.6
		c-0.5-2.1-1.7-3.6-3.6-4.7c-1.7-1-4.1-1.4-6.4-1.6c-2.2-0.2-4.7,0-7.1,0.2c-4.7,0.3-9.5,1.2-14.1,2.1c-9.5,1.9-18.8,4.5-28.1,6.9
		c-4.7,1.2-9.3,2.4-14.1,3.6c-4.8,1-9.5,2.2-14.5,2.2c-1.2,0-2.6,0-4-0.5c-0.7-0.2-1.4-0.7-1.9-1.4s-0.7-1.2-1-1.7
		c-1-2.2-1.6-5-1.2-7.6c0.3-2.6,1.6-5,2.9-7.1c1.4-2.1,3.1-4,4.8-5.5c7.2-6.6,16-11.2,24.7-15.5
		C199.2,264.5,208.4,261.1,217.5,257.9z"/>
</g>
<g>
	<path class="st3" d="M218.5,239.7l-36.1-15.5c-12.1-5.2-24.2-10-36.2-15c-12.1-5-24.2-9.7-36.4-14.3c-6-2.2-12.3-4.5-18.5-6.4
		c-3.1-1-6.2-1.9-9.3-2.6c-1.6-0.3-3.1-0.7-4.7-1c-1.6-0.2-3.3-0.3-4.1-0.2l0.7-0.5c-2.6,3.8-5.2,7.4-7.9,11
		c-2.8,3.6-5.7,7.1-9.3,10.2c-1,0.7-1.9,1.6-3.3,1.9c-0.7,0.2-1.7,0.3-2.8,0c-1-0.5-1.6-1.4-1.7-2.1c-1-2.8-0.5-5.5,0.5-7.8
		c1-2.2,2.4-4.1,3.8-6c1.6-1.9,3.1-3.5,4.8-5l1.7,2.6c-4.5,2.2-9,4.1-13.6,6c-2.2,0.9-4.7,1.7-7.1,2.4c-2.4,0.7-4.8,1.4-7.6,1.6
		c-0.7,0-1.6,0-2.2-0.3c-1.2,0-2.2-0.5-2.8-1.7c-0.7-2.1,0.2-3.8,1-5c1.9-2.4,4.1-3.6,6.4-4.8c4.7-2.2,9.3-3.8,14.1-5.2
		c0.9-0.2,1.7,0.3,2.1,1.2c0.2,0.9-0.2,1.7-1,2.1c-4.3,1.7-8.6,3.1-13.5,4c-1.2,0.2-2.4,0.3-3.6,0.3c-1.2,0-2.8-0.2-4.1-1
		c-0.7-0.5-1.4-1.4-1.7-2.2c0-0.7-0.2-1-0.2-1.6c0-0.3,0-0.9,0-1.2c0.2-1.6,0.9-2.9,1.9-4c2.1-2.1,4.5-2.9,6.7-3.6
		c2.2-0.7,4.7-1,6.9-1.4c4.7-0.5,9.3-0.5,14-0.3l-0.7,3.3c-5.2-1.7-10.4-3.6-15.4-5.9c-2.4-1.2-5-2.4-7.2-4
		c-1.2-0.9-2.4-1.6-3.5-2.6c-1-1-2.2-2.2-2.8-4.1c-0.5-1.9,0.3-4.3,2.1-5.3c1.7-0.9,3.5-0.9,4.8-0.7c2.9,0.3,5.7,1.2,8.3,2.2
		c5.2,2.1,10,4.5,14.8,7.2l-2.2,1.9c-1.2-3.6-2.1-7.1-2.4-11c0-1,0-2.1,0.2-3.1c0.2-1,0.9-2.4,2.4-3.1c0.3-0.2,0.7-0.2,1-0.3
		c0.3,0,0.9,0,1,0c0.7,0.2,1.2,0.3,1.7,0.7c1,0.5,1.7,1.2,2.4,1.9c2.8,2.8,4.8,5.7,6.9,8.8s3.8,6.2,5.5,9.3l-0.9-0.7
		c12.8,3.3,25.5,6.9,38.1,10.7c12.6,3.8,25.2,7.9,37.6,12.3c12.4,4.5,24.7,9.3,36.8,14.8c6,2.8,11.9,5.7,17.6,9
		c5.7,3.3,11.2,7.1,16.2,11.4c-5-4.3-10.7-7.8-16.4-10.9c-5.7-3.3-11.7-6-17.8-8.6c-12.1-5.3-24.5-9.8-36.9-14
		c-12.4-4.3-25-8.1-37.8-11.7c-12.6-3.6-25.4-7.1-38.1-10.2c-0.3-0.2-0.7-0.3-0.9-0.7l0,0c-1.7-3.1-3.6-6.2-5.5-9.1
		c-1.9-2.9-4.1-5.9-6.6-8.1c-0.7-0.5-1.2-1-1.9-1.4c-0.3-0.2-0.5-0.3-0.9-0.3c-0.2,0-0.2,0-0.2,0H55c-0.2,0-0.5,0.5-0.7,1
		c-0.2,0.7-0.2,1.4-0.2,2.2c0.2,3.3,1.2,6.7,2.2,10c0.3,0.9-0.2,1.7-1,1.9c-0.3,0.2-0.9,0-1.2-0.2c-4.7-2.6-9.5-5-14.3-6.9
		c-2.4-0.9-5-1.7-7.4-1.9c-1.2-0.2-2.4,0-2.9,0.3c-0.5,0.3-0.9,1-0.7,1.7s0.9,1.7,1.9,2.6c0.9,0.9,1.9,1.6,2.9,2.2
		c2.2,1.4,4.5,2.6,6.9,3.8c4.8,2.2,9.8,4.1,15,5.7c0.9,0.3,1.4,1.2,1,2.1c-0.2,0.7-0.9,1.2-1.7,1.2l0,0c-4.3-0.2-9-0.2-13.3,0.3
		c-2.2,0.2-4.3,0.7-6.4,1.2c-2.1,0.5-4,1.6-5.2,2.8c-1.2,1-1.4,3.3-0.7,3.5c0.3,0.3,1.4,0.5,2.2,0.5c1,0,2.1,0,3.1-0.2
		c4.3-0.7,8.6-2.1,12.6-3.8l1,3.1c-4.7,1.2-9.3,2.8-13.5,4.8c-2.1,1-4.1,2.2-5.3,3.8c-0.3,0.3-0.5,0.7-0.5,1c0,0.3,0,0.7,0,0.7
		s0,0,0.3,0.2c0.3,0.2,0.9,0.2,1.4,0.2c2.1,0,4.5-0.7,6.7-1.4c2.2-0.7,4.7-1.6,6.9-2.4c4.5-1.7,9-3.8,13.5-5.9
		c0.7-0.3,1.7,0,2.1,0.7c0.3,0.7,0.2,1.4-0.3,1.7l0,0c-3.1,2.9-6.2,6.2-7.9,10c-0.9,1.9-1.2,3.8-0.5,5.3c0.2,0.5,0.3,0.5,0.3,0.5
		s0.2,0,0.5,0c0.7-0.2,1.6-0.9,2.4-1.4c3.3-2.6,6.2-6.2,9-9.7s5.3-7.1,7.9-10.7v-0.2c0.2-0.2,0.3-0.3,0.7-0.5c2.2-0.5,3.8-0.2,5.5,0
		c1.7,0.3,3.3,0.7,4.8,1c3.3,0.9,6.4,1.7,9.5,2.8c6.2,2.1,12.4,4.3,18.5,6.7c12.3,4.7,24.3,9.7,36.4,14.7
		c12.1,5.2,24,10.4,35.9,15.7C194.9,228.8,206.6,234.1,218.5,239.7z"/>
</g>
<path class="st4" d="M226.3,120.6c0,0-95.8-162.2-150.1,4.3"/>
<path class="st4" d="M294.5,68c0,0-138-127.7-143.2,71.6"/>
<g>
	<path class="st3" d="M245.3,304.5c-2.1,1.4-4,2.9-5.2,4.7c-1.4,1.7-2.1,3.8-2.4,5.9c-0.3,2.1,0,4.3,0.5,6.6l1,3.3
		c0.5,1,0.9,2.2,1.2,3.3l0.2,0.3c0.2,0.3,0,0.5,0,0.9c-0.7,1.4-1.4,2.6-2.2,3.8c-0.7,1.2-1.6,2.4-2.4,3.6c0.2-1.6,0.7-2.9,1-4.3
		c0.3-1.4,0.9-2.8,1.2-4.1v1c-0.7-1-1.2-2.2-1.9-3.3c-0.5-1.2-1-2.4-1.4-3.6c-0.7-2.6-1-5.2-0.5-7.9c0.3-1.4,0.7-2.6,1.4-3.8
		c0.7-1.2,1.6-2.2,2.6-3.1C240.5,305.9,242.9,304.7,245.3,304.5z"/>
</g>
<g>
	<path class="st3" d="M495.8,227.6c1.7-2.2,4.7-3.6,7.6-3.8c1.6,0,3.1,0.2,4.5,0.5c0.7,0.2,1.4,0.5,2.1,0.9c0.7,0.3,1.4,0.7,1.9,1.2
		l-1.2-0.3c2.8-0.5,5.5-1,8.5-1.6c2.8-0.3,5.7-0.9,8.5-1.2c2.8-0.3,5.7-0.5,8.5-0.9c2.9-0.2,5.7-0.3,8.6-0.2
		c-2.8,0.9-5.5,1.7-8.3,2.2c-2.8,0.7-5.5,1.2-8.3,1.7c-2.8,0.5-5.7,1-8.5,1.4s-5.7,0.9-8.5,1l0,0c-0.3,0-0.7,0-1-0.3
		c-1-0.7-2.1-1.4-3.3-2.1c-1.2-0.5-2.4-0.9-3.6-1s-2.6,0-3.8,0.2C498.4,226.4,497,226.9,495.8,227.6z"/>
</g>
<circle class="st7" cx="77.4" cy="134.1" r="12.4"/>
<circle class="st7" cx="151.2" cy="149.9" r="12.4"/>
<ellipse transform="matrix(0.9324 -0.3615 0.3615 0.9324 -26.4833 108.2756)" class="st8" cx="276.2" cy="124.9" rx="4.7" ry="14.7"/>
<ellipse transform="matrix(0.8253 -0.5648 0.5648 0.8253 -6.866 198.8941)" class="st8" cx="318" cy="110.5" rx="4.7" ry="14.7"/>
</svg>
