<?xml version="1.0" encoding="utf-8"?>
<!-- Generator: Adobe Illustrator 21.1.0, SVG Export Plug-In . SVG Version: 6.00 Build 0)  -->
<svg version="1.0" id="Layer_2" xmlns="http://www.w3.org/2000/svg" xmlns:xlink="http://www.w3.org/1999/xlink" x="0px" y="0px"
	 viewBox="0 0 600 400" style="enable-background:new 0 0 600 400;" xml:space="preserve">
<style type="text/css">
	.st0{fill:#8B9ECC;}
	.st1{fill:#413C57;}
	.st2{fill:#413C57;stroke:#413C57;stroke-width:2;stroke-linecap:round;stroke-linejoin:round;stroke-miterlimit:10;}
	.st3{fill:none;stroke:#6D6DB2;stroke-width:2;stroke-linecap:round;stroke-linejoin:round;stroke-miterlimit:10;}
	.st4{fill:none;stroke:#2C2942;stroke-width:2;stroke-linecap:round;stroke-linejoin:round;stroke-miterlimit:10;}
	.st5{fill:none;stroke:#0C1C15;stroke-width:2;stroke-linecap:round;stroke-linejoin:round;stroke-miterlimit:10;}
	.st6{fill:#6D6DB2;}
</style>
<path class="st0" d="M90.3,459l428.5-14.4c0,0,12.3-83.7-35.1-79.5c0,0-7.2-121.9-142.6-124c-135.4-2.1-214.7,45.4-216.8,149.8
	C124.4,390.8,74.8,400.1,90.3,459z"/>
<path class="st1" d="M407.2,254.4c0,0,62.2-26.7,48.8-99.1c0,0,52.1,34.9,86.7,32c0,0-73.3,5-41.3,53.6c0,0-42.4-26.6-44.5,18.3
	C456.9,259.4,449.2,236.6,407.2,254.4z"/>
<path class="st1" d="M189.5,272c0,0-60-25.6-57.9-85.6c0,0-25.8,29.9-61,15.5c0,0,52.6,17.6,44.5,49.6c0,0,33.1-27.2,34.1,20.5
	C149.2,272,155.5,256.3,189.5,272z"/>
<path d="M235,327.1c0,0-41.6,19.7-27,27.8C222.5,363.1,253.6,334.3,235,327.1z"/>
<path d="M327.3,307.7c0,0,56.3,7.5,48.5,22.7C368.1,345.7,312.8,324.2,327.3,307.7z"/>
<path class="st2" d="M519,444.6c-18.6-13.4-35.2-26.6-63.3-13.9c-28.1,12.7-31.7-1.1-55.4,3.5c-23.7,4.7-34.6-8.7-73.3-2.1
	c-38.7,6.7-39.1,23.7-61.4,11.4c-22.3-12.3-33.1-15-53.3-8.3c-20.1,6.7-28.8,8.3-43.8-1c-15-9.3-32.1-8.7-47.5-6.2
	c-35.5,5.7-21.5,19.8-33.5,15.5l3,15.5L519,444.6z"/>
<path class="st3" d="M78,452.9l428.5-14.4c0,0,12.3-83.7-35.1-79.5c0,0-7.2-121.9-142.6-124c-135.4-2.1-214.7,45.4-216.8,149.8
	C112.1,384.7,62.5,394,78,452.9z"/>
<path class="st4" d="M394.7,248.3c0,0,62.2-26.7,48.8-99.1c0,0,48.5,41.3,86.7,32c0,0-73.3,5-41.3,53.6c0,0-42.4-26.6-44.5,18.3
	C444.6,253.1,436.8,230.5,394.7,248.3z"/>
<path class="st5" d="M235,327.9c0,0-41.6,19.7-27,27.8C222.5,364,253.6,335.1,235,327.9z"/>
<path class="st4" d="M177.1,265.7c0,0-60-25.6-57.9-85.6c0,0-25.8,29.9-61,15.5c0,0,52.6,17.6,44.5,49.6c0,0,33.1-27.2,34.1,20.5
	C136.9,265.7,143.1,250.1,177.1,265.7z"/>
<path class="st3" d="M157.5,333.1c0,0,67.2,25.8,85.8,46.4c18.6,20.6,27.8-18.6,53.8-15.5c25.8,3,33.1,27.8,47.5,13.4
	c14.4-14.4,29-45.4,83.7-44.5"/>
<g>
	<path class="st6" d="M409.4,319.6c3.3,1.4,6.5,3,9.6,4.7c3.2,1.7,6.2,3.6,9.1,5.4c3,1.9,6,3.9,8.9,6c2.9,2.1,5.8,4.2,8.5,6.7
		c-3.3-1.4-6.5-3-9.6-4.7c-3.2-1.7-6.2-3.6-9.1-5.4c-3-1.9-6-3.9-8.9-6C415.1,324.2,412.2,322,409.4,319.6z"/>
</g>
<g>
	<path class="st6" d="M171.3,321.7c-1.7,2.2-3.5,4.3-5.3,6.4c-1.8,1.9-3.7,3.9-5.8,5.8c-1.9,1.8-4,3.6-6.2,5.3
		c-2.1,1.7-4.3,3.3-6.8,4.7c1.7-2.2,3.5-4.3,5.3-6.4c1.8-1.9,3.7-3.9,5.8-5.8c1.9-1.8,4-3.6,6.2-5.3
		C166.5,324.8,168.8,323.1,171.3,321.7z"/>
</g>
<path class="st5" d="M332,310.3c0,0,56.3,7.5,48.5,22.7C372.8,348.2,317.6,326.8,332,310.3z"/>
<g>
	<path class="st6" d="M472.5,359.8c-3,3-6.2,5.5-9.7,7.9c-3.5,2.4-7.1,4.3-10.8,6c-1.8,0.8-3.9,1.5-5.8,2.2c-1,0.3-1.9,0.6-2.9,0.8
		l-1.5,0.4l-1.5,0.3c-4,1-8.2,1.1-12.2,1.1c4-0.3,8.2-0.7,12.1-1.8l1.5-0.4l1.4-0.6c1-0.3,1.9-0.7,2.9-1c1.8-0.8,3.7-1.5,5.5-2.5
		c3.6-1.8,7.1-4,10.3-6.4c3.2-2.4,6.2-5.1,8.9-8l0,0c0.6-0.6,1.4-0.6,1.9-0.1C473,358.3,473,359.1,472.5,359.8L472.5,359.8z"/>
</g>
<g>
	<path class="st6" d="M112.9,383.6c1.1,1,2.5,1.8,3.7,2.6l2.1,1.2l2.1,1.1c2.9,1.5,5.8,2.8,8.9,3.9c6.1,2.4,12.3,4.2,18.7,5.5
		c3.2,0.8,6.4,1.2,9.6,1.9c3.2,0.6,6.5,1,9.7,1.5l9.7,1.1l9.8,0.7l-9.8-0.4l-9.8-0.7c-3.3-0.4-6.5-0.7-9.8-1.1
		c-3.2-0.6-6.5-1-9.7-1.7c-6.5-1.2-12.9-2.8-19.1-5c-3.2-1.1-6.2-2.4-9.3-3.7l-2.2-1.1l-2.2-1.2c-1.5-0.8-2.9-1.7-4.3-2.9
		c-0.6-0.4-0.7-1.4-0.1-1.9C111.4,383.2,112.2,383.1,112.9,383.6L112.9,383.6L112.9,383.6z"/>
</g>
<g>
	<path class="st6" d="M240.7,403.3c5.3,0.3,10.7,0.7,15.9,0.8c5.3,0.3,10.7,0.4,15.9,0.6c10.7,0.1,21.3,0.1,31.9-0.3
		c5.3-0.1,10.7-0.6,15.9-1c5.3-0.4,10.5-1.1,15.8-1.8c5.3-0.8,10.5-1.7,15.7-2.9c5.1-1.1,10.3-2.8,15.2-4.6
		c-9.6,4.7-20.1,7.8-30.6,9.7c-10.5,1.9-21.2,2.9-31.9,3.5c-10.7,0.4-21.5,0.3-32.1-0.3C261.9,406.1,251.2,405,240.7,403.3z"/>
</g>
</svg>
