<?xml version="1.0" encoding="utf-8"?>
<!-- Generator: Adobe Illustrator 21.1.0, SVG Export Plug-In . SVG Version: 6.00 Build 0)  -->
<svg version="1.0" id="Layer_3" xmlns="http://www.w3.org/2000/svg" xmlns:xlink="http://www.w3.org/1999/xlink" x="0px" y="0px"
	 viewBox="0 0 306.1 354.9" style="enable-background:new 0 0 306.1 354.9;" xml:space="preserve">
<style type="text/css">
	.st0{fill:#5C6096;}
	.st1{fill:#736DA7;}
	.st2{fill:#F0EFF4;}
	.st3{fill:#E7EFC5;stroke:#E7EFC5;stroke-width:2;stroke-linecap:round;stroke-linejoin:round;stroke-miterlimit:10;}
	.st4{fill:none;stroke:#57548C;stroke-width:2;stroke-linecap:round;stroke-linejoin:round;stroke-miterlimit:10;}
	.st5{fill:none;stroke:#D9D9E2;stroke-width:2;stroke-linecap:round;stroke-linejoin:round;stroke-miterlimit:10;}
	.st6{fill:#57548C;}
	.st7{fill:#E7EFC5;stroke:#D3D19C;stroke-width:2;stroke-linecap:round;stroke-linejoin:round;stroke-miterlimit:10;}
</style>
<path class="st0" d="M91.3,243.9c0,0-17.3,23.5-40.8,24c0,0,22.8,7.5,33.7,4.5"/>
<path class="st1" d="M77,28.2c0,0-8,132.2,12.5,204.2c0,15.5,1,50-33.5,60s-51,24-51,24l108-26c0,0-54.5,50-56.5,64.5
	c0,0,67.5-36,81.5-38.5s36-18.5,39-30.5c0,0,30,28,64,25c21.5-2,55.8-6.5,64.5-5.5c8.4,1-79-26.5-82.5-33s-18-37.2-13.5-62.8
	s1.5-82.8,1.5-82.8h14.5c0,0-13.5-25.4-17.5-41.9c-3.6-15-8.9-84.5-67.9-81.8c-10.6,0.5-21,3.4-30.5,8.1C96.6,17.7,77,28.2,77,28.2z
	"/>
<polygon class="st2" points="131.5,112.4 131.5,98.9 145,115.8 131.5,112.8 "/>
<polygon class="st2" points="183,121.6 198,142.5 198,122.9 "/>
<path class="st0" d="M218.1,264.1c0,0,22.4-8.3,23.4-14.3c0,0-25-2.5-31.8-11.5"/>
<path class="st3" d="M100.6,15.8c0,0,1.5,17.6-11.2,19.3C76.6,36.7,77,28.2,77,28.2L100.6,15.8z"/>
<path class="st3" d="M85.3,46.4c4.1-2.8,16.4-0.7,15.3,7.3s-5.8,23.3-11.8,18C82.8,66.4,74.7,53.7,85.3,46.4z"/>
<path class="st3" d="M113.2,35c0,0-4.7-4.7-7-1.3c-2.3,3.3-5.7,7-1.3,7.7C109.2,42,115.2,39,113.2,35z"/>
<path class="st3" d="M140.1,3.1C131.5,3,118,7.6,118,7.6S140.3,13.5,140.1,3.1z"/>
<path class="st3" d="M116.8,15c0,0,11.2-2.2,10.2,2.2s-16,6.3-15.5,2.8S116.8,15,116.8,15z"/>
<path class="st3" d="M102.7,25.1c0-2.7,3.5-3.7,5.1-1.6c0.4,0.5,0.6,1.1,0.3,1.7c-0.9,1.6-5.4,1.4-5.4,0
	C102.7,25.2,102.7,25.2,102.7,25.1z"/>
<path class="st3" d="M80.3,96.3c4.7-4.9,13.1-3.4,15.5,2.8c0.9,2.2,0.9,4.8-0.7,7.6C91,114.2,72.7,104.2,80.3,96.3z"/>
<path class="st3" d="M157.1,10l1,0.4c0.9,0.4,1.6,1.2,1.8,2.3c0.3,1.7,0.2,4-2.4,3.1c-3.2-1.1-5.3-3-3.9-4.9
	C154.4,9.8,155.9,9.5,157.1,10z"/>
<path class="st3" d="M75.5,78c0,0,4,7.8,0,9.8V78z"/>
<path class="st3" d="M78.5,152.4c3.5,3.5,1.1,24.6,1.1,24.6L78.5,152.4z"/>
<path class="st3" d="M85.3,125.7c3.9-2.9,3.8,8.8,0,8C81.5,132.9,80.1,129.6,85.3,125.7z"/>
<path class="st4" d="M73,26.2c0,0-8,132.2,12.5,204.2c0,15.5,1,50-33.5,60s-51,24-51,24l108-26c0,0-54.5,50-56.5,64.5
	c0,0,67.5-36,81.5-38.5s36-18.5,39-30.5c0,0,30,28,64,25c21.5-2,55.8-5.8,64.5-5.5c8,0.2-79-26.5-82.5-33s-18-37.2-13.5-62.8
	s1.5-82.8,1.5-82.8h14.5c0,0-13.5-25.4-17.5-41.9c-3.6-15-8.9-84.5-67.9-81.8c-10.6,0.5-21,3.4-30.5,8.1C92.6,15.7,73,26.2,73,26.2z
	"/>
<polyline class="st5" points="131.5,112.4 131.5,98.9 143.4,114.6 "/>
<polyline class="st5" points="182,121.6 197,141.5 197,123.9 "/>
<g>
	<path class="st6" d="M172.1,283.5c1.2-2.8,2.4-5.7,3.4-8.6c1-2.9,2-5.8,2.9-8.8c1.7-5.9,3.1-12,3.6-18.2
		c-0.2,6.2-1.3,12.4-2.7,18.5c-0.7,3-1.5,6-2.4,9c-0.9,3-1.9,5.9-3,8.9c-0.2,0.5-0.8,0.8-1.3,0.6
		C172.1,284.7,171.9,284.1,172.1,283.5C172.1,283.5,172.1,283.5,172.1,283.5L172.1,283.5z"/>
</g>
<path class="st4" d="M215.1,262.1c0,0,21.4-8.3,22.4-14.3c0,0-24-2.5-30.8-11.5"/>
<path class="st4" d="M85.3,241.9c0,0-15.3,23.5-38.8,24c0,0,20.8,7.5,31.7,4.5"/>
<path class="st4" d="M207,124.7c0,0-62-10.4-80-12.4c-18-2-19-14-19-14"/>
<g>
	<path class="st6" d="M98,100.4c1.2-1.4,2.9-2.2,4.6-2.8c1.7-0.5,3.6-0.7,5.4-0.6c1.8,0.1,3.6,0.5,5.3,1c0.8,0.3,1.7,0.7,2.5,1
		c0.8,0.4,1.6,0.9,2.3,1.4c-0.9-0.1-1.7-0.3-2.6-0.4c-0.9-0.1-1.7-0.3-2.5-0.4c-1.7-0.2-3.3-0.5-5-0.5c-1.7-0.1-3.3-0.1-5,0.1
		C101.3,99.4,99.6,99.7,98,100.4z"/>
</g>
<g>
	<path class="st6" d="M108.6,287.5c2-0.9,4.1-2.2,6-3.6c1.9-1.4,3.6-3.1,5-4.9c1.5-1.8,2.7-3.9,3.5-6.1c0.9-2.2,1.2-4.6,1.4-7
		c0,2.4-0.2,4.8-1,7.1c-0.7,2.3-1.8,4.6-3.2,6.6c-1.4,2-3,3.8-4.9,5.5c-1.9,1.6-3.8,3-6.1,4.2c-0.5,0.3-1.1,0.1-1.4-0.4
		c-0.3-0.5-0.1-1.1,0.4-1.4C108.5,287.5,108.5,287.5,108.6,287.5L108.6,287.5z"/>
</g>
<g>
	<path class="st6" d="M157.5,43c-1.4-2.2-3-4.3-4.7-6.2c-1.7-1.9-3.7-3.5-6-4.5c-1.1-0.5-2.3-0.8-3.5-0.8c-1.2,0-2.3,0.2-3.4,0.7
		c-0.5,0.2-1.1,0.6-1.6,0.9c-0.5,0.4-1,0.7-1.5,1.1c-1,0.8-2,1.6-3,2.5c-4,3.3-7.7,6.9-11.9,10.1c-2.1,1.6-4.3,3.1-6.6,4.3
		c-2.4,1.2-4.9,2.1-7.4,2.6c4.9-1.7,9.2-4.7,13.1-8.1c1.9-1.7,3.9-3.4,5.7-5.2c1.9-1.8,3.8-3.5,5.8-5.2c1-0.8,2-1.7,3-2.5
		c0.5-0.4,1.1-0.8,1.6-1.2c0.6-0.4,1.2-0.7,1.9-1c1.3-0.5,2.8-0.8,4.2-0.7c1.4,0.1,2.8,0.5,4.1,1.1c2.5,1.3,4.4,3.2,6,5.3
		C155.1,38.3,156.5,40.5,157.5,43z"/>
</g>
<ellipse transform="matrix(0.9903 -0.1393 0.1393 0.9903 -7.7975 19.4925)" class="st7" cx="135.4" cy="65.5" rx="4.9" ry="10.6"/>
<ellipse transform="matrix(0.995 -0.1 0.1 0.995 -5.8916 17.5908)" class="st7" cx="172.5" cy="67.5" rx="4.9" ry="10.6"/>
</svg>
