<?xml version="1.0" encoding="utf-8"?>
<!-- Generator: Adobe Illustrator 21.1.0, SVG Export Plug-In . SVG Version: 6.00 Build 0)  -->
<svg version="1.0" id="Layer_2" xmlns="http://www.w3.org/2000/svg" xmlns:xlink="http://www.w3.org/1999/xlink" x="0px" y="0px"
	 viewBox="0 0 182.1 283.6" style="enable-background:new 0 0 182.1 283.6;" xml:space="preserve">
<style type="text/css">
	.st0{fill:#413C57;}
	.st1{fill:#F0EFF4;}
	.st2{fill:#D44368;}
	.st3{fill:none;stroke:#D9D9E2;stroke-width:2;stroke-linecap:round;stroke-linejoin:round;stroke-miterlimit:10;}
	.st4{fill:none;stroke:#2C2942;stroke-width:2;stroke-linecap:round;stroke-linejoin:round;stroke-miterlimit:10;}
	.st5{fill:#2C2942;}
	.st6{fill:#C290D1;stroke:#8F76B7;stroke-width:2;stroke-linecap:round;stroke-linejoin:round;stroke-miterlimit:10;}
</style>
<path class="st0" d="M117.3,43c0,0,4.7,38-11.3,51s-75,46.3-47,148c0,0-15,20,2,25.7c17,5.7,23.7,4-3.3,12.7h28.7l-1.6-27
	c0,0,34.9,13.7,62.6,8.3v22h31.3c0,0-16-6.3-14.3-9.7c1.7-3.3,24.7-7,15.7-19c0,0-13-114.3-51.7-176.7c-4-9.3-2-35.3-2-35.3H117.3z"
	/>
<path class="st1" d="M123.8,52.9c-5.5,0.2-10.9-2.1-14.9-5.9c-8.4-8-22.4-26.5,7.9-41C152.9-11.3,153.3,52,123.8,52.9z"/>
<path class="st0" d="M57,184c0,0-13.7,4.7-13,11.5c0,0-7.7-4.2-11.7-2.5L28,182.3V193l-23,2.5l18.7,2.2L7,200l14.7,1.7l-9,5.3
	l15-2.3c0,0,14.5,16.7,23.9,12C61,212,57,184,57,184z"/>
<path class="st2" d="M60.3,146.1c0,0,45.3-23.8,74.6-23.1l-49.6,35.2l-28-4.3L60.3,146.1z"/>
<polygon class="st1" points="56.9,145.2 60.3,151.1 65.7,141.1 "/>
<polygon class="st1" points="69.1,139.2 73.3,151 82.8,133.7 "/>
<polygon class="st1" points="85.5,131.6 91,145 96.9,127.6 "/>
<polygon class="st1" points="99.5,127.6 102.5,134.3 106.2,124.7 "/>
<polygon class="st1" points="82.1,155.7 82.1,142.1 91.4,149.5 "/>
<polygon class="st3" points="56.3,144.1 59.7,150 65.1,140 "/>
<path class="st4" d="M113.9,51c0.4,11.9-0.5,31.8-11.9,41c-16,13-75,46.3-47,148c0,0-15,20,2,25.7c17,5.7,23.7,4-3.3,12.7h28.7
	l-1.6-27c0,0,34.9,13.7,62.6,8.3v22h31.3c0,0-16-6.3-14.3-9.7c1.7-3.3,24.7-7,15.7-19c0,0-13-114.3-51.7-176.7
	c-2.4-5.6-2.6-17.2-2.4-25.6"/>
<path class="st3" d="M119.8,50.9c-5.5,0.2-10.9-2.1-14.9-5.9c-8.4-8-22.4-26.5,7.9-41C148.9-13.3,149.3,50,119.8,50.9z"/>
<g>
	<path class="st5" d="M130,156.2c0,7.7,0.4,15.4,1.2,23c0.9,7.6,2.1,15.2,4.1,22.6c1,3.7,2.2,7.3,3.7,10.8c1.5,3.5,3.3,6.9,5.5,9.9
		c2.2,3,4.9,5.7,8.1,7.6c3.2,1.9,6.8,2.9,10.5,3l-0.6,1.7l-4.7-4c-0.4-0.3-0.5-1-0.1-1.4c0.2-0.2,0.5-0.3,0.8-0.3l0,0l8.7,0.3
		l-0.4,1.9l-8.7-3.7l0,0c-0.5-0.2-0.7-0.8-0.5-1.3c0.1-0.3,0.5-0.6,0.8-0.6l8.7-0.6l-0.2,1.8l-12.3-3.4l0,0
		c-0.3-0.1-0.5-0.3-0.6-0.6c-0.8-3.3-0.8-6.6-0.3-9.8c0.2-1.6,0.7-3.2,1.2-4.7c0.5-1.5,1.3-3,1.8-4.4c0.9-2.9,1.3-6,1.4-9.1
		c0.1-3.1,0-6.2-0.2-9.4c-0.3-3.1-0.8-6.2-1.5-9.3c-0.7-3-1.6-6.1-2.8-9c-1.2-2.9-2.7-5.7-4.6-8.1c-1.9-2.5-4.3-4.6-7.1-6.1
		c2.8,1.4,5.4,3.4,7.4,5.9c2,2.5,3.6,5.2,5,8.1c2.6,5.8,4.1,12.1,4.8,18.4c0.4,3.2,0.5,6.3,0.4,9.5c-0.1,3.2-0.4,6.4-1.3,9.6
		c-0.5,1.7-1.2,2.9-1.7,4.4c-0.5,1.5-0.9,2.9-1.1,4.5c-0.2,1.5-0.3,3-0.3,4.6c0,1.5,0.2,3.1,0.6,4.4l-0.6-0.6l12.3,3.3
		c0.5,0.1,0.8,0.6,0.7,1.1c-0.1,0.4-0.4,0.7-0.8,0.7l0,0l-8.7,0.7l0.3-1.9l8.7,3.6c0.5,0.2,0.7,0.8,0.5,1.3c-0.2,0.4-0.6,0.6-1,0.6
		l-8.7-0.4l0.7-1.7l4.7,4l0,0c0.4,0.3,0.4,0.9,0.1,1.3c-0.2,0.2-0.5,0.3-0.7,0.3c-4-0.1-8-1.2-11.4-3.3c-3.4-2.1-6.3-4.9-8.6-8.1
		c-4.6-6.4-7.2-13.9-9.1-21.4c-1.8-7.5-3-15.2-3.6-22.8C129.8,171.6,129.6,163.9,130,156.2z"/>
</g>
<path class="st4" d="M48.7,183.8c0,0-9.3,2.8-8.7,9.7c0,0-7.7-4.2-11.7-2.5L24,180.3V191l-23,2.5l18.7,2.2L3,198l14.7,1.7l-9,5.3
	l15-2.3c0,0,14.5,16.7,23.9,12"/>
<polygon class="st3" points="69.1,138.2 73.3,150 82.8,132.7 "/>
<polygon class="st3" points="85.5,131.6 91,145 96.9,127.6 "/>
<polygon class="st3" points="99,126.6 103,134.3 106.7,124.7 "/>
<polygon class="st3" points="81.3,156.2 81.3,141.6 90.6,149 "/>
<path class="st4" d="M56.3,144.1c0,0,45.3-23.8,74.6-23.1l-49.6,35.2l-28-4.3L56.3,144.1z"/>
<g>
	<path class="st5" d="M175.1,253.3c-0.6-1.6-1.6-3.2-2.6-4.7c-1.1-1.5-2.3-2.9-3.7-4.1c-1.4-1.2-2.9-2.3-4.5-3.2
		c-1.6-0.9-3.4-1.6-5.1-2.1c1.8,0.4,3.7,0.9,5.4,1.7c1.7,0.7,3.4,1.7,4.9,2.9c1.5,1.1,2.9,2.4,4.2,3.9c1.3,1.5,2.4,3,3.3,4.8
		c0.2,0.5,0,1.1-0.4,1.3c-0.5,0.2-1.1,0-1.3-0.4C175.1,253.5,175.1,253.4,175.1,253.3L175.1,253.3z"/>
</g>
<g>
	<path class="st5" d="M54.3,239.3l6.4-5.3l-4.9,6.7c-0.3,0.4-1,0.5-1.4,0.2c-0.4-0.3-0.5-1-0.2-1.4
		C54.2,239.4,54.2,239.3,54.3,239.3z"/>
</g>
<g>
	<path class="st5" d="M80.2,252.2l-7.8-6l8.8,4.3c0.5,0.2,0.7,0.8,0.5,1.3c-0.2,0.5-0.8,0.7-1.3,0.5
		C80.4,252.2,80.3,252.2,80.2,252.2z"/>
</g>
<g>
	<path class="st5" d="M130.2,108.3c0,1,0.1,1.9,0.3,2.9c0.2,0.9,0.5,1.8,0.8,2.7c0.7,1.7,1.6,3.3,2.6,4.9c1,1.6,2.2,3,3.4,4.5
		c0.6,0.7,1.2,1.4,1.9,2.2c0.6,0.7,1.3,1.4,1.9,2.2c-0.9-0.4-1.7-1-2.6-1.5c-0.8-0.6-1.6-1.2-2.3-1.8c-0.7-0.7-1.4-1.4-2.1-2.1
		c-0.6-0.8-1.3-1.5-1.8-2.4c-1.1-1.7-2-3.6-2.4-5.6c-0.1-0.5-0.2-1-0.2-1.5c0-0.5-0.1-1,0-1.5C129.5,110.2,129.7,109.2,130.2,108.3z
		"/>
</g>
<circle class="st6" cx="115.9" cy="25.2" r="7.9"/>
</svg>
