<?xml version="1.0" encoding="utf-8"?>
<!-- Generator: Adobe Illustrator 21.1.0, SVG Export Plug-In . SVG Version: 6.00 Build 0)  -->
<svg version="1.0" id="Layer_2" xmlns="http://www.w3.org/2000/svg" xmlns:xlink="http://www.w3.org/1999/xlink" x="0px" y="0px"
	 viewBox="0 0 600 400" style="enable-background:new 0 0 600 400;" xml:space="preserve">
<style type="text/css">
	.st0{fill:#7F2361;}
	.st1{fill:#413C57;}
	.st2{fill:#BFD7B5;}
	.st3{fill:#F0EFF4;}
	.st4{fill:#F2DDA4;}
	.st5{fill:none;stroke:#DDB68C;stroke-width:2;stroke-linecap:round;stroke-linejoin:round;stroke-miterlimit:10;}
	.st6{fill:none;stroke:#5B1159;stroke-width:2;stroke-linecap:round;stroke-linejoin:round;stroke-miterlimit:10;}
	.st7{fill:none;stroke:#99C199;stroke-width:2;stroke-linecap:round;stroke-linejoin:round;stroke-miterlimit:10;}
	.st8{fill:#5B1159;}
	.st9{fill:none;stroke:#D9D9E2;stroke-width:2;stroke-linecap:round;stroke-linejoin:round;stroke-miterlimit:10;}
	.st10{fill:none;stroke:#2C2942;stroke-width:2;stroke-linecap:round;stroke-linejoin:round;stroke-miterlimit:10;}
	.st11{fill:none;stroke:#0C1C15;stroke-width:2;stroke-linecap:round;stroke-linejoin:round;stroke-miterlimit:10;}
</style>
<path class="st0" d="M416.6,348.4c0,0,14.6-203.2,11.8-215.2c-2.8-12.2-22.2-64.8-114.7-54.6s-124,82.4-108.3,155.4
	c0,0,25,55.3,21.8,94.4l18.7-5.2c0,0,20.2,44.8,90.5,61.3c0,0,16.7,37.9,48.7,55.9c8.1,8.9,5.2,46.8-38.5,57.9l10.2,5h53.5v-74
	c0,0-44.6-40.7,0-56.8L416.6,348.4z"/>
<path class="st0" d="M269.1,351.3c0,0-17.2,33.3-9.8,46.3c7.4,13,56.1,29.1,49.4,81.4c0,11.7-38.3,24.1-38.3,24.1h59.2v-79.6
	c0,0-33.9-23.5-11.1-51.8L269.1,351.3z"/>
<path class="st0" d="M387.1,271.2c0,0-0.6,94.7,25.9,112s60.9,7.2,61.3-16.8c0,0-8.9-6.1-12.6,2c0,0,11.7-20.9,1.3-17.2l-6.8,6.8
	c0,0,8-20,0-16.3c-5,1.7-6.5,7.6-6.5,7.6s4.4-12.6-4.1-7.6c-8.3,5-7.8,16.5-15,22c0,0,0-9.3-11.5-8.7c-4.4,0.2-21.7-1.3-14.2-74.9"
	/>
<path class="st1" d="M246,323c0,0,79.2-34.2,88.5-51.6c0,0,1.9,69.2-45.7,72C276.9,343.2,246,323,246,323z"/>
<path class="st2" d="M283.1,339.5c0,0-9.3-33.1,43.7-49.6C326.8,289.9,320.7,331.7,283.1,339.5z"/>
<path class="st3" d="M253.9,326.6l35.7-16.3l18.5,4.3v-14.4l20.9-13.7c0,0,2.2-13,1.3-18.7c0,0-36.1,33.3-88.5,51.6L253.9,326.6z"/>
<path class="st3" d="M260.6,271.2h73.7c0,0,4.3,33.9-36.8,35.9C279.3,308.4,262.8,288.2,260.6,271.2z"/>
<path class="st0" d="M224.1,291.8c0,0-30.7,55-64.4,12.6c0,0,25.5-0.2,26.8-16.7c1.3-16.5-18.9-27.2-18.9-27.2l8-8.3
	c0,0,12,17,23.1,11.1c3.7-2.8,2.8-24.6-17-25c-6.1,0-49.6,55.3-49.6,55.3s28.3,43.5,56.1,40.9c15.2-1.3,31.5-12.8,40.9-22.8"/>
<path class="st3" d="M175.8,271.2h68.5c0,0,8.3,34.2-29.2,35.9C177.3,309,175.8,271.2,175.8,271.2z"/>
<path class="st4" d="M224.3,249.2c0,0,9.8-2.2,1.9-18S214.5,251.4,224.3,249.2z"/>
<path class="st4" d="M279.5,255.7c-2,1.2-4.7,0.5-6.1-1.4c-2.8-4.1-7.1-12-0.1-16.2C281.9,233.2,287.2,251,279.5,255.7z"/>
<path class="st4" d="M376,113.4l64-43.7l-32,73.8C408.1,143.5,379.7,152.2,376,113.4z"/>
<path class="st4" d="M346.6,88l-23.3-72.4l-25.9,63.1C297.6,78.8,315.9,111.5,346.6,88z"/>
<path class="st4" d="M257.6,95.4l-42-32.9l8.9,61.6C224.5,124.3,239.7,103.7,257.6,95.4z"/>
<path class="st5" d="M252.1,91.7l-42-32.9l8.9,61.6C218.9,120.6,234.1,100,252.1,91.7z"/>
<path class="st6" d="M397.7,92.5c-13-9.8-32-18-60.3-19.1"/>
<path class="st6" d="M409.4,350.8l1.7-6.3c0,0,14.6-203.2,11.8-215.2c-0.7-3.3-2.8-9.8-7.4-17.4"/>
<path class="st6" d="M294.3,76.5c-76.8,17.8-108.8,86.1-94.4,153.4c0,0,25,55.3,21.8,94.4l18.7-5.2c0,0,20.2,44.8,90.5,61.3
	c0,0,16.7,37.9,48.7,55.9c8.1,8.9,5.2,46.8-38.5,57.9l10.2,5h53.5v-74c0,0-39.2-35.7-7.4-53.5"/>
<path class="st6" d="M263.5,347.6c0,0-17.2,33.3-9.8,46.3c7.4,13,56.1,29.1,49.4,81.4c0,11.7-38.3,24.1-38.3,24.1H324v-79.6
	c0,0-29.2-20.2-15.2-45.9"/>
<path class="st7" d="M326.8,289.9c0,0-6.1,41.8-43.7,49.6c0,0-3.3-11.7,5.2-24.6"/>
<g>
	<path class="st8" d="M381.6,267.5c0.6,16.1,1.7,32.4,3.7,48.3c1.1,8,2.4,15.9,4.1,23.9c1.7,7.8,4.1,15.5,7.2,22.9
		c3.3,7.2,7.6,14.1,14.6,17.6c6.8,3.9,14.6,6.1,22.4,6.5c7.8,0.4,15.7-1.1,22.2-5.2c3.3-2,6.1-4.6,8-7.8c2-3.1,1.9-10.2,0.9-10.4
		c-0.9-0.4-2-0.6-3-0.6c-0.9,0-1.7,0.4-2.4,0.9c-0.7,0.6-3.3,2.2-3.8,3.1l-1.7-0.1c1.7-3.1,3.8-8.9,4.9-12.2
		c0.6-1.7,1.1-3.5,0.9-4.6c0-0.2-0.2-0.6-0.2-0.6l0,0c-0.2,0-1.1,0-1.9,0.4l0.7-0.4l-7.4,6.8c-0.7,0.7-2.1-0.9-1.9-1.5
		c1.1-3,1.9-6.4,2.7-9.6c0.4-1.5,0.6-3.1,0.6-4.4c0-0.4-0.2-0.6-0.2-0.7c0-0.2,0,0,0,0c0.2,0-0.6,0-1.1,0.4c0,0,0,0-0.2,0l0,0
		c-1.3,0.4-2.4,1.3-3.3,2.4c-0.4,0.6-0.9,1.1-1.3,1.9c-0.4,0.7-0.7,1.5-0.9,2l-3.1-0.9c0.6-1.5,0.9-3.1,1.1-4.4c0-0.7,0-1.5,0-1.9
		c0-0.2-0.2-0.2,0-0.2c0,0,0,0-0.2,0c-0.4,0-1.1,0.4-1.7,0.6c-0.7,0.4-1.3,0.7-1.9,1.3c-1.1,0.9-2.2,2-3,3.3c-1.7,2.6-3,5.7-4.4,8.9
		c-0.7,1.5-1.5,3.1-2.6,4.6c-1.1,1.5-2.2,3-3.7,4.1c-0.6,0.6-1.5,0.4-1.9-0.2c-0.2-0.2-0.4-0.6-0.4-0.7l0,0c0-1.7-0.7-3.5-1.9-4.6
		c-1.1-1.3-2.8-2.2-4.6-2.4c-0.9-0.2-1.9-0.2-2.8-0.2c-0.9,0-2.2,0-3.3-0.2c-2.2-0.4-4.3-1.7-5.9-3.3c-3-3.3-4.4-7.4-5.7-11.3
		c-1.1-4.1-1.7-8.1-2.2-12.2c-0.7-8.1-0.6-16.5-0.2-24.6c0.4-8.1,1.3-16.3,2.2-24.4c-0.6,8.1-1.1,16.3-1.1,24.4
		c-0.2,8.1,0,16.3,1.1,24.4c0.6,4.1,1.1,8,2.4,11.8c1.1,3.7,2.8,7.6,5.4,10.4c1.3,1.3,3,2.2,4.6,2.6c1.7,0.4,3.9-0.2,6.1,0.4
		c2.2,0.4,4.4,1.5,6.1,3.1c1.7,1.9,2.6,3.9,2.6,6.5l-2.2-1.1c1.1-0.9,2.2-2,3-3.3c0.9-1.3,1.5-2.8,2.2-4.3c1.3-3,2.4-6.3,4.4-9.3
		c0.9-1.5,2.2-3,3.7-4.1c1.5-1.1,3-2.2,5.4-2.6c0.6,0,1.5,0,2.2,0.6c0.7,0.6,1.1,1.3,1.3,1.9c0.4,1.3,0.4,2.2,0.2,3.1
		c-0.2,1.9-3.5,2.6-3.1,1.7s0.9-1.7,1.5-2.4c1.3-1.5,3-2.8,4.8-3.5h-0.2c0.6-0.2,0.9-0.4,1.5-0.6c0.6-0.2,1.3-0.2,2.2,0.2
		c0.9,0.4,1.5,1.1,1.7,1.7c0.2,0.6,0.4,1.3,0.4,1.7c0.2,2-0.2,3.7-0.6,5.6c-0.7,3.3-2.8,6.9-4.1,10l-1.9-1.3l6.8-7.6l0,0
		c0.2-0.2,0.4-0.4,0.6-0.4c1.1-0.4,2-0.7,3.7-0.4c0.7,0.2,1.7,0.7,2.2,1.5s0.7,1.5,0.7,2c0.2,1.3,0,2.4-0.2,3.3
		c-0.2,0.9-0.6,2-0.7,3c-1.3,3.7-6.3,6.1-5,5.2c1.3-0.9,3-1.5,4.4-1.7c1.5,0,3,0.2,4.3,0.7c1.3,0.6,1.6,0.7,2.9,1.4
		c1.9,1.4,0.2,10.6-2.2,14.3c-2.2,3.7-5.6,6.7-9.3,8.9c-7.4,4.4-15.9,5.9-24.2,5.6c-8.3-0.4-16.5-3-23.7-7c-0.9-0.6-1.9-1.1-2.6-1.7
		c-0.9-0.6-1.7-1.3-2.6-2c-1.7-1.5-3.1-3-4.3-4.6c-2.4-3.3-4.4-7-6.1-10.9c-3.1-7.6-5.2-15.5-6.8-23.5c-1.7-8-2.8-15.9-3.7-24.1
		c-0.7-8.1-1.5-16.1-1.7-24.2C381.4,283.8,381.4,275.7,381.6,267.5z"/>
</g>
<g>
	<path class="st8" d="M331.3,248.5c0.6,2.8,0.7,5.6,0.6,8.1c-0.2,2.8-0.7,5.6-1.5,8.1c-0.9,2.6-2,5.4-3.7,7.6
		c-1.5,2.4-3.5,4.4-5.7,6.5c-0.7,0.7-1.9,0.7-2.6,0c-0.7-0.7-0.7-1.9,0-2.6c0,0,0.2,0,0.2-0.2h0.2c2-1.5,4.1-3.1,5.7-5.2
		c1.7-2,3.1-4.3,4.3-6.7c1.1-2.4,1.9-5,2.4-7.6C331.3,254,331.4,251.2,331.3,248.5z"/>
</g>
<path class="st9" d="M252.4,326.6l35.7-16.3l18.5,4.3v-14.4l20.9-13.7c0,0,2.2-13,1.3-18.7c0,0-36.1,33.3-88.5,51.6L252.4,326.6z"/>
<path class="st6" d="M218.6,288.1c0,0-30.7,55-64.4,12.6c0,0,25.5-0.2,26.8-16.7c1.3-16.5-18.9-27.2-18.9-27.2l8-8.3
	c0,0,12,17,23.1,11.1c3.7-2.8,2.8-24.6-17-25c-6.1,0-49.6,55.3-49.6,55.3s28.3,43.5,56.1,40.9c15.2-1.3,29.2-12.8,38.7-22.8"/>
<path class="st10" d="M240.4,319.3c0,0,79.2-34.2,88.5-51.6c0,0,1.9,69.2-45.7,72C271.3,339.5,240.4,319.3,240.4,319.3z"/>
<g>
	<path class="st8" d="M264.5,254.4c2.8,3.3,5.2,6.7,8,9.4c1.5,1.3,3,2.6,4.4,3.5c1.7,1.1,3.5,1.7,5.6,2.6c-2,0.7-4.4,0.7-6.8,0
		c-2.2-0.7-4.3-2-5.9-3.5c-1.7-1.7-3-3.5-3.9-5.6C265,258.8,264.5,256.6,264.5,254.4z"/>
</g>
<path class="st11" d="M170.3,267.5h68.5c0,0,8.3,34.2-29.2,35.9C171.7,305.3,170.3,267.5,170.3,267.5z"/>
<line class="st11" x1="238.7" y1="267.5" x2="255" y2="267.5"/>
<g>
	<path class="st8" d="M237.4,245.5c0.9,2.2,0.9,4.8,0.2,7.4c-0.7,2.4-2.6,4.6-4.8,6.1c-2.2,1.5-4.8,2-7.2,2.4c-1.3,0-2.4,0-3.7-0.2
		c-1.1-0.2-2.4-0.6-3.5-0.9c1.1-0.4,2.2-0.7,3.3-0.9c1.1-0.4,2.2-0.7,3.1-0.9c2-0.7,4.1-1.5,5.7-2.6c1.7-1.1,3.1-2.4,4.1-4.3
		C236,249.9,236.7,247.9,237.4,245.5z"/>
</g>
<g>
	<path class="st8" d="M298.7,219.2c-7.8-4.4-15.2-9.3-22-15l-2.6-2.2l-2.4-2.2c-1.7-1.5-3.3-2.6-5.2-3.9c-3.5-2.4-7.4-4.6-11.3-6.3
		c-3.9-1.9-8-3.3-12.2-4.1c-4.1-0.9-8.5-1.1-12.6-0.6c-8.5,1.1-15.5,7-20.4,14.4c1.7-4.1,4.3-8,7.8-10.9c1.7-1.7,3.7-2.8,5.6-4.1
		c2-1.1,4.3-1.9,6.5-2.4s4.6-0.7,6.8-0.7c2.4,0,4.6,0.2,6.8,0.6c4.4,0.7,8.9,2.4,13,4.3c4.1,2,8,4.3,11.7,6.8
		c1.9,1.3,3.5,2.8,5.4,4.4c1.7,1.7,3.1,3.1,4.8,4.6C285,208.1,291.8,213.7,298.7,219.2z"/>
</g>
<g>
	<path class="st8" d="M278.5,181.7c-5-3.9-10.4-7.4-15.7-10.2c-5.6-2.8-11.3-4.8-17.4-5.6c-5.9-0.9-12-0.2-17.8,1.9
		c-5.7,2-10.9,5.6-15.9,9.6c3.9-5,8.9-9.4,14.8-12.2c3-1.5,6.3-2.2,9.4-2.8c3.3-0.6,6.7-0.4,10,0c6.7,0.9,12.8,3.3,18.3,6.8
		C269.6,172.4,274.6,176.7,278.5,181.7z"/>
</g>
<path class="st6" d="M224.3,250.7c0,0,9.8-2.2,1.9-18S214.3,252.9,224.3,250.7z"/>
<path class="st6" d="M278.3,256.3c-1.6,0.6-3.5-0.1-4.5-1.5c-2.8-3.9-7.8-12.4-0.5-16.7C282.3,233,287.7,252.8,278.3,256.3z"/>
<g>
	<path class="st8" d="M317.8,247.2c2-0.9,4.1-1.1,6.1-1.3c2,0,4.3,0.2,6.3,0.6c2,0.4,4.1,1.3,5.9,2.2c1.9,1.1,3.5,2.4,4.8,4.3
		l-5.9-1.5c-1.9-0.4-3.7-0.9-5.6-1.3C325.7,249.2,321.8,248.5,317.8,247.2z"/>
</g>
<path class="st11" d="M328.9,267.5c0,0,79.2-10.7,88.5-10.7c9.1,0,23.3,11.1,14.6,25.9"/>
<g>
	<path class="st8" d="M332.3,385.4c-1.3-3.1-2.7-6.3-3.2-9.6c-0.6-3.1-0.9-6.5-0.9-9.6c0-6.5,1.5-13,4.4-18.7
		c3-5.7,7.2-10.5,12.2-14.4c5-3.9,10.5-6.8,16.3-9.3c-5.7,2.6-11.1,5.9-15.7,10s-8.7,8.9-11.1,14.6c-2.6,5.6-3.5,11.7-3.3,17.8
		c0.4,5.9,0.4,12.5,2.8,17.7l0,0c0.4,0.9,0.9,2,0.5,2.3c-0.9,0.6-1.4,0.8-1.7-0.3C332.5,386,332.3,385.6,332.3,385.4z"/>
</g>
<path class="st6" d="M126.8,289.9c0,0,8.7,12.4,27.4,10.7l-17.6-22.9"/>
<line class="st6" x1="163.2" y1="299.5" x2="148.6" y2="263.1"/>
<line class="st6" x1="174.7" y1="294.7" x2="157.3" y2="252.9"/>
<path class="st5" d="M370.5,109.7l64-43.7l-32,73.8C402.5,139.8,374.2,148.5,370.5,109.7z"/>
<path class="st5" d="M341.1,84.3L317.8,12l-25.9,63.1C292,75.1,310.4,107.8,341.1,84.3z"/>
<path class="st11" d="M255,267.5h73.7c0,0,4.3,33.9-36.8,35.9C273.7,304.7,257.2,284.5,255,267.5z"/>
<g>
	<path class="st8" d="M444.8,347.2c-0.8,1.8-1.6,3.4-2.6,5c-1,1.6-2,3.1-3.2,4.6c-1.2,1.4-2.5,2.8-3.9,4c-1.4,1.2-3,2.2-4.6,3
		c1.5-1,2.9-2.2,4-3.6c1.2-1.3,2.2-2.8,3.2-4.3c0.9-1.5,1.7-3.1,2.4-4.7c0.7-1.6,1.3-3.3,1.7-4.9l0,0c0.2-0.8,1-1.3,1.8-1.1
		c0.8,0.2,1.3,1,1.1,1.8C444.9,347.1,444.9,347.1,444.8,347.2z"/>
</g>
<g>
	<path class="st8" d="M453.6,350.6c-0.8,1.9-1.6,3.5-2.6,5.2c-1,1.7-2,3.2-3.2,4.7c-1.2,1.5-2.5,2.9-3.9,4.2c-1.4,1.2-3,2.3-4.7,3.2
		c1.5-1.1,2.9-2.3,4.1-3.7c1.2-1.4,2.3-2.9,3.2-4.5c0.9-1.6,1.7-3.2,2.4-4.9c0.7-1.7,1.3-3.4,1.8-5.1l0,0c0.2-0.8,1-1.3,1.8-1.1
		c0.8,0.2,1.3,1,1.1,1.8C453.7,350.4,453.6,350.5,453.6,350.6z"/>
</g>
<g>
	<path class="st8" d="M461.5,356.5c-0.6,1.8-1.4,3.3-2.3,4.9c-0.9,1.5-1.9,3-2.9,4.4c-1.1,1.4-2.3,2.6-3.6,3.7
		c-1.3,1.1-2.8,2-4.3,2.8c1.4-1,2.7-2.1,3.8-3.3c1.1-1.3,2.1-2.6,2.9-4c0.8-1.4,1.6-2.9,2.1-4.5c0.6-1.5,1.1-3.2,1.4-4.6l0-0.1
		c0.2-0.8,1-1.3,1.8-1.2c0.8,0.2,1.3,1,1.2,1.8C461.6,356.4,461.5,356.4,461.5,356.5z"/>
</g>
</svg>
