<?xml version="1.0" encoding="utf-8"?>
<!-- Generator: Adobe Illustrator 21.1.0, SVG Export Plug-In . SVG Version: 6.00 Build 0)  -->
<svg version="1.0" id="Layer_3" xmlns="http://www.w3.org/2000/svg" xmlns:xlink="http://www.w3.org/1999/xlink" x="0px" y="0px"
	 viewBox="0 0 600 400" style="enable-background:new 0 0 600 400;" xml:space="preserve">
<style type="text/css">
	.st0{fill:#A2C4BC;}
	.st1{fill:#413C57;}
	.st2{fill:#F0EFF4;}
	.st3{fill:#D44368;}
	.st4{fill:#E7EFC5;}
	.st5{fill:none;stroke:#87AF9D;stroke-width:2;stroke-linecap:round;stroke-linejoin:round;stroke-miterlimit:10;}
	.st6{fill:none;stroke:#D9D9E2;stroke-width:2;stroke-linecap:round;stroke-linejoin:round;stroke-miterlimit:10;}
	.st7{fill:none;stroke:#AF286F;stroke-width:2;stroke-linecap:round;stroke-linejoin:round;stroke-miterlimit:10;}
	.st8{fill:none;stroke:#D3D19C;stroke-width:2;stroke-linecap:round;stroke-linejoin:round;stroke-miterlimit:10;}
	.st9{fill:none;stroke:#413C57;stroke-width:2;stroke-linecap:round;stroke-linejoin:round;stroke-miterlimit:10;}
	.st10{fill:#87AF9D;}
	.st11{fill:#3C2745;stroke:#0C1C15;stroke-width:2;stroke-linecap:round;stroke-linejoin:round;stroke-miterlimit:10;}
	.st12{fill:#808CC3;stroke:#6D6DB2;stroke-width:2;stroke-linecap:round;stroke-linejoin:round;stroke-miterlimit:10;}
</style>
<path class="st0" d="M245.7,120.6c24.5-3.9,152.6-24.8,205.4,56.9s-11.1,203.6-3.1,302.5c6.9,33.5,11.8,35.2,11.8,35.2
	s45.9,15.9,49.6,33.8l-163.8,14.1l-3.1-27c0,0-47.8,8.5-57.8,4.7l-0.5,22.4L117.9,570c0,0,17.4-45.3,76.4-43.2
	c0,0-53.4-225.6-48.4-272.7C150.9,207,184.3,130.3,245.7,120.6z"/>
<path class="st1" d="M199.1,246.7c0,0,92.5,21.7,118.4,10c26-11.8,75.7-42.8,101.8-44.6c26-1.8-16.1,116.6-45.9,138.4
	c-29.8,21.7-106.7,43.5-133.4,0C213.3,306.9,179.3,264.7,199.1,246.7z"/>
<path class="st2" d="M397.1,319L371,303.2H269.9l-39.6,31.5c0,0-59.4-69.7-31.1-88c0,0,76.6,20.5,118.4,10c0,0,74.2-41.6,101.8-44.6
	C447.2,208.9,397.1,319,397.1,319z"/>
<path class="st3" d="M240.2,350.4c0,0,50.9-30.5,133.4,0C373.6,350.4,273,411.8,240.2,350.4z"/>
<path class="st4" d="M284.2,139.4c-23.5,5.7-63.9,62.1,0,94.3s89.4-50.7,68.8-68.2C332.4,148.1,302.2,135.1,284.2,139.4z"/>
<path class="st5" d="M238.3,116.9c24.5-3.9,152.6-24.8,205.4,56.9s-11.1,203.6-3.1,302.5c6.9,33.5,11.8,35.2,11.8,35.2
	s45.9,15.9,49.6,33.8l-163.8,14.1l-3.1-27c0,0-47.8,8.5-57.8,4.7l-0.5,22.4l-166.3,6.9c0,0,17.4-45.3,76.4-43.2
	c0,0-53.4-225.6-48.4-272.7S176.7,126.6,238.3,116.9z"/>
<polyline class="st6" points="222.8,331.1 262.5,299.5 363.6,299.5 389.7,315.2 "/>
<path class="st7" d="M232.7,346.6c0,0,50.9-30.5,133.4,0"/>
<path class="st8" d="M276.7,135.7c-23.5,5.7-63.9,62.1,0,94.3s89.4-50.7,68.8-68.2S294.7,131.3,276.7,135.7z"/>
<path class="st9" d="M284.2,116.9c0,0,43.5-61.4,76.4-65.1c57.1-6.2,52.7,45.9,73.2,50.3"/>
<path class="st9" d="M253.8,116.9c0,0-39.8-135.2-110.5-108.5C114.8,16.5,106.1,55,106.1,55"/>
<path class="st5" d="M191.7,243.1c0,0,92.5,21.7,118.4,10c26-11.8,75.7-42.8,101.8-44.6c26-1.8-16.1,116.6-45.9,138.4
	c-29.8,21.7-106.7,43.5-133.4,0S171.9,261.1,191.7,243.1z"/>
<g>
	<path class="st10" d="M212.5,519.7c7.4,4.8,15.6,8,24,10.4c4.2,1.3,8.5,2.1,12.8,3.1c2.1,0.3,4.3,0.8,6.5,1.2
		c2.1,0.2,4.3,0.6,6.5,0.8c8.7,1,17.5,1.4,26.2,1.2c8.8-0.2,17.5-1,26.2-1.9c17.4-2.1,34.5-5.9,51.3-10.7c4.2-1.3,8.5-2.5,12.5-3.8
		c4.1-1.4,8.4-2.8,12.4-4.2c4.1-1.5,8.4-3,12.4-4.5c4.1-1.6,8.3-3.2,12.3-4.7c-4,1.8-8,3.5-12.1,5.3c-4.1,1.7-8.1,3.3-12.2,4.9
		s-8.3,3-12.4,4.5c-4.1,1.4-8.4,2.8-12.5,4.1c-16.9,5.1-34.1,9-51.6,11.3c-8.8,1.1-17.6,1.7-26.4,1.8c-8.8,0.1-17.7-0.3-26.5-1.5
		c-2.1-0.2-4.3-0.6-6.5-1.1c-2.1-0.3-4.3-0.8-6.5-1.3c-4.3-1.1-8.6-2-12.8-3.4s-8.4-3-12.3-4.8C219.9,524.5,216,522.4,212.5,519.7z"
		/>
</g>
<circle class="st11" cx="292.1" cy="170.8" r="14"/>
<ellipse transform="matrix(0.7605 -0.6493 0.6493 0.7605 34.5899 310.1732)" class="st12" cx="437.8" cy="108.2" rx="17.7" ry="11"/>
<ellipse transform="matrix(7.864282e-02 -0.9969 0.9969 7.864282e-02 42.4261 150.7232)" class="st12" cx="102.8" cy="52.4" rx="17.7" ry="11"/>
</svg>
