<?xml version="1.0" encoding="utf-8"?>
<!-- Generator: Adobe Illustrator 21.1.0, SVG Export Plug-In . SVG Version: 6.00 Build 0)  -->
<svg version="1.0" xmlns="http://www.w3.org/2000/svg" xmlns:xlink="http://www.w3.org/1999/xlink" x="0px" y="0px"
	 viewBox="0 0 549.1 358.8" style="enable-background:new 0 0 549.1 358.8;" xml:space="preserve">
<style type="text/css">
	.st0{fill:#9B8189;}
	.st1{fill:#A39396;}
	.st2{fill:#70535F;}
	.st3{fill:none;stroke:#9B8189;stroke-width:0.75;stroke-miterlimit:10;}
	.st4{fill:none;stroke:#5E4550;stroke-width:0.75;stroke-miterlimit:10;}
	.st5{fill:none;stroke:#82646F;stroke-width:0.75;stroke-miterlimit:10;}
	.st6{fill:#F0ADB8;}
	.st7{fill:#FFFFFF;}
	.st8{fill:#D9E2DC;}
	.st9{fill:#FCCBD5;}
	.st10{fill:none;stroke:#82646F;stroke-linecap:round;stroke-linejoin:round;stroke-miterlimit:10;}
	.st11{fill:none;stroke:#DD94B0;stroke-linecap:round;stroke-linejoin:round;stroke-miterlimit:10;}
	.st12{fill:none;stroke:#E8B1CB;stroke-linecap:round;stroke-linejoin:round;stroke-miterlimit:10;}
	.st13{fill:none;stroke:#E2CFE0;stroke-linecap:round;stroke-linejoin:round;stroke-miterlimit:10;}
	.st14{fill:none;stroke:#C3CCC2;stroke-linecap:round;stroke-linejoin:round;stroke-miterlimit:10;}
	.st15{fill:#DD94B0;}
</style>
<g id="Fills_1_">
	<polygon class="st0" points="43.4,175.7 127.9,252.8 287.5,303 445.5,248.2 534.6,169.6 545.1,90.6 429.7,61 400.2,84.3 
		299.8,56.7 218.4,67 94.7,102.6 43.4,81.8 20,160.9 	"/>
	<polygon class="st1" points="20,160.9 82.6,312.3 287.5,358.8 493.8,323.5 542.1,194.5 545.1,90.6 534.6,169.6 445.5,248.2 
		287.5,303 127.9,252.8 43.4,175.7 20,160.9 	"/>
	<polygon class="st2" points="97.4,225 127.9,252.8 287.5,303 445.5,248.2 493.8,205.6 446.3,158.2 182.6,166.3 123.1,190.1 	"/>
	<polygon class="st1" points="127.9,252.8 88.6,237 97.4,261.2 281.9,311.4 287.5,303 	"/>
	<polygon class="st1" points="266.3,321.6 454.6,229.8 461.4,252.3 289.3,328.1 	"/>
	<polygon class="st1" points="82.6,312.3 206.3,262.1 227.5,278.9 107.4,317.9 	"/>
	<polygon class="st0" points="382.6,109.3 400.2,84.3 443.3,45.2 452.3,56.5 384.5,120.9 	"/>
	<polygon class="st0" points="122.6,134.9 24.2,146.6 4.9,165.6 116.6,146.6 	"/>
	<polygon class="st0" points="431.9,155.4 534.6,169.6 528.5,150.6 435.7,145.4 	"/>
	<polygon class="st0" points="272.1,126.3 208.1,52 192.2,69.2 260.7,141.6 	"/>
	<polygon class="st0" points="32.8,73.6 117.3,118.5 107.1,136.7 38.5,98.4 	"/>
	<polygon class="st0" points="397.7,109.3 524,130.5 502.1,140.1 399.6,120.9 	"/>
	<polygon class="st1" points="302.4,339.3 490,290 490,314.6 296.4,350.4 	"/>
	<polygon class="st1" points="379.6,328.1 225.7,303 227.5,317.9 371.6,336.5 	"/>
	<polygon class="st1" points="502.1,242.9 549.1,186.1 549.1,203.8 498.3,268.9 	"/>
	<polygon class="st1" points="109.8,290 41.1,229.8 41.1,246.3 93.2,298.4 	"/>
	<polygon class="st1" points="129.4,280.7 208.1,350.4 184.8,350.4 122.6,286.3 	"/>
	<polygon class="st0" points="413.8,155.4 466.6,45.2 477.2,52 425.1,154.5 	"/>
	<polygon class="st0" points="79.6,196.6 103,84.6 117.3,85.2 88.6,203.5 	"/>
</g>
<g id="Lines_1_">
	<polygon class="st3" points="39.6,172.9 124.1,250 283.7,300.2 441.7,245.4 530.8,166.8 541.3,87.8 425.9,58.3 396.4,81.5 
		296,53.9 214.6,64.3 90.9,99.8 39.6,79 16.2,158.1 	"/>
	<polyline class="st4" points="490.1,202.8 442.5,155.4 178.8,163.5 119.3,187.3 93.7,222.2 	"/>
	<polyline class="st3" points="541.3,87.8 538.3,191.7 490.1,320.7 283.7,356 78.8,309.5 16.2,158.1 	"/>
	<polygon class="st3" points="124.1,250 84.9,234.2 93.7,258.4 278.1,308.6 283.7,300.2 	"/>
	<polygon class="st3" points="262.5,318.8 450.8,227 457.6,249.5 285.6,325.3 	"/>
	<polygon class="st3" points="78.8,309.5 202.5,259.3 223.7,276.1 103.6,315.1 	"/>
	<polygon class="st5" points="378.8,106.5 396.4,81.5 439.5,42.4 448.5,53.8 380.8,118.1 	"/>
	<polygon class="st5" points="118.8,132.1 20.4,143.9 1.1,162.8 112.8,143.9 	"/>
	<polygon class="st5" points="428.2,152.7 530.8,166.8 524.7,147.8 431.9,142.6 	"/>
	<polygon class="st5" points="268.3,123.5 204.4,49.2 188.5,66.4 256.9,138.8 	"/>
	<polygon class="st5" points="29,70.8 113.5,115.7 103.3,133.9 34.7,95.6 	"/>
	<polygon class="st5" points="393.9,106.5 520.2,127.7 498.3,137.3 395.9,118.1 	"/>
	<polygon class="st3" points="298.6,336.5 486.3,287.2 486.3,311.8 292.7,347.6 	"/>
	<polygon class="st3" points="375.8,325.3 221.9,300.2 223.7,315.1 367.8,333.7 	"/>
	<polygon class="st3" points="498.3,240.1 545.3,183.3 545.3,201 494.6,266.1 	"/>
	<polygon class="st3" points="106,287.2 37.3,227 37.3,243.5 89.4,295.6 	"/>
	<polygon class="st3" points="125.6,277.9 204.4,347.6 181,347.6 118.8,283.5 	"/>
	<polygon class="st5" points="410.1,152.7 462.9,42.4 473.4,49.2 421.4,151.7 	"/>
	<polygon class="st5" points="75.8,193.8 99.2,81.8 113.5,82.4 84.9,200.8 	"/>
</g>
<g id="Fills">
	<polygon class="st0" points="291.4,17 309.7,22.8 304.1,33.4 	"/>
	<polygon class="st0" points="291.4,17 309.7,22.8 304.1,33.4 	"/>
	<polygon class="st2" points="199.9,163 224.5,150.2 250.5,185.5 	"/>
	<path class="st6" d="M269.7,226.4c25.3,3.7,74.9,2.1,86.4-51.1c4.3-30.6-21.7-74.1-21.7-74.1s38.7-51.9,2.1-71.5s-87.3,1.7-109,66
		S214.3,218.3,269.7,226.4z"/>
	<path class="st7" d="M309.7,22.8c0,0,26-16.8,38.3-20.3c0,0,4.3,29.2,0.4,38.2C348.4,40.7,318.6,40.9,309.7,22.8z"/>
	<path class="st8" d="M199.9,163l50.6,22.6l41.3-38.7l56.6,19.4l29.4-12.1c0,0,8.5,57-71.9,77.5S199.9,163,199.9,163z"/>
	<path class="st8" d="M228,68l58.6-21.3l23.2,28.9l31.9-9.8l21.7,24.7c0,0,10.7-34.9-6.8-54.9l-46.9,5L291.4,17
		C291.4,17,237.3,31.9,228,68z"/>
	<path class="st9" d="M323.3,47.6c11.2-0.4,11.5,18.7-2.6,18.3S310.1,48,323.3,47.6z"/>
	<path class="st9" d="M352.6,78.4c0,0-0.7-12.5,14-12.5c0,0,1,14-3.2,24.7L352.6,78.4z"/>
	<path class="st9" d="M266.6,27.1c0,0,7.6,15,22.3,7.3c14.8-7.7,2.4-17.5,2.4-17.5L266.6,27.1z"/>
	<path class="st9" d="M236.9,50.3c0,0,7.1,0.8,6.7,12L228,68C228,68,230.6,57.3,236.9,50.3z"/>
	<path class="st9" d="M214.4,193.6c0,0,2.1-13.2,19.1-10.6s9.8,28.1,0,33C233.5,215.9,217.4,198.4,214.4,193.6z"/>
	<path class="st9" d="M243.7,223.5c0,0,12.8-18.4,31.5-12.9c18.7,5.5,17.1,23.4,17.1,23.4S275.7,238.9,243.7,223.5z"/>
	<path class="st9" d="M250.5,185.5c0,0,4.3,3.4,11.5,0c7.2-3.4,4.6-15.1,4.6-15.1L250.5,185.5z"/>
	<path class="st9" d="M276.2,161.4c0,0,19.6,11.8,36.7-7.4l-21.2-7.2L276.2,161.4z"/>
	<path class="st9" d="M288.4,183c6-5.1,14.9-4,20.4,1.5c7.7,7.7,6.9,17.7,0.9,25.1c-7.7,9.6-31.9,2-26-18.9
		C284.5,187.2,286.3,184.7,288.4,183z"/>
	<path class="st9" d="M377.3,167.9c0,0-24.4-1.1-24.7,25.8c0,10.2,4,12.4,4,12.4S376,189.8,377.3,167.9z"/>
	<polygon class="st7" points="276.3,105 285.9,113.3 289.2,97.6 	"/>
	<polygon class="st7" points="239.7,104.2 246.5,98.6 250.3,112.3 	"/>
	<path class="st0" d="M255.9,81.3c1.7,1.6,4.7,0.6,4.7-4.7C260.6,71.2,252.2,77.8,255.9,81.3z"/>
	<path class="st0" d="M285.9,86c-4.1-1-9.5,7-3.1,8.3C289.2,95.6,290.5,87.1,285.9,86z"/>
	<polygon class="st8" points="222.8,240 254.3,243 249,249.8 232.2,247.7 207.5,256.2 	"/>
	<polygon class="st8" points="282.9,245.8 318.6,257.3 303.7,270.1 303.7,257.9 296.2,261.5 279.4,252.2 	"/>
	<polygon class="st8" points="309.7,240 339,231.5 352.6,240 	"/>
	<polygon class="st6" points="226.8,167.9 216.5,177 225.2,175.3 224,182.6 231.5,177 230.9,182.7 237.4,179.7 237.4,185.5 
		244.3,177 	"/>
	<polygon class="st6" points="318.6,153 337.8,158.8 339.5,170.4 333.5,163.4 333.5,170.4 329,161.7 327.3,167.9 323,159.7 
		318.6,166.2 315.6,153 	"/>
	<polygon class="st2" points="377.8,154 354.9,153 356.4,163.3 	"/>
</g>
<g id="Lines">
	<line class="st4" x1="373.8" y1="152" x2="350.9" y2="151"/>
	<line class="st10" x1="287.4" y1="15" x2="305.7" y2="20.8"/>
	<line class="st4" x1="195.9" y1="161" x2="212.5" y2="152.3"/>
	<path class="st11" d="M352.4,161.3c-2.1-28.8-22-62.1-22-62.1s9.2-12.3,14.4-27.2"/>
	<path class="st11" d="M240.3,59.4c-6.6,9.6-12.3,21-16.7,34.3c-9.2,27.2-13,53.4-10.1,75.1"/>
	<path class="st11" d="M305.7,20.7c-4.6-0.1-9.2,0.3-13.8,1.3"/>
	<path class="st12" d="M373.3,165.9c0,0-24.4-1.1-24.7,25.8c0,10.2,4,12.4,4,12.4"/>
	<path class="st12" d="M210.4,191.6c0,0,2.1-13.2,19.1-10.6s9.8,28.1,0,33"/>
	<path class="st12" d="M246.5,183.5c0,0,4.3,3.4,11.5,0c7.2-3.4,4.6-15.1,4.6-15.1"/>
	<path class="st12" d="M348.6,76.4c0,0-0.7-12.5,14-12.5"/>
	<path class="st12" d="M232.9,48.3c0,0,7.1,0.8,6.7,12"/>
	<path class="st12" d="M239.7,221.5c0,0,12.8-18.4,31.5-12.9c18.7,5.5,17.1,23.4,17.1,23.4"/>
	<path class="st12" d="M272.2,159.4c0,0,19.6,11.8,36.7-7.4"/>
	<path class="st12" d="M262.6,25.1c0,0,7.6,15,22.3,7.3c14.8-7.7,2.4-17.5,2.4-17.5"/>
	<path class="st13" d="M328.4,36.5c-8.6-2.2-18.2-6.7-22.7-15.8c0,0,26-16.8,38.3-20.3c0,0,3.3,22.3,1.5,34"/>
	<path class="st14" d="M334.3,160.7l10.1,3.4l29.4-12.1c0,0,8.5,57-71.9,77.5s-106-68.5-106-68.5l21.6,9.6"/>
	<polyline class="st14" points="236.9,179.2 246.5,183.5 287.8,144.8 311.6,152.9 	"/>
	<path class="st14" d="M224,66l58.6-21.3l23.2,28.9l31.9-9.8l21.7,24.7c0,0,10.7-34.9-6.8-54.9l-46.9,5L287.4,15
		C287.4,15,233.3,29.9,224,66z"/>
	<path class="st12" d="M319.3,45.6c11.2-0.4,11.5,18.7-2.6,18.3S306.1,46,319.3,45.6z"/>
	<path class="st12" d="M284.4,181c6-5.1,14.9-4,20.4,1.5c7.7,7.7,6.9,17.7,0.9,25.1c-7.7,9.6-31.9,2-26-18.9
		C280.5,185.2,282.3,182.7,284.4,181z"/>
	<polygon class="st13" points="275.4,105 284.9,113.3 288.3,97.6 	"/>
	<polygon class="st13" points="239.7,105.2 246.5,99.7 250.3,113.3 	"/>
	<polyline class="st14" points="344.4,164.2 329.5,180.6 344.4,183.5 314.6,211.7 	"/>
	<polyline class="st11" points="228.2,105.2 239.7,105.2 254.8,116.7 314.6,82.6 	"/>
	<g>
		<path class="st15" d="M305.7,80.5c1.7-0.4,3.6-0.2,5.3,0.4c1.7,0.6,3.3,1.6,4.6,2.9c1.3,1.3,2.3,2.8,3.2,4.4
			c0.4,0.8,0.7,1.7,1.1,2.5c0.2,0.9,0.5,1.7,0.7,2.6c-0.4-0.8-0.8-1.6-1.2-2.4c-0.4-0.8-0.8-1.5-1.3-2.3c-0.5-0.7-0.9-1.5-1.5-2.1
			l-0.8-1l-0.9-0.9c-1.2-1.2-2.6-2.2-4.2-2.9C309.2,81,307.5,80.5,305.7,80.5z"/>
	</g>
	<path class="st10" d="M254.8,82c1.7,1.6,4.7,0.6,4.7-4.7C259.5,72,251,78.5,254.8,82z"/>
	<path class="st10" d="M284.9,85c-4.1-1-9.5,7-3.1,8.3C288.2,94.6,289.5,86.1,284.9,85z"/>
	<polygon class="st14" points="218.8,238 250.3,241 245,247.8 228.2,245.7 203.5,254.2 	"/>
	<polygon class="st14" points="278.9,243.8 314.6,255.3 299.7,268.1 299.7,255.9 292.2,259.5 275.4,250.2 	"/>
	<polygon class="st14" points="305.7,238 335,229.5 348.6,238 	"/>
	<polygon class="st11" points="222.8,165.9 212.5,175 221.2,173.3 220,180.6 227.5,175 226.9,180.7 233.4,177.7 233.4,183.5 
		240.3,175 	"/>
	<polygon class="st11" points="314.6,151 333.8,156.8 335.5,168.4 329.5,161.4 329.5,168.4 325,159.7 323.3,165.9 319,157.7 
		314.6,164.2 311.6,151 	"/>
	<g>
		<path class="st15" d="M330.7,99.6c-1,0.8-1.9,1.5-3,2.1c-1,0.6-2.1,1.2-3.2,1.7c-1.1,0.5-2.2,0.9-3.4,1.2
			c-1.2,0.4-2.3,0.6-3.5,0.8c1.2-0.3,2.3-0.6,3.4-1.1c1.1-0.4,2.2-0.9,3.3-1.4c1.1-0.5,2.1-1.2,3-1.8c1-0.7,1.9-1.4,2.7-2.2l0,0
			c0.2-0.2,0.5-0.2,0.7,0C330.9,99.1,330.9,99.4,330.7,99.6C330.7,99.6,330.7,99.6,330.7,99.6z"/>
	</g>
	<g>
		<path class="st15" d="M232.8,99.7c-1.5,1.9-2.7,4-3.4,6.2c-0.3,1.1-0.5,2.3-0.5,3.4c-0.1,1.2,0.1,2.3,0.3,3.6
			c-0.6-1.1-1-2.3-1.1-3.5c-0.1-0.6,0-1.3,0-1.9c0.1-0.6,0.2-1.3,0.4-1.9c0.4-1.2,0.9-2.4,1.7-3.4
			C230.9,101.2,231.8,100.3,232.8,99.7z"/>
	</g>
</g>
</svg>
